<mxfile host="app.diagrams.net" modified="2021-02-01T14:26:52.813Z" agent="5.0 (X11; Linux x86_64) AppleWebKit/537.36 (KHTML, like Gecko) Chrome/88.0.4324.96 Safari/537.36" etag="JDQq_qQCSTPULwhygSFW" version="14.2.9" type="github">
  <diagram id="xbnxi7u_yc3S8dmFcwFy" name="Page-1">
    <mxGraphModel dx="1050" dy="1137" grid="1" gridSize="10" guides="1" tooltips="1" connect="1" arrows="1" fold="1" page="1" pageScale="1" pageWidth="1169" pageHeight="827" math="0" shadow="0">
      <root>
        <mxCell id="0" />
        <mxCell id="1" parent="0" />
        <mxCell id="tFHFQbnFNSWmSSy7VT7S-11" value="" style="group" parent="1" vertex="1" connectable="0">
          <mxGeometry x="230" y="580" width="140" height="142" as="geometry" />
        </mxCell>
        <UserObject label="" id="tFHFQbnFNSWmSSy7VT7S-3">
          <mxCell style="shape=image;verticalLabelPosition=bottom;labelBackgroundColor=#ffffff;verticalAlign=top;aspect=fixed;imageAspect=0;image=data:image/png,iVBORw0KGgoAAAANSUhEUgAAAgAAAAIACAYAAAD0eNT6AAAACXBIWXMAAByEAAAchAGF6bGLAAASOElEQVR4nO3de8z393zH8U8dWkMR1CFhWqqpTmOOiQmCoXXmj4YsxibYEhQtmzh01P4Qh/UPfyBl8weabqIltFaUSsUqIosGQ1qE0BRxmNI6dO+v72X37vW+796H6/d7f3/X6/FIXpGJpO907XU97+v6/X7fmw12msNqx9RO2PrPaXev3al2h9rta7esHVE7vHaTnjOBBfhd7bratbVraj+u/bB2de07tW/Vrqh9tXZl7fqWK1mJm3UfwCG7W+1hW3tQ7cTarVsvAjbF9AeAW2zttrW77uN/+/Pa5bUv1C7d2vdWfSCrIwA2z/Qn90fXTq6dVLt37zlAiCNrD93aS7b+u6/XLqhdWLt4zD9JYEMIgM1w8zF/wz+l9pQx/4sI0O24rZ1a+1nt/Nq5tY/Xft14F/tBACzb9C/W82vPqR3VfAvAvtym9uytXVV7b+3s2jc6j2LvBMAyPbZ2Wu3x3YcAHIQ7115Ze8WYfxrwltonWy/iBgTAckyv3n967XW1+zXfArAdpq9rJ23tS7U31M7rPIhdBMAyPKH2xtr9uw8BWJHp69uHal+svXrMPxmgkQDo9Se1fxrzj/wBEjxwzO8amN498PLa13rPySUAetyqdmbtxcP/D4BM0zubpj/8nFU7Y8wfRMQa+eazfo+rvbN2dPMdAN2m70Gn155Re2HtE73nZBEA6/NHtbfV/qb7EICFuWftotrbx/zOgV/1npNBAKzH9Kr+c2rHdx8CsGAvqj2q9qzal5tv2fEEwOr9Ze0dY/4JAAD7Nr04+vNj/hC09zffsqMJgNW56Zhf3PKi5jsANs30xNL31R485tcI/Lb3nJ1JAKzG9DS+6fOwT+4+BGCDvbR2bO2ZtV/0nrLzCIDtNz1O82O1P22+A2AneFLtkjF/YNpVzbfsKAJge/3xmD/v+tjuQwB2kAeMOQIeU/tu8y07hgDYPveqfWrMEQDA9pqejvrZMUfAFc237AgCYHtM3/R98wdYraPH/FPWhw8/CThkAuDQTb/zn/6B9M0fYPWOHvPX3EcMrwk4JALg0Bw55gda+J0/wPpMvw74aO2Rw7sDDpoAOHjT37vprX736z4EIND0VMHpE1afNnxOwEERAAdveozvSd1HAASb3iL45jE/VpgDJAAOzvTxvj7hD6Dfy2qXjfmnARwAAXDgph/5v6P7CAD+17trl2+N/SQADsz0QJ9zhgf7ACzJ9OyAD4z52QEeJbyfBMCBeevwSF+AJbpv7U21U7sP2RQCYP89rva33UcAsFcvrp0/5g9m40YIgP1zq9o7u48AYJ8Oq72rdmLtl823LJ4A2D9njvnTpwBYtum5LGfU/r77kKUTADfuhDH/WAmAzTB9LsB7al/vPmTJBMCNmz7wx98ngM1x89rbxvxBQeyFb2z79oQxv/gPgM3yxNpjaxd1H7JUAmDvpheTvLH7CAAO2j8OAbBXAmDvnl67f/cRABy06YOBnlz7SPchSyQA9u513QcAcMimdwQIgD0QAHs2/d7IY34BNt/02OBH1S7uPmRpBMCendZ9AADb5vQhAG5AANzQcbXHdx8BwLY5uXZs7ZvdhyyJALih53cfAMC2mt7V9bzaq7oPWRIBsLvpwyOe030EANvuubXX1n7TfMdiCIDdTT8mOqr7CAC23V3G/MFuH+s+ZCkEwO5O6T4AgJWZvsYLgC0CYJdb1J7SfQQAK/PU2uG167oPWQIBsMv0PtEju48AYGVuV3vk8PHAvycAdjm5+wAAVm76Wi8AhgD4v07qPgCAlZsC4OXdRyyBAJjdrXbv7iMAWLnjx/yOgB90H9JNAMwe1n0AAGszfc3/YPcR3QTATAAA5BAAQwD8wYO6DwBgbR7SfcASCID5M6JP7D4CgLW5b/cBSyAAxjimduvuIwBYm9vW7lH7dvchnQTAGCd0HwDA2t1nCIB4x3QfAMDaxX/tFwD+IQBIFP+1XwCMcffuAwBYu3t0H9BNAIxxp+4DAFi7o7oP6CYAxrhD9wEArN0duw/oJgDGuH33AQCsXfwf/gTAGLfsPgCAtYv/2i8Axjii+wAA1u7w7gO6CQD/EAAkiv/DnwAY4ybNf/3Dmv/6AF2ub/xr37Txr70IAgAAAgkAAAgkAAAgkAAAgEACAAACCQAACCQAACCQAACAQAIAAAIJAAAIJAAAIJAAAIBAAgAAAgkAAAgkAAAgkAAAgEACAAACCQAACCQAACCQAACAQAIAAAIJAAAIJAAAIJAAAIBAAgAAAgkAAAgkAAAgkAAAgEACAAACCQAACCQAACCQAACAQAIAAAIJAAAIJAAAIJAAAIBAAgAAAgkAAAgkAAAgkAAAgEACAAACCQAACCQAACCQAACAQAIAAAIJAAAIJAAAIJAAAIBAAgAAAgkAAAgkAAAgkAAAgEACAAACCQAACCQAACCQAACAQAIAAAIJAAAIJAAAIJAAAIBAAgAAAgkAAAgkAAAgkAAAgEACAAACCQAACCQAACCQAACAQAIAAAIJAAAIJAAAIJAAAIBAAgAAAgkAAAgkAAAgkAAAgEACAAACCQAACCQAACCQAACAQAIAAAIJAAAIJAAAIJAAAIBAAgAAAgkAAAgkAAAgkAAAgEACAAACCQAACCQAACCQAACAQAIAAAIJAAAIJAAAIJAAAIBAAgAAAgkAAAgkAAAgkAAAgEACAAACCQAACCQAACCQAACAQAIAAAIJAAAIJAAAIJAAAIBAAgAAAgkAAAgkAAAgkAAAgEACAAACCQAACCQAACCQAACAQAIAAAIJAAAIJAAAIJAAAIBAAgAAAgkAAAgkAAAgkAAAgEACAAACCQAACCQAACCQAACAQAIAAAIJAAAIJAAAIJAAAIBAAgAAAgkAAAgkAAAgkAAAgEACAAACCQAACCQAACCQAACAQAIAAAIJAAAIJAAAIJAAAIBAAgAAAgkAAAgkAAAgkAAAgEACAAACCQAACCQAACCQAACAQAIAAAIJAAAIJAAAIJAAAIBAAgAAAgkAAAgkAAAgkAAAgEACAAACCQAACCQAACCQAACAQAIAAAIJAAAIJAAAIJAAAIBAAgAAAgkAAAgkAAAgkAAAgEACAAACCQAACCQAACCQAACAQAIAAAIJAAAIJAAAIJAAAIBAAgAAAgkAAAgkAAAgkAAAgEACAAACCQAACCQAACCQAACAQAIAAAIJAAAIJAAAIJAAAIBAAgAAAgkAAAgkAAAgkAAAgEACAAACCQAACCQAACCQAACAQAIAAAIJAAAIJAAAIJAAAIBAAgAAAgkAAAgkAAAgkAAAgEACAAACCQAACCQAACCQAACAQAIAAAIJAAAIJAAAIJAAAIBAAgAAAgkAAAgkAAAgkAAAgEACAAACCQAACCQAACCQAACAQAIAAAIJAAAIJAAAIJAAAIBAAgAAAgkAAAgkAAAgkAAAgEACAAACCQAACCQAACCQAACAQAIAAAIJAAAIJAAAIJAAAIBAAgAAAgkAAAgkAAAgkAAAgEACAAACCQAACCQAACCQAACAQAIAAAIJAAAIJAAAIJAAAIBAAgAAAgkAAAgkAAAgkAAAgEACAAACCQAACCQAACCQAACAQAIAAAIJAAAIJAAAIJAAAIBAAgAAAgkAAAgkAAAgkAAAgEACAAACCQAACCQAACCQAACAQAIAAAIJAAAIJAAAIJAAAIBAAgAAAgkAAAgkAAAgkAAAgEACAAACCQAACCQAACCQAACAQAIAAAIJAAAIJAAAIJAAAIBAAgAAAgkAAAgkAAAgkAAAgEACAAACCQAACCQAACCQAACAQAIAAAIJAAAIJAAAIJAAAIBAAgAAAgkAAAgkAAAgkAAAgEACAAACCQAACCQAACCQAACAQAIAAAIJAAAIJAAAIJAAAIBAAgAAAgkAAAgkAAAgkAAAgEACAAACCQAACCQAACCQAACAQAIAAAIJAAAIJAAAIJAAAIBAAgAAAgkAAAgkAAAgkAAAgEACAAACCQAACCQAACCQAACAQAIAAAIJAAAIJAAAIJAAAIBAAgAAAgkAAAgkAAAgkAAAgEACAAACCQAACCQAACCQAACAQAIAAAIJAAAIJAAAIJAAAIBAAgAAAgkAAAgkAAAgkADod333AQDkEQAAEEgAAEAgAQAAgQQAAAQSAAAQSAAAQCABAACBBAAABBIAABBIAABAIAEAAIEEAAAEEgAAEEgAAEAgAQAAgQQAAAQSAAAQSAAAQCABAACBBAAABBIAABBIAABAIAEAAIEEAAAEEgAAEEgAAEAgAQAAgQQAAAQSAAAQSAAAQCABAACBBMAYv6vdpPsIANbqt90HdBMAY1xXu0X3EQCs1bXdB3QTAPM/BAIAIIsA6D5gAa6p3bb7CADW6pfdB3QTAGP8uHbX7iMAWKsfdR/QTQCM8cPuAwBYu/iv/QJgjKu7DwBg7eK/9guAMb7TfQAAa/ft7gO6CYAxvtV9AABrd2X3Ad0EwBhXdB8AwNoJgO4DFuCr3QcAsHZf6T6gmwCYK/DntSO7DwFgLX46vP5LAJTra5fXHtp9CABr8eXuA5ZAAMy+MAQAQIrLug9YAgEwu7T2ku4jAFiLS7sPWAIBMPMPA0COz3UfsAQCYPa92tdrx3UfAsBKTa/+/0H3EUsgAHa5YAgAgJ3ugu4DlkIA7HJh7dTuIwBYqQu7D1gKAbDLxbWf1W7TfQgAK/GT2iXdRyyFANjl2tr5tWd3HwLASnyodl33EUshAHZ37hAAADvVud0HLIkA2N3Ha1fV7tx9CADb6vu1T3QfsSQCYHe/rr239sruQwDYVv9S+033EUsiAG7o7Noraod1HwLAtpie+XJ29xFLIwBu6Btj/lXASd2HALAtPlq7ovuIpREAe/aWIQAAdoq3dB+wRAJgzz5Z+1Lt/t2HAHBIpqe9fqb7iCUSAHv3hjG/ZxSAzfX67gOWSgDs3Xm1L9Ye2HwHAAfn82P+/T97IAD27TXDgyMANtVrug9YMgGwbxduzQsCATbLh8f8ei72QgDcuJfV/nz4ewWwKabP+z+t+4il803txn2tdlbt9OY7ANg/09v+vtl9xNIJgP1zRu0ZtXt2HwLAPk0f5nZm9xGbQADsn2tqL6xd1H0IAHs1feTvC2q/6j5kEwiA/Tc9RerttRd1HwLAHp1V+3TzDRtDAByY6SFBj66d0H0IALv5z9qruo/YJALgwEw/VnrmmD9c4pbNtwAw++/as2rXdh+ySQTAgfty7fm193UfAsDv/VXtq91HbBoBcHDeX3tw7aXNdwCkm97y92/dR2wiAXDwps8FOLb2pO5DAEKdV/u77iM2lQA4eL8d8+sBLqk9oPkWgDSX1f6i9rvuQzaVADg0v6g9YcwRcFzzLQAppt/3Tz99vab7kE0mAA7dVbXH1D5bO7r3FIAd78raY2tXdx+y6QTA9vjumCNgevLU0b2nAOxY0zf/6Wvt97oP2QkEwPa5ovbwMUeAXwcAbK/pwWzTk1l9898mAmB7TT8JeETto7UHNt8CsFN8ofbE4cf+20oAbL/pNQGPrJ0zvEUQ4FCdN+ZX+3vB3zYTAKsxvTvgabU3117WewrAxpo+5Gd6n7+3+q2AAFid6XMCXj7mH12dPTw7AGB/TZ/t/9e1f+0+ZCcTAKv3gTE/P2D6z/s23wKwdNNT/aYH+/hs/xUTAOtx+ZifHfCm2otrh/WeA7A419fOGvMjfT3Vbw0EwPpMjxI+tXZ+7V21e/WeA7AY36i9oPbp5juiCID1+1TtxNo/jPkFgjdvvQagz3VjfqHfmWP+QxJrJAB6/HLMr2x9T+2tY35/K0CSD9dOq32z+5BUAqDXf435swIeV3vjmF8nALCT/Uft1WP+1FQaCYBl+PetPbl2xvApgsDOM70l+vVj/qRUFkAALMtHtvao2um1k4d3DACba3pl//QNf/o9/2eab+H/EQDLdPHWjq09r/bc2l06DwI4AN+v/XPt3WN+UBoLJACWbXpxzPSe2NeO+XUCp9SeWrtd400Ae/KT2odq59Y+UftN6zXcKAGwGaZ/kT62tcPH/LChk7d2fONdQLav1C6oXVi7ZMxv62NDCIDNM/0LdtHWpmcN3LX2Z7WH1R4y5s8YuE3bdcBO9dMxf6z5ZbVLa5+r/aD1Ig6JANh80+/aPri1P7hH7T61Y7Y2/d9H1e5Yu8OYH0w0/SThiNpN13kssCjTQ8uu3dr0+SQ/qv2wdnXt27Urtzb9Sf87TTeyIv8DfbZ/x6E74TgAAAAASUVORK5CYII=;" parent="tFHFQbnFNSWmSSy7VT7S-11" vertex="1">
            <mxGeometry width="140" height="140" as="geometry" />
          </mxCell>
        </UserObject>
        <mxCell id="tFHFQbnFNSWmSSy7VT7S-10" value="" style="shape=image;verticalLabelPosition=bottom;labelBackgroundColor=#ffffff;verticalAlign=top;aspect=fixed;imageAspect=0;image=data:image/png,iVBORw0KGgoAAAANSUhEUgAAASwAAAEsCAYAAAB5fY51AAAABHNCSVQICAgIfAhkiAAAIABJREFUeJztnXdgHNW1/7/n3JmV5O5gwDbuRaIkJICKDYTyCAlpj07yUkjy0gMPHiGAcdGiYgOBhBTyCKQ+8tIIIaH8UiGEbmklCCEUW+7GDQOuKrsz957fH7NrZFm2JWulmdm9nz8w2pnd+Wp356tzzz33XILF0oN5z06axR6qmZyZAkxTpMoE7DJzgoBhIjQcJMMgGAagDEJlRFImgBChBEIOAIDEF0GaAAKoA5AuAToJ6BRQO0TaAXQImTTE+Fp0pwBrIP5K46L5phNfXRHqG2GJHBS2AMvQ89XUxMmulnMcLp3kkDMGRFMIOFaExoOIGMIgckTgsiImAgTI/idAcg9kH9tzSLA3tNc/2f8hEO19DmVf02gxRPAg4huQgYiAZDOAlwSyVht/hy9dr6eN99S35r7+bL7eE0s8sIZV4Fz68MTDpowprWGhcwh8JohLiagUgiOUSwkgMAoxyLkQgH0NakihHl9MIhBjj8lpTwxIXhNBu0AyJCZlYP64YfuOx3989hsbw5BsGRqsYRUYC5onf4rJ/RCTeyQI0xzFk4nfMqVcZCSC8AwpDxBn/0XWzDj4/bRv1gmwRsTborX/4OI5634WrlJLPrGGFWOubZo1KUHpLzCXTCGoE4lwDEDMHNzOIhJETkVEEIkFY1gjYgAxEKwRkZQv6TbHMXfWnbjeRmExxRpWzLi2acJ5Zc7If4PgHIDHEHC4cijI/xiJddQ0KFBgYMyA9gUCbAXMNkD+1OXv/ttNczbeT/Y2iA32k4oBC1IzP6KIv0Lgo5TimcSA0QBEuqedLH2AKPgPq+wQ0shqiF6v4X+3sXL1vWHrsxwYa1iRRLCwefqtihPvIOLTlKJSkeIc4g02uSEkEeD7xoPI01q85sbqVdfa2yN62E8kIgjuwYLma652qeQcEFURaDQ7BNE2ihoqiABigtECgewQMf/SxnugsWb11+2wMRrYTyFk/tD2/lFLt6/4MRNXKYenCGBNKgLkzIsIML5Zq2H+aThzXeOJa18OW1sxYw0rJBa1zLiN4Z7tJvg4MUHC3A73ogkxwByUT/ie/EvrzOMN1asuC1tXMWINawi5tnnip8p4xL8T+L0gjODs8MMSH1gRxAgAaTcGj3eZHb+6uWbz3WHrKhasYQ0B85tnfNol5woiPka5VGp8O+SLO0SBeRktnUakTcP7fmPlqjvC1lXoWMMaRBalpt/MlLjQTfBMowEx1qgKjVyuixXgZ8wKbbyHGqpXXRW2rkLFGlbeEdS2zPoxwzmfFY8JlsRYlyoG3krSy04D//76qrZL7S2WX+y7mScue3LscYeVHnYlQ53PDo+zM33FCxFAiqA9eUNIP7C9c9v3vvPu11vD1lUIWMPKA4tSM+9Q5F6kXBpntJ3tswQQZ/NcntlmxP9dXdXKz4atKe5YwxoAtc0z7lLKvUi5PFZ7NqKy9A4RoByC78tOEf+eusoVnw9bU1yxhnUILGyavkAp9zJmNQGwEZWlb+Ra4hgjW3yTuX1x9erGcBXFD2tY/eD6pikXJVRpHYGPJSabTLccErnvjsA875ndVy+p3vhI2JrigjWsPiC4BzekFv4/J6E+IAa22NOSF1gFrVW15z9UV7X8w/Z2PDj2HToItalZPyVSFynFw61RWQaDoADVdBijf1tfveLSsPVEGWtY++HapqMuGqZGNLDio23Bp2WwyRWgaq2Xe2b3oiXVG+8JW1MUsYbVC8mW2b8m4guY2bFRlWUoYUUwxvii9QN11SsuDFtP1LCG1Y35S6delnBKa5XLR9j1fpbQIEApgtZ40/M7GhbXrP1W2JKigjUsAFc8OWHK2NKRP2Dis0Ck7OyfJQpkdwIyIubhnbu3XXbbmVuLfmPZojesBS0TTnVo1L1K8ZFG200cLBFjT1cI81qn7PzCzZWb7g9bUpgUtWHVtsz+P0XOx0G2+NMSbYKiU4I2+tf1lcs/GraesChKw7r26QnvKysZ9W1FXGHERlWWmEBB51PtmxUdeseVt8zZ/IewJQ01RWdYC1PTki6VXEO2rsoSU3J1W77xbmqsXtUQtp6hpKgMq7Zl9p8UO++z+/lZ4g5lN4j1tf/X+qq294atZ6goCsO6InXk29/GY+5Ximdo3zqVpXBgh6B9vXY37brwGydtKvieWxy2gMFmfvO0K99GYx9la1aWAsT4AqXU1JEy6i8Lmqd+NWw9g01BR1i1LbNuJ6gvMbOtrbIUNMQEiNG++D9qqFz5xbD1DBYFa1jJ1vKnHUfNtRXrlmKBKBgi+p5+pq5y+clh6xkMCs6wvto8sXwkj/idUupYOwtoKUZYEbTWL3d17bj45lO3vBi2nnxSUDmsa56a+K6RNPJh5VizshQvRguUo44pKx3zp2uXHnlm2HryScEY1vzU5I8OLx31hHJ4srHJdUuRY3wBK5403B374PVLj/pk2HryRUEMCRelZnxDUeJyYiTsEpshgnr934Mie/5jGQqIARjxfPG+21C16uqw9QyU2BvWouaZdzrK/SwIyppVnqG3ChRzPwPBX28QfAgMCEYAIREhgkCA3MfABIgEzyIiyv4/E0EBUKSyL5g1MBG7pnMwyH58Wmv/x/XVK74QspwBEWvDqk3N/h834XzZzgQODGKAEPQXJ85+wYmg00YAWSFEW8WY3QbSBZiMEf0qAWuM+FuJZeMIZ8SaZ094Zc1venltAfBH+cCIltTyqR78UVownYHpYDqKhI9gZgWoUgBjCZgA0BSnhJFbjSAmeBFB9jO2n/Mhkdvc1U97t9XXrIhtvVZsDSvZWn6vm1AX+mn7De4PgRkFi2iJAO0LxMhmIbwh4r8OQrND5sHak1Y9EebX49bnjj12h5/+FBOfCvBIAKMATHQT7IoBjJGskcGaWD9wEgQv4/9fXWVbLPNasTSsZEv5g8zqQ7YYtA9kh3TMgPbFALJTRHaKyGMa+iUt7a91+l3PfvuUHf8IW+qB+NSjh48fXyqnOc6IaQ47J5Co0wQoI9Bw5VLCaNht1/oIMaC1/7v6qhUXhK2lv8TOsJIt5fcpR51vm+3tn2BYR9khlIgYWSaQf/iSXk7G/7/GORvawtaYD6TlTizQjVe5qrQSwicRUQVlI0ebDzsA2aaA2tf31VUuj1Xf+FgZVrKl/HeJEuc8L22/iT0hDpZnMAM6I5sM9Got5veNVStvCVvbULKgecY8RepDxGqK49DkIA9m81+94ZYw0l3+b+urll8Utpa+EhvDSraUP6gc9SFbY/UWlGuf64sYko0wpjVjOn+yYu3Ox39zyc43w9YXJgLBvKUTzy11Rn4FoOOYaDwrUkbbCZruBEt5vNgMD2NhWLWp8nuVUheK7Q4KINfATQBIlxAe9f2uJxfXrFkSk48zFOY3TbnG5dKTiei9AA176z0scrKlK8boWCTiI/8NTzbP+p5b5n6l2GcDuw/5vIy0GvEeaahaeV3YuuLIwuYZtzrsnqJcngMJZhyLPd/lJAiZrsy366tX/nfYWg5EpA2rtmXWXa7jfr6Y+1gRA8oheBmzBWKeT/udl90099Wi3+4pH9wDwYupWb8hdk51XB4flHiErSo8lEPwvMyd9VUrvxS2lv0RWcNa2DTjm66TuAKAKsacAzMFtUaQjQb+z3d1vfm/t526raBW3keFLy4dN3u8M/YrAP0Hg48gRVSMw0UiwAi0NplvNVav+lrYenojkoY1v2nCxxJq9E+KcW0gKwIx4HuyWkz63vrq1deGramYWNg8Y4mrEhewQxWiswWqRUR289ZMl7RfelPV+l+HracnkTOsa5vGVw5TYx4lxohiMivi4KMwxrzg68xdi2tW3x6ypKJmftO0S11Vcq1y+DgxxVWUGiyYRvtub8dpt8zd9GzYeroTKcO66plJs0Ylhv9NMU8ulpCcGMESEzHrfOPf1Fi96o6wNVne4vqmqZ9NqNKFBJqWjT6KgmwTwHW7Onef/c13b1wetp4ckTKsZEv5i8pRxxZDrRVREFUZbV7zjf/LxojPzhQ7C5unf11x4lKl+Mg9hagFTnZHnhfrKpe/PWwtOSJjWMnW8qcVq7kFH1kRoBRB+9LhG//njTFv91Fs1KZm/1Cx+gQrKtFFsDyMFUEb81TdSctODVsLEJGOo7UtM//HcQrfrJgJBGjf8/8upnOmNav4UV/V9rmdYib5nn4YgM8qMn/zBwWjBY7Dp9S2zIpETjX0d3t+09SrSpyyW1DA5Qu5li6iZXMaHTfcWLX+zrA1WQbOdc9M/nRpYlg9E08u5N3EiQCI6LTuumZJzdrbQtUS5sWvbhp/7Eg15jFiGleoszCsCKJFNPS99ZVtl4Stx5J/FqVm/4ZJXagKuH6LmGBE3ti1Y/NZ3/y37c+HpSPUIeEIZ/RD7BSmWREFlcNam9UJ0bOsWRUuDVVtFx9X+TJrbdrYoVxL4oJCjEApOmzUyCPvC1NHaG9tbWr2XxzXObsQZwRZEYyRLjH6vrqqto+HrccydNSmZt3N5HyEFSUKMdpSDsH3/L/UVbW9L4zrhxJhLUxNSzqqQM3KIRhtNqZl9+XWrIqP+qoVl/p+51e1MVvYKbxQS/sCVs57FzXPXBjG9Yf8Hb2macJ7R6hR94FoeCElKXO7y2jjL62rbJsbth5L+CRT5Y+zUu8utIR8tqNrR6e346Kb527+41Bee8gjrOFq5HdJcUGZFSuCAF2en77VmpUlR13V8tO0Ti82kM5CKn8QAVjxsDJ39DeH+tpDali1qdm/YKXKC2lsH+SrzOau9O7/bKhedU3YeizRor5q1UJP7/q09uWNQjItowWs+OhkavbPh/K6Q/YOXpca//5hPOYPhbQtU7BlknmhrnLZ8WFrsUQdQbLl6OfcBL/LzxTIDZBNg6TR/p4lJ657ZCguOSQR1mWPjJ9ayqN/Egx+h+KKgwtl9/Xz0v4D1qwsfYNQV7nshHSXdw9RgZQ+ZO9lV8p+/l+Pvm3SUFxySAxr3OhRd+YWjcadbHcFz/Mzd9VVtZ0bth5LvGioXvER7WfuMAJNkVgYNzCC+iw+cuyIcT8eiusN+ls2v3nalQQ+uxDyVrnmZj68+obqlV8MW48lntTXrPyKwFsiBplcH7Q4Y7SAmc+av3T61YN9rUE3LFeVLiAmjvtQMNuyuN3zd1zSULmyMWw9lnhTX7myNm12XihidsY+GS8AETjhlAx6bdagGlYyNfteR9HhcR8KZvtW7czozurFczbdH7YeS2FwY/XGh0SrCq3NtrhHWmIA5dCY2lT5Q4N5nUEzrPnNEy8h5nN1zIeC2bKFLZ3+7nNvrFn3Uth6LIVFXfVLmzPerg8bI1vjHmlpLVDM58xrmvQfg3WNQTMsl0c0MLMT56EgOwStZdNOr/3Um+du+HvYeiyFyY1zNz7Vkd75Xq1lU6yX8whATKpEDbthsC4xKO9ObfOsux3X/WScE+25gtAbTnplQgTahlmKAsENLUdvYMUT437vaO3/tK6y7TN5f+18v6BIMsGsLoxz3oqYINps7fTfPMealWXoILSnO07T2myJc04ruPf5YhmE4VXeDSvZ+osHWPGwuK4VDBrume27ZcfFN9dsDa1RmaU4ueWU9Ss70jsvNsbsiGtOSwRQiocnU+V/yPdr59Ww5jVNuTjhOu+LazhLDGitd0sax91StfmxsPVYipNbTtn0RAZdc4yW3XEtLjVa4Cac9y9YOjmvxdV5fTtKVGmdiem+bUQADLyM7P543anLNoatx1Lc3Fi59pWM7L4kKC4NW82hIQZwnLIl+XzNvL0VC1Izapn4mDhGV9kljr6Gf+uNVRsfCFuPxQIAS6pe/aMv6XoY8eK49tBoARMfu7B52qJ8vWbeDMsh9yvxzU8TtNE/rK9cMT9sJRZLdxqrVi/2xf9RbFdLE6C49Mv5erm8GFZtatYPmenIOG7j7SQIWvu/bahqy9ubarHkk4aqlV822vu9k4ifaYkBmDFhUcvMvGxtlxfDInIuysfrDDWsCF5a/6u+ui2W+i3FQ13VivO9jPlnXGcOGc5H8vM6A2RRatYP3ASNjlt0xcF28W9kXtp9RthaLJa+UFe57J3GmM1xMy0xgJvg0QtTM78/0NcakGFd/uSYdzrsnK+9eCXaiQCjpcszu6+48VMb3whbj8XSVzq9XVcZbbriltLSnsAh98IrHh379oG8zoAM67CSw65ghw6LW5EoEUGLd+uSmld/EbYWi6U/3Dxn46+08W6nmDmWCKBcGjd2xGFXDuR1BmBYAiL33+NWxsAOQRv9TEPVyrxNtVosQ0lD9aprtPGfjttCaaMFIHXeQPqkH7Jh1aZm/zTYZv6Qrz3kBIsyzZa6yuUnh63FYhkIdZVtp2hfNsQpnxX0zOJxydSsHx3qaxyyYRE550mMoqts3irj+522W6ilIMhgd9IYiVU+S4wA7B7ycp1DMqyFzTNuVYpGxyl3RYpgxP/14pp1t4etxWLJBzdWvvojMd59sYuymA5b0Dqt9lCef0iGpdg9L05mxYpgfLOivmrFpWFrsVjySV3Vyo/7nlkZJ9MCAFdKDqkuq9+GtbB52ufdBM+MTb+rYCiI02eOrwpbisUyGNww5rIKMaLjMjQ0WqASfOyC1PRP9ve5/TYsxe7lRvf3WeFBRNDw7ztz7GPbw9ZisQwGNPsKrY2+J05reUUDDtz/7u/z+mVY1zeP/xRBlcclusq2Od7QULniwrC1WCyDSX1V28eMkQ0ck06lYgTMfMx1TeP7labpl2El1MgLlEOlschfEWB843tex6DvlWaxRIGMTjeIiI5DpCUCsENlZWrU+f15Xv+GhMJnxaVQVCmCkHl8ydz1Pw1bi8UyFNxYs+ZOY/QTKiYJeOMLBHR2f57TZ8OqbZ5xOxMNj0N0la25Svtep50VtBQXRBcbX9rjkIAXAZho+MLU9O/09Tl9Nixm98y47ORBTNCif7F47qsbwtZisQwldZXLX9fG/0Wc7lVFJWf0+fy+nNSYevtkKdHrdCb64RUxYIxsqatcNj5sLRZLWNzQUrGFmI6Iw9I55RImTBt92OdGL33zYOf2KcJKI307YvCLA0GYKcjcHbYOiyVMjHg/j82u6wKsXf56n9YXHtSw5J57oIjfZWJQykBMEDFr6ytXXxu2FoslTOqrVn1VRNbEoczBGAGTOqEvXRwOalgLpl57jXJ4ShxCSyLA1+mbwtZhsUSBtM40Rj/MyG0HxlPnN0+7+mDnHtSwXFXy/jjMDDITtDEvLq5ZO+A2rBZLIXBjzeofGWNeiMM6QwHgouScg53XlxzWiXGobCcFaN357bB1WCxRQhvvjjhsxCpaQEyVBzvvgL/KwuZptxKi30aGFcH3ZVlj9bofhK3FYokSjdWr7vC96OeyRAAiGr0oNfXmA513QMNyuOSEOLRhFS1idOZ3YeuwWKKIlvSvRaIedgCkiBilJx7onIMEi3Rq1LuKEgMG8lpD9arrw9ZisUSRxqrV80RkU9SHhqIFIHr3gc7Z769Q2zr5I8qhRNR9WTkEwPwybB0WS5TRxvuFivhoSQRwHCpJtkw9b3/n7NewyJR+OepmRQz4ntm8Kb3Ftj22WA7ANr3tbu2ZLZGPsgQQSey3T9Z+5AuI1eSoD3uZCUbrprtO2bkybC0WS5S5fe62F4yR1qivMRQREHjS/o73aljXLZ14LjPNiHqxKDEw/siyz4Stw2KJA26p/hJHPcIygFI889qlR/x7b8d7lV/qjjwr6qEjK4KX0a1fmfrCtrC1WCxxYOE7Vq73MiYV9UJSUkCpGnVGb8d6tyXB+6Let91ogRH/sbB1WCxxQoz3cNSbcIoGAPWB3o7tY7XXPTlhSmnp6BYmHB7VFBYRICIdN1QuGx62FoslbtS1VnQAVBbp+xvy2qiMOuarc1/aq+XMPhGW6zifI0TXrIBgOCiQP4etw2KJI0bwWJSHhSIAhI54g3Zd2fPYPoalnNLpUa/X0FqMZ7qawtZhscQRT7oe9/0ohyRBfaXjlk3r+XgvOSyuNBGeHSQGILJ5SfXaA645slgsvbOkas2NgGyM8sSaGABCJ/V8vDfJs6Ncf0VMMDAv9LG7s8Vi2QeCEfNclGuyjAiIUNHz8b0Ma0HLtE8REUW5tSoRkPZ33xG2Doslzvhm948iXZMlAEC8qGXqx7o/vJdkFv4Qc3QDRWLA92X9TXM23h+2Foslzry8cfcTOhPtBdFMxDDq3L0e2/sE58ihldQ/iAhi9Dqyw0GLZUD8/vxdbxjo1RTlDQwJYHb22v1qb38lmhbl/JUIYEg/GLYOi6UQ0GJ+H+HbPbuukKZ1f2yPvX7q/x0+ftZR4zZpP8K/AYAbKl+J8J8EiyVe1LUebQSIbN6aHULba28e+bP3bnkN6BZhTT585MlRHs9mZzReCVuHxVJIiMiyKA8LmYEpo0bM3fPzWwfoPVHuzsAK0KKfDVuHxVJIGMjzUZ4tFAM4Lr0n9/MeqST87siOZwnQvvG17vpX2FIslkJC685XtB/dUEUEEEOn535+y1uJy6KacCcAIth1ds2M74StxWIpJKZ0HHE7keyI6qhQRMDEZbmfGQCueGrs2wEaFp6sg0AAAZ1n0mPtYUuxWAqJL57Z+roR2RXtSiEaduWTEyuArGENUyWnAXJERAMsMBOExPa+slgGBXk8qvsWSjCFeXipa84AsoaluOxIx2UV1anNoMLd/0fYOiyWQsRAvxjZCgEB2GXXQckEAHAAwGFnTLiqDgABvid+Bu3rw5ZisRQiaa9jk5JEpPsJOCoxGshGWCI8NarDQQoy7hu7OrwnwtZisRQiu3zzBDHWRzXKCryJpgBZwyKSY6M6sUkgiMjO75755qtha7FYCpE73v3aKiOyPbJrdA0AwbHAnrIGOgKRDbEAkOwMW4bFUsgIzLao+pWIAEQTgLcMK6LBYKBMxNjhoMUymBjTFF0XAHIexQ3/mjWTSSIrlQgYNazk7rB1WCyFjLj0/6JaPAoADOHGZ6dP5a6OrjkAOREdEAJE+NpxL70UtgyLpZBpOKHtMUTUsQJvImd3l3cyg5yZInCjWoPlpyM6G2CxFBQU3GtR9CwBBHAdpWYwCaaxiuboNVAl68LWYbEUCSsiGmSBFTExT2MmVRpVkdn9MDaFrcNiKQYE2BrV3ljBbtA8nAXsRnQ0mGNb2AIsluLA7Apbwf4QAEzsMDMnopq/CsbTuitsGRZLUSDSFckcVhYSLmECottWBoAR44etwWIpBgx0JrLBiwBglLEIDQ9by/4QLRCYrWHrsFiKAsGrRkfVsQCIDGdAhkd1VQ4ADSMbwhZhsRQDRvRaEPwoDguzC6CHMyBliGIcSIAItIFeHbYUi6UoUHoLBBEtfBQQqIwJVBZRvwIAo5jXhqvEYikOxJfNoIgalgBCUsZCVHbws8NBCMJEb4Stw2IpBlyl1gpEIjgiBACwUClDpDSCARYAgETkXSdN2xy2DoulGHipau0qkiiOt4KklQFKmQiR7eUOAOfT37eHrcFiKQZ+E7aAgyHiMAlU2Dr2B0VyNsBiKVwie88JQESKTXYjiigSzeyfxVK4RPqeI3Ei2aXBYrFYeiICYQYiu/TFuqnFMrREdD/V3O7vaRaCDlvL/pBothOzWAqSewCIRPOey4rKsAh0NCVaLJahZHPbCYeHreEgZBhEXVH1KyGiG587elrYOiyWYmB7+xtHUFQ7+AVkmEQ6w1bRG4Jg2Lrb3z4tbC0WSzHQqfG2yKZhCBCQx0LojKhEQMCMxPiwZVgsxYBjnKkQcDQLsQAipJkEnVE1VRBYRB0ZtgyLpRgwoqdFdeVLMFKVnSyg9kiOWgWAwCHwtLClWCzFAIEmAdFd+QLBboZIe9g69gcrAgiTwtZhsRQDBGccqShGLwEC6WAwOsIWsl8IYKhE2DIslmKAiCO7TC9o6ClpFjHpqKawgrE0lYYtw2IpBoi4JIr5qxwC8Rhi/Kj6FQAQY0TYGiyWImFs2AL2R+BRYthAd0R1EwoRgQhFvfrWYikMBBMlomZgtMCIeZONmLVGSyS7SogADJoVtg6LpRhgpsmRdAICjIgH8V9ksFlJBC+SeSwBVAlHtqeYxVJIqEQ0+6MQAAj5YP1PZlATRKKbxxJB47Plp4Utw2IpZBa/MP14RHQ4CABE0IurNjzNjZXrVxpQFANBAMGwMO2ZD4atw2IpZNKd6tII+xUk220qGwNGcuQKIFBGjJqwdVgshQ2dHFkXIAAwnUC2qSdBtiCS63OQbT7vvC1sGRZLIUOKRkY1VUxEIMEaIGtYArxE0cy3QSBgwpjLm0ZPD1uLxVKIXPb0mKkAjY7oloQgAoTMy0DWsIzIusgGWAYQocnDTJlNvFssg0AZJU4JarDCVrIfCBBjNgJ7DMuP9GalToJQooZNCFuHxVKIlDnDJrkJjmRbGQAQDWSQ3gFkDcsznVu0L34ka7GQTbxDHRu2DoulEGFOnBjVhDsFRaPbjfHeGhJ6LI+JYGtUh4XGCIjo9LB1WCwFieA0YyIaXgVdGnZ8fc6WB4CsYd1WveVFQKLbZkYAMI28R94zOmwpFkshccvzM44AqDSqw8GgpkEyueXPb80NiumM6oYZ2TWFo/7Rsvy/w9ZisRQS27u8zxFhZFT9igiAkU25n/cYlhCeiKhfAQBYkXKo9JiwdVgshYTi0rcrh52oRljEgCH/wdzPewxLk/5rVGuxAMAYgMDHh63DYikkiPlEE9m93wPD8jzzSO7nPRa1Zfvup6M6UwAEvbEIsBGWxZJHSKhCIppwJwK8Lum86eS1z+Ue22NYPzzrtS3aN+siG2UJQExYmJp5TdhSLJZCYGFq6vXE0c0DEROIZFn3x/ayJwHWRDXxDgSOq4jPC1uHxVIIMBIfjPDtHjTug7zR/aG9DUu8LVFNvgHBsJChpl98zyi7GNpiGQACAUFNiWpLZAAQLZBswWiOvQxLa/+yur91AAAd00lEQVRBI9HNZIkBVIImzJo6yq4rtFgGwMKlU851EhFtiQzkyq704aXq5u4P72VYi+es+xkgJqpLdIBgtjDBZZ8JW4fFEmeUKrsswsFVUC4Kab/i+BWvdn983xS7YDlHeGArRgDik2yfd4vlUBEw0XFRnR0EgoS7iCzt+fg+hiUwz0Z2phC53qg0cUHzlHlha7FY4siC5inzBDQhssNBBPVXWvTKno/vY02en1mt/eg6LwA4DpGjhtk8lsVyCLg0bK7jRHcYRQRoTzq06WjteWwfw3IT5vuC6HZuAIJNFRk4I2wdFkscEeBsoyMclBAgYnbeWLPpRz0P7WNYdSeu3wiYbZHt8Y5gMbQIlS1MTb8pbC0WS5xY1DLjNmIqi3TCnQggLO/tWK/ZKhHzZ1aDK2qgsCIoSvxb2DoslihxQ2vFXxekppy8v+Ms7ukc4ep2AGAFCPS9vR7r7cGOTPsjUV4QCQTDQjfBVY3/mH1U2FosliiQbK1odkvUe1gSX+7teMNTs2a6peqEKA8HiQA/I7u3db2W6u14r4Z16ymb7hdtVkV5thAIarIyHn4Qtg6LJWxuaK1oUsxV2hMw86zezvFLqF4ibFZAtpwBsvK7p+7ap6QB2I9hAYCBWR/ldYVAUJNFzCde8dTYt4etxWIJi2RLxcOOy9VGS3BPgGclk/ve21r8l6JcFJ7DiP/i/o7t37DIvz3ifgUxgOvykWNK3nZp2FosljC4obX8KTfBZ/mZIHISAdwSHuedM/V9Pc9trFq1eMgF9hNioKFqxcf3d3y/htVYufperaUr6qalfQHD2e8vaLEUKsmWihSzOjlnVjmC/K770X2fQfA90xbVljLEgPHNehwgDDxglkpEniIVzV8uR67yfVFq+s0HO9diKRSSLRWPOQ5X9pZANwaA8NzenidiVkU1CCEmGDHPHOicAxqW72eeMxGvegcAZgJTycVh67BYhoJkqvzvboJP2++KFBEAPOZrS99W0/OQNpmloiNYhUWA0dLV5bX/8UCnHdCwFs9ZdY2I7IiqI+cwRuC4NH1hauplYWuxWAaTZEtFykmo03sOA7sjAiiHDi+hkR/qeWxxzZobBPCidk9TsP/gGzfP3fjTA513kMIFAmBaozrm7Y4YQFHpF8PWYbEMFsmWimeU4krtHTxAIgAOJcp7OyKQtVFbycKKADF/Puh5BzvBh//HiP1uvWK0gJnfcX3T9M+GrcViyTfJloqH3QTP6WvRZ7BbOu+nQYB5KlIrWQgwvuhO3f7kwU49qGE1Vl16a6Q3p+gGAUgod1HYOiyWfJJsqVjavXShTwS7pY9pfPaYqT0Ppf2u5b4XnTwWE8GILP/6nI0/Oei5BzuBUAcD3Rr19UdA8FeFiacuapl5W9haLJZ8kGytaFaKa/plVsjm3YHStJ++tuexUaOH30UkW6IShLADCPxe1w7uc25fTho+Ql0ehwpZAAABipyPhS3DYhkoyVT5o47DVYe69o8VgcndJ481/5hX3hCRNykKNzUBOmO8+sqVtX05vU+Gdd3Ryzb6nnmRI16TBQTJd2Y+YlHLzDvD1mKxHCrJlorH3RJ1Rl8S7PtDtICI3tXrMdEPUgTyWKwIGuaguas95/f1RG3Sf49yD+juiBEouJ9Y8vLRh4WtxWLpL8mWipTj8Lv7OwzsiQjglPC4e3rZ/6Dd63g09BbJBIgWbfz0L/v6lD4bVmP1msuNSHscZgyzdSjD0u36N2FrsVj6Q7K14knlcGW+2pSLEbyQmvmNno9/4+RNfzY63Mk0IsCIvN44Z12fO670T67gEXZi4FgAtBYwqdOub5psa7MssSDZUvGI6/Ip+VxdIgYgcs7q9ZiYjWF2ZGFFEPF/36/n9OfkTn/HfdqL/oJoAIAARKQSapgtc7BEnmRrRbOb4H8b6DCwJ8Fu6Xz4ZU+OPa7nMQP/4bCKG4gA35OtHZt292sNcL8M6+tzN/+vQJbFofIdyJY5MB+VTM3q8xjZYhlqki0VzYq5Kt9mBWQnoRRNHO0MP6PnsYaqVYvC2t8ziK7007f++5bV/Xpefy9kTOb2SFXJHgwREDuXSNt3nLClWCw9yVawH3LpQl8gBhynbJ8ICyCIyOYhz2NR0Baq0+zeJ7d2MPottaF69Q/9jFkRlyhLBGAmrtv+vWVha7FYupNs2bv53mBhNMDg9/d2TCBPDXVRODNBYJbeUrPpiX4/91AuaCTz21jksbIYLVAuz6hNzf5F2FosFiAoXVDOvs33BgURCDA2+UrFxJ6HfD+9MoyNk32d/s6hPO+QDKu+avU8rc22qJT29wWjBUTqgvlLp3whbC2W4ibZUvG443DlUPWaEwEYNMrfmf6vnscMeT8CZPtQBSCsCFrL8sU1aw8pr3zIlmOMuT8uw0IgW5ulqCThDEuGrcVSvNzQWv6om+B3D3VUww6RInd2z8dvrN64XCA7hqrdjNYivu76+aE+/5ANq6F6+WfEN1vjFmWxQxOTLeUHbMNqsQwG2WHgGUMyDOxB0BhA9do2GYI/DcVEGisCyLQtrllTf8ivceiXJxjo++PQxaE7xhcopeYsaplxS9haLMXDDf1ovjcYBGtsaWJvZQwZ6Xx+qJbpaO3/eCDPH1B8tC39xre1L6/HKQEPBMsVGIn/mvfMJLvbjmXQSbZUPOz0o/neYLKodfo+XRF2tO98xhgzqOUNxAStzcrG6lUD2ixmQBK/c8q2fwm8+5QbL8fK5bNKE8NvDatwzlIcJFvKnxmK0oU+QQCJe07Ph//nzB3/MCJbBnOZjpMgaJ0e8KhmwJ5aV7nyi35GtscplwXsaak8/oaWo58PW4ulMAma76k5kTArZJfpkJrQ2x9pgjw2WPcwK0KmyyxvrFkz4JZPeZGojddbB4vIY7TASfDxtalZ/VqAabEcjIE23xsMsnmsadcsnfCBnsfOqFx+5aDM+gfbdxnfdOalP11eDKuheuUXjZhNcSpzyOFnBI5yz7UN/yz5ItlS/thAm+8NFsRAmRpxcs/HzwRBp/W2fI8Kg6af5h+Lq9d+My+vl48XAQAt3nfj0uCvJyICB85nFqamLwhbiyXeBM331GlRGQb2RDQA8AW9HTMirfnc6Z2CNYPptN/+rXy9Zt4Mq7Fq9Y0C83wc2ij3JNgol1yHSmqvWzrh3LD1WOJJvpvvDQYCATONFbl4n8orA2+F5HEIG+w1qJ+5cc6Gn+XtNfP1QgDgof0qCBCF3vb9RQxAjESpM+rn81uPOj5sPZZ4kWwpfzjfzfcGAzEAhI6Y3/T0NT2PMeMOAfLS7y4bXWVAdPHAX+0t8mpYSyo3PKqN/n3ciklziAEU8/CEGfHEtUuPOjNsPZZ4kGypaHYTKhqlC31AucSuM2yf3XTqTlr9TxHZmY+Ag5hgRP+krnL56wN/tbfI+0RmXeWy842W3XErJs1hjIAVjypzRvzy6qcnHB22Hku0SbZUNCs1OM33BgujAQKd0utBkscHGnAwE4wxr9ZXtX1pQC/U22vn+wUBgjb63jjOGOYwRqAUHznCHf03W1hq2R/J1vJBb743GIgIAJre2zGtvZcH9OIEGCPGk67vDeh19sOglIo1VLd9RmvzShwT8DmCHlo0Idly9OarnhxfGbYeS7RIpmY/6brxGQbuRdBuxlnYtO+seLvufGQgy+2UIhgxTy2uXHvTQGX2xqDVp6f93QtFGy+uQ0Mgt1CajxxdOvqP1zwz/vSw9ViiQbKlIqVc55RYmlUWUkRKOe/u+fhtczc/JjDbDqXdTDbRvrsjs/26vIjshUEzrJvmbPitEXN/XLYF2x9GC4h53HBn9O+vbZo1KWw9lnBJtpQPafO9wSIYFappvR/UKT4EZ2BF0OLfdesprw1a+6ZBXQFYV9V2se/J1jjns4BsdweHxwxTzsvzl07+aNh6LOGQbKn4m5tQQ958bzAQI3AUVfSWoxX4/9ffdA4rgu/L8oaqFVfnS2Ov1xnMFwcAX3fUQ0THsTarO0GkhRElzrC7a1tmLAlbj2VoSbZWNDsunxnnYeA+EFDbMmsfg6mvWvtHvx/LdIgArU17h379c/mW2JNBN6zFNetuN6IfjnMCPocYAESuosS1i1pm2bWHRUKypXypYq6K4trAgSAGIKFLej3Wn/1HiWDE/OyWmtf7vQtOfxmSpjCvdbR/XmuzJe5DQyA79geUQ+4XkqnZvwlZjmWQSbaUP+wmVE3cShf6gogA5Bze27DQiF7dl4oeVgRj9PKGqrYvD4LEfa83FBe547SN6z2v45MQieWynZ6IBB+2W+JclGw5+p/y4r7rsizxJ9lS/nScKtj7iwjAhCnzlk7cZycpV3GDmANvZE8EiJZ0XeWyisFTuTdD1nZvyZz1fzVG/yKuy3Z6w88IlKJ33ND1wpbrnpn0sbD1WPJHtvne3EI1KwBBPZZDqkQN38dwFp3Y9rIhHHjFCgHaZG4fyihkSPuE1lW1fVwbs6wQ8lk5jBYoosPK3BE/qk3NaAxbj2XgJFuj13xvsAjysryfGkNZur80TjAUNI/XV6/62uCp6+W6Q3kxAOjo2nmFaNMe54LSnhgjIEKpUiULkqnZS8PWYzl0ki3lj7luNJvvDQZBDzveZyE0AGjtLe8teGImGF9v3vl6x/mDLG/faw/1BW85ZdNfPOPdPFQbNw4VIsGHr1ynJtl69Ovzm6bss8uuJdokWyuao9x8bzAQAAwpvX7ppH0ipbTf/iejZWf3W5UIMCJ+p+780m3nvPrmEEoFEIJhAUBj9aoGY/w/q5hXwfeG8YMhYkINu7U2NfvusPVY+kaypfwpxVxVCEWh/UIActh1VVl1z0O3nLzlIRHZ1T3KIiaI+D+9ec76+4dSZo7Q9rqpq2w7R2uzKu5Ld3ojO0RMuK7zyWSqYuWNqdkzwtZk2T/Z0oWTiyFn1SsCEPOs3o/p53N5LOUStNatdZUrPj+U8roT6uZcu15//YPBdveFZ1oigPYFyuEZGVYra1tn2515IkiytbypkEsX+oLRAsfhE3o75hvvQWaAHYL2ZXld5fJQO5eEaljfeN8br6T99GJjRBdYSmsPRgsEgEPOuTe0HL3h+tTUz4StyRKQbKlIKVbVxWxW3VnUOv0TPR/brXe85GVMu/Fld5e3fX4YuroT+vanS+as+bbA/34hDg33ILlOpjSxhEvvSqZmP3rN0qNmhy2rmEm2zH7QcbkSEkzRF+ofzL4iBoBRn+r5+LdP3v44BK/6JtN405zNvw1B2l6EblgAUF+54nLf008XUn1WbwQ5EnIc1zljhDvyhUXNs38StqZipa6y7cPK08d42rtba/0MgG1OgqAcAnHxGVhQ9a6O6u2Yj13/2Vi96uah1tQbkfpYki3l/1KOOi7uvYb6AlEw46K12WLE+3lD1apBbcthOTCnfw8jTqmccrrLJRcI6HQmHs2KxlHQ8heQPetICxMCSODtyLx+wTdPfv2hsOXsj0gZ1tVPT586IuE+ppSaWiwzNsTIDRnX+ybz9cU1q28PW5MFuPrpcaeVOsPPcrhkFkDvJaIRAEpZEURLQZqXkyB0daXnRSWa6o1IGRYAzHt64gmliVGPE2OEmLDVDB3EBGZA++YVrTu/11CzzhpXhEj+c/YMv0tf7ZA7G6AT3VI6TEyQ+xERFMJ3lRVB+/rJuqrl+7ROjgqRMywAmJea/JESGv6/zCgphC9CfyAmsAK0L8u1Tj/QUL16nw0vLVFAsCg162Zm/gCJehsrmkgcbKEFiWcERgwYkS11Jy0bH7aW/RFJwwKARc0zbmFOXMUEFccPf6CwomySXl7T8H/1mr/j9jvnvN4Wti7Lvlz25NjjRiVGnJZQZcdD6BwCxhBoNDtExsQn+spONHR2ebuuvHHOhh+ELKdXImtYALAoNfMO10l8qVjyWb1BDCiH4HtmsxjTNEzxV647cdnGsHUVAouajnonq+HfAWSUQO57e2VbwyV5uCV+svr0MW2vrZnnqJJyIqpUzJNzx6I+fFQOIeNn7mqoXPnFsLX0RqQNCwAWpWZ9o6TE/arvSVHvaUocrJInBrQnz/s6/URD9Wq7wPoQWNg8vV6pxPvchKrOzUjnJj+0b9aJyHKRTKq+evX8fN0itS0zlhCp0yBqouPQdFA081+sCFrrZ+oql58ctpbeiLxhAcCi5tk/c5T6hABFbVo5WBHECIyRThD+nNEdqUTNuiV18fg4Q2FB05RrHVV2JgFnEFEJMVFvkTtxkEfMGlkGkHUG8qhnOtZ5nvf7W0/Z8q+Barn6mcPfP9wZczoxPghRhwEY77hERmfbFof4Hc+WcXh1VcsS4anYP7H5hidbZv1WOe4FxVCj1VeIsrkuX8QAmwHzQpe/639umrPxforPRzsonPe7kYcdd9To05jK/lMRvwugicohNv0pSSCAKDsJ4gkE2AqY10TM7zv9HU/eMnfrnwauVHB9asr8BJXOgvDJBMwkIkWKKNeyaKghgni686LG6rX3DfnFD0KsvtW1qfJ7S8qcC72uCMXQESEXGRABvi/rxeh1IvqhhupVg7JleFRZmJp5DZM6X4GnqQRNMCa46UUw4MglV+xLnFvcbtZCZL3Rmccb5qxekK/baWHztEWK3ZMBNdVx6Rig2/AxD7/HwQj2GPTur69acd7gXqn/xMqwACDZWv4bpdRFRhd3TutAEAeRQe4vtBCWQXSrp73lzPhVY9WaZWFrzAfScifm68YbXFV2NIPfCeDonGkPRW6o+/sMACLmVTHS5COz1jP6l1+vWd8y8KsIFqZmXMVwPsKkjhRgsuOSkpwRB6fklaAeyzxXV7XsxPy+8sCJnWEBwfCQybmgGMsdDoVcbZfxRYvILoF0gsxjxvjPdXntm9PiP/udU7YNODczmHzhybFTxrolZ7hcdpQi51gCnSagkUw0ihUpYyKQ/8lOjGgtgMFOsLxuRB7x/Y7nd/o7m24/decADUwwb+nEL7jO8NkM9R4imiEiZY7DrpjsEqK8/CIABJkXN7824zcfenNDfl40P8TSsACgNjX77kSJ80nbGqR/EAGgvWYcRQSbBLJNYHbCmCeHlcrP5h2/6oXwVAoWPTf7dNLyQQiqiZy3QTCGiSapBFFwcyLSBZrB+xysXgAB2pPXBLJRxH+ivmrFFfm59QQLm6dcSSg5mdk5Rim8g5iyw8eBGbiTIHR2tl+yuGZdpPbejK1hAUBt06xvOiXuVYW6tmuoIAYIFCSZ+a2bTWcMRGSdAJsAbAOkyxitQWarEWzQ2lvtOrzGFXf7O2ZP2nDe2L9v7+0LdTGAE587etpuf/c0MTSRyTlcgGlMahKDEyAqBXgkAYcDmOWU8B4zyg3rojb931+6579YETJdZivEPK/hrTyrcsq8M+mx7fm4Tm3T9IvBzpeJeDyAWW6C3e6zj329T4I8lv/X+qq29+ZDV76ItWEBwKLmWd9TyvkCEZw4f6GjSi5PE/wQ/CNBOYAWgQZgiCAiwa1A9NbEFmefIwISIiKAIGAQGAJnTw+0PTmgoUkqR4HcJIlogQE6YaRDIEu18Vraze6/fmvu1qcGeo2vNY37YJkaXcHgC4l4BgSjlMvDpPtExAH0GSOr6yqXRaq9d+wNCwAWNs+41VWJy0HFt/YwVKh/XyDZ7w/FTW6YTkxBFKRlq4HZLiL/NJL+6T9faH/sgc++sWug17numYmfTrjDTmFR7yCiE4jgEgd/jXItdLprEmBnh37jM1+v3hqZ8oaCMCwAmN888ZIEj/oRKxpRzEt5LPGne/6LFEGndbshvGS0t1rDv2tJ9bpH8nGdBc3TP8zMX1BwJgL0didBiVwZSHZXaGTS6Zsaqlddn4/r5YOCMSwAuK7pqHeWquEPKEdNsQWmlkKBukdfAZ0i0qzFf9GXzqduqtn0y4Fe4/1/GHF45RFHnE3CnyBSRzPROKeER3pd+vEbKpftZ2fooaegDAsArnpm0qxR7rDfK6WOs5GWpRDZY2AAjJHdItIOmOeM6D9v73rzuXTZzKfvqmz1BnKNa5rGX1ymhtUAzqT6yuUfzYvwPFBwhpUj2VrxpOvwKdq3M4iWwqV7/osZ0BlJazJX15+0/HthaxsMIrEJxWBQd9KyUzNe+hsC+IW476HFAuCt0g8BvIykffjfKFSzAgo4wsqxoHnaFS6VLGKXx9m8lqUQUQ5B+2ZjxnQml1Sv+2HYegaTgjcsIOgIeXjZkfcpReXampalUHirW8fy00/6SMWZVBe2okGnKAwrRzI1+0+snPcB8a6atliIg6Gggf+7+soVF4StZ6go2BxWb9RVtZ3j+5lFxkh7oW/aailcsg0ct/vS+Z/FZFZAkUVYOa5dOuHsMjXqW8rhYw+2RMFiiQqUbShoxPxjR2b7F2+bu6U5bE1DTVEaVo7a1Ky7mZxPBivcrWtZogsrgjFijPF/Ul+14nNh6wmLojYsAJj33MT3lPojf8YOj++5nspiCZtckaj2zTro3R+um7Phn2FrCpOiNywAuOzhiYeNGzP850TqbCJiG21ZokB2b8qMMd5v6qtXfMLervYd2IuFqalXOVQ2Xzk0TtsWzJaQIAoWHvue2ZDGzmtuqhz4WsFCwRpWL9Smyh9SzOcQk7LrES1DCTsE8SWtxf9VfdWKT4etJ2oUVVlDX6mvWv6htG7/mNbmFVaU28LbYhk0KHsnak8/2+FtP9+aVe/YW/Eg1LbO+iGL8xHbZ8syKGT762tf3hCkf1hftXpe2JKijDWsPpCEAC0VDzmu+qAYwBqXZcC8tawGAv2Lusq2j4ctKQ5Yw+oHC5ZOPtdRZY3MfByIyM4mWg6FbKW6NmJa0v6uy26as6k1bE1xwRrWIbAwNf16hxKXE9NEAHZdoqVPBF1DRYyYNi3p7zRWrS3YNjCDhTWsAVCbmvl9Rc4lKsFjtW8XVFt6hxhQLsPrMpsMeT9oqFyZDFtTXLGGlQcWBsZ1gePy4UZb47IEEAczzNqY9Vqnf9BYvaYhbE1xxxpWnvjy30ZWHDFy/H+D+ELl8OFirHEVK9mhH4yYtcaYX9ZXf/x6QuH3qhoKrGHlHUFt8+y7mNW5rPgIwM4qFgu5lkXaN+uF/F/VV668NmRJBYc1rEFkYfO0RQ6XXKRcPr4vu+1a4gdRsHcgBNDa/EOj88eNleu+G7auQsUa1hAwr2nSf5Sosq8yqePYoTJjd/KJPd3W+22DmH9mdPs3b5yz8YGwdRU61rCGkOuXjv9kQo28kFidBcGI7Gr8sGVZ+kq2Kl20iJBs00Y/1OXvuOuWuVufCltasWANKyQWNs34puLE2U4JvR0GMDZJH1mICawA7QlE5ElfMn9eXL26MWxdxYg1rJCRIEn/a2ZV4zg8VQCItkPGUKHskC9Y4weBrBDRj9VXtX3O3jLhYt/9yCCY3zTlKlcNey8Bc4hoNCkia15DRy6BbrRkRGSbQP89o9N/v6lm/ffD1mYJsIYVURY0Tb3ZUSXvIvBpyqFSkdwuv9a98gYBTLQnotK+2S4kT3h+x1+X1LxqZ/oiiDWsGFDbOuN8MnwFsTORQOXsAKIBERt99Qt6a+cZVoCfkQwgKwz0spmjhv/Xp8qf3xC2RMuBsYYVM772zJEfHpYYeSaM+gARvY0Eh6sEBZtq2k009iYInoIlMgwYX9JGZDsg64z49+5Iv5H6zqk7Hg1bpqXvWMOKMcmW8nG+7rzcUaVTCXw8CMcDxEzEoGwEVkwzj92GeCICCLQxkiFCq4F+2dddLyypWf9d+7WPL/aTKzAWtUz9mIg6T5FzJIGmscNTmHP5r+yNjODnuEZjRMh+cym7DVYQRXlp7ZHQMkN6qxi9milzZ13Vq0W32WghYw2rwLn04YmHTRlTWsNC5wB8BhOXATQMIkeoBDtA1ry6mRmQ9bIwDI32/VLmuh6AsqarZZdAtgkkDcgOCP5k2P9Lw0mrnwhBsWUIsYZVhFz55MSKMmXOVFwy3lGJ0SCaAoNjQTQBIGYIA+QI4DITE+9rYNL9ge6ps+4mR3v90+3nbq7U7RxjABjjgcgXQbDRmkiGSNYayMsQ86qPzA7fdLXd/Iev3Et1tgNCsWENy7IPN7XMmLLT7zqZyZ0pzNMIPJzBDgElYC6DyHAiGgbQMDFSxoRSIxgOghDIBZBAELN1CeAxkBFCWgSaibpEZJeQ7AbQATFdEGQMxBjonWLMS+zoFxtPevVv9utp6cn/BxDAK8W2rcdMAAAAAElFTkSuQmCC;" parent="tFHFQbnFNSWmSSy7VT7S-11" vertex="1">
          <mxGeometry x="31.53846153846154" y="31.208791208791208" width="76.92307692307693" height="76.92307692307693" as="geometry" />
        </mxCell>
        <mxCell id="tFHFQbnFNSWmSSy7VT7S-12" value="" style="group" parent="1" vertex="1" connectable="0">
          <mxGeometry x="70" y="20" width="430" height="430" as="geometry" />
        </mxCell>
        <mxCell id="tFHFQbnFNSWmSSy7VT7S-8" value="" style="shape=image;verticalLabelPosition=bottom;labelBackgroundColor=#ffffff;verticalAlign=top;aspect=fixed;imageAspect=0;image=data:image/png,iVBORw0KGgoAAAANSUhEUgAAAgAAAAIACAYAAAD0eNT6AAAABHNCSVQICAgIfAhkiAAAAAlwSFlzAAALEwAACxMBAJqcGAAAIABJREFUeJzs3Xl8XXWZP/DP871ZS8tiaVlty6qgFGmapaXtTVfSJmnZoigq6gDuDLiMjoq1jsvogOJPVAQVhNERg7bNAoUuyS2lzdIgawdQdihSCtW2tFnufZ7fH1AH27RNcr7nnntvPu8/5jWv5ObzPC3CefI93/M9ABERERERERERERERERERERERERERERERERERERERERERERERERERERERERERERERERERERERERERERERERERERERERERERERERERERERERERERERERERERERERERERERERERERERERERERERERERERERERERERERERERERERERERERERERERERERERERERERERERERERERERERERERERERERERERERERERERERERERERERERERERERERERERERERERERERERERERERERERERERERERERERERERERERERERERERERERERERERERERERERERERERERERERERERERERERERERERERERERERERERERERERERERERERERERERERERERERERERERERERERERERERERERERERERERERERERERERERERERERERERERERERERERERERERERERERERERERERERERERERERERERERERERERERERERERERERERERUfpI1A0QUfYqqakZIbvtaOmTowA72gmONMhhEBxqhkMhcqgYRgCWb0CeiOQbNM+ZMxP0mKLXCXpMtFfM9Sis20H+JsCrCmyFs1edYKuYvlqgr7+cSCS6o/4zE+UKDgBEdCAyZeaCcZpyp8PhFAAnQO0EFZzg4CZAcGgaezEALwP6DICnAXkGZk8LYk+7fGxav6phcxp7Icp6HACICMAbv83n75SzDDIZpmdB8C6FvdPBjYy6twFRfVWde1gMD0HwkHP6cGFq50NcNSDqHwcAomFq6sxzT0ppajqg0yCuXFVPc87Fou7LL+tTxf0icp843AfBfe1rGl+OuiuiTMABgGiYKItXHQ/JP8dgc6Ay3TkcF3VPUTC1J+HsXoGsyE/aPevWNW+LuieiKHAAIMpRdXV1sWdf7pkB0Woxq4Jz74q6p0yjqinnXAcMd6XMVmxc27QRb+w1IMp5HACIckg8Hi/qdofNM0udJ4paODc66p6yiZpuceL+CNPb2ysnr8WSJRp1T0Rh4QBAlOXq6upiz7yya45APmiwc7Nm017Gs5cA/AGG29sTTfeBKwOUYzgAEGWp8lm1EzVlH4PZRc65o6LuJ7fp8wa5JSb6yw0tdz4bdTdEPnAAIMoiE+fOPaSor+giGC4XQVnU/Qw7pgpzK+HspuSOYxu6um7si7oloqHiAECUBSritSer2BVickmaD9+h/VDTLQK5GUhe35FY8ULU/RANFgcAogxWHq+uVMhVDlYDcS7qfqg/1mfA7RC7pqOl+cGouyEaKA4ARJlHyitrzleTrzjBpKiboUFQrBbBNW2JxhVRt0J0MBwAiDJEXV1d7Lkt3e8H9N8h7vSo+6FAHoDI4vaWhoaoGyHaHw4ARNGTsnjtRSb6TQd3ctTNkFedYvg6VwQoE3EAIIpQ+czqBTD3bQDviboXCo+p3gfEru5Y29ASdS9Ee3AAIIpAxayaSZbCDyEyI+peKH3UcKc5+dzGlobHo+6FiAMAURqVxhccDYl9x5lekvW7+k0Vghdh8rQKNjvgrzC8DOBlA7bByXZT2W4OOyymuwvhkiaxZGx3b19PYb5L9UpBvtNCzestsKQriDkUqsnhDjgSwGgDjoTJaBEdYybjRXACIEcj6/+7ZX2AXN9t7psPJpb/LepuaPjK8n+RiLJDScnl+bFRL11l0K85uFFR9zMohu0GewQimwT2v2KyybnYn3u2j30u3QfhxOPxotfdYePFUhPE3CkQTDS1iQ7ybjgcks5ePNiqZldPGFt8U319fSrqZmj44QBAFLIpMxdNVdOfA3h31L0clGmvQTYC0mbOuuBSGztX3/VnZP45+FIRrz3JHCbCUGFmZ8OkRBwKo27sYAz6J+fk0rY1TfdH3QsNLxwAiEJyZnzR4QVIfc+JXIaM/XfN+kxlvQhWi9hadBd1tLXdsTvqrnyoqqoq/Ft3/mQFzjZDHKIzHVxx1H31583XEv9Qugu/nit//5T5MvQ/SkTZrWJGTa05/ByQY6LuZV/6vJlrdGYrCqW4JZGo3xl1R+kQj8eLdsnIOEzmO8h8CE6Nuqe9mdqT5vDxztam1VH3QrmPAwCRR9OmVR/Rl+d+BOBDUffyT0w3mbg/iuiy9pbmrqjbyQRTZ557UkqTdSb2XoE7K+p+/onZr2J97sr16xt2RN0K5S4OAESelFZWn+MgN2fKb/2qeFbEficx+W37msaHou4nk5XOnn+qS8beC5H3IVP2ahieMuDijkRjW9StUG7iAEAU0Ol1dQWjXun+TwBXIuJ/pxS6WyB/cMAv2lqb1iLzN+9lnNL4wsmAXgax90f9xIYCSYF9a/yY4m/xSQHyjQMAUQCTZy58h7PU/0S+hGy6yeB+1gP333y23I+Jc+ceUtRXdJGpXeaclEfZi5mth8oHO+5tfDrKPii3cAAgGqKyeO37xXBThM+fmxruEmc/6mhpuieiHoaFyTNqSp3YF8xwgXMuFkkThu0m+HBHa+PySOpTzuEAQDRIJSWX5+eN2vwDQD4TTQfWB8NtKee+zyNl06s8vmiCQa8y0Y85uJERtGAw+257ZcnVWLJEI6hPOYQDANEgVMyqPs7U1QOYkvbihl0Qu9EseW1HYsULaa9P/zBtWvURfTH3rwCuguDQtDdguEfzYh/oXL3s1bTXppzBAYBogCpmVZeZyrK07/I37TWRn5vpdzoTd/41rbXpgCrmzXub9RZ8ASpXpPtWkEKfiTm5gCcI0lBxACAagLJ47ftN8CsHFKWtqKkCcksyH0u6VjU9l7a6NGjTplWN6Y3lfxmGT6fz+GGF7obi4s61zUvTVZNyBwcAooMoq6z5pkCuTmtRxWrk4XN8fj+7lE2vPQHOrhGR89NW1FQN8oWORNMP01aTcgIHAKL9KCm5PD9v5Eu/gODD6aqpwJ9h+FxnorEpXTXJv7IZC2eapK5z4iamr6pdP25M8ZU8L4AGKprHWYgy3NSpC0fZiL8vT9dvcgp0A/Yfo4uSF69dfef/pqMmhefFZx9/5uyy99z099eTf4XZNIik4daRlP1tV/Ks0aeMb3j5qafS+ppmyk5cASDaS/ms2qNM9a60He6juDuVr5/auLr5qbTUo7SaNP28Y/JjyZ8AOC8d9VStvVBt/rp1zdvSUY+yFwcAorcoi1cdL8hfnY43xSmwTUSv7GhpvjXsWhS98pm158Ps+rQ8RaJ40BXmzduwcumW0GtR1uIAQPSmybOrT5QUVju4CWkot1Qt9Sk+1je8nBlfdHgRUtdB5JKwaxnwmHM6p21N84th16LsxAGACG+c6S8pW+0cjguzjkJ3OHNXtCcabwmzDmW2ipm17zXTnwPu8HAr6dOWcrP5DgHqDwcAGvbKZ1SfAieJNCzNbkjF9IO8108AMHn6orc70dvEIR5mHVW8mB+Lxde3LHsyzDqUfVzUDRBFafLs6hPh3JqQL/5mZt8bN6ZoOi/+tMfGe5c/3zFz0iwzfEVVQ3t0zzkc15dKrZ48fdHbw6pB2YkrADRsTZm5YHwyFUs4h/Fh1VDDayLy4Y7WhuawalD2K5tZOwuG3wkwJrQihicQw4z2NY0vh1aDsgpXAGhYmjL3vLFJk1VhXvyh6NJ8O4sXfzqYjpbGNZpyJQA6QysiOFXVVlbMm/e20GpQVuEAQMPO1KkLRyV7k3c5uJNDK2L4rfQWTucZ/jRQG+9d/vwRRX3TDbgprBoOcob1FtxdVlWV/jcYUsbhLQAaVqqqqgq37Y7dCXGzQilgqhD3lfbWxu+Fkk/DQnnlwn+FpX4AcaH8kmawVakdxy7o6rqRJwYOY1wBoOFEXtud/+uwLv4K3W2QC3jxp6DaWxt+ZJALYNgVRr5A5uSN3HxDGNmUPfguABo2yuK13xLBJ8PIVtMtsRjOaW9tXh1GPg0/Lz77xGPHjD91JcwWishI7wVEzjp+/KmpF599Yq33bMoKvAVAw0JpZe0lDrgljGyF/sViOIeP+FEYyuOLJgB6d1jHU6vYxZ0tTb8NI5syGwcAynmlMxfOcJpaCXEFvrPV9CEXc/P4aBWFqXxW7VGqttJBzvAebtoLyOz2RNM679mU0TgAUE6bPH3R211Mu0J6vnpDt7kFDyaW/y2EbKJ/UjFv3tust3AFgFLf2ar6cn5BbNL6VQ2bfWdT5uImQMpZ8Xi8KBZL/TGMi78pErvzu+fy4k/p0nbPPa/FemU2gHt9Zzvnjkol7Y7T6+q8r5JR5uIAQDlrlxz6U0Am+841RSJ1qC14aOXK131nEx3I+vUNO5IjrUqB1hDip4zc0v3DEHIpQ/EWAOWk8nj1ZRB3o/dgs7W7C3p48adIxeN1I7tl10rAVfjONtFLOlqab/WdS5mHAwDlnIoZi85IuWS7gyv2mWuGjmIUzU4k6nf6zCUaijPjiw4vEm0B8B6fuQrdLYIpHS3ND/rMpczDAYBySklNzQi3UzY64DSvwaabNC9/RufqZa96zSUKYNq0qjG9eflrBXin12DTTdJTPLmt7Y7dXnMpo3APAOUUt1Ou933xV8WzEsM8Xvwp06xbt+IV53QOgBe8Bos73Qp7/strJmUcrgBQziivrLkAkDt8ZiqwLc9s6oZE02M+c4l8Kp9VO1FV1zm4UT5zDVLDt1nmLg4AlBPKZ9UeBcUjAI70FmraKyLz2lqbEt4yiUJSWll9DuCaHJDnK1NNt+QVFJyxYeXSLb4yKXPwFgDlBFPcBJ8XfwAi+Bgv/pQtOlub73amn/KZ6cSNTfYmb/aZSZmDLwOirFcer/2ICP7Na6jZd9oTzdd5zSQK2YvP/vn+4ye8YySAqb4yRXDKceNPferFZ594yFcmZQauAFBWK59Ve5QKfuA1VK25vbLkaq+ZRGkybkzRl2G6xmemmP1w2rSqMI7TpghxAKDspvZjBxzhLc/wRLKg+GIsWaLeMonSqL6+PpWfSl0E6PPeQp0b3RvL5ymBOYabAClrlc9cuBBmy70FGnapQ1lnS+Oj3jKJIjJ5Rk2pg9wrDoW+MsUwvy3RuMJXHkWLKwCUlSbOnXsIzH7iN9U+w4s/5YqNa5s6JYYrfGamDDdMnDv3EJ+ZFB0OAJSVivqKvgbgeG+BZr9uTzRxtzPllPaWxhtV8Qdfec5hfHFf4Vd95VG0OABQ1qmI154spp/zFmh4YndBz6e95RFlkFhRz+XweFKgqXyubHrtCb7yKDocACjrmNl1EOflveUKJCWmH+Lb/ShXtd1zz2um8mGYetnYKg6FJuAxwTmAAwBllYp4bRWcVPvKc4Zvt61p7vCVR5SJOtY2tEDctb7ynMMFFZU1cV95FA1vR0ZSdqqqqirctsudqBI7yYmcZGbjIBgl0JFqcoiDjVSTQ+AwAmbmzPXBYZcBO2F4TcReMcNmQF4A8HQK9peuRNPWUJpdvNilEl3fd94eXrGNRdjxLU9hRBltx5iir43asqsa4k73kWcqP8LixZP4yGz24mOAw0jp7HNHx/qSU1VwtgjKADkFwHHw/L8DA14R2CNmuF8EnalUbP3Ge5cHfia5tLL2Egfc4qFFANYnGitpW7v8YT95RJmvdEbNFCe2DuK8rP4acGlHa+MvfWRR+nEAyGHTplUf0RuTGoHFTdzZArwDUf0zNzwHWIs63AOXd/dgX60bj8eLumXkE4B7u5928K2O1kae9kfDTnllzY8B+YyXMMNzO8YWnbKpvr7XSx6lFW8B5Jhp06rG9OXnnwfFBX1iMwWSD0j0k55gHCCXOMMlSPZpeWXtfYD8oS8V+/399y596WA/3i2HfhqAr4v/Y28r6uPSPw1LRVb8792ya5GXYVowbtQruy8F8NPgnVG6RX5doOCqqqoKX+3Ov8jBLlG1Gc657HnJk6mayBoT3DxCd/wxkUh07/2RkpqaEW6HPe3EjfVTUmZ1rG1o8ZFFlI3KKhdWC6zJR5aabh6BnSf19+8uZTYOAFmsLF51vCDvkyZymQBZ/6IONbzmBL+CuZ+0J5Y/s+fr5ZW1nwdwjY8aZvr7jkTz+3xkEWWz8hk1Tb6eqDHDVR2JRr49M8twAMhCpTNqpjiHqxRynsvB2ziqmhLBH2IW+8/eQ/Vxt92ecs4dFTwYr5v0vbMjscLboShE2ap09vxTXSr2CCD5QbNU9eWewt6TeJ5GduE5AFlkcrz63eWV1Y3OyXpA6nLx4g8AzrmYiHuvOrvf7ZSNXi7+AODsu7z4E72hc/VdT5jJj31kOeeOKu4rvtRHFqUPB4AsMGXmgvHl8dpfx4AHAVcTdT/p5IDTfOSo4kXpLvqBjyyiXJHKL/qmAa/4yFKkrqyrq8ue/UcE/sPKYBPnzj1kwrh3fUfV3SYOJRDhLZuhcnJV+7qlnVG3QZRJXnpqU8/x49+xE4LAewEEcvj23clHX3jmCb5RM0twBSBDVcQXzinuK3gYwBd8vs97mHqkY8ZZt0TdBFEmSu485hcKfcZHlio+7yOH0oO/UWaYkjl1h+X17boW4v4l6l5yhaqe37m2eWnUfRBlqvJ4zUch8isfWSoS72xpWOsji8LFFYAMUj6jZr7r27WJF3+vHuhc27ws6iaIMtm4scW3KvBnL2GqXAXIEtwDkAkWL3ZlMmqJiPxcRA6Nup1coqqf2vzsn/836j6IMtmmTZts3IRTXgPk/KBZAjvlmHGn37z5uce3++iNwsMVgIhNm1Z9RFmiq1kgV4O3ZPxSPMjf/okGpi0++X+g+njgIHHOxVIf89AShYwDQIRK4wve05eHLoFURd1LLpIYvgPAou6DKCssWaLm5Ic+osTkY1i8mNeXDMd/QBEpq6xdBJH1gDsh6l4GxLRXgWTUbQyY4Ym2GZPuiLoNomxSbDt+7eVcAMG4itb753loiULEASACpZW1l5jqHxxccdS9KNANaBuA2wz2DTP7sBN3thhO6UvlHWtFfYeNG1OU155oLuxsbcxvj0+KWVHfYU5SE8RpOQQXmNkXDfgFoG0w7Ir6z/QG+08sWaJRd0GUTd54oY/9xEeWwi7zkUPh4T3nNCuvXPivgP0QUf3dq/3dBKtFZL0Z7ts5tuh+n+/yrquriz2z5fUzYohNN8Eshc52cKN85Q+I4bnkzmNO7uq6sS+tdYlyQEm85kgn9lzwX1Csz+XnH79h5dItfjoj3zgApFFZZc0339zsl1ZvLuktF7U/7jiqeLXPC/7BlJRcnh87dPNMmFxohguc4G1h1zTDZzsSjdeHXYcoV5VV1t4ogIff4O3T7a1NPw2eQ2HgAJAm5fGab0PkK2ksaQa720x+MmFs0V319fWpNNbu1+l1dQUjt+xaaILLHdwchPC/P1V9eYTsnMB3kxMNXWl84WQnFvzobLO17YmmuIeWKAQcANKgIl77WRP8v3TUUugOB/cLMfy0LdH4l3TUHIop8Zp3pkQ+J6aXQFyBx+gvt7c2fs9jHtGwVF5Z+ycA7wkUYqqx/Njb169q2OynK/KJBwGFrLyy5n2A3RT2i3wU6Ibh/yEv78KOloZlLzz7xGth1gvqhWef2PriM080HjfhpFsEsUIznCkS7PXGCmzL65WLn3/+8bTd4iDKVcdPODUGSLCXBImIqT334jNPtHtqizziUwAhKq2smQ2zWyEuvL9nU4XpL8X6TulINH6+c/WyV0OrFYKOxIoX2hONn4H0nWyGn5qiZ6hZArt+/fqGHT77IxquknnFv/HxVI8Z3uejH/KPtwBCUjqz9l0w3RDyDvhHALm0vbUhZ6brsnjV8ZC8r4jZvwzq1oDidc2Pjc+2AYgok5VX1t4K4EMBY8ysb1xHYsULPnoif7gCEIJ4vG6kGO4I7eJv2gvD15M7jpmUSxd/4I0VgY7Wpk+lNO9kADfAdEDL+SZ2Ay/+RJ6J/s5HCiQv2K0ECgUHgBB0y64bBXhnGNkK/Fksb3J7ovE/cvk59433Ln++vbXxk8l8OQWGnx9oEDBFT1Lzr01nf0TDQXL7cSvVEHg/kajN99EP+cUBwLPyeO0nAff+kOKXSlHf5La1yx8OKT/jdK1qeq490fiJZL6comY3ArbP0CMON99/79KXouiPKJd1dd3Y52CBX6ilDrNKSi7P99ET+cMBwKPymdUlZvDyMo1/YqoGfKm9tfH8jhUrhuUrNrtWNT3XmWj6uBM9xYCb9gwCCiQthe9H3R9RrjKH24NmOLhRsUP+Os1HP+QPBwBPqqqqCs3cf4tDoc9cU/RA5L0drY28yAHY0HLnsx2tjZfDYqca8AtndmvHvY1PR90XUa4q1h1rAGwNmiOOtwEyDZ8C8KQ8XrsEgq/7zFToTkDO7WxtWu0zl4hoMMoqa24TyAeDZCjs4c7Wpom+eqLguALgQfmMBacB+mWvoaqvwmIzefEnoqg52IrgGXJGSbzmSB/9kB8cAIITuNjPvR5nq3hd8rCgM9Gw0VsmEdEQ9ZncDdPAr9fOc26qj37IDw4AAZXHqy8FMN1fovWp0wva1jR3+MskIhq6rkTTVoML/guJ6tke2iFPOAAEEI/XjTRx3/YYaSr4SGdr890eM4mIAhPgrqAZZsYBIINwAAigG7uvFGCMrzwzfKezpem3vvKIiHwxUw/7kdzkqqoqr09K0dBxABiiM+OLDofY570FKlZ3VE7y+hQBEZEvxbKzc6BHc++POBT+rTt/sq+eKBgOAENUhNQXAXe4jyw13ewK8z6AJUsCb7IhIgpDIpHohriuoDkGK/fRDwXHAWAIpk2rGqNiV3iKs5jIBzasXLrFUx4RUVjuCxpgsDN8NELBcQAYgt68/Csc3EgfWWp2U1trU8JHFhFRmAxYFzjDHA8DyhAcAAappOTyfAEu9ZNmL2l+8b/5ySIiCldBsm994BDB6XV1dTEP7VBAHAAGKTbyr+cCONpHlpld0bWq/u8+soiIwrZu3YpX1HRzkAwHFL2wZfcpvnqioeMAMEgi+kk/SdbSkWi+w08WEVF6iMhDQTPMCW8DZAAOAIMwJV7zTkBm+sgyk6/4yCEiSicxBB4A1OzdPnqhYPKibiCbpCCX+Xl9ojZ1JJrbvEQREaWVPBw4wuRED41QQFwBGAQBLvQQYyb4moccIqL0iwVfAQDshOAZFBQHgAGaMmPhWRCMC5pjsLs7Wpof9NETEVG67Rhd9BgAC5IhAg4AGYADwACp2Lk+ckTcz3zkEBFFYVN9fa8qAj0JAMjR8Xi8yE9HNFQcAAbKsMhDxnPtM85q8tANEVF0HJ4OmCCvu8PGe+mFhowDwACUxxdNgMOZgYPEbuR5/0SU7QT2TOAMS00I3gkFwQFgAExS5/jISaVit/rIISKKWNAVAIjEjvPRCA0dB4ABEMOUoBlquH/jvcuf99EPEVGUxIIPADA70kMrFAAHgAEwkcCvr3TAMh+9EBFFztnLQSPEbLSPVmjoOAAcxJnxRYcL8I6gOWKOAwAR5QQRbPUQwxWAiHEAOIgi01IAwQ4ANDzXtnZ58NOziIgygLP8VwOHcAUgchwADkYs8PK/ARt8tEJElAl6YvmBVwCMKwCR47sA+ifl8ZqzFfgQIBcFDhPr8NEUEVEm6FpV//fyypo+QPKHHOIcVwAixgHgLabOWXhsMqmXCuwjgJzga3lEIO2eooiIMoKqveacHDXUnxfDCJ/90OBxAACkfEbtHDh8si9ptQ6SF/SW/1spkIx1F97vLZCIKCO47kA/Lijw1AgN0bAdAE6vqysYtaX7AzD9AhzeBYSzIcKpPt7WdsfuEKKJiKLj0BvkxxUo9NUKDc2wGwAmzp17SFFv4adsy64rIe5YSLj7IE3waKgFiIgi4ICeQD+vXAGI2rAZAEpqakbEduDT6JMvimCMeFzmPyARDgBElHPU0OsC/GdUHVcAopbzA0BJyeX5sZEvfdx26NUibmy66wu4AkBEucdJwBWAN64/AsD8dESDldPnAJTPrD3fjXrpURH82EVw8QcAZxwAiCj3KJAKmnF6Xd3QHyOkwHJyBWByvPrdztz1MMQjnXBMewuw8y9RtkBEFA47LNATU6a6qb4+0EZCCianBoB4vG7kbuz+hon8q0j0fzYVeTzRmkhG3QcRkW8OckSgAMF2T63QEEV+kfSlrHJhdTe6bxDI8Wna3jcQXP4nopykwCFBVlhV3d+9NUNDkvUDQMW8eW/T3oIfCeyDUfeyN97/J6Jc5RQFQXaROcERZZW1N4mhB4JeA3oA2+1MtimwVQxbHWRrUpIvdSbufBncLOhdVg8A5TNq5luv/EqAo6PuZW8K3SEWuy/qPoiIQuGsINAeAMGhAly6J0Le/L8mb/7/AigMDjGUVtZ2C/AMgKdheBrA/8L0wVTBiIe6VtVzJWGIMmi1fODi8XjRbhn1fYF8Bpn0ZzDsMmiTOHd7kW6/M5FIBDsqk4goM0l5Za1G3QQAqOJZ5/AnM1tvhnWvH1Xcxc2FA5M5F88BmhKveWdS8HsHOSPqXgDAFD3icBdMbt9dsLvxoZUrX4+6JyKiMFVVVRVu687PyF9wFLpb1HWIYDWc3tne0nw/ePugX1k1AJRX1rxPYb9wcCOj7cT61GSlwH6H4uTyjhUruJuViIaNsqqqQ6U7PyuW3lX1ZSfubog1SHfRnXw3y//JigGgpOTy/NiozdcK5LPRdqJtgNymsbzbO1cvezXaXoiIolESrzkyT+SVqPsYLIXudOYaxOx3248qvnu43yrI+AGgdPa5o5FK3eGAymg60L+pya/zgBs2JJoei6YHIqLMUTGr+jhT90LUfQShhtcE+G9zuLGzpXFYPrGV0QNA+YwFpxlcozg5Kd21DXhMTH8S/gTMAAAfZUlEQVSQHCW/6Wpq2pXu+kREmWry7OoTYyn3ZNR9+GJm603kxtFFfb9bsWJFoHccZJOMHQDKZtbOkpT9EU4OS2ddM1svzn2vvaWhEdw4QkS0jynxmneqyP9G3UcI/mrAjwuS+rN165q3Rd1M2DJyACivrHkfzG6FuDS+L1rbTGRxR0vTPemrSUSUfcpmVp8p5h6Iuo/QKF43wS9dTL/ftqb5xajbCUvGDQDllTVXAHId0tWb6SaF+1JnorEpLfWIiLLc5Bk1pTEnHVH3ETYFuh3sBpef/90NK5duibof3zLqdcDl8ZqvAfIjpOHir6ZbDPaJcWNHTOTFn4ho4GKCwqh7SAcHFAFypfYknyqvrPlOWVXVoVH35FPGrACUVdb+hwBfC72QqRrcDT1wX30wsfxvodcjIsoxZTNrZ4lhddR9pJuqvizOfbUjPulmLFmSESchBpERA0BZZe13BfhyGko9oCaXdSYaNqahFhFRTiqfUTMfTu6Muo+oqOH+mOCKttbGrH7fS+S3AMoqa74e/sXf+gy2OLnjmDJe/ImIgjEnadygnXmcYJIB95bGa35eMqcurU+q+RTpAFBeWft5gSwJtYjqoyZW2tHa9M2urhv7Qq1FRDQMuGGyB+AgxIlc7vp2bSqrrF0UdTNDEdkAUFZZ+y8ArgmzhsF+Jr3FpR0tzQ+GWYeIaDgxxbBeAXgrJ+5YAZaVV1b/NttWAyLZA1A+s3qBmlvugLww8hW6w0E+2t7a9Icw8omIhrOKiguLU4W7DktpoRQVpkQ1JZpKiWqhAIAVpqQgpaKaL6YqWqBSoPmimhIzFc1XMc0XaCo/5lCoKSkQuCKJ2REAjoTZGDWMcWYTVHACBCc4uFER/7EPShXPOrEPtiea1kXdy0CkfQAon1ldgpRLwOGQUAqYbkq52PkbWxoeDyWfiIjSrjS+4GhxbiIUEyE4U0zKIDg16r72pqopcfKd8WOKl9TX16ei7udA0joAlMWrjhfJ7wRwdCgFVJcXyYgPJhL1O0PJJyKijDFl7nljkz29ZzvnpsP0HIg7Peqe/sF0TX4qddG6dSsy9q2JaRsA3lgy6lnnBJNCKnFNe3zSl3Lh2UwiIhq8KTMXjE+qmy+CRQaZE9Zt5oHT51MqF2xc29QZbR/9S9sAUFpZ8z8OcpH3YFNVyKc7E003eM8mIqKsVDr73NFOUxfA7CJAKhHRnjdT9IjYJ9sTTTdHUf9A0vIXUl5Z+3mEsOPfFD0SwwfaWxr/6DubiIhyw+TZ1Se6lLvMVD/qnDsqih7M8O2ORGP4p90OQugDwJSZi6YmTRPel2IUrxuktmNtQ4vXXCIiykklJZfnx0a+dCFEvyhwZ6W7vhl+s3Ns0cc21df3prt2f0IdAEpnnzvapVIPADjeZ65CdzqT+dnyqAUREWWW0sqa2YB9ycHNTWddUyTyklK7fn3DjnTW7U+oBwFJKnUzQrj4x+CqePEnIqKh6mxtWt3Z2jzPVGfAbG266opDPFVgq6dNqz4iXTX320tYwaXxmk84kZ/5zFSg25nOb080t/rMJSKi4a18Ru1cdXatg5yRjnpq+lBeQcHcDSuXbklHvf6EsgJQOnv+qQ5yrc9MBZIw1PHiT0REvrWvbVw5YUzxWYB9Gqqvhl3PiZuoPb1rS+MLwjkXZwD8rwAsXuxKW7rWOyflXnMNH21PNN7iNZOIiGgv06ZVH9EXk2sg8rE0lHtEY7HKztXLQh869uZ9ACiL11wlIj/wGmr4ZnuicbHXTCIiogMorayZ7UxuhODEUAspumxE36yOFSu2h1pnL14HgLLptSeIwyMQjPCVaYbfdCQaP+grj4iIaKBKampG5O2UawF8Isw6CqyLdRfOa2u7Y3eYdd7K6x4AcbjB58Ufiq5ibL/UWx4REdEgdDU17WpvbfwkRBYB2BpWHQdM08Lu/8bixaE+nbdXTT/K4tUXQjDPV56abkmZOy+RSHT7yiQiIhqK9paGhr5U3kQFQnsEXUTOL2vt+n5Y+XuL+QgpqakZEet1DRAc5iMPpmoi525c2/iAlzwiIqKAXnrusZ3HjK78bynccbjA80b3N4nI1OPHv2PLi88+sTGM/LfysgIQ24kvQzDORxYAmLjvdLY2rfaVR0RE5ENX1419Ha1NV5joJTAN5UhfNf1x2YyFM8PIfqvAA0DFrOrjDPYFH80Ab2yEGD+m6Bu+8oiIiHzraGm+VUTmKbDNd7ZzLmaS+l1ZvMrrSbr71AkaYCkscXDFPppR6A5J4cP19fUpH3lERERhaWttSuSZTQX0ad/ZTtxYkVj96XV1Bb6z/1EjyA+Xz1hwmho+4qkXxEw+13Fvo/e/SCIiojBsSDQ9FsuLTTPgMf/prmLUlm6/5+q8NT3ID5u4bznnvGwkhOLutkTTL7xkERERpcn6VQ2bY/l5cSge9B4u+HTFjJpa77kIMABUzFh0hoic56ULwy6IC/WQBSIiorBsWLl0S77qTDXc7ztbnfyyfFbtUb5zhzwAmEtdDU8nCRpscXti+TM+soiIiKKwbl3zNoWdA9NNPnMFGGNqt8Dz6b1DGgDKZyw4DWYXeOnAdFMxdlznJYuIiChCXYmmrbH82FxTe9JnrkCqyiprLveZObQVAHFfgDg/pwiauzKRSCS9ZBEREUVs/aqGzXmxvHPg+ehgUXxv6pyFx/rKG/RFfMrc88aaycU+iqtZQ/vaxpU+soiIiDLF+pZlT6raQgX8HWfv5LBU0n7iLW6wP6C9yU+JQ2HgyqYqMffvgXOIiIgyUOfapg0xwSUAzGPsueUza8/3ETSoAeD0uroChX7SR2FAbutY0+B1owQREVEmaWtp/L0B3/MaanpdRcWFgQ/gG9QAcOjW7nOduLFBiwLW55wuDp5DRESU2caPKfqawVb5S3Rv16LuLwZOGcyHLQU/OxANt21oufNZL1lEREQZrL6+PpUyvB/AC74yxeRLQd8VMOABYPLs6hPhMCtIMQBQ1ZRAvhs0h4iIKFt0JZq2wvRDMFUvgYIRkLxA19IBDwCxpLsEHg4hEHF3tCUa/xI0h4iIKJu0J5pbAbnGV55ALp4cr373UH9+wAOACt4/1CJvJSI/9JFDRESUbZI7j/2aQf/kKU4cZMmQf3ggH5o8o6Y05qRjqEX2ULX2zrVNFUFziIiIstWUGQvPSjrrcECehzhzKiUb1jYMeqgY0AqAE7lo8D3tK+bsxz5yiIiIstWGtQ1/cma+XvMrKWdDWgUY0ABgooEPHVBgW6Ht/EPQHCIiomwnPUXf8PW+AAFqSmfWvmuwP3fQAaBsZvWZDm7CkLr6p0L2m0Qi4e9IRCIioizV1nbHbgi+4ClOYPj8YH/o4CsAJucOqZ29iMPNPnKIiIhyQUeiaRkUq31kOdOLS+MLjh7UzxzsA6JSO/SW3qT6eNuapvsD5xAREeWQlOiVqpoKHCSuwMF9djA/csABoHT2uaPhMClYVwDE/S5wBhERUY7ZmGh+xDn3Wx9ZCru0pOTy/IF+/oADQExTs+Hh8B+Lye+DZhAREeWimMSWKJAMmuPEjc0btXnhgD9/oG+qYU7QhhT4M9/6R0RE1L/1LcuedKa/9pFlwKUD/ewBBwADKoM2I4bGoBlERES5LObyv+vjPQFiNm/KzAXjB/LZ/Q4A06ZVjXHAKYGbgXIAICIiOoD1LcueNMiywEHiXMpiFw/ko/sdAHrz8qcGbsSwa8fYEesD5xAREeU8+S8vKYr3DuRz+78FYDYlcBeGezfV1/cGziEiIspxHYnGNkDbAgc5nFk6e/6pB//YfgisNGgP5rAmaAYREdGwYXKjjxiXzHvfQT+z3++Imxi4AeC+oBlERETDRXIUbodhe+AgwUHf4dPvADB1zsJjARwZrLr1Fdr2rmAZREREw0dXU9MuCHwcDPSeSdPPO+ZAH+h3AEj16pnBa8sDfPkPERHRIJn9xkdMvuurOtD3+78F4HBa0MJq9qegGURERMNNe6LpPlW8GDTHYEMYACDBn/8XPBQ0g4iIaBgy56w+cIi4uVi8eL97/fr/hgY/AAhqHACIiIiGQCB3BM1wwBHl997/7gN8f18KnBy0sOXn8/x/IiKiIXj7mKI2QP8WOEht2v6+tc8AUFdXFwP0+ED1gG2dq5e9GiSDiIhouKqvr08BsjJwkMnZ+/vWPgPAi9t6jnLOxYLUc7Ang/w8ERHRsGe4K2iEGgY+APT14digBQE87SGDiIho2DKV1qAZzmH8lLnnje33e3t/IWZ6wIMDBkINm4NmEBERDWcd9zY+raaBr6fJvr4z+vv6PgOAxtyYoMVEhAMAERFRQE4k8JH6Yuj3aP99BgAxPTxoMYj+NXAGERHRMGcm6wNniAxsBQAmhwUt5lKyLWgGERHRsGfyYNAIBxvYAGBA4BUAhQV/dpGIiGiYS4k+HDRDISf19/V9bwFADwlaTPLc34NmEBERDXddiaatgL0UJMMBR5TMqdtndX/fWwDiCoIUAgBJYVfQDCIiIgIMeDRoRiy1a8LeX9v3KQBYftBCBpcMmkFEREQAIM8EjlA5Ye8v7bsCoBJ4AJBYsi9oBhEREQHwcLieg7x936/t/QW3v1cED1xvX4EGzSAiIiIAFnwAMGD03l/b9ykA08C/vRfm9QTeR0BERESAE/NxuN6R++Tu/QUR1xO0iqaEAwAREZEHSbPAb9dVsYOvAMC0N3ChWPAnCYiIiAgQ2NbgGQNYATCRwAOAgxYFzSAiIiJgBF73MADYyL2/1t9RwLsDF9LYEUEziIiICEgkEknAAu3PM6Bw76/1swfAXgtSBABMdJ97DURERDQ0Cgu0P08U+9ya3/cgIEPgzQbWz70GIiIiGhqnCDQAqBvICgBc4AEAHACIiIj8ccH25znbd3N+P3sAEHizASDHBc8gIiIiADBIXqAA0dTeX9r3FoCkXglUBABg+5w5TEREREMjaoEerzfse8bPvkcBF6eeC1IEAKDgAEBEROSJOtnnHv5gSD97CPYZADpWrNiuwLZAhcTejsWLA79TgIiIiCDONNgKgAxgAHjjkwFfPCCuYOraB7kKQEREFNC0adWHQ1ywX6oN+5zx02+gwJ4JVAhAX6pvYtAMIiKi4S4Zc4HP1hGHfc746X8AEHkqeDHhAEBERBSQeni03rDvGT/7uwXwaNBiMHAAICIiCkicjPUQs88j/v2vAMTsoaCVTGxS0AwiIqJhz3RC8Ix9Xync7wBQmNqxSXXfQwMGw8FNmDT9vGOCZBAREZFMCJrgxF7a52v9fTCRSHSLc38OWjDP9Z4dNIOIiGiY8/BUnXtmn6/s76MGeyBoORHhAEBERBSE6alBI1ye7PN4/34HAAfXFrQgIJXBM4iIiIanqqqqQhUXaAAwRc/6VQ0DuwUAAGq4L0jBN51ZGl9wtIccIiKiYefV3e40BwR6EZAIngVge399vwPACPz9ASheD1IUgDi4+QEziIiIhiUvZ+oINvX35f0OAIlEIglnHR4KcwAgIiIaCnXlgTMM/T7af+CzhU3uDVxYMa+qqirQW4yIiIiGI4NO85DxcH9fP+AA4Jy7O2hhODlsW0/BOYFziIiIhpGSOXWHOeDdQXPUxQY/ABx/ZEF70FcDA4CpvTdoBhER0XCS17t7atC3ACp0x8YZZ/V7rs8Bg+vr61NiujJIcQAw0YXxeLwoaA4REdFwYSJVHmLasGSJ9veNg04WAndX0OoOblQ3Djs3aA4REdFwYR420Qtkv4/0H3QAcAV5dwZ9L8AbUpcFzyAiIsp9U2eee5IDTgma48wNfQDYsHLpFidIBG0C4mZWxGtPDpxDRESU41KWXBQ0Q1VThSjc76m+A9tc4NztQRsBIAq71EMOERFRTjOT9wUOcW5DIlG/c7/fHkhGUu2PCiSD9iJml1ZUXFgcNIeIiChXlccXTRBBWdAcB1tx4O8PQFeiaaszrAnaDJwbbUXdHw2cQ0RElLNSF/lIEYcDbuIf8POF6uzXwdsBFHYVFi8O9FwjERFRrlKRjwXOUH25bU3Tnw70mQFfiEcXJv+ghteCNuXgTi5PdJ0XNIeIiCjXlMerK33s/hfnGtHPGwDfasADwIoVK3oAuy1oUwCgwGIA4iOLiIgoVxicl83yovj9wT4zuKV4JzcNuZt/KipnVMysrfORRURElAtK4wuOFmjga6MBr4w7quig+/YGNQB0tjQ+qsC6obf1f1KGb3AvABER0RucuCsgriBojhj+WF9ff9AD/AZ9AXaCHw6tpX0Kn1be2nWJjywiIqJsNnHu3EMU8gkfWerktwP53KAHgPYZk5Yp9C+Db6kfgm/H43UjvWQRERFlqaLewssdcETQHAX+3NnSsHYgnx38EvySJSqQ6wb9c/2SY3ZL91f9ZBEREWWfiXPnHmKwL/vIcsAvB/HZwUuNxM1QfXUoP7sPxVWTZ1ef6CWLiIgoyxT3FX3GiRsbPMn64HDLQD89pAGgq6lpF5x42QsgDoWSwg0+soiIiLJJyZy6w6D6RR9ZqtLQvqbx5YF+fsi78Ius+EcAtg715/+5CTe3tLKWGwKJiGhYifV1fx3OjfaRlRdzPxjM5wMdxlMWr/miiHw/SMYeangtryDvtA0rl27xkUdERJTJSmfPP9WlYo8Aku8hbkN7a+PUwfxAoOfwXU/R9QD+GiTjH1mCt2lfkrcCiIhoWHB9sR94uvgDsGsHXT9Iuba2O3YD9h9BMvZyXkW8xssxiERERJmqLF59IZxU+8hS6F/a4yVLB/tzgU/iGzem+OdQfTRozh5mcl3p7Pmn+sojIiLKJGfGFx0u4n7sK09MvoklS3SwPxd4AKivr0+JxK4MmvMPDoe4vrzfVlVVFXrLJCIiyhCFot8HcLSPLAMeGz+2eEAn/+3Ny1n8bYmGVWrW4CMLAOBQ8lp3/vXe8oiIiDJAaby2RoDLfOWJyZKBnPvfH28v44lBPq9At688AS7lfgAiIsoV5bNqjxLBr3zlKezh9sqzDvra3/3xNgC0JRr/IoDPDYFQk+srZlWX+cwkIiKKgJjaLQKM8Zh51VDu/e/h9XW8xbb9+2r6kK88cShMJdFQHl80wVcmERFRupXHa78mkCpfeWrW0NnatDpIhtcBIJFIJM3kUlUd0v2I/jjnjlLRO8+MLzrcVyYREVG6VMRrqwD9hrdA094Y5PNBY7wOAACwcW1Tp4ivtwW+wQGnFYgu5ZMBRESUTSbPrj4xBfwG4jxeb+W6tkTjX4KmeB8AAOBtxcmvKuxhn5kOqNy2K3Z7PB7P85lLREQUhop5894W68OdTvA2X5mm9qT0FH3DR1YoA8CKFSt6zOwDPp8KAAA4t6hbRt6KxYtD6ZuIiMiH0+vqCrS78I9w7h0+c524T7xxCq+HLB8h/dmYaH7Ewb7kP9m9v7y16yYOAURElJEWL3ajXtl1izjEveaa/bot0bDKV1zMV1B/Xnzmifbjx51aChG/R/uKnHXcs5tPmlp6ZsOmTZvMazYREVEAZXLozwXi9RX3qnjRFfWe+8KTT3r57R8IcQVgj3y1D8HwlO9cgXzw2S27f396XV2B72wiIqKhKIvXXOPzpL83mcTw4bZ77nnNZ2joA8C6dc3bFKkLFOptatlDRM4ftaW7cerUhaN8ZxMREQ1GeWXtD0SCP57Xj2s7WhrX+A5Ny330zsSdDzhzl4cSLpiXyrN7K2ZVHxdKPhER0YFJebz2BgBXhZD9wI4xRV8NIRcSRuj+lFfW/gDh/AVBFS9KTKs7WpofDCOfiIhobyUll+fHRr50swgu9p+uf4tJ/uT1Lcue9J+dphWAPdrjk74AYFkY2c7hODOsK4svrAsjn4iI6K3OjC86PG/U5rvDufjD1NyHwrr4A2leAQCAkpqaEXk7pRVAaYhlrhk3pujLQ31FIhER0YG88Y6aZDPEnR5GvgHf6mhtvDqM7D3S/ix9V1PTLjjUKvSZEMt84blXdq+cNP28Y0KsQUREw1BFfOEcWHJjiBf/xo74pMVhZL9V2lcA9iifUX0KnFsL4OgQy2w14NKO1sblIdYgIqJhoryy9kuq+m3nXCjn6Kjh/p6C7hkPrVz5ehj5bxXZAAAAk+PV7xa4hM9zkvujZjfqKFzV1dS0K8w6RESUm0riNUfGRH4lQG1oRQzP9Wlexf33Ln0ptBpvEekAAACl8YWTHWw1BIeGW0mfhrqPt69tXBluHSIiyiUV8YVzTPRWQMK7raz2d0Fsetva5V5fpHcgkQ8AAFAer5mmYnc6uPAP9DH7tRT2fs73iUpERJRb4vG6kd2y+7uAfBphXi8Vr7uYm7ehZfn60Gr0IyMGAAAor1xYrrC7HHBEGsptVbOrJ4wtvolPChAR0d7KZ9TMh8gNEIwLs44pesxZdWdr0+ow6/QnYwYAACibWX0mzK0UYEw66qnpQ2KxKzvWNrSkox4REWW2kjk14/KSuAaQNJwpY30Qd2F7S0ND+LX2lVEDAABMide8M2myyjmk7WhfNdwZi9nVbWua7k9XTSIiyhwVFRcWW2HPl1T03xxccdj1TNHjYHVta5saw661Pxk3AABAWbzqeJO8Ox3kjDSXXirqFqdzEwYREUXn9Lq6gpGv7L7MzL7ixB2blqKGXQJZ1JZoWJWWevuRkQMAAJRVVR0qu/PrIZiX5tKmhrsc9L/aE82taa5NRERp8MaFv/tDprjaOYxPW2HDdsCq2xNN69JWcz8ydgAAgHg8nrdbDv2ZAJdG04FtFNh1hxel7lixYkVPND0QEZEvJXPqDosluz9upv+att/4/88Lom5BpqwyZ/QAsEdFvPazJnYtIPmRNKD6KpzcZs7d1LGmYVMkPRAR0ZC9sclcPi4mF4d/7ky/HojlSfX6VQ2bI6jdr6wYAACgorL2bIPVh3oQw8B0Arg9lXK/33jv8ucj7oWIiPajJF5zpAMudCIfQ7gvoDsgA+4qtqL3JhL1O6PqoT9ZMwAAwKTp5x0TiyV/74BpUfcCwMxsA4Cl5uSuzpbGR6NuiIhouCuJ1xzpRKoFdpFB5jggL8J2DLD/bI+XfA1LlmiEffQrqwYA4B/7AhaL6VcgLu1vM9wvw3MKWyFwq/LycV8mLfMQEeWqeDye1xMbOclS7hyILoChLBOuDQrdAcUlnWubl0bdy/5k3QCwR9mM6ukGd1tad28OgkKfEcg6mLQ7sYfzkvbQunXN26Lui4gom1XMqj7ODGeaSamoTAdQAYdDou5rL484s7oNiabHom7kQLJ2AADe2M2Zl9z1M8C9P+peBugFKB6Fw9MGPA2Tp10s9WxSsNXlp7Z2rFixPeoGiYiiVFJTM6LgdR3Tl3JjnbgJInaiAScJ7GSoTYRzo6Pu8UAM9uNi2/FviUSiO+peDiarB4A9ymcuXKgp+2k6Tw8MhWkvRF41xS4R6zFBjwA9puD7CogoN8gbABU1V+CgRYArUkOhExwBwYioWxwKA14B5KMdrQ3NUfcyUDkxAABvHhzUnf89AB9HDv25iIgos5nh9lhB3hUbVi7dEnUvg5FzF8ryeM00mFwPhzOj7oWIiHLaC6L2qSjP8w8i8p2SvrUnmta1z5w0CYKPv7EkQ0RE5I+qpgC73or63pWtF38gB1cA3qpkTt1hsb7dVwvssxBXEHU/RESU5RSrU6JXbkw0PxJ1K0Hl9ACwR8mcmnGxpFxtwEciPhSCiIiykEL/IiZf7Eg0LYu6F1+GxQCwx9SZ556U0tTX1fRi51ws6n6IiCjDGZ4zwTeLbfuvE4lEMup2fBpWA8AeFfHak1Xscwb7iIMrjrofIiLKLGq6WeC+u3Ns0Y2b6ut7o+4nDMNyANijJF5zZEzwKTP7tBM3Nup+iIgoco8ocI3uOOa3XV039kXdTJiG9QCwRzweL+qRkReousvEIR51P0RElFam0FVOcF17S/NdACzqhtKBA8BeSmfPP9Wl8i5V00u4KkBElNP+CtjNqZj9YuPq5qeibibdOADsR11dXez5LT0zVey9onp+pp8/TUREA6B4XZ01CuR3xba9Odc29g0GB4ABiMfjeT04dI4B5wKYD8G4qHsiIqKBUehOMbnHObm97xBr6mpq2hV1T5mAA8AQlM1aeLqozYdivjqdyicJiIgyjOrjcO5OMblz+9jCtbm6kz8IDgABlZRcnp9/2Itnmco0M5xtZmc7546Kui8iomHDVCHuIcDWAVgnzta1rWl+Meq2Mh0HgBBMmn7eMXl5fWdAMVFEJgI4Q6EnObhRUfdGRJTNFNjmgMcAPKhmD8Lw4AgpfjiRqN8ZdW/ZhgNAGpXOPnc0knqCACcAOgHAUQIcCcORcDZa4UbD9BBnKFSHQmco4DsMiChXqWrKwXUD2q1w3XC6W8y9JmavmLNXBG6rmb0sgqfF4endqdhTDyaW/y3qvnMFB4DMJ/F4nMcWE1HOGc478ImIiIiIiIiIiIiIiIiIiIiIiIiIiIiIiIiIiIiIiIiIiIiIiIiIiIiIiIiIiIiIiIiIiIiIiP5/e3BAAAAAACDk/+uGBAAAAAAAAAAAAAAAAAAAAAAAAAAAAAAAAAAAAAAAAAAAAAAAAAAAAAAAAAAAAAAAAAAAAAAAAAAAAAAAAAAAAAAAAAAAAAAAAAAAAAAAAAAAAAAAAAAAAAAAAAAAAAAAAAAAAAAAAAAAAAAAAAAAAAAAAAAAAAAAAAAAAAAAAAAAAAAAAAAAAAAAAAAAAAAAAAAAAAAAAAAAAAAAAAAAAAAAAAC4CQRjsFhlWeVfAAAAAElFTkSuQmCC;" parent="tFHFQbnFNSWmSSy7VT7S-12" vertex="1">
          <mxGeometry width="430" height="430" as="geometry" />
        </mxCell>
        <mxCell id="tFHFQbnFNSWmSSy7VT7S-16" value="" style="shape=image;verticalLabelPosition=bottom;labelBackgroundColor=#ffffff;verticalAlign=top;aspect=fixed;imageAspect=0;image=data:image/png,iVBORw0KGgoAAAANSUhEUgAAAgAAAAIACAYAAAD0eNT6AAAACXBIWXMAABbEAAAWxAHTLy56AABR+0lEQVR4nO3dB5hlVZX28WXzkWloyaGRDA4ZSZKkBQERVIJjQEBUzAHUwYCOgDpmHTBnCYLhG4KiEhwQA6Ag0EpQ0IFWguQk0OTvW69r36nbl6ruCneffcL/9zzvc6tbvLXFqnvW2Wfvtf+PAQCAzvk/pQcAAACqRwEAAEAHUQAAANBBFAAAAHQQBQAAAB1EAQAAQAdRAAAA0EEUAAAAdBAFAAAAHUQBAABAB1EAAADQQRQAAAB0EAUAAAAdRAEAAEAHUQAAANBBFAAAAHQQBQAAAB1EAQAAQAdRAAAA0EEUAAAAdBAFAFBPC3mW8iydsqRnMc/i43hd2DMtvUd/Bv9uWvpeT3qe6Mvgn3t/95hnrufhcbw+6Lk/5R/pvw+gRigAgHx0gX26Z/mUFfq+Xj79Z8vYyEW+F/3dUgXGm5OKgPsHcl96vdtz5xi5xygegCwoAICJeZpnumfVgazS99q70C9rI3fZXTc9ZbUJ/vd08e8VCHd4/u65ZSC9v1OR8f+GNF6g9SgAgHkt4lnds+ZAnmEjF/gli4ysm1RA9WZMnrmAf1aPHXpFwY2eOQPR3z2aZZRAA1EAoGt0B6+Lyfopa9u8F/rV0j+D5lFhtl7KaDQ7cLPNWxT8j+e6lLuMGQR0CAUA2koXg3U9G9jIxX799OcZ5YaFglTYzUzZcZT/XOsNrrWRguC69Oe/eB6qaIxAZSgA0HSastdFfZO+bOxZo+Sg0EhalPnslEFzPFd5rkzR1yoOeKSAxqIAQFP07t62sLjA9y72uvjzc4zc1kzZu+/vtC1SRUCvINDrFRaPGXiUgNrjgxN11LvYb9mXrSxW1wN1oX4LG6f0u81z2UAoClA7FACoA13Yt/NsbVzs0XwreV6Q0tNfFFzqudhiayNQDAUAqqZtXRt6tu/LWKu2gbYYrSjQ44OL+vIno+kRKkQBgNzUmlZ39ztYXOz19TJFRwTUwwYpr05/vtdiZuDClN9YtFUGsqAAwLBpVf62nl08z7W44C9SdERAM8zw7Jkij1jMDPzcc77FowN2HWBoKAAwVfoZ0nP73gVf+6sXLzoioB0WtfidUj5k0YvgVzZSEGjHwePFRofGowDAZKhb3vMt7lR2szjABkBeS3j2SJF7PT/znOU52+JMBGDcKAAwHtrupKl8XfC1iGnTssMBYPHI4F9TZLbnpxYFgdYPMDuA+aIAwFh0kt0LU7jLB+pv85QjbWR24EzPjy3aHAPzoABAP03t7+PZz7OzZ6GiowEwWTNsZHZAMwEXeE7z/NDitESAAgD/3Ia0b8o2hccCYPj0Of+8lC9ZPB44PeXPBceFwigAuklH4L4iZaPCYwFQrd6BR5/w/MHz3ZS/lhwUqkcB0B0rel7qOcBiQR8AbJryMYvmQ6d4fmC0Ke4ECoB2m24xta+Lvqb/eKbfLmob+/B8oqYxj6d/7omUJwdeRT8X0wZee1/rM0KNnBabT6Zl/V+JquyQcpznXItiQGsGHig5KORDAdA+OklPv8SHWiwAWqLscDAGXYC1MvvuMaL/7B8LyCOVj/qp9POmAmH6fKIdJDMsdpYMZjnP09P7oB50XeidW/Cg5/ueb1q0KeZEwxahAGgPHTZysOe1Fgv7UD1d1P+ecqvFCXBj5V5rx8EvuiA8kjLZaWPNIKgI0GOqlfqy8sCfV/WsYhQLVVrS85qUP1oUAid67ig5KAwHBUCzaZpWHfl00dd+ff7/zEsX7hs8N6bcNBBd+Gm+MnEqhO5K+eMC/lk1pVJhMNOzenrt5RmeNS2KBQzfv3g+bbFe4Eeeb1j0Gnhifv8l1BcXjGbS1Kmm+N9i8aGH4dB05/94rre40N/Q9/Uci17sKOsxGynALh7jn9Fd65qetVLW7ntdx3gsNlUqwvZPmeP5gudbRrOhxqEAaJZNPG/zHGgcuDNZutvUBV1nsV838KoGKTzjbD4VclenDNLjBj1KWN/iUVn/61rGgsaJWtNiVkCHFenRwOc915QcEMaPAqD+NM2v6f23W5wKhvHRtORfPFdZXAh6r/o7jlTtLhWAvUc25w/8Zzp9b12L3hjKxul1PaMwWBDNqrwx5TzP5zw/MR4P1BoFQH3pDv/Vnn+zuDPB2LTgTkej/t5zpcWFXnf0D5ccFBpHCxlHmznQVkfNEqgg0CzcZp4tjLUGY9k1RY/PPuU53vhdrCUKgPpZxvNmz+EWq6IxLz2jv2IgtxYdEdpOF6/fp/TTjoQtBrJ2tUOrNf27+LLnKM9/er7iub/oiDAPCoD60N3E4RYXf07eC1pV/9uUSzyXee4rOiJgRG/L50/7/m6GZ0uLczW2TVm58pHVi/73q+3w+zxftGg0xDbCGqAAKE8LknR8p1b1L1p4LCXNtbjI/7bv9WZjUR6a5V6LZ+DnpT+rZ4G2KKoQ2KbvdbESgytshuf9nnd6vm6xnZDZu4IoAMpZ3vNei618Xfww0J7vX6f8ymIqn8V5aBsVsL1ti/+V/k6dE5/l2cmzY8qyRUZXhtY3aVHz6ywWC37SovslKkYBUD09439nylKFx1IlbbHTqutfpWiRXhs64QETpUL3NylaJKcdBs+0KAgU7fZZtdjoqqNC4D2eN1lsJTzWosU1KkIBUB1tk9Eefv3AP73wWKqgiv7nNjIdqnPHmc4HnkqF8DUpX7V4bKBdB7tYrKZXQdDmzwyteVIfAc0KfNzzJYtHgsiMAiA//TLrND4tglmt8Fhy0krpX1i0BtWdvlZMc4cPTJwK5T+l6GKoXiDaeqhiQKd67mztXC+kx6KaCdCN0hEWj0y4aciIAiCvrS1WvG5XeiCZaEveWRaroHXxp1UuMHxqpnN5ih4ZqNXxLM+eKW3beriG5wcWjwoPs1gfhAwoAPLQ8zutcD249ECGTM8uNa2vC74u/H8uOxygk9Tq+CcpmmFUG+NeMaDHBQuXG9pQaT2Etv7qnAHtHrit7HDahwJguPSL9y7PByyq9DZQ4w590JzuOdtYpAPUiabIr0051uJ5ugqBfT0v8EwvNrLhUIGj005f6jnGYkaVEzeHhAJgeLS3V8djblJ6IEOg5iY/tLjoX2BszwOaQgX791O0TkAzAvt4XmzNbkikQkbrA7SeStsHLy87nHagAJg6beX7iMUK1qcVHstU3G7x3E0fHBcZC/iAptPZBmenqMPoDp6XWdxNr1BwXFOh/glqFKbWwmoxzLqjKaAAmBpNsanX9TNKD2SSdH73qZ7vWSziY2oNaCcV9L0eHIdbzAy83LOfRYe+JtGuCB2Str/nDRY7jzAJFACTo2Y+X/AcWHogk6C7gjM83/Gca0zvA12jQv9nKZoZ2N3is0yPCZq0vVCnpOoz7NsWuwVYnzRBFAATp5WpJ1lsVWkSdR073mKa/56yQwFQE7ohODNFzYY0K3CIxZqmptCx6eqN8EqLzzmMEwXA+GmF/9EW/funlR3KuKn97omeEyyaigDAWHRj8OWUDT2vstjK3ITFg+qFoHNF1FHwo8bjzHGhABgf7bPVlPnWpQcyTudY/BJr+x6/CAAmSm2J1bZc++/3tnhUsFvRES2Y1gZoq+AenoM815cdTv1RACyYpsS+adHLv87Ue18NM9RL/C+FxwKgHXQDcUbKep43Wky51/lsgu09sy1mME4vO5R6owAYm/7dqH//O0sPZAF+5/m85/8aB2gAyEedP3uNzrSdUD37n1V0RGNT34DTLB4HfNCinTIGUACMbkWL/fCzCo9jfrRoR40xtK2HAzMAVEU3GsdbrC3S4jttydur5IDm40jPlhYNhO4uPJbaoQB4Kj3nV+U4s/RARqEVu/qlUxMMFvUBKEk3HhekaNGgZkv17H2RckMaldYEaKZU7ZF/X3gstUIBMC9Na+kCW7e9sNrf+rmU2wuPBQAGadHgoRaPB9QVVY8Hlio6onmpZ8DFFjMBZ5QdSn1QAIx4h+ezpQcxQH29dfjFscb0FYD6u9Vi2v0zFp+patBTl0JgcYvOp2/xfKXwWGqBAiD29OuM7Tot9uPCD6DJ7rKYDdDjShUCmhWow8mE+rzXFmk94v136/j6qa4XAJrq15T/y0oPJHnY4hdGi/u48ANoul4hoNnVd1ucQ1CHR6zqb6AiQCcLPlZ4LMV0uQDQvv4feXYtPRCLKlQd+1SR3lh4LAAwbLqhURfVL1mcnnpQ2eH8k/oEaMeXDkR6uPBYiuhqAaBnQXW5+P+35wiLxhUA0GZ/s2gvfKzFo9ddio7GbE+LdQEqAh4pPJbKdbEA0MX/h1b+4q9ufXouprO6O/0cCkDnXO55nsWR6trdtHbBsWgMKgJ0vHCnioCuFQCLWezxL9nTWj9gH7PoMtjJaScAsLjx0Xkl53veZ3H2QKkeAmpkpG6qL7EOHZHepQJAp/n9l+f5Bcegs6vfatFSEwAQnQXVrvdkzxet3OzsCy06wP6rdeQQta4UAE+z2PpRql3lnRYX/h8Y0/0AMJprLWZnX2FxvsmyBcawj8UWbH1et/6zuisFgKaWXlvoe6tnv7aa3Fbo+wNAU+iie4rn555vWDyfr5qOPtYs7bEFvnelulAAaI//xwp8X7XvVRes460DlSQADNHfPXtbtBdWb5QlK/7+6lswx1reNrjtBYDOhT6hwPfVCX3a6jKnwPcGgDbQjdPXPed5TrL4PK+KHhtrJkKnHV5a4fetVJsLgJUsVvxX3XVKe1vVC7sTi0gAILPrLY5m186pd1T4fbVlXNeQzS06GrZOWwsA9XtWZ72VKvyemvJ/tcV+UgDA8Khdr85r+Y3nW1bdI4GZ6fvtYy18lNvWAkCd9Xav8PvpKEx1krq2wu8JAF2jnVRXWtyZP7Oi7/kii6Ztx1X0/SrTxgJgO89/VPj9zrHYN/qPCr8nAHTVHz3bWMy2VtXUTY92f+25rKLvV4m2FQA6bvK7noUq+n5aYNjp06QAoADdcGmXwDc9B1bw/dRI7nuezTwPVfD9KtG2AuAYzxoVfS+daKXuVa17LgQADaCWvdptdZPFSYO5rWtxtPGRFXyvSrSpANjCYt99Fd5icawlAKAc3YDpHAH1DajiGb3Wl6ll8dUVfK/s2lIAaMr/Kxar/3N7m3HxB4A60YmCug58NvP30TVTbeXVH6Dxs79tKQD0HH6bCr7Puz1fqOD7AAAmRh0DtXc/9yLwnTyvsujy2mhtKAC08O8jFXyfoy1WggIA6umjFkXABzJ/n49bbEls9ILANhQAOrVpuczf42ueD2X+HgCAqdPi7FU9r8n4PdRk7g0Wsw6N1fQCQHf//5b5e1xo8dy/8c97AKAD9FmtE/029Dw74/fRKbNftQbPAjS9ANDdf84zo7W9ZH+L7SYAgGZ4xKI76+8sZgNy0CzAGy3/wsNsmlwALGV57/510d/Xc1vG7wEAyENbA1UE6HTWhTN9D80CaFfA3Ezvn1WTC4CXWd67fzUV+l3G9wcA5PVbz4ct3xquFS1mib+T6f2zanIBcGjG977CWPEPAG2gFfu6SG+W6f1faxQAlcq5uONxi9Wj9PcHgObTZ7k+0y+xPOfEzPKs4/mfDO+dVVMLgNdmfO/PeGZnfH8AQLUut1isd0Sm91eB8f5M751NEwsAVXAHZXrv+zyfyPTeAIBy9ChAq/anZ3hvdQZU86FGbRdvYgGwpWeFTO+tCvGeTO8NACjnbovGPR/M8N6reTbx/CHDe2fTxAJg90zvqwt/FadJAQDKUAGgU2OXyfDeujZRAGSWqwD4osUjAABAO91rcZrr+zK8t65Nn87wvtk0rQBY2rNdpvc+MdP7AgDqQ5/1OQqA51gcRNSYpkBNKwC2tzxjVrOIP2d4XwBAvfzJosnbVkN+30UtblDPH/L7ZtO0AmDjTO97Uqb3BQDUjxr3DLsAkI2MAiCbDTO97xmZ3hcAUD+neY7N8L65rlFZUACY3ei5OcP7AgDqSZ/7t9jwTwqkAMjkaZbnX+5vMrwnAKDe9Nm/35DfkwIgk+UtTwen32Z4TwBAvemzf9gFgK5T6jHQiC3lTSoAcjRukKsyvS8AoL6uzPS+FAAZPD3T+96Z6X0BAPWV67N/hudvmd57qJpUAGyS6X3vzvS+AID6yvXZr+3qjWgJ3KQCYK1M70sBAADdc1em910n0/sOXZMKgBwLAOWhTO8LAKivXJ/9ua5VQ9ekAiBXf+UZnjsyvTcAoJ5yrSvjLIAMHs70vssaBQAAdM2ymd6XAiCDXNM1uX4IAAD1tVym923MY+UmFQC5qqpVMr0vAKC+cn32MwOQwQOZ3lcnQp2W6b0BAPWU4zRAyXWtGromFQC51gA8O9P7AgDqK9dn/2OZ3nfomlQA5LK1ZyHPE6UHAgCohK59uWYAGoMCwGwpzxae35UeCACgEs/yLFF6EKVRAISXGwUAAHTFK0oPoA4oAMIBnvcYjwEAoO103aMAMAqAHm0H2cXzs9IDAQBktZtnpdKDqAMKgBGvMwoAAGi715UeQF1QAIx4icUxjleVHggAIIvNPPuWHkRdUACMeJrnaItCAADQPkeXHkCdUADMa3/P5p7ZZYcBABiyLT37lB5EnVAAPNVnPM/z/L/SAwEADMU0i8929KEAeCrtBjjU8/XSAwEADMUbPDuXHkTdUACMTpXi2Z4bSw8EADAla3g+WXoQdUQBMLrpnq969jIeBQBAU2lx99csWr5jAAXA2Pb0HGFUjgDQVO/z7F56EHVFATB/H/f8weJxAACgOTSD+5HSg6gzCoD50/TR9yyODP5z4bEAAMbnmZ5TLD7DMQYKgAVbxvNDz46euwuPBQAwf8t5zvAsXXgctUcBMD7/YvEYQIdI3Fd4LACA0c3wnOvZoPA4GoECYPz0GOAnnj08DxYeCwBgXtq9dZbnWaUH0hQUABOzg+dHnr09cwuPBQAQlvCc6Xl26YE0CQXAxKlToGYCdKIUjwMAoKwZFuu0nlN4HI1DATA5z/X80qJXwC2FxwIAXTXTYn3WRqUH0kQUAJO3qediz/M9fyw8FgDoGl30dfGfWXogTUUBMDXP8Fzo2c9zQdmhAEBn6FHsqRbT/5gkCoCpe7rnvz3vtThEiLMDACAPNfZ5t+ejFkf8YgooAIZjIc+nLFagvsZzf9nhAEDrqCnb8Z59yg6jPSgAhmt/z8bp9erCYwGAttjEYsp/vdIDaRMKgOFTB6rfed7j+YLnybLDAYDG0jT/YZ6PeRYtPJbWoQDIYzHPcZ4Xe17t+VvZ4QBA46xpMeW/c9lhtBcFQF5aqXql522ek4wFggCwIFrod4jFTdT0skNpNwqA/HQi1Qmel1oUAjeUHQ4A1NbaFo9O9yw9kC6gAKjOXhYzAh+22C74aNnhAEBt6Pn+EZ73WzxCRQUoAKq1uMX+1YM8bzaaBwGAboy+ZBzhWzkKgDL+xfNzzymeIz1/LTscAKjcWhar+19WeiBdRQFQ1gEWPQM+ZzEzcG/R0QBAfuqeqql+rYlapPBYOo0CIPbpl2wp2Xv29VrPhzxfNtYHAGgffdbp0ee/WxQBpT1h0cW1sygA4iCf71n5hSfLeo61qIqP8XzX83jJAQHAEOg6c6DFhX/twmPpedDzEs9ZpQdSEgWA2Q89u3rOtLgIl7aO50TPBy12DGidAIUAgKbpXfg/YPG5Vhe3W+zK+l3pgZRGARAu8mxvcbb0mmWH8r/WtegfoKr5I56TjUIAQP0tbCMX/rrc8ff82fN8z/WlB1IHFAAjrvVsZzEjsE3hsfRTIXC8xYzAZ9LXDxUcDwCMZkmL1ufvtFjhXze/tnjke0fpgdQFBcC8bvU8x/N5z+sKj2WQKukvWiwU/FL6+raiIwIAs5U9b7VY4FeHxX2j0Wf6uzyPlR5InVAAPNUjntd7LrVoSVm3bSrLWTwWeLfFWoHPev5UdEQAumhDi7t9NTar2+dkz8MWn+cnlR5IHVEAjO3rnt9bnEE9s/BYRqMtNa9L+ZnF9kEtZGSdAIBc9Hz/RZ43WSyerrM5FlP+VxQeR21RAMzfJZ4tPd/x7FZ4LPOzW8rNnq9ZFC9/LzoiAG2ymo3ccKxaeCzj8RPPqzx3lR5InVEALJi2jGjV6Ns9n7D6TnWJfknVQ0CPCM7wfNVzvkWzIwCYCDXJ0V2+ptD3sWY0zdGUv571a0aU49cXgAJgfHQBPdbiYqp9+RsVHc2C6f/Xl6T8zWKtwPGe/yk4JgDNsJ7F3bNSx8efY5nteaXnmsLjaAwKgIn5g2drz8ctZgSa4BkW+3GVX3m+7fkvzz9KDgpArUz3vNRziGfHskOZlE9bfMY9UnogTUIBMHFzPYdZPGPS8/Y1yg5nQnZK0e6GMyxaIJ9r/NIAXaSFxHt4Xu55sWeJssOZFDX00bqE80sPpIkoACZPF86NLdr1ajag5IFCE6Vf9ANS7vOcZlEM6JeIXQRAe2kVv57r6wjefT3LlB3OpOkgH22BPtpojDZpFABT84DnHRbrAr7h2bTscCZFHwCvTlGHLG171COCXxpNM4A20EV/ZxtZF7Rc2eFM2eWeQ43tfVNGATAcahq0lcXq06Os/MmCk7WC540p93h+bPGo4ByL07MANMNSFruX9vHsbc290++nO321RD/OmKkcCgqA4dHdshYH/l/Ppyym15pMLT0PStHWGj3yOMOiKKCXNlA/K1lc7Pex6AuyaNHRDJc+V9X9dE7hcbQKBcDwaauduk/tYrF1cJOioxkOzWi8KEV7a3WM5lkpmv14otzQgM7SvvxtPXumbFl2OFlomv9wi0eSGDIKgHy0oO5ZFitUtVCw6c/dep5msRVS0XScOm1pdkDFgB4V3F5uaEDr6S5fU/u64O9u9T18Z6o0y3ikxbZlbjAyoQDIS8+p1JFKK+y1NkCnZS1cdETDp8LmFSmi8xPOsyiAVLXTbwCYvKUtTijdNaUNM4rz86jnc56PWOxQQkYUANXQgrrDLR4J6K5ZHbaatG1wIjZL0SlhKoB0noKKARUFFxs9B4D50eO27Wzkgq+Ztia04J0q3eV/y2K29MbCY+kMCoBqzfG8xvNJi579Ly06mvz087V9Sq9LlwqCX1t0JVRBcG+pwQE1MMPi90Pd99SkSxf8Ni3eWxCtKfquxX7+P5cdSvdQAJTxJ4tGHNo1oIp3r7LDqYw+2HrdCN9n8cuv9sq9guAiz03GIR5oJ62fWd3igq/fAV30N0l/30U/tDi47MrSA+kqCoCytMJV23aebbHg5YVlh1M5ffD1Hhm8Jf2djjHWLMFv06t2GdxfZHTA1Gjvve7ot7FYra/XlYuOqB7O8HzU4ncbBVEA1MNvLLbY6W7gPRa9ubvw3G80q1j0JX9x+rNmA/5oI8WAiibNGtCYCHWypEUhu4XFRV8X/GcWHVG96Bn/yRZHqnNaX01QANSLpsIOtJgWO8JivUCXngeORrMEG6Yckv5OxzNfZ9ES9Iq+3F1gfOge7XzRhf5Z6VVZ37o7lT8/aiKmNuk6re+vhceCARQA9XSDxZbBD1kcNPQGz7JFR1Qv2kHxzJQD+v5eq4evSrk6vWr2gMNCMBm6q/8Xz0YWB3/1MrPkoBriTovTUtW2l94gNUUBUG+3WqwN0EJBXejeZjHNiNGtnrJn39/pEYKODO0VBVqAeV3KPVUPELWkZjobWNzFq6jcKGVt465+ojQTp3386n3ycOGxYAEoAJphruebFvtktXpYswI6a6CtvQSGSR/g66S8eOA/U7ex6/pyrUUrZ83A0MCoXaZ71vKsa3Gh713wleULjqsN9Hxfp4jqwq+dPOziaQgKgGbRL9YvU57heZPFOoEVSw6qwVZI2WGU/0xTmCoErk+v/dFWRe5u6kUNdDQ1r4v82um1/+u2tOKuE81Q6qZE3U5vKjwWTAIFQHP9zWIvvToLaiuhzsdWj3BmBYZj+ZStx/jPNXtw00BuTK+3eG6zaGXK3dDUaAZH2+m0fW5Vi4t8L6v3fc1dfDW0APcnFjOSP7U4BRUNRQHQfPoFPD1FH4SHWMwKrFVwTF3Qmz3YYj7/jDof3taXW/u+vivl7r6oYHgy35BrQdtbdUFfdiC6Q9dBNyun1/6vFykyUvTTozFd9E+wKHDRAhQA7aK7Tx2ioSYbz/W81uJs8MULjqnLtIXzGSnjodkCLUxUMXCvxToE5f6+r/uj3Q0PzycqQJ7oy5MDf+6dsrbQQKYN/Fn/OxabT5aweMbey9IDf1a00E4X+hnGwrqmUK8N3Vjowq/Hjm0vTjuHAqCd9It6XspSFovftItgD+tug6Em0IWxd0cMlKADvHS09ymeM42GW61GAdB+D1h04FI0Zf0Si2Jgx5KDAlArv7C46Gs1/12Fx4KKUAB0ixaufTllDYuWw/tZ9CgH0C06jfM0z/eNI3g7iQKgu9SW8xMpWjy4j0VvgZ2NxwRAG2l6/+cWz/V1Eh+L+TqOAgCixYNfSNFqbG0r1MzA7haLvAA0k5qInWNxp/9jo/sl+lAAYJCe/52QogWEu1q01lXGu5odQDlzLBbyKecbC/kwBgoAzI8WEP4wRSvUdTBKrxh4jmfhckMDkDxqsYivd9FXS2saUGGBmlQAsHe4LH2gXJPyGYvZgV0sigG9rl9uaEDn6FAr3d3rgq/n+tzlY8KaVADQy7teNDvwoxRZzaL50C4paxQaF9BGOoPi/JQLjAV8dfb00gMYryYVAKuWHgDm62bPd1JErYhVCDw3hf//gPHT75Pu7M9Pr3OKjgYTsVrpAYxXkwqAJTK9r9qe0uJy+HTH8s0UPb7RjMD2fdnMOLgIELVk/r3FUboXplfty+c5fl65Pn+WyvS+Q9ekAuDRTO+rPuX3ZXpvBH2QzUk5Jf2d/r2rAVGvINjO4pAYoO3utWjC07vgX2rxSA3VyvV505ijwptUAMzN9L7qu04BUD0dZtM7r0BUja/n2TJlK8+zrEHVNDAK/Zxf1pffWZysx6xjebnO3Mh1rRo6CoD4Ibgh03tj/PSBeG1Kb5agVxSoGOgVBjp+d3qJAQILoIv9FRYX+d7F/i/Gxb6uci0spwDIINe0yvKZ3hdT118UnJz+TusJ1JBok5SN0+szjb4EqMZjnj96rvRc1ff6N+O5fZPk+ux/KNP7Dl2TCoBc+1x18Tgn03tj+PQB+9eUH/f9vS7+6kXQKwyemf6sGYRFKx4j2kE3HX/2XGex7/7KFP3dYwXHheHYJNP7UgBkkGuRzLaZ3hfV0gfy1Snf6/t7HWykw442sCgI+rOm0WCq6zTLNMfiIj+YG43p+zbL9dlPAZBBrqm1Z2d6X9SDtlj1ZgzOHfjPdNCRHiesOUZWqWKAyO7vNrILZTD6uXikxKBQlAr/zn/2N6kAyGVmyk2lB4LKaYq3d7c3mv4CQX0MVBCsOpCVjH4Gpeju/FaLrnj90QVfz+PnpNfGbMtCZVY3CnwKgERH336u9CBQOwsqEES/QyvavEXB8vPJkhnH2wZ61KcTKe8cI/0X+tssZniAidq/9ADqgAIgHGgUAJicx23kgjQei1tsP1IxoC2oS/dlmTH+rNcl0n93sfSq1GX9gh7PzU15OL3qOeh9Kff3ZfDPSu+Cf5dxt45qHFR6AHVAARC2tlgkdm3pgaD1dHG8yab+yEkXf+186C8Iel/r7xdKmdb39WiRJ+aTJ/u+fsyeeqF/OP0929/QFBtZ9BPpPAqAEa/yHFl6EMA46YL7aMr9hccCNMnBpQdQFxQAI97s+aRFn24AQPvosdubSg+iLigARug56zs8R5UeCAAgi3cZrcT/FwXAvFQAHOe5u/RAAABDpYW3h5UeRJ1QAMxLleH7PEeUHggAYKi0xottuH0oAJ5KswBqJXtZ6YEAAIZiG+Pu/ykoAJ5KW6O+ZbE18NHCYwEATI0OA9NnOh07B1AAjG5Ti0cBx5QeCABgSj5gsfcfAygAxqYfGh0ec3HpgQAAJmVHz3tLD6KuKADGpn83p3m28txceCwAgInRgT+nGte5MfEvZv5WtigCdjZ6lANAU6gl9ukWB3VhDBQAC6bVo1/xvNrodw4AdadzMr7m2bL0QOqOAmB8dE6AzhjXPlKKAACoJ1381dL9wNIDaQIKgPHTQhIdcfrh0gMBAIxKO7f+rfQgmoICYGI+ZHEE6qdLDwQAMA9t3f730oNoEgqAifuUxRnpny09EADAP6f91b79o6UH0jQUAJPzGc8qnvdYFAMAgOqpu58+jw8vPI5GogCYPD1nWs1id8AjhccCAF2jFr8nel5aeiBNRQEwNa/wrOTZz3Nf4bEAQFfMsNjnP6vsMJqNAmDqdvFcYlEEXF14LADQdjqrRR3+1i09kKajABiO9S2KgEM93y08FgBoK+3vV5OfxUsPpA0oAIZnCc8pnu0s1gdwlDAADIee92vn1ZtLD6RNKACG720W7YMP8vy58FgAoOk28Jzk2br0QNqGAiCPbT2zLfamftloHwwAE6Utfm+xaO27WOGxtBIFQD56JPBFz4s9rzGOFAaA8dJRvt/27Fp6IG1GAZDf7p6rPO/wnGDMBgDAWHTXf4jF8/5lyg6l/SgAqjHDoppV0yAtYmG7IADMaxOLR6Y7lB5IV1AAVOs5FmsD1LpSpwo+WHQ0AFDeUp6jLGZJFyo8lk6hAKie/p3rDIGXW/zAn2E8FgDQPTrEZ3+L6f7VC4+lkygAylnDc5rn1xZ9A35bdjgAUBn1S9Gx6tuXHkiXUQCUt6PnN57ve470XF92OACQzTqej3n+tfRAQAEgOk3q4NKDcC+zOE/gCxa/IHeUHQ4ADM2KFjc4WgS9cOGx9Kil8OtLD6IkCoDYcnKTxQ9nafrF0LqAN1j0ENAU2e1FRwQAk6fTUtUQTRf+OvXv/6DnI0YB0HlagPd+i0Y9uvt+Wtnh/JOaCOmXRl2wvuT5lFEIAGiOlS0+w95k9brwP2Fx0f9W6YHUAQXACF1ob7E40KcuP7AqBLRAUNWz9sceazFbAQB1pNX8msV8o9Xnc7RH26619uCs0gOpCwqAeZ1hsSpVq/PXKjuUeagQeJfnMIvjhtVH4PdFRwQAI7aw+IzSWqY6Xleu8+zruab0QOqkjv9HlTbbs5XFTMAeZYfyFPr/66CUn1msEdArfQQAVE2PS59vMUu5S+GxzM+PLBZ631d6IHVDATC6uz17eY6xWB9QR7ulXGmxdkEFywNFRwSgC6Z7Xul5q2ejwmOZH90YabHfRz1PFh5LLVEAjE2LRT7gucziEJ/pZYczJvXP/qrFQkFtadRaAaa5AAzbxhaL+jQDWdfPw557LYqUnxYeR61RACzY6RaPBU6yeh9SsbRFRa78wqIQ0NgfLTkoAI22iEV/Ei1E3qnwWMbrAosp/xsLj6P2KADG5wbPLM97PUdb/Q+s2DlFzYRO9hxvLBoEMH6bW5xeqrvo5coOZdwes3hkq0XSTPmPAwXA+D1u0ThCi+50UV2n7HDGZQXP4SlXWBQCWitwZ7ERAagrfV4cYHHh36zwWCbqWouxX156IE1CATBxOrRnc89/eg4tO5QJ2SJFOwfO9HzHYj/swyUHBaAo7dXf03OgZ2+rT5veidDjTu1EeKj0QJqGAmBytNr+dZ7vWSzAa8JsQI9+wfdL+YdF7wP979DMxmPlhgWgInqurx1EOpJ8H89SRUczedrbr8/hX5YeSFNRAEzNeRar8I+yqEDrvjZgkFby9voKaOvjqRanEmoR4eMFxwVguPRZP8vioq/i/+lFRzM1+mz6uOc/jBnMKaEAmLq5FosDdRf9dYsmQk20rEU1rdxl8ZhAuwg0MzC34LgATI46iO5ucZf/Qovf8abT0en6jLqq9EDagAJgeGZ7trM4wEcNhJYpOpqp0arfQ1L0XO0ci0cFP7aYKQBQT/rd1bP8fSw6mdatH/9k3WPRl0WPXJ8oPJbWoAAYLk1NHWex0v7DFpXqtKIjmjrdReybol+8X1ksHlRUhdOGGChH7Xg3tVjIp6hXSdMeRc6PPnO0yO9oi5lJDBEFQB7af6/TsHon+M0qOZgh0gfLrJRPWJxMeLZFMfDfnvtLDQzoEM0uahGfLvjqxb9q2eFko8ePOlnw6tIDaSsKgLzUfEeHZOjuWc0p1iw6muGbabEVUtHsx4UWhcD5nkuNXQXAMGjnzjaeXT3PszixtE13+YP+YnGyoNYhMcOYEQVAfvoB1vHC6kn9Bs+RnhWLjigP/Sz1OhDq8Ye2Smo3gYoB7ZbQoUV05wIWTI8NNa2/a8pzPEsWHVE1brVotvYNzyOFx9IJFADV0XYVrQ/4puftniM8M0oOKDPtLd4rRdR98AKLNQS/tpgdYTEPEJ/DuuDvlKIievmiI6qWFhbrkaJONaWZT4UoAKqnO2MdT9nrXnWYdaO61wfaS1JETYgutpGCQB0W2W6ILtDC2m09O1pc8LV7qKnNeKZCn4WfTbmv8Fg6iQKgHG1r0cEVmhVQHwE9Hlii6IiqpSZEu6eI1gvovAIVApekVz0L5BkgmkzT+etaXPC3Sa9qyd3lz94HLW6AdNfPuSQFdfmHsC5u97zTYlbgbSlN7tI1Wb2FTtv0/Z2KpF4xoFctLLy9+qEB47aSZ2sbueArM0oOqEa0je9zFlP99BOpAQqA+lAlrJbCOqzn9RarYFcpOqLyVAjtkdJzi8VMgXJ5ev2rMVOAamn//Vo2cshWL13/nR3NzRafa+qU+mDhsaAPBUD96Nm4tgyqSj7Y826LKUSEVVP26vs7zRTMTrkq5RqLZ4zAVOlx1YaejVM2T5lRbETNoMN6NM2vk0cfLTwWjIICoL60DUYVs3YNqOGHHg3sMd//RndppuC5Kf3mWBQDV/e96kOJuxCMRotxN/BslNK74K9RclANpMZgmuo/19j6W2sUAPWnX6CfpOjD6a0WPfq7uGp4otZM2Xvg79XBUIXAtem1lznGKYhtp8+8NS1+l9YfyMxyw2o8zVx+2/NFi98lNAAFQLPogqWZAB2K8ar0NY8HJm5myi4Df6+dCHM813tuSOn/Wo8aWGtQb3o2r1Pv1urL2gN/5nNvePSZpMeVJ1gUAWgQfhGaSXtme6tpNe39Ws/+nkVKDqoFtBNhvZTR6KwDFQI3ptw0Smhkkpe2yvYKuNX7vu79WRf4pYuNrhvU1OxUi459vzSm+RuLAqDZ9It3Xoruel5p0Zd/05KDajFdWDZLGYu2N2mnwm0pt47xtbZEsTAqqHDVMbbaQrdyeh3tay3+7OIW2brQjhutSdJpp/cUHguGgAKgPXTh+bzFrMCWFoXAARYrmFGdZVM2Hsc/q10Kd4+Rey2mVJX7+77uj2YbSq9Z0GeI7sqn92XpgT8runAvO0a60AmzqTTbeLLFhf/ywmPBkFEAtI+eUf8uRQ2GtABOhcALLKa4UR9LpTxjCu+h8xQeHiOPpP+8lycH/tw7i2GhgUwb+POinsXGSJtPpesqzUz92OJOX4eY0aK7pSgA2k13iD9I0R2Y1gmoGJhlsVgKzacL8JLGXTSmRsWhTu7URf90ixkotBwFQHfomd03UlbzvMyiGNiy5KAAFKUW27ro6ybh74XHgopRAHSTWnP2TuFSk5N9PPtZnE42rdywAGSmxz5aua+7/DMsdrOgoygAoD76x6Ws4HmRZ1/Pbsa2QqANtBZEXfl00T/TOIEPCQUA+t1hsdpX0UputSB+oUUL4uULjgvAxOh3+WyLxXxqzUuTHjwFBQDGoq1n30/RQjOtFdgzRUecsogQqA8t4tOx2WelXG406MECUABgPPTc8JKUYyxmA3a3KAaeb8wOACXcbnGXrwv+zyyaSwHjRgGAydAzxFNStGhQTW/UV19tiWcZrViBHO71XOD5ucWWPZ1uydkUmDQKAEyVphn/kHKsxeOCLSwKAmUni05xACZGnSJ/ZXGx10V/to00bwKmjAIAw6YPqF4nwk9a7CTYyrODZ/v0ukKx0QH1pTMiLvJcmF71O/RY0RGh1SgAkJvail6UIlo8uI5FMdDLxsaiQnSLpu6vtJGLvXKDMaWPClEAoGr6gPtLyonp75bxPNtipkDRjoPVi4wOyONvnsss7uovtVixf3/REaHzKABQBzpx7JyUnhUtCgGlVxTMrH5owISpu17vYn9Zyh1FRwSMggIAdaUtTr09zT06F14LDPXIYJP0uqHFqXRA1XTiolbiX2Uxna/XKyx+doHaowBAk2iR1NkpPdp1oDUFvYJgk5R1jKNqMRxa2KpHVlfayIVer9cbq/LRYBQAaDp9AF+Xcmrf32v3wVqe9VM26Pt6lYrHiGa4xUZ+lpRr06sW57EaH61DAYC20u6Da1MGTfesZ1EUqEhYsy86HZFDkNpJPxM6/GpOX3QXr58R3eHTLx+d0qQCgG1iGBZ90F+eMkidDVe2eYsCRYWBZg5W9SyXf4iYBHWo1F28zrXXqvs5A7nV6I8P/K8mFQD0m0cVdIG4JeWiMf4ZLTpUkbDqGFk+RQ2PmE2YGh1le2dfbhnIzen11vTPAqU9vfQAxqtJBcCqpQcAJFr9PSdlfjRrtaSNFASDWdbi3IRelhn4euGhj7wMPT/XVs/7+177o0Nsehf4/q+VB43mOGiW1UoPYLyaVADk6ievKV+mBZGDLlwPpMyZxH9fMw29YkA//4unvxvttf9rFQ4LpUzr+3q0yBPzyZN9X+tCPteiAJo78PXg60MWF3uFO3PU0bRM77tUpvcduiYVALk+RLQg7L5M7w1MxcMp7CsHhm+ZTO/7cKb3HbomFQBzM72vpmEpAACgW5bN9L65rlVDRwEQPwQ3ZHpvAEA95drNQwGQQa5pFXYXAED35PrsfyjT+w5dkwqABzO9r9rGnrPAfwoA0CabZHpfCoAMHsj0vttmel8AQH3l+uynAMgg117gZ2d6XwBAPalHR+c/+5tUAOQyM+Wm0gMBAFRideNQMAqAZD/P50oPAgBQif1LD6AOKADCgUYBAABdcVDpAdQBBUDY2uJo2NGOjgUAtMdGni1KD6IOKABGvMpzZOlBAACyOrj0AOqCAmDEmz2f9NxbeBwAgDzU+fVNpQdRFxQAI3QwxDs8R5UeCAAgi3dZHAAHowAYpALgOM/dpQcCABgqtf49rPQg6oQCYF6qDN/nOaL0QAAAQ6U1XkuWHkSdUAA8lWYBvue5rPRAAABDsY1x9/8UFABPtZDnWxZbAx8tPBYAwNQsavGZPq30QOqGAmB0m1o8Cjim9EAAAFPyAYu9/xhAATA2/dCc67m49EAAAJOyo+e9pQdRVxQAY9O/m9M8W3luLjwWAMDE6MCfU43r3Jj4FzN/K1sUATt7Hi48FgDA+CzuOd2zYumB1BkFwIJp9ehXPK/2/L/CYwEAzN/TPF/zbFl6IHVHATA+Oifg7xb7SCkCAKCedPFXS/cDSw+kCSgAxk8LSR7yfLj0QAAAo9LOrX8rPYimoACYmA955no+XXogAIB5aOv2v5ceRJNQAEzcpzxPej5beiAAgH9O+6t9+0dLD6RpKAAm5zOeVTzvsSgGAADVU3c/fR4fXngcjUQBMHl6zrSaxe6ARwqPBQC6Ri1+T/S8tPRAmooCYGpe4VnJs5/nvsJjAYCumGGxz39W2WE0GwXA1O3iucSiCLi68FgAoO10Vos6/K1beiBNRwEwHOtbFAGHer5beCwA0Fba368mP4uXHkgbUAAMzxKeUzzbWawP4ChhABgOPe/Xzqs3lx5Im1AADN/bLNoHH+T5c+GxAEDTbeA5ybN16YG0DQVAHtt6ZlvsTf2y0T4YACZKW/zeYtHad7HCY2klCoB89Ejgi54Xe15jHCkMAOOlo3y/7dm19EDajAIgv909V3ne4TnBmA0AgLHorv8Qi+f9y5QdSvtRAFRjhkU1q6ZBWsTCdkEAmNcmFo9Mdyg9kK6gAKjWcyzWBqh1pU4VfLDoaACgvKU8R1nMki5UeCydQgFQPf071xkCL7f4gT/DeCwAoHt0iM/+FtP9qxceSydRAJSzhuc0z68t+gb8tuxwAKAy6peiY9W3Lz2QLqMAKG9Hz2883/cc6bm+7HAAIJt1PB/z/GvpgYACQHSa1MGlB+FeZnGewBcsfkHuKDscABiaFS1ucLQIeuHCY+lRS+HXlx5ESRQAseXkJosfztL0i6F1AW+w6CGgKbLbi44IACZPp6WqIZou/HXq3/9Bz0eMAqDztADv/RaNenT3/bSyw/knNRHSL426YH3J8ymjEADQHCtbfIa9yep14X/C4qL/rdIDqQMKgBG60N5icaBPXX5gVQhogaCqZ+2PPdZitgIA6kir+TWL+Uarz+doj7Zda+3BWaUHUhcUAPM6w2JVqlbnr1V2KPNQIfAuz2EWxw2rj8Dvi44IAEZsYfEZpbVMdbyuXOfZ13NN6YHUSR3/jypttmcri5mAPcoO5Sn0/9dBKT+zWCOgV/oIAKiaHpc+32KWcpfCY5mfH1ks9L6v9EDqhgJgdHd79vIcY7E+oI52S7nSYu2CCpYHio4IQBdM97zS81bPRoXHMj+6MdJiv496niw8llqiABibFot8wHOZxSE+08sOZ0zqn/1Vi4WC2tKotQJMcwEYto0tFvVpBrKun4c991oUKT8tPI5aowBYsNMtHgucZPU+pGJpi4pc+YVFIaCxP1pyUAAabRGL/iRaiLxT4bGM1wUWU/43Fh5H7VEAjM8Nnlme93qOtvofWLFzipoJnew53lg0CGD8Nrc4vVR30cuVHcq4PWbxyFaLpJnyHwcKgPF73KJxhBbd6aK6TtnhjMsKnsNTrrAoBLRW4M5iIwJQV/q8OMDiwr9Z4bFM1LUWY7+89ECahAJg4nRoz+ae//QcWnYoE7JFinYOnOn5jsV+2IdLDgpAUdqrv6fnQM/eVp82vROhx53aifBQ6YE0DQXA5Gi1/es837NYgNeE2YAe/YLvl/IPi94H+t+hmY3Hyg0LQEX0XF87iHQk+T6epYqOZvK0t1+fw78sPZCmogCYmvMsVuEfZVGB1n1twCCt5O31FdDWx1MtTiXUIsLHC44LwHDps36WxUVfxf/Ti45mavTZ9HHPfxgzmFNCATB1cy0WB+ou+usWTYSaaFmLalq5y+IxgXYRaGZgbsFxAZgcdRDd3eIu/4UWv+NNp6PT9Rl1VemBtAEFwPDM9mxncYCPGggtU3Q0U6NVv4ek6LnaORaPCn5sMVMAoJ70u6tn+ftYdDKtWz/+ybrHoi+LHrk+UXgsrUEBMFyamjrOYqX9hy0q1WlFRzR1uovYN0W/eL+yWDyoqAqnDTFQjtrxbmqxkE9Rr5KmPYqcH33maJHf0RYzkxgiCoA8tP9ep2H1TvCbVXIwQ6QPllkpn7A4mfBsi2Lgvz33lxoY0CGaXdQiPl3w1Yt/1bLDyUaPH3Wy4NWlB9JWFAB5qfmODsnQ3bOaU6xZdDTDN9NiK6Si2Y8LLQqB8z2XGrsKgGHQzp1tPLt6nmdxYmmb7vIH/cXiZEGtQ2KGMSMKgPz0A6zjhdWT+g2eIz0rFh1RHvpZ6nUg1OMPbZXUbgIVA9otoUOL6M4FLJgeG2paf9eU53iWLDqiatxq0WztG55HCo+lEygAqqPtKlof8E3P2z1HeGaUHFBm2lu8V4qo++AFFmsIfm0xO8JiHiA+h3XB3ylFRfTyRUdULS0s1iNFnWpKM58KUQBUT3fGOp6y173qMOtGda8PtJekiJoQXWwjBYE6LLLdEF2ghbXbena0uOBr91BTm/FMhT4LP5tyX+GxdBIFQDna1qKDKzQroD4CejywRNERVUtNiHZPEa0X0HkFKgQuSa96FsgzQDSZpvPXtbjgb5Ne1ZK7y5+9D1rcAOmun3NJCuryD2Fd3O55p8WswNtSmtyla7J6C5226fs7FUm9YkCvWlh4e/VDA8ZtJc/WNnLBV2aUHFCNaBvf5yym+uknUgMUAPWhSlgthXVYz+stVsGuUnRE5akQ2iOl5xaLmQLl8vT6V2OmANXS/vu1bOSQrV66/js7mpstPtfUKfXBwmNBHwqA+tGzcW0ZVJV8sOfdFlOICKum7NX3d5opmJ1yVco1Fs8YganS46oNPRunbJ4yo9iImkGH9WiaXyePPlp4LBgFBUB9aRuMKmbtGlDDDz0a2GO+/43u0kzBc1P6zbEoBq7ue9WHEnchGI0W427g2Sild8Ffo+SgGkiNwTTVf66x9bfWKADqT79AP0nRh9NbLXr0d3HV8EStmbL3wN+rg6EKgWvTay9zjFMQ206feWta/C6tP5CZ5YbVeJq5/Lbnixa/S2gACoBm0QVLMwE6FONV6WseD0zczJRdBv5eOxHmeK733JDS/7UeNbDWoN70bF6n3q3Vl7UH/szn3vDoM0mPK0+wKALQIPwiNJP2zPZW02ra+7We/T2LlBxUC2gnwnopo9FZByoEbky5aZTQyCQvbZXtFXCr933d+7Mu8EsXG103qKnZqRYd+35pTPM3FgVAs+kX77wU3fW80qIv/6YlB9ViurBsljIWbW/SToXbUm4d42ttiWJhVFDhqmNstYVu5fQ62tda/NnFLbJ1oR03WpOk007vKTwWDAEFQHvowvN5i1mBLS0KgQMsVjCjOsumbDyOf1a7FO4eI/daTKkq9/d93R/NNpRes6DPEN2VT+/L0gN/VnThXnaMdKETZlNptvFkiwv/5YXHgiGjAGgfPaP+XYoaDGkBnAqBF1hMcaM+lkp5xhTeQ+cpPDxGHkn/eS9PDvy5dxbDQgOZNvDnRT2LjZE2n0rXVZqZ+rHFnb4OMaNFd0tRALSb7hB/kKI7MK0TUDEwy2KxFJpPF+AljbtoTI2KQ53cqYv+6RYzUGg5CoDu0DO7b6Ss5nmZRTGwZclBAShKLbZ10ddNwt8LjwUVowDoJrXm7J3CpSYn+3j2szidbFq5YQHITI99tHJfd/lnWOxmQUdRAEB99I9LWcHzIs++nt2MbYVAG2gtiLry6aJ/pnECHxIKAPS7w2K1r6KV3GpB/EKLFsTLFxwXgInR7/LZFov51JqXJj14CgoAjEVbz76fooVmWiuwZ4qOOGURIVAfWsSnY7PPSrncaNCDBaAAwHjoueElKcdYzAbsblEMPN+YHQBKuN3iLl8X/J9ZNJcCxo0CAJOhZ4inpGjRoJreqK++2hLPMlqxAjnc67nA83OLLXs63ZKzKTBpFACYKk0z/iHlWIvHBVtYFATKThad4gBMjDpF/sriYq+L/mwbad4ETBkFAIZNH1C9ToSftNhJsJVnB8/26XWFYqMD6ktnRFzkuTC96nfosaIjQqtRACA3tRW9KEW0eHAdi2Kgl42NRYXoFk3dX2kjF3vlBmNKHxWiAEDV9AH3l5QT098t43m2xUyBoh0HqxcZHZDH3zyXWdzVX2qxYv/+oiNC51EAoA504tg5KT0rWhQCSq8omFn90IAJU3e93sX+spQ7io4IGAUFAOpKW5x6e5p7dC68FhjqkcEm6XVDi1PpgKrpxEWtxL/KYjpfr1dY/OwCtUcBgCbRIqmzU3q060BrCnoFwSYp6xhH1WI4tLBVj6yutJELvV6vN1blo8EoANB0+gC+LuXUvr/X7oO1POunbND39SoVjxHNcIuN/Cwp16ZXLc5jNT5ahwIAbaXdB9emDJruWc+iKFCRsGZfdDoihyC1k34mdPjVnL7oLl4/I7rDp18+OoUCAF2kD/rLUwaps+HKNm9RoKgw0MzBqp7l8g8Rk6AOlbqL17n2WnU/ZyC3Gv3xgf9FAQDMSxeIW1IuGuOf0aJDFQmrjpHlU9TwiNmEqdFRtnf25ZaB3Jxeb03/LIBxogAAJk6rv+ekzI+aGy1pIwXBYJa1ODehl2UGvl546CMvQ8/PtdXz/r7X/ugQm94Fvv9r5UGjOQ6QBQVATPkyLYgcdOF6IGXOJP77mmnoFQM6T2Hx9HejvfZ/rcJhoZRpfV+PFnliPnmy72tdyOdaFEBzB74efH3I4mKvcGeOOppWegClNakAeDDT+2pB2H2Z3huYiodT2FcODN8ymd73gUzvO3RNKgBytc3UNCwFAAB0y7KZ3rcxLZ4pAOKH4IZM7w0AqKdcu3koADLItUd3+UzvCwCor1yf/RQAGdyb6X3VNvacBf5TAIA22STT+zbmkXKTCgBtD1JltfSQ33fbIb8fAKD+cnz269RHCoAMtKXqGotz44dp2O8HAKg39ejI8dl/TYb3zKZJBYDkKABmptw05PcFANTT6pbnUDAKgIxy/cvdz/O5TO8NAKiX/TO9LwVARldlet8DjQIAALrioEzve3Wm982iaQXAhRbtSIfdI31ri6NhRzs6FgDQHht5tsjwvura+ZsM75tN0woAtVjUCW07Z3jvV3mOzPC+AID6ODjT+/7S4hyMxmhaASDnWp4C4M2eT1q+fgMAgLLU+fVNmd67cf1kmloA/EeG99XBEO/wHJXhvQEA5b3L4gC4HM7N9L7ZNLEAuNxzm2elDO+tAuA4z90Z3hsAUI5a/x6W6b1vtIYtAJQmFgA6n/xEzxEZ3luV4fsyvTcAoByt8Voy03sfb9GsrlGaWADItyzfRVqzAN/zXJbp/QEA1drG8t39y7czvnc2TS0A/mSxJXCHDO+9kEWBoa2Bj2Z4fwBAdRa1+Eyflun9z7eGHinf1AJAvml5CgDZ1OJRwDGZ3h8AUI0PWOz9z+WbGd87qyYXAD+w2LaX60xn/dBoVefFmd4fAJDXjp73Znz/Wz2nZXz/rJpcADzo+ZTnE5neX/9u9H/sVp6bM30PAEAeOvDnVMt7nfu4RQfARmpyASBfslgMmGsWYGWLIkCNhxr7fzIAdMzintM9K2b8Hn/3fC3j+2fX9AJArYE/mZKLVo9+xfNqa+A2DwDomKdZXJi3zPx9dPffqNa/g5peAEhvFmCFjN9D5wSo2tM+UooAAKgnXfx1Q3hg5u/T+Lt/aUMBoLUAujB/PfP30UKShzwfzvx9AACTo51b/1bB93m3teCxcBsKANEez0Ms37bAng9ZTPl8OvP3AQBMjLZu/3sF30f7/k+u4Ptk15YCQO2BdcKTzgnI/b/pU+n7fTbz9wEALJim/fUY+KMVfC81h9PJsa14FNyWAkCutLgov7uC7/UZzyqe91gUAwCA6qm7nz6PD6/o+2nh37UVfa/s2lQAiKboX+JZu4LvpedMq1nsDnikgu8HABihFr86GO6lFX0/Xfg/VtH3qkTbCgAtCHy5xTkBC1fw/V5hcSzxfp77Kvh+AACzGRb7/GdV9P10k/cya8HCv35tKwDkUosV+5+p6Pvt4rnEogho3HnQANAwOqtFHf7WrfB7vtPz+wq/XyXaWADIsZ5dPS+o6Putb1EEHOr5bkXfEwC6Rvv7tf9+8Qq/p4qNL1f4/SrT1gJAC/PUvEcV26oVfc8lPKd4trNYH8BRwgAwHHrer0Xeb674+/7V8zpryar/QW0tAOROz76eX3gWq/D7vs2iffBBnj9X+H0BoI028Jzk2bri76s1Zft47qn4+1amzQWAaFr+lZ7/stgrWpVtPbMt9qZq6qiV1SMAZKQtfm+xaO1b5U2caBZZi/5mV/x9K9X2AkB0mp8uxFV379MjgS96Xux5jXGkMACMl47y/bbFWq4S3u75SaHvXZkuFACiZ0daMfrGAt97d89Vnnd4TjBmAwBgLLrrP8TiM3uZQmM41uLmrfW6UgDooqtn8+re9+IC33+GRTWrpkFaxMJ2QQCY1yYWj0xzn+kyP3pcXMVhQrXQlQJAHrfoGKUtHXsXGsNzLJ4pqUeBThV8sNA4AKAulvIcZTFLulDBcehx8QGeJwqOoVJdKgBEW/PUKlj/R1fVI2CQ/p3rDAF1LNQP/BnGYwEA3aOF2ftbTPevXngs6iqoz+THCo+jUl0rAEQtHfVDp//Dn19wHGtYFCK/tphy+m3BsQBAldQvRQuzty89EPdD6+DFX7pYAIj6OatHQOkiQHb0/Mbzfc+RnuvLDgcAslnH4kCdfy09kEQXfz0a7mTjtq4WAKIiQAsCv+45uPBYRHtOdZ7AFyx+Qe4oOxwAGJoVLW5wtAi6ioPaxkMthdVn4PHSAymlywWAqOo7xHOTxQ9nafrF0LqAN1hsQ9EU2e1FRwQAk6fTUtWHRRf+Kvv3L8gHPR+xjq+/6noBIPoBeL9Fox7dfVfZMXAsaiKkXxpVp1/yfMooBAA0x8oWn2Fvsnpd+LXC//Web5UeSB1QAIzQhfYWiwN96vIDq0JACwRVPWt/7LEWsxUAUEdaza9ZTDVdq8vnaI+2XWvtwVmlB1IXFADzOsNiVapW569VdijzUCHwLs9hFscNq49A686mBtBYW1h8RmktUx2vK9dZLPy+pvRA6qSO/0eVNtuzlcVMwB5lh/IU+v/roJSfWawR0Gunn2MBKEKPS7WLSrOUuxQey/z8yGKh932lB1I3FACju9uzl+cYi/UBdbRbypUWaxdUsDxQdEQAumC6xSmrb/VsVHgs86MbIy32+6jF6X4YQAEwNi0W+YDnMotDfKaXHc6Y1D/7qxYLBU+0WCvANBeAYdvYYlGfZiDr+nnYc69FkfLTwuOoNQqABVOzoNmek6zsIRULsrRFRa78wqIQ0Ng72eACwFAsYtGfRAuRdyo8lvG6wGLK/8bC46g9CoDxucEzy/Nez9FW9sCK8dg5Rc2ETvYcbywaBDB+m1ucXqq76OXKDmXc1MpXj2y1SJop/3GgABg/dYtS4wgtutNFdZ2ywxmXFTyHp1xhUQhorcCdxUYEoK70eaHT8HTh36zwWCbqWouxX156IE1CATBxOrRnc89/eg4tO5QJ2SJFOwfO9HzHYj/swyUHBaAo7dXf03OgxTHpdWnTOxF63KmdCA+VHkjTUABMjlbbv87zPYsFeE2YDejRL/h+Kf+w6H2g/x2a2ejcaVhAB+m5vnYQ6QS8fTxLFR3N5Glvvz6Hf1l6IE1FATA151mswj/KogKt+9qAQVrJ2+sroK2Pp1qcSqhFhJ09IANoIX3Wz7K46Kv4f3rR0UyNPps+7vkPYwZzSigApm6uxeJA3UXrZMGtyg5n0pa1qKaVuyweE2gXgWYG5hYcF4DJUQfR3S3u8l9o8TvedDo6XZ9RV5UeSBtQAAzPbM92Fgf4qIHQMkVHMzVa9XtIip6rnWPxqODHFjMFAOpJv7t6lr+PRSfTuvXjn6x7LPqy6JHrE4XH0hoUAMOlqanjLFbaf9iiUp1WdERTp7uIfVP0i/cri8WDiqpw2hAD5agd76YWC/kU9Spp2qPI+dFnjhb5HW0xM4khogDIQ/vvdRpW7wS/WSUHM0T6YJmV8gmLkwnPtigG/ttzf6mBAR2i2UUt4tMFX734Vy07nGz0+FEnC15deiBtRQGQl5rv6JAM3T2rOcWaRUczfDMttkIqmv240KIQON9zqbGrABgG7dzZxrOr53kWJ5a26S5/0F8sThbUOiRmGDOiAMhPP8A6Xlg9qd/gOdKzYtER5aGfpV4HQj3+0FZJ7SZQMaDdEjq0iO5cwILpsaGm9XdNeY5nyaIjqsatFs3WvuF5pPBYOoECoDrarqL1Ad/0vN1zhGdGyQFlpr3Fe6WIug9eYLGG4NcWsyMs5gHic1gX/J1SVEQvX3RE1dLCYj1S1KmmNPOpEAVA9XRnrOMpe92rDrNuVPf6QHtJiqgJ0cU2UhCowyLbDdEFWli7rWdHiwu+dg81tRnPVOiz8LMp9xUeSydRAJSjbS06uEKzAuojoMcDSxQdUbXUhGj3FNF6AZ1XoELgkvSqZ4E8A0STaTp/XYsL/jbpVS25u/zZ+6DFDZDu+jmXpKAu/xDWxe2ed1rMCrwtpclduiart9Bpm76/U5HUKwb0qoWFt1c/NGDcVvJsbSMXfGVGyQHViLbxfc5iqp9+IjVAAVAfqoTVUliH9bzeYhXsKkVHVJ4KoT1Sem6xmClQLk+vfzVmClAt7b9fy0YO2eql67+zo7nZ4nNNnVIfLDwW9KEAqB89G9eWQVXJB3vebTGFiLBqyl59f6eZgtkpV6VcY/GMEZgqPa7a0LNxyuYpM4qNqBl0WI+m+XXy6KOFx4JRUADUl7bBqGLWrgE1/NCjgT3m+9/oLs0UPDel3xyLYuDqvld9KHEXgtFoMe4Gno1Sehf8NUoOqoHUGExT/ecaW39rjQKg/vQL9JMUfTi91aJHfxdXDU/Umil7D/y9OhiqELg2vfYyxzgFse30mbemxe/S+gOZWW5YjaeZy297vmjxu4QGoABoFl2wNBOgQzFelb7m8cDEzUzZZeDvtRNhjud6zw0p/V/rUQNrDepNz+Z16t1afVl74M987g2PPpP0uPIEiyIADcIvQjNpz2xvNa2mvV/r2d+zSMlBtYB2IqyXMhqddaBC4MaUm0YJjUzy0lbZXgG3et/XvT/rAr90sdF1g5qanWrRse+XxjR/Y1EANJt+8c5L0V3PKy368m9aclAtpgvLZilj0fYm7VS4LeXWMb7WligWRgUVrjrGVlvoVk6vo32txZ9d3CJbF9pxozVJOu30nsJjwRBQALSHLjyft5gV2NKiEDjAYgUzqrNsysbj+Ge1S+HuMXKvxZSqcn/f1/3RbEPpNQv6DNFd+fS+LD3wZ0UX7mXHSBc6YTaVZhtPtrjwX154LBgyCoD20TPq36WowZAWwKkQeIHFFDfqY6mUZ0zhPXSewsNj5JH0n/fy5MCfe2cxLDSQaQN/XtSz2Bhp86l0XaWZqR9b3OnrEDNadLcUBUC76Q7xBym6A9M6ARUDsywWS6H5dAFe0riLxtSoONTJnbron24xA4WWowDoDj2z+0bKap6XWRQDW5YcFICi1GJbF33dJPy98FhQMQqAblJrzt4pXGpyso9nP4vTyaaVGxaAzPTYRyv3dZd/hsVuFnQUBQDUR/+4lBU8L/Ls69nN2FYItIHWgqgrny76Zxon8CGhAEC/OyxW+ypaya0WxC+0aEG8fMFxAZgY/S6fbbGYT615adKDp6AAwFi09ez7KVpoprUCe6boiFMWEQL1oUV8Ojb7rJTLjQY9WAAKAIyHnhteknKMxWzA7hbFwPON2QGghNst7vJ1wf+ZRXMpYNwoADAZeoZ4SooWDarpjfrqqy3xLKMVK5DDvZ4LPD+32LKn0y05mwKTRgGAqdI04x9SjrV4XLCFRUGg7GTRKQ7AxKhT5K8sLva66M+2keZNwJRRAGDY9AHV60T4SYudBFt5dvBsn15XKDY6oL50RsRFngvTq36HHis6IrQaBQByU1vRi1JEiwfXsSgGetnYWFSIbtHU/ZU2crFXbjCm9FEhCgBUTR9wf0k5Mf3dMp5nW8wUKNpxsHqR0QF5/M1zmcVd/aUWK/bvLzoidB4FAOpAJ46dk9KzokUhoPSKgpnVDw2YMHXX613sL0u5o+iIgFFQAKCutMWpt6e5R+fCa4GhHhlskl43tDiVDqiaTlzUSvyrLKbz9XqFxc8uUHsUAGgSLZI6O6VHuw60pqBXEGySso5xVC2GQwtb9cjqShu50Ov1emNVPhqMAgBNpw/g61JO7ft77T5Yy7N+ygZ9X69S8RjRDLfYyM+Scm161eI8VuOjdSgA0FbafXBtyqDpnvUsigIVCWv2RacjcghSO+lnQodfzemL7uL1M6I7fPrlo1MoANBF+qC/PGWQOhuubPMWBYoKA80crOpZLv8QMQnqUKm7eJ1rr1X3cwZyq9EfH/hfFADAvHSBuCXlojH+GS06VJGw6hhZPkUNj5hNmBodZXtnX24ZyM3p9db0zwIYJwoAYOK0+ntOyvyoudGSNlIQDGZZi3MTellm4OuFhz7yMvT8XFs97+977Y8Oseld4Pu/Vh40muMAWVAAAPnowvVAypxJ/Pc109ArBnSewuLp70Z77f9ahcNCKdP6vh4t8sR88mTf17qQz7UogOYOfD34+pDFxV7hzhyoIQoAoL4eTmFfOYChowAAAKCDKAAAAOggCgAAADqIAgAAgA6iAAAAoIMoAAAA6CAKAAAAOogCAACADqIAAACggygAAADoIAoAAAA6iAIAAIAOogAAAKCDKAAAAOggCgAAADqIAgAAgA6iAAAAoIMoAAAA6CAKAAAAOogCAACADvr//wBfdz/t/soAAAAASUVORK5CYII=;" parent="tFHFQbnFNSWmSSy7VT7S-12" vertex="1">
          <mxGeometry x="40" y="220" width="92" height="92" as="geometry" />
        </mxCell>
        <mxCell id="ys3Dvjy36r9Csz-poOXo-4" value="" style="shape=image;verticalLabelPosition=bottom;labelBackgroundColor=#ffffff;verticalAlign=top;aspect=fixed;imageAspect=0;image=data:image/svg+xml,PHN2ZyB4bWxuczpkYz0iaHR0cDovL3B1cmwub3JnL2RjL2VsZW1lbnRzLzEuMS8iIHhtbG5zOmNjPSJodHRwOi8vY3JlYXRpdmVjb21tb25zLm9yZy9ucyMiIHhtbG5zOnJkZj0iaHR0cDovL3d3dy53My5vcmcvMTk5OS8wMi8yMi1yZGYtc3ludGF4LW5zIyIgeG1sbnM6c3ZnPSJodHRwOi8vd3d3LnczLm9yZy8yMDAwL3N2ZyIgeG1sbnM9Imh0dHA6Ly93d3cudzMub3JnLzIwMDAvc3ZnIiB4bWxuczpzb2RpcG9kaT0iaHR0cDovL3NvZGlwb2RpLnNvdXJjZWZvcmdlLm5ldC9EVEQvc29kaXBvZGktMC5kdGQiIHhtbG5zOmlua3NjYXBlPSJodHRwOi8vd3d3Lmlua3NjYXBlLm9yZy9uYW1lc3BhY2VzL2lua3NjYXBlIiBpZD0iRWJlbmVfMSIgZGF0YS1uYW1lPSJFYmVuZSAxIiB2aWV3Qm94PSIxNTIuODUwMDA2MTAzNTE1NjIgNTMuMjYzNzgyNTAxMjIwNyAyNjYuNDUzMTI1IDQwMy4yMDYyMzc3OTI5Njg3NSIgdmVyc2lvbj0iMS4xIiBzb2RpcG9kaTpkb2NuYW1lPSJxZmllbGRfY2xvdWRfdjA3X3RyYW5zcGFyZW50LnN2ZyIgaW5rc2NhcGU6dmVyc2lvbj0iMC45Mi41ICgyMDYwZWMxZjlmLCAyMDIwLTA0LTA4KSIgd2lkdGg9IjI2Ni40NTMxMjUiIGhlaWdodD0iNDAzLjIwNjIzNzc5Mjk2ODc1Ij4mI3hhOyAgPG1ldGFkYXRhIGlkPSJtZXRhZGF0YTIzIj4mI3hhOyAgICA8cmRmOnJkZj4mI3hhOyAgICAgIDxjYzp3b3JrIHJkZjphYm91dD0iIj4mI3hhOyAgICAgICAgPGRjOmZvcm1hdD5pbWFnZS9zdmcreG1sPC9kYzpmb3JtYXQ+JiN4YTsgICAgICAgIDxkYzp0eXBlIHJkZjpyZXNvdXJjZT0iaHR0cDovL3B1cmwub3JnL2RjL2RjbWl0eXBlL1N0aWxsSW1hZ2UiLz4mI3hhOyAgICAgICAgPGRjOnRpdGxlLz4mI3hhOyAgICAgIDwvY2M6d29yaz4mI3hhOyAgICA8L3JkZjpyZGY+JiN4YTsgIDwvbWV0YWRhdGE+JiN4YTsgIDxzb2RpcG9kaTpuYW1lZHZpZXcgcGFnZWNvbG9yPSIjZmZmZmZmIiBib3JkZXJjb2xvcj0iIzY2NjY2NiIgYm9yZGVyb3BhY2l0eT0iMSIgb2JqZWN0dG9sZXJhbmNlPSIxMCIgZ3JpZHRvbGVyYW5jZT0iMTAiIGd1aWRldG9sZXJhbmNlPSIxMCIgaW5rc2NhcGU6cGFnZW9wYWNpdHk9IjAiIGlua3NjYXBlOnBhZ2VzaGFkb3c9IjIiIGlua3NjYXBlOndpbmRvdy13aWR0aD0iMTkyMCIgaW5rc2NhcGU6d2luZG93LWhlaWdodD0iMTAyOSIgaWQ9Im5hbWVkdmlldzIxIiBzaG93Z3JpZD0iZmFsc2UiIGlua3NjYXBlOnpvb209IjEuODg2ODMwMiIgaW5rc2NhcGU6Y3g9IjM2OC4xNTc5MSIgaW5rc2NhcGU6Y3k9IjIyOS42NjM3NiIgaW5rc2NhcGU6d2luZG93LXg9IjE5MjAiIGlua3NjYXBlOndpbmRvdy15PSIyNyIgaW5rc2NhcGU6d2luZG93LW1heGltaXplZD0iMCIgaW5rc2NhcGU6Y3VycmVudC1sYXllcj0iRWJlbmVfMSIvPiYjeGE7ICA8ZGVmcyBpZD0iZGVmczQiPiYjeGE7ICAgIDxzdHlsZSBpZD0ic3R5bGUyIj4uY2xzLTF7ZmlsbDojZmZmO30uY2xzLTJ7Zm9udC1zaXplOjQ2LjA2cHg7Zm9udC1mYW1pbHk6TGF0by1Cb2xkLCBMYXRvO2ZvbnQtd2VpZ2h0OjcwMDtsZXR0ZXItc3BhY2luZzowLjAyZW07fS5jbHMtMiwuY2xzLTN7ZmlsbDojNGE2ZmFlO308L3N0eWxlPiYjeGE7ICA8L2RlZnM+JiN4YTsgIDx0ZXh0IGNsYXNzPSJjbHMtMiIgdHJhbnNmb3JtPSJ0cmFuc2xhdGUoMTUyLjg1IDQ0Ny40NykiIGlkPSJ0ZXh0OCI+UUZpZWxkQ2xvdWQ8L3RleHQ+JiN4YTsgIDxwYXRoIGNsYXNzPSJjbHMtMyIgZD0iTTI5MS4zNiwyNDkuNDNhMTEuOTIsMTEuOTIsMCwxLDAtMTEuOTEsMTEuOTFBMTEuOTIsMTEuOTIsMCwwLDAsMjkxLjM2LDI0OS40M1oiIHRyYW5zZm9ybT0idHJhbnNsYXRlKC0xMS42OCAtNTIuNjkpIiBpZD0icGF0aDEwIi8+JiN4YTsgIDxwYXRoIGNsYXNzPSJjbHMtMyIgZD0iTTMxMC42NywyNDkuNDNhMTEuOTIsMTEuOTIsMCwxLDAsMTEuOTItMTEuOTJBMTEuOTIsMTEuOTIsMCwwLDAsMzEwLjY3LDI0OS40M1oiIHRyYW5zZm9ybT0idHJhbnNsYXRlKC0xMS42OCAtNTIuNjkpIiBpZD0icGF0aDEyIi8+JiN4YTsgIDxwYXRoIGNsYXNzPSJjbHMtMyIgZD0iTTIxMy40OSwyOTMuNjZhOTQuNTMsOTQuNTMsMCwwLDAsMTQuNCwyNC41Miw5NS44Miw5NS44MiwwLDAsMCw3Mi42NywzNCw5OC4zNCw5OC4zNCwwLDAsMCw2OC42My0yOC4zOCw5NC40NCw5NC40NCwwLDAsMCwyMS42NS0zNi42MiwzLjIsMy4yLDAsMCwwLTQuNjItMy43NSw1My41Nyw1My41NywwLDEsMS0zNy4zNy05OS4xLDMuMiwzLjIsMCwwLDAsMS01Ljg2LDkzLjUsOTMuNSwwLDAsMC0yOS4yMi0xMS41OGMtMy0xMy4zNy03LjUzLTIxLjIxLTExLjYtMjguMTJhMjcwLjUyLDI3MC41MiwwLDAsMC0xNS40NC0yMi4zLDE5LjM0LDE5LjM0LDAsMCwwLTguNDctOC4yM2MtOC00LjEyLTE3LjEtMi41Mi0yMC4yMywzLjU4cy44NSwxNC4zOSw4Ljg5LDE4LjUyYy40Ny4yNC45NC40NiwxLjQyLjY2aDBhMjAuNDEsMjAuNDEsMCwwLDAsNS41MiwxLjQ4LDM3LjgxLDM3LjgxLDAsMCwxLDEzLDcuNzFDMjk4LDE0NC4xNSwzMDYsMTU3LjksMzA3LDE2NS4wNWMtMi0uMTItNC0uMTktNi0uMTlxLTQuMjMsMC04LjQxLjM4Yy04LTEwLjQ5LTE0Ljg3LTE3Ljc4LTIxLjMxLTIzLjE1LTctNS44MS0xNi40NS0xMi4zMi0xOS45LTE0aDBhMTkuNjgsMTkuNjgsMCwwLDAtMTAuNC0yLjgzYy05LDAtMTYuMzYsNS41Ni0xNi4zNiwxMi40MlMyMzIsMTUwLjExLDI0MSwxNTAuMTFhMjIsMjIsMCwwLDAsMy45NC0uMzdoMGwuMDYsMGExOSwxOSwwLDAsMCwzLjgtMS4xMSwxOC41NiwxOC41NiwwLDAsMSw4LjU2LDBjNS42NCwxLjU1LDIyLjIzLDEzLjcsMjAuOCwxOS4wOGE5My43NSw5My43NSwwLDAsMC0yNiwxMC44MywzLjIsMy4yLDAsMCwwLDEsNS44Niw1My41Niw1My41NiwwLDEsMS0zNy4zNiw5OS4xLDMuMiwzLjIsMCwwLDAtNC43NiwyLjU4UTIxMi4xLDI4OS45MiwyMTMuNDksMjkzLjY2WiIgdHJhbnNmb3JtPSJ0cmFuc2xhdGUoLTExLjY4IC01Mi42OSkiIGlkPSJwYXRoMTQiLz4mI3hhOyAgPHBhdGggY2xhc3M9ImNscy0zIiBkPSJNMzUzLjIxLDQyMi40MWMtLjkyLS4xNS01LjY2LS4yNy01LjY2LS4yNy03LjctLjkzLTEwLTE5LjA4LTEwLjU4LTI1LjYxYTU5LjY0LDU5LjY0LDAsMCwwLDExLjgyLTEyLjI0LDExMy41NiwxMTMuNTYsMCwwLDEtOTUuMDkuNjMsNTkuNTUsNTkuNTUsMCwwLDAsMTEuMzcsMTEuNjFjLS41OCw2LjUzLTIuODksMjQuNjgtMTAuNTksMjUuNjEsMCwwLTQuNzQuMTItNS42NS4yNy00LjU1LDEtNy44Myw0LTcuODMsNy41MywwLDQuMzksNS4xMSw3Ljk1LDExLjQyLDcuOTUsMCwwLDEzLjc3LDEuMTcsMTYuNzYtMS4zNXM0LjU1LTQuNzMsNC0xNS44N1MyODIuNjgsNDA2LjQ5LDI4Myw0MDZjNS42OCwxLjgzLDExLjczLDE1LjYzLDE4LDE1LjYzczEyLjMzLTEzLjgsMTgtMTUuNjNjLjMzLjUsMTAuNDMsMy41NCw5Ljg1LDE0LjY4czEsMTMuMzUsNCwxNS44NywxNi43NywxLjM1LDE2Ljc3LDEuMzVjNi4zLDAsMTEuNDEtMy41NiwxMS40MS03Ljk1QzM2MSw0MjYuNDMsMzU3Ljc1LDQyMy40NSwzNTMuMjEsNDIyLjQxWiIgdHJhbnNmb3JtPSJ0cmFuc2xhdGUoLTExLjY4IC01Mi42OSkiIGlkPSJwYXRoMTYiLz4mI3hhOyAgPHBhdGggY2xhc3M9ImNscy0zIiBkPSJNMzc2LjgsMzYyLjE2aDBsLS4wNSwwYTMuNjUsMy42NSwwLDAsMC0uNTQtLjMyYy04LjE4LTUtMTIuNDMtMTAuMjQtMTQuNjMtMTQuMTVhMTAwLjg5LDEwMC44OSwwLDAsMS0xMjEuNDMuNDdjLTIuMjcsMy44Ni02LjUsOC45LTE0LjM2LDEzLjY4YTUuMDksNS4wOSwwLDAsMC0uNTQuMzJsLS4wNSwwaDBhOC43MSw4LjcxLDAsMSwwLDEzLjA4LDkuNmMuNzYtMi4zMywxLjcxLTUuNTUsMy4wOC04Ljc4bDIuMzMsMS4zNWMxNS45NCwxMCwzOC4xMywxNi43MSw1Ni44NywxNi43MSwxOS45MywwLDQxLjY2LTcsNTguMDktMTguMDhsMS40My0xLjIzYTg4LDg4LDAsMCwxLDMuNjUsMTAsOC43MSw4LjcxLDAsMSwwLDEzLjA3LTkuNloiIHRyYW5zZm9ybT0idHJhbnNsYXRlKC0xMS42OCAtNTIuNjkpIiBpZD0icGF0aDE4Ii8+JiN4YTs8L3N2Zz4=;" vertex="1" parent="tFHFQbnFNSWmSSy7VT7S-12">
          <mxGeometry x="190" y="136.26" width="116" height="175.74" as="geometry" />
        </mxCell>
        <mxCell id="tFHFQbnFNSWmSSy7VT7S-15" value="" style="endArrow=classic;startArrow=classic;html=1;strokeWidth=4;entryX=0.533;entryY=0.867;entryDx=0;entryDy=0;entryPerimeter=0;" parent="1" target="tFHFQbnFNSWmSSy7VT7S-8" edge="1">
          <mxGeometry width="50" height="50" relative="1" as="geometry">
            <mxPoint x="299" y="570" as="sourcePoint" />
            <mxPoint x="950" y="414.00295774647884" as="targetPoint" />
          </mxGeometry>
        </mxCell>
        <mxCell id="tFHFQbnFNSWmSSy7VT7S-23" value="" style="shape=image;verticalLabelPosition=bottom;labelBackgroundColor=#ffffff;verticalAlign=top;aspect=fixed;imageAspect=0;image=data:image/png,iVBORw0KGgoAAAANSUhEUgAAAgAAAAIACAYAAAD0eNT6AAAACXBIWXMAABbEAAAWxAHTLy56AABR+0lEQVR4nO3dB5hlVZX28WXzkWloyaGRDA4ZSZKkBQERVIJjQEBUzAHUwYCOgDpmHTBnCYLhG4KiEhwQA6Ag0EpQ0IFWguQk0OTvW69r36nbl6ruCneffcL/9zzvc6tbvLXFqnvW2Wfvtf+PAQCAzvk/pQcAAACqRwEAAEAHUQAAANBBFAAAAHQQBQAAAB1EAQAAQAdRAAAA0EEUAAAAdBAFAAAAHUQBAABAB1EAAADQQRQAAAB0EAUAAAAdRAEAAEAHUQAAANBBFAAAAHQQBQAAAB1EAQAAQAdRAAAA0EEUAAAAdBAFAFBPC3mW8iydsqRnMc/i43hd2DMtvUd/Bv9uWvpeT3qe6Mvgn3t/95hnrufhcbw+6Lk/5R/pvw+gRigAgHx0gX26Z/mUFfq+Xj79Z8vYyEW+F/3dUgXGm5OKgPsHcl96vdtz5xi5xygegCwoAICJeZpnumfVgazS99q70C9rI3fZXTc9ZbUJ/vd08e8VCHd4/u65ZSC9v1OR8f+GNF6g9SgAgHkt4lnds+ZAnmEjF/gli4ysm1RA9WZMnrmAf1aPHXpFwY2eOQPR3z2aZZRAA1EAoGt0B6+Lyfopa9u8F/rV0j+D5lFhtl7KaDQ7cLPNWxT8j+e6lLuMGQR0CAUA2koXg3U9G9jIxX799OcZ5YaFglTYzUzZcZT/XOsNrrWRguC69Oe/eB6qaIxAZSgA0HSastdFfZO+bOxZo+Sg0EhalPnslEFzPFd5rkzR1yoOeKSAxqIAQFP07t62sLjA9y72uvjzc4zc1kzZu+/vtC1SRUCvINDrFRaPGXiUgNrjgxN11LvYb9mXrSxW1wN1oX4LG6f0u81z2UAoClA7FACoA13Yt/NsbVzs0XwreV6Q0tNfFFzqudhiayNQDAUAqqZtXRt6tu/LWKu2gbYYrSjQ44OL+vIno+kRKkQBgNzUmlZ39ztYXOz19TJFRwTUwwYpr05/vtdiZuDClN9YtFUGsqAAwLBpVf62nl08z7W44C9SdERAM8zw7Jkij1jMDPzcc77FowN2HWBoKAAwVfoZ0nP73gVf+6sXLzoioB0WtfidUj5k0YvgVzZSEGjHwePFRofGowDAZKhb3vMt7lR2szjABkBeS3j2SJF7PT/znOU52+JMBGDcKAAwHtrupKl8XfC1iGnTssMBYPHI4F9TZLbnpxYFgdYPMDuA+aIAwFh0kt0LU7jLB+pv85QjbWR24EzPjy3aHAPzoABAP03t7+PZz7OzZ6GiowEwWTNsZHZAMwEXeE7z/NDitESAAgD/3Ia0b8o2hccCYPj0Of+8lC9ZPB44PeXPBceFwigAuklH4L4iZaPCYwFQrd6BR5/w/MHz3ZS/lhwUqkcB0B0rel7qOcBiQR8AbJryMYvmQ6d4fmC0Ke4ECoB2m24xta+Lvqb/eKbfLmob+/B8oqYxj6d/7omUJwdeRT8X0wZee1/rM0KNnBabT6Zl/V+JquyQcpznXItiQGsGHig5KORDAdA+OklPv8SHWiwAWqLscDAGXYC1MvvuMaL/7B8LyCOVj/qp9POmAmH6fKIdJDMsdpYMZjnP09P7oB50XeidW/Cg5/ueb1q0KeZEwxahAGgPHTZysOe1Fgv7UD1d1P+ecqvFCXBj5V5rx8EvuiA8kjLZaWPNIKgI0GOqlfqy8sCfV/WsYhQLVVrS85qUP1oUAid67ig5KAwHBUCzaZpWHfl00dd+ff7/zEsX7hs8N6bcNBBd+Gm+MnEqhO5K+eMC/lk1pVJhMNOzenrt5RmeNS2KBQzfv3g+bbFe4Eeeb1j0Gnhifv8l1BcXjGbS1Kmm+N9i8aGH4dB05/94rre40N/Q9/Uci17sKOsxGynALh7jn9Fd65qetVLW7ntdx3gsNlUqwvZPmeP5gudbRrOhxqEAaJZNPG/zHGgcuDNZutvUBV1nsV838KoGKTzjbD4VclenDNLjBj1KWN/iUVn/61rGgsaJWtNiVkCHFenRwOc915QcEMaPAqD+NM2v6f23W5wKhvHRtORfPFdZXAh6r/o7jlTtLhWAvUc25w/8Zzp9b12L3hjKxul1PaMwWBDNqrwx5TzP5zw/MR4P1BoFQH3pDv/Vnn+zuDPB2LTgTkej/t5zpcWFXnf0D5ccFBpHCxlHmznQVkfNEqgg0CzcZp4tjLUGY9k1RY/PPuU53vhdrCUKgPpZxvNmz+EWq6IxLz2jv2IgtxYdEdpOF6/fp/TTjoQtBrJ2tUOrNf27+LLnKM9/er7iub/oiDAPCoD60N3E4RYXf07eC1pV/9uUSzyXee4rOiJgRG/L50/7/m6GZ0uLczW2TVm58pHVi/73q+3w+zxftGg0xDbCGqAAKE8LknR8p1b1L1p4LCXNtbjI/7bv9WZjUR6a5V6LZ+DnpT+rZ4G2KKoQ2KbvdbESgytshuf9nnd6vm6xnZDZu4IoAMpZ3vNei618Xfww0J7vX6f8ymIqn8V5aBsVsL1ti/+V/k6dE5/l2cmzY8qyRUZXhtY3aVHz6ywWC37SovslKkYBUD09439nylKFx1IlbbHTqutfpWiRXhs64QETpUL3NylaJKcdBs+0KAgU7fZZtdjoqqNC4D2eN1lsJTzWosU1KkIBUB1tk9Eefv3AP73wWKqgiv7nNjIdqnPHmc4HnkqF8DUpX7V4bKBdB7tYrKZXQdDmzwyteVIfAc0KfNzzJYtHgsiMAiA//TLrND4tglmt8Fhy0krpX1i0BtWdvlZMc4cPTJwK5T+l6GKoXiDaeqhiQKd67mztXC+kx6KaCdCN0hEWj0y4aciIAiCvrS1WvG5XeiCZaEveWRaroHXxp1UuMHxqpnN5ih4ZqNXxLM+eKW3beriG5wcWjwoPs1gfhAwoAPLQ8zutcD249ECGTM8uNa2vC74u/H8uOxygk9Tq+CcpmmFUG+NeMaDHBQuXG9pQaT2Etv7qnAHtHrit7HDahwJguPSL9y7PByyq9DZQ4w590JzuOdtYpAPUiabIr0051uJ5ugqBfT0v8EwvNrLhUIGj005f6jnGYkaVEzeHhAJgeLS3V8djblJ6IEOg5iY/tLjoX2BszwOaQgX791O0TkAzAvt4XmzNbkikQkbrA7SeStsHLy87nHagAJg6beX7iMUK1qcVHstU3G7x3E0fHBcZC/iAptPZBmenqMPoDp6XWdxNr1BwXFOh/glqFKbWwmoxzLqjKaAAmBpNsanX9TNKD2SSdH73qZ7vWSziY2oNaCcV9L0eHIdbzAy83LOfRYe+JtGuCB2Str/nDRY7jzAJFACTo2Y+X/AcWHogk6C7gjM83/Gca0zvA12jQv9nKZoZ2N3is0yPCZq0vVCnpOoz7NsWuwVYnzRBFAATp5WpJ1lsVWkSdR073mKa/56yQwFQE7ohODNFzYY0K3CIxZqmptCx6eqN8EqLzzmMEwXA+GmF/9EW/funlR3KuKn97omeEyyaigDAWHRj8OWUDT2vstjK3ITFg+qFoHNF1FHwo8bjzHGhABgf7bPVlPnWpQcyTudY/BJr+x6/CAAmSm2J1bZc++/3tnhUsFvRES2Y1gZoq+AenoM815cdTv1RACyYpsS+adHLv87Ue18NM9RL/C+FxwKgHXQDcUbKep43Wky51/lsgu09sy1mME4vO5R6owAYm/7dqH//O0sPZAF+5/m85/8aB2gAyEedP3uNzrSdUD37n1V0RGNT34DTLB4HfNCinTIGUACMbkWL/fCzCo9jfrRoR40xtK2HAzMAVEU3GsdbrC3S4jttydur5IDm40jPlhYNhO4uPJbaoQB4Kj3nV+U4s/RARqEVu/qlUxMMFvUBKEk3HhekaNGgZkv17H2RckMaldYEaKZU7ZF/X3gstUIBMC9Na+kCW7e9sNrf+rmU2wuPBQAGadHgoRaPB9QVVY8Hlio6onmpZ8DFFjMBZ5QdSn1QAIx4h+ezpQcxQH29dfjFscb0FYD6u9Vi2v0zFp+patBTl0JgcYvOp2/xfKXwWGqBAiD29OuM7Tot9uPCD6DJ7rKYDdDjShUCmhWow8mE+rzXFmk94v136/j6qa4XAJrq15T/y0oPJHnY4hdGi/u48ANoul4hoNnVd1ucQ1CHR6zqb6AiQCcLPlZ4LMV0uQDQvv4feXYtPRCLKlQd+1SR3lh4LAAwbLqhURfVL1mcnnpQ2eH8k/oEaMeXDkR6uPBYiuhqAaBnQXW5+P+35wiLxhUA0GZ/s2gvfKzFo9ddio7GbE+LdQEqAh4pPJbKdbEA0MX/h1b+4q9ufXouprO6O/0cCkDnXO55nsWR6trdtHbBsWgMKgJ0vHCnioCuFQCLWezxL9nTWj9gH7PoMtjJaScAsLjx0Xkl53veZ3H2QKkeAmpkpG6qL7EOHZHepQJAp/n9l+f5Bcegs6vfatFSEwAQnQXVrvdkzxet3OzsCy06wP6rdeQQta4UAE+z2PpRql3lnRYX/h8Y0/0AMJprLWZnX2FxvsmyBcawj8UWbH1et/6zuisFgKaWXlvoe6tnv7aa3Fbo+wNAU+iie4rn555vWDyfr5qOPtYs7bEFvnelulAAaI//xwp8X7XvVRes460DlSQADNHfPXtbtBdWb5QlK/7+6lswx1reNrjtBYDOhT6hwPfVCX3a6jKnwPcGgDbQjdPXPed5TrL4PK+KHhtrJkKnHV5a4fetVJsLgJUsVvxX3XVKe1vVC7sTi0gAILPrLY5m186pd1T4fbVlXNeQzS06GrZOWwsA9XtWZ72VKvyemvJ/tcV+UgDA8Khdr85r+Y3nW1bdI4GZ6fvtYy18lNvWAkCd9Xav8PvpKEx1krq2wu8JAF2jnVRXWtyZP7Oi7/kii6Ztx1X0/SrTxgJgO89/VPj9zrHYN/qPCr8nAHTVHz3bWMy2VtXUTY92f+25rKLvV4m2FQA6bvK7noUq+n5aYNjp06QAoADdcGmXwDc9B1bw/dRI7nuezTwPVfD9KtG2AuAYzxoVfS+daKXuVa17LgQADaCWvdptdZPFSYO5rWtxtPGRFXyvSrSpANjCYt99Fd5icawlAKAc3YDpHAH1DajiGb3Wl6ll8dUVfK/s2lIAaMr/Kxar/3N7m3HxB4A60YmCug58NvP30TVTbeXVH6Dxs79tKQD0HH6bCr7Puz1fqOD7AAAmRh0DtXc/9yLwnTyvsujy2mhtKAC08O8jFXyfoy1WggIA6umjFkXABzJ/n49bbEls9ILANhQAOrVpuczf42ueD2X+HgCAqdPi7FU9r8n4PdRk7g0Wsw6N1fQCQHf//5b5e1xo8dy/8c97AKAD9FmtE/029Dw74/fRKbNftQbPAjS9ANDdf84zo7W9ZH+L7SYAgGZ4xKI76+8sZgNy0CzAGy3/wsNsmlwALGV57/510d/Xc1vG7wEAyENbA1UE6HTWhTN9D80CaFfA3Ezvn1WTC4CXWd67fzUV+l3G9wcA5PVbz4ct3xquFS1mib+T6f2zanIBcGjG977CWPEPAG2gFfu6SG+W6f1faxQAlcq5uONxi9Wj9PcHgObTZ7k+0y+xPOfEzPKs4/mfDO+dVVMLgNdmfO/PeGZnfH8AQLUut1isd0Sm91eB8f5M751NEwsAVXAHZXrv+zyfyPTeAIBy9ChAq/anZ3hvdQZU86FGbRdvYgGwpWeFTO+tCvGeTO8NACjnbovGPR/M8N6reTbx/CHDe2fTxAJg90zvqwt/FadJAQDKUAGgU2OXyfDeujZRAGSWqwD4osUjAABAO91rcZrr+zK8t65Nn87wvtk0rQBY2rNdpvc+MdP7AgDqQ5/1OQqA51gcRNSYpkBNKwC2tzxjVrOIP2d4XwBAvfzJosnbVkN+30UtblDPH/L7ZtO0AmDjTO97Uqb3BQDUjxr3DLsAkI2MAiCbDTO97xmZ3hcAUD+neY7N8L65rlFZUACY3ei5OcP7AgDqSZ/7t9jwTwqkAMjkaZbnX+5vMrwnAKDe9Nm/35DfkwIgk+UtTwen32Z4TwBAvemzf9gFgK5T6jHQiC3lTSoAcjRukKsyvS8AoL6uzPS+FAAZPD3T+96Z6X0BAPWV67N/hudvmd57qJpUAGyS6X3vzvS+AID6yvXZr+3qjWgJ3KQCYK1M70sBAADdc1em910n0/sOXZMKgBwLAOWhTO8LAKivXJ/9ua5VQ9ekAiBXf+UZnjsyvTcAoJ5yrSvjLIAMHs70vssaBQAAdM2ymd6XAiCDXNM1uX4IAAD1tVym923MY+UmFQC5qqpVMr0vAKC+cn32MwOQwQOZ3lcnQp2W6b0BAPWU4zRAyXWtGromFQC51gA8O9P7AgDqK9dn/2OZ3nfomlQA5LK1ZyHPE6UHAgCohK59uWYAGoMCwGwpzxae35UeCACgEs/yLFF6EKVRAISXGwUAAHTFK0oPoA4oAMIBnvcYjwEAoO103aMAMAqAHm0H2cXzs9IDAQBktZtnpdKDqAMKgBGvMwoAAGi715UeQF1QAIx4icUxjleVHggAIIvNPPuWHkRdUACMeJrnaItCAADQPkeXHkCdUADMa3/P5p7ZZYcBABiyLT37lB5EnVAAPNVnPM/z/L/SAwEADMU0i8929KEAeCrtBjjU8/XSAwEADMUbPDuXHkTdUACMTpXi2Z4bSw8EADAla3g+WXoQdUQBMLrpnq969jIeBQBAU2lx99csWr5jAAXA2Pb0HGFUjgDQVO/z7F56EHVFATB/H/f8weJxAACgOTSD+5HSg6gzCoD50/TR9yyODP5z4bEAAMbnmZ5TLD7DMQYKgAVbxvNDz46euwuPBQAwf8t5zvAsXXgctUcBMD7/YvEYQIdI3Fd4LACA0c3wnOvZoPA4GoECYPz0GOAnnj08DxYeCwBgXtq9dZbnWaUH0hQUABOzg+dHnr09cwuPBQAQlvCc6Xl26YE0CQXAxKlToGYCdKIUjwMAoKwZFuu0nlN4HI1DATA5z/X80qJXwC2FxwIAXTXTYn3WRqUH0kQUAJO3qediz/M9fyw8FgDoGl30dfGfWXogTUUBMDXP8Fzo2c9zQdmhAEBn6FHsqRbT/5gkCoCpe7rnvz3vtThEiLMDACAPNfZ5t+ejFkf8YgooAIZjIc+nLFagvsZzf9nhAEDrqCnb8Z59yg6jPSgAhmt/z8bp9erCYwGAttjEYsp/vdIDaRMKgOFTB6rfed7j+YLnybLDAYDG0jT/YZ6PeRYtPJbWoQDIYzHPcZ4Xe17t+VvZ4QBA46xpMeW/c9lhtBcFQF5aqXql522ek4wFggCwIFrod4jFTdT0skNpNwqA/HQi1Qmel1oUAjeUHQ4A1NbaFo9O9yw9kC6gAKjOXhYzAh+22C74aNnhAEBt6Pn+EZ73WzxCRQUoAKq1uMX+1YM8bzaaBwGAboy+ZBzhWzkKgDL+xfNzzymeIz1/LTscAKjcWhar+19WeiBdRQFQ1gEWPQM+ZzEzcG/R0QBAfuqeqql+rYlapPBYOo0CIPbpl2wp2Xv29VrPhzxfNtYHAGgffdbp0ee/WxQBpT1h0cW1sygA4iCf71n5hSfLeo61qIqP8XzX83jJAQHAEOg6c6DFhX/twmPpedDzEs9ZpQdSEgWA2Q89u3rOtLgIl7aO50TPBy12DGidAIUAgKbpXfg/YPG5Vhe3W+zK+l3pgZRGARAu8mxvcbb0mmWH8r/WtegfoKr5I56TjUIAQP0tbCMX/rrc8ff82fN8z/WlB1IHFAAjrvVsZzEjsE3hsfRTIXC8xYzAZ9LXDxUcDwCMZkmL1ufvtFjhXze/tnjke0fpgdQFBcC8bvU8x/N5z+sKj2WQKukvWiwU/FL6+raiIwIAs5U9b7VY4FeHxX2j0Wf6uzyPlR5InVAAPNUjntd7LrVoSVm3bSrLWTwWeLfFWoHPev5UdEQAumhDi7t9NTar2+dkz8MWn+cnlR5IHVEAjO3rnt9bnEE9s/BYRqMtNa9L+ZnF9kEtZGSdAIBc9Hz/RZ43WSyerrM5FlP+VxQeR21RAMzfJZ4tPd/x7FZ4LPOzW8rNnq9ZFC9/LzoiAG2ymo3ccKxaeCzj8RPPqzx3lR5InVEALJi2jGjV6Ns9n7D6TnWJfknVQ0CPCM7wfNVzvkWzIwCYCDXJ0V2+ptD3sWY0zdGUv571a0aU49cXgAJgfHQBPdbiYqp9+RsVHc2C6f/Xl6T8zWKtwPGe/yk4JgDNsJ7F3bNSx8efY5nteaXnmsLjaAwKgIn5g2drz8ctZgSa4BkW+3GVX3m+7fkvzz9KDgpArUz3vNRziGfHskOZlE9bfMY9UnogTUIBMHFzPYdZPGPS8/Y1yg5nQnZK0e6GMyxaIJ9r/NIAXaSFxHt4Xu55sWeJssOZFDX00bqE80sPpIkoACZPF86NLdr1ajag5IFCE6Vf9ANS7vOcZlEM6JeIXQRAe2kVv57r6wjefT3LlB3OpOkgH22BPtpojDZpFABT84DnHRbrAr7h2bTscCZFHwCvTlGHLG171COCXxpNM4A20EV/ZxtZF7Rc2eFM2eWeQ43tfVNGATAcahq0lcXq06Os/MmCk7WC540p93h+bPGo4ByL07MANMNSFruX9vHsbc290++nO321RD/OmKkcCgqA4dHdshYH/l/Ppyym15pMLT0PStHWGj3yOMOiKKCXNlA/K1lc7Pex6AuyaNHRDJc+V9X9dE7hcbQKBcDwaauduk/tYrF1cJOioxkOzWi8KEV7a3WM5lkpmv14otzQgM7SvvxtPXumbFl2OFlomv9wi0eSGDIKgHy0oO5ZFitUtVCw6c/dep5msRVS0XScOm1pdkDFgB4V3F5uaEDr6S5fU/u64O9u9T18Z6o0y3ikxbZlbjAyoQDIS8+p1JFKK+y1NkCnZS1cdETDp8LmFSmi8xPOsyiAVLXTbwCYvKUtTijdNaUNM4rz86jnc56PWOxQQkYUANXQgrrDLR4J6K5ZHbaatG1wIjZL0SlhKoB0noKKARUFFxs9B4D50eO27Wzkgq+Ztia04J0q3eV/y2K29MbCY+kMCoBqzfG8xvNJi579Ly06mvz087V9Sq9LlwqCX1t0JVRBcG+pwQE1MMPi90Pd99SkSxf8Ni3eWxCtKfquxX7+P5cdSvdQAJTxJ4tGHNo1oIp3r7LDqYw+2HrdCN9n8cuv9sq9guAiz03GIR5oJ62fWd3igq/fAV30N0l/30U/tDi47MrSA+kqCoCytMJV23aebbHg5YVlh1M5ffD1Hhm8Jf2djjHWLMFv06t2GdxfZHTA1Gjvve7ot7FYra/XlYuOqB7O8HzU4ncbBVEA1MNvLLbY6W7gPRa9ubvw3G80q1j0JX9x+rNmA/5oI8WAiibNGtCYCHWypEUhu4XFRV8X/GcWHVG96Bn/yRZHqnNaX01QANSLpsIOtJgWO8JivUCXngeORrMEG6Yckv5OxzNfZ9ES9Iq+3F1gfOge7XzRhf5Z6VVZ37o7lT8/aiKmNuk6re+vhceCARQA9XSDxZbBD1kcNPQGz7JFR1Qv2kHxzJQD+v5eq4evSrk6vWr2gMNCMBm6q/8Xz0YWB3/1MrPkoBriTovTUtW2l94gNUUBUG+3WqwN0EJBXejeZjHNiNGtnrJn39/pEYKODO0VBVqAeV3KPVUPELWkZjobWNzFq6jcKGVt465+ojQTp3386n3ycOGxYAEoAJphruebFvtktXpYswI6a6CtvQSGSR/g66S8eOA/U7ex6/pyrUUrZ83A0MCoXaZ71vKsa3Gh713wleULjqsN9Hxfp4jqwq+dPOziaQgKgGbRL9YvU57heZPFOoEVSw6qwVZI2WGU/0xTmCoErk+v/dFWRe5u6kUNdDQ1r4v82um1/+u2tOKuE81Q6qZE3U5vKjwWTAIFQHP9zWIvvToLaiuhzsdWj3BmBYZj+ZStx/jPNXtw00BuTK+3eG6zaGXK3dDUaAZH2+m0fW5Vi4t8L6v3fc1dfDW0APcnFjOSP7U4BRUNRQHQfPoFPD1FH4SHWMwKrFVwTF3Qmz3YYj7/jDof3taXW/u+vivl7r6oYHgy35BrQdtbdUFfdiC6Q9dBNyun1/6vFykyUvTTozFd9E+wKHDRAhQA7aK7Tx2ioSYbz/W81uJs8MULjqnLtIXzGSnjodkCLUxUMXCvxToE5f6+r/uj3Q0PzycqQJ7oy5MDf+6dsrbQQKYN/Fn/OxabT5aweMbey9IDf1a00E4X+hnGwrqmUK8N3Vjowq/Hjm0vTjuHAqCd9It6XspSFovftItgD+tug6Em0IWxd0cMlKADvHS09ymeM42GW61GAdB+D1h04FI0Zf0Si2Jgx5KDAlArv7C46Gs1/12Fx4KKUAB0ixaufTllDYuWw/tZ9CgH0C06jfM0z/eNI3g7iQKgu9SW8xMpWjy4j0VvgZ2NxwRAG2l6/+cWz/V1Eh+L+TqOAgCixYNfSNFqbG0r1MzA7haLvAA0k5qInWNxp/9jo/sl+lAAYJCe/52QogWEu1q01lXGu5odQDlzLBbyKecbC/kwBgoAzI8WEP4wRSvUdTBKrxh4jmfhckMDkDxqsYivd9FXS2saUGGBmlQAsHe4LH2gXJPyGYvZgV0sigG9rl9uaEDn6FAr3d3rgq/n+tzlY8KaVADQy7teNDvwoxRZzaL50C4paxQaF9BGOoPi/JQLjAV8dfb00gMYryYVAKuWHgDm62bPd1JErYhVCDw3hf//gPHT75Pu7M9Pr3OKjgYTsVrpAYxXkwqAJTK9r9qe0uJy+HTH8s0UPb7RjMD2fdnMOLgIELVk/r3FUboXplfty+c5fl65Pn+WyvS+Q9ekAuDRTO+rPuX3ZXpvBH2QzUk5Jf2d/r2rAVGvINjO4pAYoO3utWjC07vgX2rxSA3VyvV505ijwptUAMzN9L7qu04BUD0dZtM7r0BUja/n2TJlK8+zrEHVNDAK/Zxf1pffWZysx6xjebnO3Mh1rRo6CoD4Ibgh03tj/PSBeG1Kb5agVxSoGOgVBjp+d3qJAQILoIv9FRYX+d7F/i/Gxb6uci0spwDIINe0yvKZ3hdT118UnJz+TusJ1JBok5SN0+szjb4EqMZjnj96rvRc1ff6N+O5fZPk+ux/KNP7Dl2TCoBc+1x18Tgn03tj+PQB+9eUH/f9vS7+6kXQKwyemf6sGYRFKx4j2kE3HX/2XGex7/7KFP3dYwXHheHYJNP7UgBkkGuRzLaZ3hfV0gfy1Snf6/t7HWykw442sCgI+rOm0WCq6zTLNMfiIj+YG43p+zbL9dlPAZBBrqm1Z2d6X9SDtlj1ZgzOHfjPdNCRHiesOUZWqWKAyO7vNrILZTD6uXikxKBQlAr/zn/2N6kAyGVmyk2lB4LKaYq3d7c3mv4CQX0MVBCsOpCVjH4Gpeju/FaLrnj90QVfz+PnpNfGbMtCZVY3CnwKgERH336u9CBQOwsqEES/QyvavEXB8vPJkhnH2wZ61KcTKe8cI/0X+tssZniAidq/9ADqgAIgHGgUAJicx23kgjQei1tsP1IxoC2oS/dlmTH+rNcl0n93sfSq1GX9gh7PzU15OL3qOeh9Kff3ZfDPSu+Cf5dxt45qHFR6AHVAARC2tlgkdm3pgaD1dHG8yab+yEkXf+186C8Iel/r7xdKmdb39WiRJ+aTJ/u+fsyeeqF/OP0929/QFBtZ9BPpPAqAEa/yHFl6EMA46YL7aMr9hccCNMnBpQdQFxQAI97s+aRFn24AQPvosdubSg+iLigARug56zs8R5UeCAAgi3cZrcT/FwXAvFQAHOe5u/RAAABDpYW3h5UeRJ1QAMxLleH7PEeUHggAYKi0xottuH0oAJ5KswBqJXtZ6YEAAIZiG+Pu/ykoAJ5KW6O+ZbE18NHCYwEATI0OA9NnOh07B1AAjG5Ti0cBx5QeCABgSj5gsfcfAygAxqYfGh0ec3HpgQAAJmVHz3tLD6KuKADGpn83p3m28txceCwAgInRgT+nGte5MfEvZv5WtigCdjZ6lANAU6gl9ukWB3VhDBQAC6bVo1/xvNrodw4AdadzMr7m2bL0QOqOAmB8dE6AzhjXPlKKAACoJ1381dL9wNIDaQIKgPHTQhIdcfrh0gMBAIxKO7f+rfQgmoICYGI+ZHEE6qdLDwQAMA9t3f730oNoEgqAifuUxRnpny09EADAP6f91b79o6UH0jQUAJPzGc8qnvdYFAMAgOqpu58+jw8vPI5GogCYPD1nWs1id8AjhccCAF2jFr8nel5aeiBNRQEwNa/wrOTZz3Nf4bEAQFfMsNjnP6vsMJqNAmDqdvFcYlEEXF14LADQdjqrRR3+1i09kKajABiO9S2KgEM93y08FgBoK+3vV5OfxUsPpA0oAIZnCc8pnu0s1gdwlDAADIee92vn1ZtLD6RNKACG720W7YMP8vy58FgAoOk28Jzk2br0QNqGAiCPbT2zLfamftloHwwAE6Utfm+xaO27WOGxtBIFQD56JPBFz4s9rzGOFAaA8dJRvt/27Fp6IG1GAZDf7p6rPO/wnGDMBgDAWHTXf4jF8/5lyg6l/SgAqjHDoppV0yAtYmG7IADMaxOLR6Y7lB5IV1AAVOs5FmsD1LpSpwo+WHQ0AFDeUp6jLGZJFyo8lk6hAKie/p3rDIGXW/zAn2E8FgDQPTrEZ3+L6f7VC4+lkygAylnDc5rn1xZ9A35bdjgAUBn1S9Gx6tuXHkiXUQCUt6PnN57ve470XF92OACQzTqej3n+tfRAQAEgOk3q4NKDcC+zOE/gCxa/IHeUHQ4ADM2KFjc4WgS9cOGx9Kil8OtLD6IkCoDYcnKTxQ9nafrF0LqAN1j0ENAU2e1FRwQAk6fTUtUQTRf+OvXv/6DnI0YB0HlagPd+i0Y9uvt+Wtnh/JOaCOmXRl2wvuT5lFEIAGiOlS0+w95k9brwP2Fx0f9W6YHUAQXACF1ob7E40KcuP7AqBLRAUNWz9sceazFbAQB1pNX8msV8o9Xnc7RH26619uCs0gOpCwqAeZ1hsSpVq/PXKjuUeagQeJfnMIvjhtVH4PdFRwQAI7aw+IzSWqY6Xleu8+zruab0QOqkjv9HlTbbs5XFTMAeZYfyFPr/66CUn1msEdArfQQAVE2PS59vMUu5S+GxzM+PLBZ631d6IHVDATC6uz17eY6xWB9QR7ulXGmxdkEFywNFRwSgC6Z7Xul5q2ejwmOZH90YabHfRz1PFh5LLVEAjE2LRT7gucziEJ/pZYczJvXP/qrFQkFtadRaAaa5AAzbxhaL+jQDWdfPw557LYqUnxYeR61RACzY6RaPBU6yeh9SsbRFRa78wqIQ0NgfLTkoAI22iEV/Ei1E3qnwWMbrAosp/xsLj6P2KADG5wbPLM97PUdb/Q+s2DlFzYRO9hxvLBoEMH6bW5xeqrvo5coOZdwes3hkq0XSTPmPAwXA+D1u0ThCi+50UV2n7HDGZQXP4SlXWBQCWitwZ7ERAagrfV4cYHHh36zwWCbqWouxX156IE1CATBxOrRnc89/eg4tO5QJ2SJFOwfO9HzHYj/swyUHBaAo7dXf03OgZ2+rT5veidDjTu1EeKj0QJqGAmBytNr+dZ7vWSzAa8JsQI9+wfdL+YdF7wP979DMxmPlhgWgInqurx1EOpJ8H89SRUczedrbr8/hX5YeSFNRAEzNeRar8I+yqEDrvjZgkFby9voKaOvjqRanEmoR4eMFxwVguPRZP8vioq/i/+lFRzM1+mz6uOc/jBnMKaEAmLq5FosDdRf9dYsmQk20rEU1rdxl8ZhAuwg0MzC34LgATI46iO5ucZf/Qovf8abT0en6jLqq9EDagAJgeGZ7trM4wEcNhJYpOpqp0arfQ1L0XO0ci0cFP7aYKQBQT/rd1bP8fSw6mdatH/9k3WPRl0WPXJ8oPJbWoAAYLk1NHWex0v7DFpXqtKIjmjrdReybol+8X1ksHlRUhdOGGChH7Xg3tVjIp6hXSdMeRc6PPnO0yO9oi5lJDBEFQB7af6/TsHon+M0qOZgh0gfLrJRPWJxMeLZFMfDfnvtLDQzoEM0uahGfLvjqxb9q2eFko8ePOlnw6tIDaSsKgLzUfEeHZOjuWc0p1iw6muGbabEVUtHsx4UWhcD5nkuNXQXAMGjnzjaeXT3PszixtE13+YP+YnGyoNYhMcOYEQVAfvoB1vHC6kn9Bs+RnhWLjigP/Sz1OhDq8Ye2Smo3gYoB7ZbQoUV05wIWTI8NNa2/a8pzPEsWHVE1brVotvYNzyOFx9IJFADV0XYVrQ/4puftniM8M0oOKDPtLd4rRdR98AKLNQS/tpgdYTEPEJ/DuuDvlKIievmiI6qWFhbrkaJONaWZT4UoAKqnO2MdT9nrXnWYdaO61wfaS1JETYgutpGCQB0W2W6ILtDC2m09O1pc8LV7qKnNeKZCn4WfTbmv8Fg6iQKgHG1r0cEVmhVQHwE9Hlii6IiqpSZEu6eI1gvovAIVApekVz0L5BkgmkzT+etaXPC3Sa9qyd3lz94HLW6AdNfPuSQFdfmHsC5u97zTYlbgbSlN7tI1Wb2FTtv0/Z2KpF4xoFctLLy9+qEB47aSZ2sbueArM0oOqEa0je9zFlP99BOpAQqA+lAlrJbCOqzn9RarYFcpOqLyVAjtkdJzi8VMgXJ5ev2rMVOAamn//Vo2cshWL13/nR3NzRafa+qU+mDhsaAPBUD96Nm4tgyqSj7Y826LKUSEVVP26vs7zRTMTrkq5RqLZ4zAVOlx1YaejVM2T5lRbETNoMN6NM2vk0cfLTwWjIICoL60DUYVs3YNqOGHHg3sMd//RndppuC5Kf3mWBQDV/e96kOJuxCMRotxN/BslNK74K9RclANpMZgmuo/19j6W2sUAPWnX6CfpOjD6a0WPfq7uGp4otZM2Xvg79XBUIXAtem1lznGKYhtp8+8NS1+l9YfyMxyw2o8zVx+2/NFi98lNAAFQLPogqWZAB2K8ar0NY8HJm5myi4Df6+dCHM813tuSOn/Wo8aWGtQb3o2r1Pv1urL2gN/5nNvePSZpMeVJ1gUAWgQfhGaSXtme6tpNe39Ws/+nkVKDqoFtBNhvZTR6KwDFQI3ptw0Smhkkpe2yvYKuNX7vu79WRf4pYuNrhvU1OxUi459vzSm+RuLAqDZ9It3Xoruel5p0Zd/05KDajFdWDZLGYu2N2mnwm0pt47xtbZEsTAqqHDVMbbaQrdyeh3tay3+7OIW2brQjhutSdJpp/cUHguGgAKgPXTh+bzFrMCWFoXAARYrmFGdZVM2Hsc/q10Kd4+Rey2mVJX7+77uj2YbSq9Z0GeI7sqn92XpgT8runAvO0a60AmzqTTbeLLFhf/ywmPBkFEAtI+eUf8uRQ2GtABOhcALLKa4UR9LpTxjCu+h8xQeHiOPpP+8lycH/tw7i2GhgUwb+POinsXGSJtPpesqzUz92OJOX4eY0aK7pSgA2k13iD9I0R2Y1gmoGJhlsVgKzacL8JLGXTSmRsWhTu7URf90ixkotBwFQHfomd03UlbzvMyiGNiy5KAAFKUW27ro6ybh74XHgopRAHSTWnP2TuFSk5N9PPtZnE42rdywAGSmxz5aua+7/DMsdrOgoygAoD76x6Ws4HmRZ1/Pbsa2QqANtBZEXfl00T/TOIEPCQUA+t1hsdpX0UputSB+oUUL4uULjgvAxOh3+WyLxXxqzUuTHjwFBQDGoq1n30/RQjOtFdgzRUecsogQqA8t4tOx2WelXG406MECUABgPPTc8JKUYyxmA3a3KAaeb8wOACXcbnGXrwv+zyyaSwHjRgGAydAzxFNStGhQTW/UV19tiWcZrViBHO71XOD5ucWWPZ1uydkUmDQKAEyVphn/kHKsxeOCLSwKAmUni05xACZGnSJ/ZXGx10V/to00bwKmjAIAw6YPqF4nwk9a7CTYyrODZ/v0ukKx0QH1pTMiLvJcmF71O/RY0RGh1SgAkJvail6UIlo8uI5FMdDLxsaiQnSLpu6vtJGLvXKDMaWPClEAoGr6gPtLyonp75bxPNtipkDRjoPVi4wOyONvnsss7uovtVixf3/REaHzKABQBzpx7JyUnhUtCgGlVxTMrH5owISpu17vYn9Zyh1FRwSMggIAdaUtTr09zT06F14LDPXIYJP0uqHFqXRA1XTiolbiX2Uxna/XKyx+doHaowBAk2iR1NkpPdp1oDUFvYJgk5R1jKNqMRxa2KpHVlfayIVer9cbq/LRYBQAaDp9AF+Xcmrf32v3wVqe9VM26Pt6lYrHiGa4xUZ+lpRr06sW57EaH61DAYC20u6Da1MGTfesZ1EUqEhYsy86HZFDkNpJPxM6/GpOX3QXr58R3eHTLx+d0qQCgG1iGBZ90F+eMkidDVe2eYsCRYWBZg5W9SyXf4iYBHWo1F28zrXXqvs5A7nV6I8P/K8mFQD0m0cVdIG4JeWiMf4ZLTpUkbDqGFk+RQ2PmE2YGh1le2dfbhnIzen11vTPAqU9vfQAxqtJBcCqpQcAJFr9PSdlfjRrtaSNFASDWdbi3IRelhn4euGhj7wMPT/XVs/7+177o0Nsehf4/q+VB43mOGiW1UoPYLyaVADk6ievKV+mBZGDLlwPpMyZxH9fMw29YkA//4unvxvttf9rFQ4LpUzr+3q0yBPzyZN9X+tCPteiAJo78PXg60MWF3uFO3PU0bRM77tUpvcduiYVALk+RLQg7L5M7w1MxcMp7CsHhm+ZTO/7cKb3HbomFQBzM72vpmEpAACgW5bN9L65rlVDRwEQPwQ3ZHpvAEA95drNQwGQQa5pFXYXAED35PrsfyjT+w5dkwqABzO9r9rGnrPAfwoA0CabZHpfCoAMHsj0vttmel8AQH3l+uynAMgg117gZ2d6XwBAPalHR+c/+5tUAOQyM+Wm0gMBAFRideNQMAqAZD/P50oPAgBQif1LD6AOKADCgUYBAABdcVDpAdQBBUDY2uJo2NGOjgUAtMdGni1KD6IOKABGvMpzZOlBAACyOrj0AOqCAmDEmz2f9NxbeBwAgDzU+fVNpQdRFxQAI3QwxDs8R5UeCAAgi3dZHAAHowAYpALgOM/dpQcCABgqtf49rPQg6oQCYF6qDN/nOaL0QAAAQ6U1XkuWHkSdUAA8lWYBvue5rPRAAABDsY1x9/8UFABPtZDnWxZbAx8tPBYAwNQsavGZPq30QOqGAmB0m1o8Cjim9EAAAFPyAYu9/xhAATA2/dCc67m49EAAAJOyo+e9pQdRVxQAY9O/m9M8W3luLjwWAMDE6MCfU43r3Jj4FzN/K1sUATt7Hi48FgDA+CzuOd2zYumB1BkFwIJp9ehXPK/2/L/CYwEAzN/TPF/zbFl6IHVHATA+Oifg7xb7SCkCAKCedPFXS/cDSw+kCSgAxk8LSR7yfLj0QAAAo9LOrX8rPYimoACYmA955no+XXogAIB5aOv2v5ceRJNQAEzcpzxPej5beiAAgH9O+6t9+0dLD6RpKAAm5zOeVTzvsSgGAADVU3c/fR4fXngcjUQBMHl6zrSaxe6ARwqPBQC6Ri1+T/S8tPRAmooCYGpe4VnJs5/nvsJjAYCumGGxz39W2WE0GwXA1O3iucSiCLi68FgAoO10Vos6/K1beiBNRwEwHOtbFAGHer5beCwA0Fba368mP4uXHkgbUAAMzxKeUzzbWawP4ChhABgOPe/Xzqs3lx5Im1AADN/bLNoHH+T5c+GxAEDTbeA5ybN16YG0DQVAHtt6ZlvsTf2y0T4YACZKW/zeYtHad7HCY2klCoB89Ejgi54Xe15jHCkMAOOlo3y/7dm19EDajAIgv909V3ne4TnBmA0AgLHorv8Qi+f9y5QdSvtRAFRjhkU1q6ZBWsTCdkEAmNcmFo9Mdyg9kK6gAKjWcyzWBqh1pU4VfLDoaACgvKU8R1nMki5UeCydQgFQPf071xkCL7f4gT/DeCwAoHt0iM/+FtP9qxceSydRAJSzhuc0z68t+gb8tuxwAKAy6peiY9W3Lz2QLqMAKG9Hz2883/cc6bm+7HAAIJt1PB/z/GvpgYACQHSa1MGlB+FeZnGewBcsfkHuKDscABiaFS1ucLQIeuHCY+lRS+HXlx5ESRQAseXkJosfztL0i6F1AW+w6CGgKbLbi44IACZPp6WqIZou/HXq3/9Bz0eMAqDztADv/RaNenT3/bSyw/knNRHSL426YH3J8ymjEADQHCtbfIa9yep14X/C4qL/rdIDqQMKgBG60N5icaBPXX5gVQhogaCqZ+2PPdZitgIA6kir+TWL+Uarz+doj7Zda+3BWaUHUhcUAPM6w2JVqlbnr1V2KPNQIfAuz2EWxw2rj8Dvi44IAEZsYfEZpbVMdbyuXOfZ13NN6YHUSR3/jypttmcri5mAPcoO5Sn0/9dBKT+zWCOgV/oIAKiaHpc+32KWcpfCY5mfH1ks9L6v9EDqhgJgdHd79vIcY7E+oI52S7nSYu2CCpYHio4IQBdM97zS81bPRoXHMj+6MdJiv496niw8llqiABibFot8wHOZxSE+08sOZ0zqn/1Vi4WC2tKotQJMcwEYto0tFvVpBrKun4c991oUKT8tPI5aowBYsNMtHgucZPU+pGJpi4pc+YVFIaCxP1pyUAAabRGL/iRaiLxT4bGM1wUWU/43Fh5H7VEAjM8Nnlme93qOtvofWLFzipoJnew53lg0CGD8Nrc4vVR30cuVHcq4PWbxyFaLpJnyHwcKgPF73KJxhBbd6aK6TtnhjMsKnsNTrrAoBLRW4M5iIwJQV/q8OMDiwr9Z4bFM1LUWY7+89ECahAJg4nRoz+ae//QcWnYoE7JFinYOnOn5jsV+2IdLDgpAUdqrv6fnQM/eVp82vROhx53aifBQ6YE0DQXA5Gi1/es837NYgNeE2YAe/YLvl/IPi94H+t+hmY3Hyg0LQEX0XF87iHQk+T6epYqOZvK0t1+fw78sPZCmogCYmvMsVuEfZVGB1n1twCCt5O31FdDWx1MtTiXUIsLHC44LwHDps36WxUVfxf/Ti45mavTZ9HHPfxgzmFNCATB1cy0WB+ou+usWTYSaaFmLalq5y+IxgXYRaGZgbsFxAZgcdRDd3eIu/4UWv+NNp6PT9Rl1VemBtAEFwPDM9mxncYCPGggtU3Q0U6NVv4ek6LnaORaPCn5sMVMAoJ70u6tn+ftYdDKtWz/+ybrHoi+LHrk+UXgsrUEBMFyamjrOYqX9hy0q1WlFRzR1uovYN0W/eL+yWDyoqAqnDTFQjtrxbmqxkE9Rr5KmPYqcH33maJHf0RYzkxgiCoA8tP9ep2H1TvCbVXIwQ6QPllkpn7A4mfBsi2Lgvz33lxoY0CGaXdQiPl3w1Yt/1bLDyUaPH3Wy4NWlB9JWFAB5qfmODsnQ3bOaU6xZdDTDN9NiK6Si2Y8LLQqB8z2XGrsKgGHQzp1tPLt6nmdxYmmb7vIH/cXiZEGtQ2KGMSMKgPz0A6zjhdWT+g2eIz0rFh1RHvpZ6nUg1OMPbZXUbgIVA9otoUOL6M4FLJgeG2paf9eU53iWLDqiatxq0WztG55HCo+lEygAqqPtKlof8E3P2z1HeGaUHFBm2lu8V4qo++AFFmsIfm0xO8JiHiA+h3XB3ylFRfTyRUdULS0s1iNFnWpKM58KUQBUT3fGOp6y173qMOtGda8PtJekiJoQXWwjBYE6LLLdEF2ghbXbena0uOBr91BTm/FMhT4LP5tyX+GxdBIFQDna1qKDKzQroD4CejywRNERVUtNiHZPEa0X0HkFKgQuSa96FsgzQDSZpvPXtbjgb5Ne1ZK7y5+9D1rcAOmun3NJCuryD2Fd3O55p8WswNtSmtyla7J6C5226fs7FUm9YkCvWlh4e/VDA8ZtJc/WNnLBV2aUHFCNaBvf5yym+uknUgMUAPWhSlgthXVYz+stVsGuUnRE5akQ2iOl5xaLmQLl8vT6V2OmANXS/vu1bOSQrV66/js7mpstPtfUKfXBwmNBHwqA+tGzcW0ZVJV8sOfdFlOICKum7NX3d5opmJ1yVco1Fs8YganS46oNPRunbJ4yo9iImkGH9WiaXyePPlp4LBgFBUB9aRuMKmbtGlDDDz0a2GO+/43u0kzBc1P6zbEoBq7ue9WHEnchGI0W427g2Sild8Ffo+SgGkiNwTTVf66x9bfWKADqT79AP0nRh9NbLXr0d3HV8EStmbL3wN+rg6EKgWvTay9zjFMQ206feWta/C6tP5CZ5YbVeJq5/Lbnixa/S2gACoBm0QVLMwE6FONV6WseD0zczJRdBv5eOxHmeK733JDS/7UeNbDWoN70bF6n3q3Vl7UH/szn3vDoM0mPK0+wKALQIPwiNJP2zPZW02ra+7We/T2LlBxUC2gnwnopo9FZByoEbky5aZTQyCQvbZXtFXCr933d+7Mu8EsXG103qKnZqRYd+35pTPM3FgVAs+kX77wU3fW80qIv/6YlB9ViurBsljIWbW/SToXbUm4d42ttiWJhVFDhqmNstYVu5fQ62tda/NnFLbJ1oR03WpOk007vKTwWDAEFQHvowvN5i1mBLS0KgQMsVjCjOsumbDyOf1a7FO4eI/daTKkq9/d93R/NNpRes6DPEN2VT+/L0gN/VnThXnaMdKETZlNptvFkiwv/5YXHgiGjAGgfPaP+XYoaDGkBnAqBF1hMcaM+lkp5xhTeQ+cpPDxGHkn/eS9PDvy5dxbDQgOZNvDnRT2LjZE2n0rXVZqZ+rHFnb4OMaNFd0tRALSb7hB/kKI7MK0TUDEwy2KxFJpPF+AljbtoTI2KQ53cqYv+6RYzUGg5CoDu0DO7b6Ss5nmZRTGwZclBAShKLbZ10ddNwt8LjwUVowDoJrXm7J3CpSYn+3j2szidbFq5YQHITI99tHJfd/lnWOxmQUdRAEB99I9LWcHzIs++nt2MbYVAG2gtiLry6aJ/pnECHxIKAPS7w2K1r6KV3GpB/EKLFsTLFxwXgInR7/LZFov51JqXJj14CgoAjEVbz76fooVmWiuwZ4qOOGURIVAfWsSnY7PPSrncaNCDBaAAwHjoueElKcdYzAbsblEMPN+YHQBKuN3iLl8X/J9ZNJcCxo0CAJOhZ4inpGjRoJreqK++2hLPMlqxAjnc67nA83OLLXs63ZKzKTBpFACYKk0z/iHlWIvHBVtYFATKThad4gBMjDpF/sriYq+L/mwbad4ETBkFAIZNH1C9ToSftNhJsJVnB8/26XWFYqMD6ktnRFzkuTC96nfosaIjQqtRACA3tRW9KEW0eHAdi2Kgl42NRYXoFk3dX2kjF3vlBmNKHxWiAEDV9AH3l5QT098t43m2xUyBoh0HqxcZHZDH3zyXWdzVX2qxYv/+oiNC51EAoA504tg5KT0rWhQCSq8omFn90IAJU3e93sX+spQ7io4IGAUFAOpKW5x6e5p7dC68FhjqkcEm6XVDi1PpgKrpxEWtxL/KYjpfr1dY/OwCtUcBgCbRIqmzU3q060BrCnoFwSYp6xhH1WI4tLBVj6yutJELvV6vN1blo8EoANB0+gC+LuXUvr/X7oO1POunbND39SoVjxHNcIuN/Cwp16ZXLc5jNT5ahwIAbaXdB9emDJruWc+iKFCRsGZfdDoihyC1k34mdPjVnL7oLl4/I7rDp18+OoUCAF2kD/rLUwaps+HKNm9RoKgw0MzBqp7l8g8Rk6AOlbqL17n2WnU/ZyC3Gv3xgf9FAQDMSxeIW1IuGuOf0aJDFQmrjpHlU9TwiNmEqdFRtnf25ZaB3Jxeb03/LIBxogAAJk6rv+ekzI+aGy1pIwXBYJa1ODehl2UGvl546CMvQ8/PtdXz/r7X/ugQm94Fvv9r5UGjOQ6QBQVATPkyLYgcdOF6IGXOJP77mmnoFQM6T2Hx9HejvfZ/rcJhoZRpfV+PFnliPnmy72tdyOdaFEBzB74efH3I4mKvcGeOOppWegClNakAeDDT+2pB2H2Z3huYiodT2FcODN8ymd73gUzvO3RNKgBytc3UNCwFAAB0y7KZ3rcxLZ4pAOKH4IZM7w0AqKdcu3koADLItUd3+UzvCwCor1yf/RQAGdyb6X3VNvacBf5TAIA22STT+zbmkXKTCgBtD1JltfSQ33fbIb8fAKD+cnz269RHCoAMtKXqGotz44dp2O8HAKg39ejI8dl/TYb3zKZJBYDkKABmptw05PcFANTT6pbnUDAKgIxy/cvdz/O5TO8NAKiX/TO9LwVARldlet8DjQIAALrioEzve3Wm982iaQXAhRbtSIfdI31ri6NhRzs6FgDQHht5tsjwvura+ZsM75tN0woAtVjUCW07Z3jvV3mOzPC+AID6ODjT+/7S4hyMxmhaASDnWp4C4M2eT1q+fgMAgLLU+fVNmd67cf1kmloA/EeG99XBEO/wHJXhvQEA5b3L4gC4HM7N9L7ZNLEAuNxzm2elDO+tAuA4z90Z3hsAUI5a/x6W6b1vtIYtAJQmFgA6n/xEzxEZ3luV4fsyvTcAoByt8Voy03sfb9GsrlGaWADItyzfRVqzAN/zXJbp/QEA1drG8t39y7czvnc2TS0A/mSxJXCHDO+9kEWBoa2Bj2Z4fwBAdRa1+Eyflun9z7eGHinf1AJAvml5CgDZ1OJRwDGZ3h8AUI0PWOz9z+WbGd87qyYXAD+w2LaX60xn/dBoVefFmd4fAJDXjp73Znz/Wz2nZXz/rJpcADzo+ZTnE5neX/9u9H/sVp6bM30PAEAeOvDnVMt7nfu4RQfARmpyASBfslgMmGsWYGWLIkCNhxr7fzIAdMzintM9K2b8Hn/3fC3j+2fX9AJArYE/mZKLVo9+xfNqa+A2DwDomKdZXJi3zPx9dPffqNa/g5peAEhvFmCFjN9D5wSo2tM+UooAAKgnXfx1Q3hg5u/T+Lt/aUMBoLUAujB/PfP30UKShzwfzvx9AACTo51b/1bB93m3teCxcBsKANEez0Ms37bAng9ZTPl8OvP3AQBMjLZu/3sF30f7/k+u4Ptk15YCQO2BdcKTzgnI/b/pU+n7fTbz9wEALJim/fUY+KMVfC81h9PJsa14FNyWAkCutLgov7uC7/UZzyqe91gUAwCA6qm7nz6PD6/o+2nh37UVfa/s2lQAiKboX+JZu4LvpedMq1nsDnikgu8HABihFr86GO6lFX0/Xfg/VtH3qkTbCgAtCHy5xTkBC1fw/V5hcSzxfp77Kvh+AACzGRb7/GdV9P10k/cya8HCv35tKwDkUosV+5+p6Pvt4rnEogho3HnQANAwOqtFHf7WrfB7vtPz+wq/XyXaWADIsZ5dPS+o6Putb1EEHOr5bkXfEwC6Rvv7tf9+8Qq/p4qNL1f4/SrT1gJAC/PUvEcV26oVfc8lPKd4trNYH8BRwgAwHHrer0Xeb674+/7V8zpryar/QW0tAOROz76eX3gWq/D7vs2iffBBnj9X+H0BoI028Jzk2bri76s1Zft47qn4+1amzQWAaFr+lZ7/stgrWpVtPbMt9qZq6qiV1SMAZKQtfm+xaO1b5U2caBZZi/5mV/x9K9X2AkB0mp8uxFV379MjgS96Xux5jXGkMACMl47y/bbFWq4S3u75SaHvXZkuFACiZ0daMfrGAt97d89Vnnd4TjBmAwBgLLrrP8TiM3uZQmM41uLmrfW6UgDooqtn8+re9+IC33+GRTWrpkFaxMJ2QQCY1yYWj0xzn+kyP3pcXMVhQrXQlQJAHrfoGKUtHXsXGsNzLJ4pqUeBThV8sNA4AKAulvIcZTFLulDBcehx8QGeJwqOoVJdKgBEW/PUKlj/R1fVI2CQ/p3rDAF1LNQP/BnGYwEA3aOF2ftbTPevXngs6iqoz+THCo+jUl0rAEQtHfVDp//Dn19wHGtYFCK/tphy+m3BsQBAldQvRQuzty89EPdD6+DFX7pYAIj6OatHQOkiQHb0/Mbzfc+RnuvLDgcAslnH4kCdfy09kEQXfz0a7mTjtq4WAKIiQAsCv+45uPBYRHtOdZ7AFyx+Qe4oOxwAGJoVLW5wtAi6ioPaxkMthdVn4PHSAymlywWAqOo7xHOTxQ9nafrF0LqAN1hsQ9EU2e1FRwQAk6fTUtWHRRf+Kvv3L8gHPR+xjq+/6noBIPoBeL9Fox7dfVfZMXAsaiKkXxpVp1/yfMooBAA0x8oWn2Fvsnpd+LXC//Web5UeSB1QAIzQhfYWiwN96vIDq0JACwRVPWt/7LEWsxUAUEdaza9ZTDVdq8vnaI+2XWvtwVmlB1IXFADzOsNiVapW569VdijzUCHwLs9hFscNq49A686mBtBYW1h8RmktUx2vK9dZLPy+pvRA6qSO/0eVNtuzlcVMwB5lh/IU+v/roJSfWawR0Gunn2MBKEKPS7WLSrOUuxQey/z8yGKh932lB1I3FACju9uzl+cYi/UBdbRbypUWaxdUsDxQdEQAumC6xSmrb/VsVHgs86MbIy32+6jF6X4YQAEwNi0W+YDnMotDfKaXHc6Y1D/7qxYLBU+0WCvANBeAYdvYYlGfZiDr+nnYc69FkfLTwuOoNQqABVOzoNmek6zsIRULsrRFRa78wqIQ0Ng72eACwFAsYtGfRAuRdyo8lvG6wGLK/8bC46g9CoDxucEzy/Nez9FW9sCK8dg5Rc2ETvYcbywaBDB+m1ucXqq76OXKDmXc1MpXj2y1SJop/3GgABg/dYtS4wgtutNFdZ2ywxmXFTyHp1xhUQhorcCdxUYEoK70eaHT8HTh36zwWCbqWouxX156IE1CATBxOrRnc89/eg4tO5QJ2SJFOwfO9HzHYj/swyUHBaAo7dXf03OgxTHpdWnTOxF63KmdCA+VHkjTUABMjlbbv87zPYsFeE2YDejRL/h+Kf+w6H2g/x2a2ejcaVhAB+m5vnYQ6QS8fTxLFR3N5Glvvz6Hf1l6IE1FATA151mswj/KogKt+9qAQVrJ2+sroK2Pp1qcSqhFhJ09IANoIX3Wz7K46Kv4f3rR0UyNPps+7vkPYwZzSigApm6uxeJA3UXrZMGtyg5n0pa1qKaVuyweE2gXgWYG5hYcF4DJUQfR3S3u8l9o8TvedDo6XZ9RV5UeSBtQAAzPbM92Fgf4qIHQMkVHMzVa9XtIip6rnWPxqODHFjMFAOpJv7t6lr+PRSfTuvXjn6x7LPqy6JHrE4XH0hoUAMOlqanjLFbaf9iiUp1WdERTp7uIfVP0i/cri8WDiqpw2hAD5agd76YWC/kU9Spp2qPI+dFnjhb5HW0xM4khogDIQ/vvdRpW7wS/WSUHM0T6YJmV8gmLkwnPtigG/ttzf6mBAR2i2UUt4tMFX734Vy07nGz0+FEnC15deiBtRQGQl5rv6JAM3T2rOcWaRUczfDMttkIqmv240KIQON9zqbGrABgG7dzZxrOr53kWJ5a26S5/0F8sThbUOiRmGDOiAMhPP8A6Xlg9qd/gOdKzYtER5aGfpV4HQj3+0FZJ7SZQMaDdEjq0iO5cwILpsaGm9XdNeY5nyaIjqsatFs3WvuF5pPBYOoECoDrarqL1Ad/0vN1zhGdGyQFlpr3Fe6WIug9eYLGG4NcWsyMs5gHic1gX/J1SVEQvX3RE1dLCYj1S1KmmNPOpEAVA9XRnrOMpe92rDrNuVPf6QHtJiqgJ0cU2UhCowyLbDdEFWli7rWdHiwu+dg81tRnPVOiz8LMp9xUeSydRAJSjbS06uEKzAuojoMcDSxQdUbXUhGj3FNF6AZ1XoELgkvSqZ4E8A0STaTp/XYsL/jbpVS25u/zZ+6DFDZDu+jmXpKAu/xDWxe2ed1rMCrwtpclduiart9Bpm76/U5HUKwb0qoWFt1c/NGDcVvJsbSMXfGVGyQHViLbxfc5iqp9+IjVAAVAfqoTVUliH9bzeYhXsKkVHVJ4KoT1Sem6xmClQLk+vfzVmClAt7b9fy0YO2eql67+zo7nZ4nNNnVIfLDwW9KEAqB89G9eWQVXJB3vebTGFiLBqyl59f6eZgtkpV6VcY/GMEZgqPa7a0LNxyuYpM4qNqBl0WI+m+XXy6KOFx4JRUADUl7bBqGLWrgE1/NCjgT3m+9/oLs0UPDel3xyLYuDqvld9KHEXgtFoMe4Gno1Sehf8NUoOqoHUGExT/ecaW39rjQKg/vQL9JMUfTi91aJHfxdXDU/Umil7D/y9OhiqELg2vfYyxzgFse30mbemxe/S+gOZWW5YjaeZy297vmjxu4QGoABoFl2wNBOgQzFelb7m8cDEzUzZZeDvtRNhjud6zw0p/V/rUQNrDepNz+Z16t1afVl74M987g2PPpP0uPIEiyIADcIvQjNpz2xvNa2mvV/r2d+zSMlBtYB2IqyXMhqddaBC4MaUm0YJjUzy0lbZXgG3et/XvT/rAr90sdF1g5qanWrRse+XxjR/Y1EANJt+8c5L0V3PKy368m9aclAtpgvLZilj0fYm7VS4LeXWMb7WligWRgUVrjrGVlvoVk6vo32txZ9d3CJbF9pxozVJOu30nsJjwRBQALSHLjyft5gV2NKiEDjAYgUzqrNsysbj+Ge1S+HuMXKvxZSqcn/f1/3RbEPpNQv6DNFd+fS+LD3wZ0UX7mXHSBc6YTaVZhtPtrjwX154LBgyCoD20TPq36WowZAWwKkQeIHFFDfqY6mUZ0zhPXSewsNj5JH0n/fy5MCfe2cxLDSQaQN/XtSz2Bhp86l0XaWZqR9b3OnrEDNadLcUBUC76Q7xBym6A9M6ARUDsywWS6H5dAFe0riLxtSoONTJnbron24xA4WWowDoDj2z+0bKap6XWRQDW5YcFICi1GJbF33dJPy98FhQMQqAblJrzt4pXGpyso9nP4vTyaaVGxaAzPTYRyv3dZd/hsVuFnQUBQDUR/+4lBU8L/Ls69nN2FYItIHWgqgrny76Zxon8CGhAEC/OyxW+ypaya0WxC+0aEG8fMFxAZgY/S6fbbGYT615adKDp6AAwFi09ez7KVpoprUCe6boiFMWEQL1oUV8Ojb7rJTLjQY9WAAKAIyHnhteknKMxWzA7hbFwPON2QGghNst7vJ1wf+ZRXMpYNwoADAZeoZ4SooWDarpjfrqqy3xLKMVK5DDvZ4LPD+32LKn0y05mwKTRgGAqdI04x9SjrV4XLCFRUGg7GTRKQ7AxKhT5K8sLva66M+2keZNwJRRAGDY9AHV60T4SYudBFt5dvBsn15XKDY6oL50RsRFngvTq36HHis6IrQaBQByU1vRi1JEiwfXsSgGetnYWFSIbtHU/ZU2crFXbjCm9FEhCgBUTR9wf0k5Mf3dMp5nW8wUKNpxsHqR0QF5/M1zmcVd/aUWK/bvLzoidB4FAOpAJ46dk9KzokUhoPSKgpnVDw2YMHXX613sL0u5o+iIgFFQAKCutMWpt6e5R+fCa4GhHhlskl43tDiVDqiaTlzUSvyrLKbz9XqFxc8uUHsUAGgSLZI6O6VHuw60pqBXEGySso5xVC2GQwtb9cjqShu50Ov1emNVPhqMAgBNpw/g61JO7ft77T5Yy7N+ygZ9X69S8RjRDLfYyM+Scm161eI8VuOjdSgA0FbafXBtyqDpnvUsigIVCWv2RacjcghSO+lnQodfzemL7uL1M6I7fPrlo1MoANBF+qC/PGWQOhuubPMWBYoKA80crOpZLv8QMQnqUKm7eJ1rr1X3cwZyq9EfH/hfFADAvHSBuCXlojH+GS06VJGw6hhZPkUNj5hNmBodZXtnX24ZyM3p9db0zwIYJwoAYOK0+ntOyvyoudGSNlIQDGZZi3MTellm4OuFhz7yMvT8XFs97+977Y8Oseld4Pu/Vh40muMAWVAAAPnowvVAypxJ/Pc109ArBnSewuLp70Z77f9ahcNCKdP6vh4t8sR88mTf17qQz7UogOYOfD34+pDFxV7hzhyoIQoAoL4eTmFfOYChowAAAKCDKAAAAOggCgAAADqIAgAAgA6iAAAAoIMoAAAA6CAKAAAAOogCAACADqIAAACggygAAADoIAoAAAA6iAIAAIAOogAAAKCDKAAAAOggCgAAADqIAgAAgA6iAAAAoIMoAAAA6CAKAAAAOogCAACADvr//wBfdz/t/soAAAAASUVORK5CYII=;" parent="1" vertex="1">
          <mxGeometry x="692" y="240" width="92" height="92" as="geometry" />
        </mxCell>
        <mxCell id="tFHFQbnFNSWmSSy7VT7S-22" value="" style="shape=image;verticalLabelPosition=bottom;labelBackgroundColor=#ffffff;verticalAlign=top;aspect=fixed;imageAspect=0;image=data:image/png,iVBORw0KGgoAAAANSUhEUgAAAgAAAAIACAYAAAD0eNT6AAAABHNCSVQICAgIfAhkiAAAAAlwSFlzAAALEwAACxMBAJqcGAAAIABJREFUeJzs3Xl8XXWZP/DP871ZS8tiaVlty6qgFGmapaXtTVfSJmnZoigq6gDuDLiMjoq1jsvogOJPVAQVhNERg7bNAoUuyS2lzdIgawdQdihSCtW2tFnufZ7fH1AH27RNcr7nnntvPu8/5jWv5ObzPC3CefI93/M9ABERERERERERERERERERERERERERERERERERERERERERERERERERERERERERERERERERERERERERERERERERERERERERERERERERERERERERERERERERERERERERERERERERERERERERERERERERERERERERERERERERERERERERERERERERERERERERERERERERERERERERERERERERERERERERERERERERERERERERERERERERERERERERERERERERERERERERERERERERERERERERERERERERERERERERERERERERERERERERERERERERERERERERERERERERERERERERERERERERERERERERERERERERERERERERERERERERERERERERERERERERERERERERERERERERERERERERERERERERERERERERERERERERERERERERERERERERERERERERERERERERERERERERERERERERERERERERUfpI1A0QUfYqqakZIbvtaOmTowA72gmONMhhEBxqhkMhcqgYRgCWb0CeiOQbNM+ZMxP0mKLXCXpMtFfM9Sis20H+JsCrCmyFs1edYKuYvlqgr7+cSCS6o/4zE+UKDgBEdCAyZeaCcZpyp8PhFAAnQO0EFZzg4CZAcGgaezEALwP6DICnAXkGZk8LYk+7fGxav6phcxp7Icp6HACICMAbv83n75SzDDIZpmdB8C6FvdPBjYy6twFRfVWde1gMD0HwkHP6cGFq50NcNSDqHwcAomFq6sxzT0ppajqg0yCuXFVPc87Fou7LL+tTxf0icp843AfBfe1rGl+OuiuiTMABgGiYKItXHQ/JP8dgc6Ay3TkcF3VPUTC1J+HsXoGsyE/aPevWNW+LuieiKHAAIMpRdXV1sWdf7pkB0Woxq4Jz74q6p0yjqinnXAcMd6XMVmxc27QRb+w1IMp5HACIckg8Hi/qdofNM0udJ4paODc66p6yiZpuceL+CNPb2ysnr8WSJRp1T0Rh4QBAlOXq6upiz7yya45APmiwc7Nm017Gs5cA/AGG29sTTfeBKwOUYzgAEGWp8lm1EzVlH4PZRc65o6LuJ7fp8wa5JSb6yw0tdz4bdTdEPnAAIMoiE+fOPaSor+giGC4XQVnU/Qw7pgpzK+HspuSOYxu6um7si7oloqHiAECUBSritSer2BVickmaD9+h/VDTLQK5GUhe35FY8ULU/RANFgcAogxWHq+uVMhVDlYDcS7qfqg/1mfA7RC7pqOl+cGouyEaKA4ARJlHyitrzleTrzjBpKiboUFQrBbBNW2JxhVRt0J0MBwAiDJEXV1d7Lkt3e8H9N8h7vSo+6FAHoDI4vaWhoaoGyHaHw4ARNGTsnjtRSb6TQd3ctTNkFedYvg6VwQoE3EAIIpQ+czqBTD3bQDviboXCo+p3gfEru5Y29ASdS9Ee3AAIIpAxayaSZbCDyEyI+peKH3UcKc5+dzGlobHo+6FiAMAURqVxhccDYl9x5lekvW7+k0Vghdh8rQKNjvgrzC8DOBlA7bByXZT2W4OOyymuwvhkiaxZGx3b19PYb5L9UpBvtNCzestsKQriDkUqsnhDjgSwGgDjoTJaBEdYybjRXACIEcj6/+7ZX2AXN9t7psPJpb/LepuaPjK8n+RiLJDScnl+bFRL11l0K85uFFR9zMohu0GewQimwT2v2KyybnYn3u2j30u3QfhxOPxotfdYePFUhPE3CkQTDS1iQ7ybjgcks5ePNiqZldPGFt8U319fSrqZmj44QBAFLIpMxdNVdOfA3h31L0clGmvQTYC0mbOuuBSGztX3/VnZP45+FIRrz3JHCbCUGFmZ8OkRBwKo27sYAz6J+fk0rY1TfdH3QsNLxwAiEJyZnzR4QVIfc+JXIaM/XfN+kxlvQhWi9hadBd1tLXdsTvqrnyoqqoq/Ft3/mQFzjZDHKIzHVxx1H31583XEv9Qugu/nit//5T5MvQ/SkTZrWJGTa05/ByQY6LuZV/6vJlrdGYrCqW4JZGo3xl1R+kQj8eLdsnIOEzmO8h8CE6Nuqe9mdqT5vDxztam1VH3QrmPAwCRR9OmVR/Rl+d+BOBDUffyT0w3mbg/iuiy9pbmrqjbyQRTZ557UkqTdSb2XoE7K+p+/onZr2J97sr16xt2RN0K5S4OAESelFZWn+MgN2fKb/2qeFbEficx+W37msaHou4nk5XOnn+qS8beC5H3IVP2ahieMuDijkRjW9StUG7iAEAU0Ol1dQWjXun+TwBXIuJ/pxS6WyB/cMAv2lqb1iLzN+9lnNL4wsmAXgax90f9xIYCSYF9a/yY4m/xSQHyjQMAUQCTZy58h7PU/0S+hGy6yeB+1gP333y23I+Jc+ceUtRXdJGpXeaclEfZi5mth8oHO+5tfDrKPii3cAAgGqKyeO37xXBThM+fmxruEmc/6mhpuieiHoaFyTNqSp3YF8xwgXMuFkkThu0m+HBHa+PySOpTzuEAQDRIJSWX5+eN2vwDQD4TTQfWB8NtKee+zyNl06s8vmiCQa8y0Y85uJERtGAw+257ZcnVWLJEI6hPOYQDANEgVMyqPs7U1QOYkvbihl0Qu9EseW1HYsULaa9P/zBtWvURfTH3rwCuguDQtDdguEfzYh/oXL3s1bTXppzBAYBogCpmVZeZyrK07/I37TWRn5vpdzoTd/41rbXpgCrmzXub9RZ8ASpXpPtWkEKfiTm5gCcI0lBxACAagLJ47ftN8CsHFKWtqKkCcksyH0u6VjU9l7a6NGjTplWN6Y3lfxmGT6fz+GGF7obi4s61zUvTVZNyBwcAooMoq6z5pkCuTmtRxWrk4XN8fj+7lE2vPQHOrhGR89NW1FQN8oWORNMP01aTcgIHAKL9KCm5PD9v5Eu/gODD6aqpwJ9h+FxnorEpXTXJv7IZC2eapK5z4iamr6pdP25M8ZU8L4AGKprHWYgy3NSpC0fZiL8vT9dvcgp0A/Yfo4uSF69dfef/pqMmhefFZx9/5uyy99z099eTf4XZNIik4daRlP1tV/Ks0aeMb3j5qafS+ppmyk5cASDaS/ms2qNM9a60He6juDuVr5/auLr5qbTUo7SaNP28Y/JjyZ8AOC8d9VStvVBt/rp1zdvSUY+yFwcAorcoi1cdL8hfnY43xSmwTUSv7GhpvjXsWhS98pm158Ps+rQ8RaJ40BXmzduwcumW0GtR1uIAQPSmybOrT5QUVju4CWkot1Qt9Sk+1je8nBlfdHgRUtdB5JKwaxnwmHM6p21N84th16LsxAGACG+c6S8pW+0cjguzjkJ3OHNXtCcabwmzDmW2ipm17zXTnwPu8HAr6dOWcrP5DgHqDwcAGvbKZ1SfAieJNCzNbkjF9IO8108AMHn6orc70dvEIR5mHVW8mB+Lxde3LHsyzDqUfVzUDRBFafLs6hPh3JqQL/5mZt8bN6ZoOi/+tMfGe5c/3zFz0iwzfEVVQ3t0zzkc15dKrZ48fdHbw6pB2YkrADRsTZm5YHwyFUs4h/Fh1VDDayLy4Y7WhuawalD2K5tZOwuG3wkwJrQihicQw4z2NY0vh1aDsgpXAGhYmjL3vLFJk1VhXvyh6NJ8O4sXfzqYjpbGNZpyJQA6QysiOFXVVlbMm/e20GpQVuEAQMPO1KkLRyV7k3c5uJNDK2L4rfQWTucZ/jRQG+9d/vwRRX3TDbgprBoOcob1FtxdVlWV/jcYUsbhLQAaVqqqqgq37Y7dCXGzQilgqhD3lfbWxu+Fkk/DQnnlwn+FpX4AcaH8kmawVakdxy7o6rqRJwYOY1wBoOFEXtud/+uwLv4K3W2QC3jxp6DaWxt+ZJALYNgVRr5A5uSN3HxDGNmUPfguABo2yuK13xLBJ8PIVtMtsRjOaW9tXh1GPg0/Lz77xGPHjD91JcwWishI7wVEzjp+/KmpF599Yq33bMoKvAVAw0JpZe0lDrgljGyF/sViOIeP+FEYyuOLJgB6d1jHU6vYxZ0tTb8NI5syGwcAynmlMxfOcJpaCXEFvrPV9CEXc/P4aBWFqXxW7VGqttJBzvAebtoLyOz2RNM679mU0TgAUE6bPH3R211Mu0J6vnpDt7kFDyaW/y2EbKJ/UjFv3tust3AFgFLf2ar6cn5BbNL6VQ2bfWdT5uImQMpZ8Xi8KBZL/TGMi78pErvzu+fy4k/p0nbPPa/FemU2gHt9Zzvnjkol7Y7T6+q8r5JR5uIAQDlrlxz6U0Am+841RSJ1qC14aOXK131nEx3I+vUNO5IjrUqB1hDip4zc0v3DEHIpQ/EWAOWk8nj1ZRB3o/dgs7W7C3p48adIxeN1I7tl10rAVfjONtFLOlqab/WdS5mHAwDlnIoZi85IuWS7gyv2mWuGjmIUzU4k6nf6zCUaijPjiw4vEm0B8B6fuQrdLYIpHS3ND/rMpczDAYBySklNzQi3UzY64DSvwaabNC9/RufqZa96zSUKYNq0qjG9eflrBXin12DTTdJTPLmt7Y7dXnMpo3APAOUUt1Ou933xV8WzEsM8Xvwp06xbt+IV53QOgBe8Bos73Qp7/strJmUcrgBQziivrLkAkDt8ZiqwLc9s6oZE02M+c4l8Kp9VO1FV1zm4UT5zDVLDt1nmLg4AlBPKZ9UeBcUjAI70FmraKyLz2lqbEt4yiUJSWll9DuCaHJDnK1NNt+QVFJyxYeXSLb4yKXPwFgDlBFPcBJ8XfwAi+Bgv/pQtOlub73amn/KZ6cSNTfYmb/aZSZmDLwOirFcer/2ICP7Na6jZd9oTzdd5zSQK2YvP/vn+4ye8YySAqb4yRXDKceNPferFZ594yFcmZQauAFBWK59Ve5QKfuA1VK25vbLkaq+ZRGkybkzRl2G6xmemmP1w2rSqMI7TpghxAKDspvZjBxzhLc/wRLKg+GIsWaLeMonSqL6+PpWfSl0E6PPeQp0b3RvL5ymBOYabAClrlc9cuBBmy70FGnapQ1lnS+Oj3jKJIjJ5Rk2pg9wrDoW+MsUwvy3RuMJXHkWLKwCUlSbOnXsIzH7iN9U+w4s/5YqNa5s6JYYrfGamDDdMnDv3EJ+ZFB0OAJSVivqKvgbgeG+BZr9uTzRxtzPllPaWxhtV8Qdfec5hfHFf4Vd95VG0OABQ1qmI154spp/zFmh4YndBz6e95RFlkFhRz+XweFKgqXyubHrtCb7yKDocACjrmNl1EOflveUKJCWmH+Lb/ShXtd1zz2um8mGYetnYKg6FJuAxwTmAAwBllYp4bRWcVPvKc4Zvt61p7vCVR5SJOtY2tEDctb7ynMMFFZU1cV95FA1vR0ZSdqqqqirctsudqBI7yYmcZGbjIBgl0JFqcoiDjVSTQ+AwAmbmzPXBYZcBO2F4TcReMcNmQF4A8HQK9peuRNPWUJpdvNilEl3fd94eXrGNRdjxLU9hRBltx5iir43asqsa4k73kWcqP8LixZP4yGz24mOAw0jp7HNHx/qSU1VwtgjKADkFwHHw/L8DA14R2CNmuF8EnalUbP3Ge5cHfia5tLL2Egfc4qFFANYnGitpW7v8YT95RJmvdEbNFCe2DuK8rP4acGlHa+MvfWRR+nEAyGHTplUf0RuTGoHFTdzZArwDUf0zNzwHWIs63AOXd/dgX60bj8eLumXkE4B7u5928K2O1kae9kfDTnllzY8B+YyXMMNzO8YWnbKpvr7XSx6lFW8B5Jhp06rG9OXnnwfFBX1iMwWSD0j0k55gHCCXOMMlSPZpeWXtfYD8oS8V+/399y596WA/3i2HfhqAr4v/Y28r6uPSPw1LRVb8792ya5GXYVowbtQruy8F8NPgnVG6RX5doOCqqqoKX+3Ov8jBLlG1Gc657HnJk6mayBoT3DxCd/wxkUh07/2RkpqaEW6HPe3EjfVTUmZ1rG1o8ZFFlI3KKhdWC6zJR5aabh6BnSf19+8uZTYOAFmsLF51vCDvkyZymQBZ/6IONbzmBL+CuZ+0J5Y/s+fr5ZW1nwdwjY8aZvr7jkTz+3xkEWWz8hk1Tb6eqDHDVR2JRr49M8twAMhCpTNqpjiHqxRynsvB2ziqmhLBH2IW+8/eQ/Vxt92ecs4dFTwYr5v0vbMjscLboShE2ap09vxTXSr2CCD5QbNU9eWewt6TeJ5GduE5AFlkcrz63eWV1Y3OyXpA6nLx4g8AzrmYiHuvOrvf7ZSNXi7+AODsu7z4E72hc/VdT5jJj31kOeeOKu4rvtRHFqUPB4AsMGXmgvHl8dpfx4AHAVcTdT/p5IDTfOSo4kXpLvqBjyyiXJHKL/qmAa/4yFKkrqyrq8ue/UcE/sPKYBPnzj1kwrh3fUfV3SYOJRDhLZuhcnJV+7qlnVG3QZRJXnpqU8/x49+xE4LAewEEcvj23clHX3jmCb5RM0twBSBDVcQXzinuK3gYwBd8vs97mHqkY8ZZt0TdBFEmSu485hcKfcZHlio+7yOH0oO/UWaYkjl1h+X17boW4v4l6l5yhaqe37m2eWnUfRBlqvJ4zUch8isfWSoS72xpWOsji8LFFYAMUj6jZr7r27WJF3+vHuhc27ws6iaIMtm4scW3KvBnL2GqXAXIEtwDkAkWL3ZlMmqJiPxcRA6Nup1coqqf2vzsn/836j6IMtmmTZts3IRTXgPk/KBZAjvlmHGn37z5uce3++iNwsMVgIhNm1Z9RFmiq1kgV4O3ZPxSPMjf/okGpi0++X+g+njgIHHOxVIf89AShYwDQIRK4wve05eHLoFURd1LLpIYvgPAou6DKCssWaLm5Ic+osTkY1i8mNeXDMd/QBEpq6xdBJH1gDsh6l4GxLRXgWTUbQyY4Ym2GZPuiLoNomxSbDt+7eVcAMG4itb753loiULEASACpZW1l5jqHxxccdS9KNANaBuA2wz2DTP7sBN3thhO6UvlHWtFfYeNG1OU155oLuxsbcxvj0+KWVHfYU5SE8RpOQQXmNkXDfgFoG0w7Ir6z/QG+08sWaJRd0GUTd54oY/9xEeWwi7zkUPh4T3nNCuvXPivgP0QUf3dq/3dBKtFZL0Z7ts5tuh+n+/yrquriz2z5fUzYohNN8Eshc52cKN85Q+I4bnkzmNO7uq6sS+tdYlyQEm85kgn9lzwX1Csz+XnH79h5dItfjoj3zgApFFZZc0339zsl1ZvLuktF7U/7jiqeLXPC/7BlJRcnh87dPNMmFxohguc4G1h1zTDZzsSjdeHXYcoV5VV1t4ogIff4O3T7a1NPw2eQ2HgAJAm5fGab0PkK2ksaQa720x+MmFs0V319fWpNNbu1+l1dQUjt+xaaILLHdwchPC/P1V9eYTsnMB3kxMNXWl84WQnFvzobLO17YmmuIeWKAQcANKgIl77WRP8v3TUUugOB/cLMfy0LdH4l3TUHIop8Zp3pkQ+J6aXQFyBx+gvt7c2fs9jHtGwVF5Z+ycA7wkUYqqx/Njb169q2OynK/KJBwGFrLyy5n2A3RT2i3wU6Ibh/yEv78KOloZlLzz7xGth1gvqhWef2PriM080HjfhpFsEsUIznCkS7PXGCmzL65WLn3/+8bTd4iDKVcdPODUGSLCXBImIqT334jNPtHtqizziUwAhKq2smQ2zWyEuvL9nU4XpL8X6TulINH6+c/WyV0OrFYKOxIoX2hONn4H0nWyGn5qiZ6hZArt+/fqGHT77IxquknnFv/HxVI8Z3uejH/KPtwBCUjqz9l0w3RDyDvhHALm0vbUhZ6brsnjV8ZC8r4jZvwzq1oDidc2Pjc+2AYgok5VX1t4K4EMBY8ysb1xHYsULPnoif7gCEIJ4vG6kGO4I7eJv2gvD15M7jpmUSxd/4I0VgY7Wpk+lNO9kADfAdEDL+SZ2Ay/+RJ6J/s5HCiQv2K0ECgUHgBB0y64bBXhnGNkK/Fksb3J7ovE/cvk59433Ln++vbXxk8l8OQWGnx9oEDBFT1Lzr01nf0TDQXL7cSvVEHg/kajN99EP+cUBwLPyeO0nAff+kOKXSlHf5La1yx8OKT/jdK1qeq490fiJZL6comY3ArbP0CMON99/79KXouiPKJd1dd3Y52CBX6ilDrNKSi7P99ET+cMBwKPymdUlZvDyMo1/YqoGfKm9tfH8jhUrhuUrNrtWNT3XmWj6uBM9xYCb9gwCCiQthe9H3R9RrjKH24NmOLhRsUP+Os1HP+QPBwBPqqqqCs3cf4tDoc9cU/RA5L0drY28yAHY0HLnsx2tjZfDYqca8AtndmvHvY1PR90XUa4q1h1rAGwNmiOOtwEyDZ8C8KQ8XrsEgq/7zFToTkDO7WxtWu0zl4hoMMoqa24TyAeDZCjs4c7Wpom+eqLguALgQfmMBacB+mWvoaqvwmIzefEnoqg52IrgGXJGSbzmSB/9kB8cAIITuNjPvR5nq3hd8rCgM9Gw0VsmEdEQ9ZncDdPAr9fOc26qj37IDw4AAZXHqy8FMN1fovWp0wva1jR3+MskIhq6rkTTVoML/guJ6tke2iFPOAAEEI/XjTRx3/YYaSr4SGdr890eM4mIAhPgrqAZZsYBIINwAAigG7uvFGCMrzwzfKezpem3vvKIiHwxUw/7kdzkqqoqr09K0dBxABiiM+OLDofY570FKlZ3VE7y+hQBEZEvxbKzc6BHc++POBT+rTt/sq+eKBgOAENUhNQXAXe4jyw13ewK8z6AJUsCb7IhIgpDIpHohriuoDkGK/fRDwXHAWAIpk2rGqNiV3iKs5jIBzasXLrFUx4RUVjuCxpgsDN8NELBcQAYgt68/Csc3EgfWWp2U1trU8JHFhFRmAxYFzjDHA8DyhAcAAappOTyfAEu9ZNmL2l+8b/5ySIiCldBsm994BDB6XV1dTEP7VBAHAAGKTbyr+cCONpHlpld0bWq/u8+soiIwrZu3YpX1HRzkAwHFL2wZfcpvnqioeMAMEgi+kk/SdbSkWi+w08WEVF6iMhDQTPMCW8DZAAOAIMwJV7zTkBm+sgyk6/4yCEiSicxBB4A1OzdPnqhYPKibiCbpCCX+Xl9ojZ1JJrbvEQREaWVPBw4wuRED41QQFwBGAQBLvQQYyb4moccIqL0iwVfAQDshOAZFBQHgAGaMmPhWRCMC5pjsLs7Wpof9NETEVG67Rhd9BgAC5IhAg4AGYADwACp2Lk+ckTcz3zkEBFFYVN9fa8qAj0JAMjR8Xi8yE9HNFQcAAbKsMhDxnPtM85q8tANEVF0HJ4OmCCvu8PGe+mFhowDwACUxxdNgMOZgYPEbuR5/0SU7QT2TOAMS00I3gkFwQFgAExS5/jISaVit/rIISKKWNAVAIjEjvPRCA0dB4ABEMOUoBlquH/jvcuf99EPEVGUxIIPADA70kMrFAAHgAEwkcCvr3TAMh+9EBFFztnLQSPEbLSPVmjoOAAcxJnxRYcL8I6gOWKOAwAR5QQRbPUQwxWAiHEAOIgi01IAwQ4ANDzXtnZ58NOziIgygLP8VwOHcAUgchwADkYs8PK/ARt8tEJElAl6YvmBVwCMKwCR47sA+ifl8ZqzFfgQIBcFDhPr8NEUEVEm6FpV//fyypo+QPKHHOIcVwAixgHgLabOWXhsMqmXCuwjgJzga3lEIO2eooiIMoKqveacHDXUnxfDCJ/90OBxAACkfEbtHDh8si9ptQ6SF/SW/1spkIx1F97vLZCIKCO47kA/Lijw1AgN0bAdAE6vqysYtaX7AzD9AhzeBYSzIcKpPt7WdsfuEKKJiKLj0BvkxxUo9NUKDc2wGwAmzp17SFFv4adsy64rIe5YSLj7IE3waKgFiIgi4ICeQD+vXAGI2rAZAEpqakbEduDT6JMvimCMeFzmPyARDgBElHPU0OsC/GdUHVcAopbzA0BJyeX5sZEvfdx26NUibmy66wu4AkBEucdJwBWAN64/AsD8dESDldPnAJTPrD3fjXrpURH82EVw8QcAZxwAiCj3KJAKmnF6Xd3QHyOkwHJyBWByvPrdztz1MMQjnXBMewuw8y9RtkBEFA47LNATU6a6qb4+0EZCCianBoB4vG7kbuz+hon8q0j0fzYVeTzRmkhG3QcRkW8OckSgAMF2T63QEEV+kfSlrHJhdTe6bxDI8Wna3jcQXP4nopykwCFBVlhV3d+9NUNDkvUDQMW8eW/T3oIfCeyDUfeyN97/J6Jc5RQFQXaROcERZZW1N4mhB4JeA3oA2+1MtimwVQxbHWRrUpIvdSbufBncLOhdVg8A5TNq5luv/EqAo6PuZW8K3SEWuy/qPoiIQuGsINAeAMGhAly6J0Le/L8mb/7/AigMDjGUVtZ2C/AMgKdheBrA/8L0wVTBiIe6VtVzJWGIMmi1fODi8XjRbhn1fYF8Bpn0ZzDsMmiTOHd7kW6/M5FIBDsqk4goM0l5Za1G3QQAqOJZ5/AnM1tvhnWvH1Xcxc2FA5M5F88BmhKveWdS8HsHOSPqXgDAFD3icBdMbt9dsLvxoZUrX4+6JyKiMFVVVRVu687PyF9wFLpb1HWIYDWc3tne0nw/ePugX1k1AJRX1rxPYb9wcCOj7cT61GSlwH6H4uTyjhUruJuViIaNsqqqQ6U7PyuW3lX1ZSfubog1SHfRnXw3y//JigGgpOTy/NiozdcK5LPRdqJtgNymsbzbO1cvezXaXoiIolESrzkyT+SVqPsYLIXudOYaxOx3248qvnu43yrI+AGgdPa5o5FK3eGAymg60L+pya/zgBs2JJoei6YHIqLMUTGr+jhT90LUfQShhtcE+G9zuLGzpXFYPrGV0QNA+YwFpxlcozg5Kd21DXhMTH8S/gTMAAAfZUlEQVSQHCW/6Wpq2pXu+kREmWry7OoTYyn3ZNR9+GJm603kxtFFfb9bsWJFoHccZJOMHQDKZtbOkpT9EU4OS2ddM1svzn2vvaWhEdw4QkS0jynxmneqyP9G3UcI/mrAjwuS+rN165q3Rd1M2DJyACivrHkfzG6FuDS+L1rbTGRxR0vTPemrSUSUfcpmVp8p5h6Iuo/QKF43wS9dTL/ftqb5xajbCUvGDQDllTVXAHId0tWb6SaF+1JnorEpLfWIiLLc5Bk1pTEnHVH3ETYFuh3sBpef/90NK5duibof3zLqdcDl8ZqvAfIjpOHir6ZbDPaJcWNHTOTFn4ho4GKCwqh7SAcHFAFypfYknyqvrPlOWVXVoVH35FPGrACUVdb+hwBfC72QqRrcDT1wX30wsfxvodcjIsoxZTNrZ4lhddR9pJuqvizOfbUjPulmLFmSESchBpERA0BZZe13BfhyGko9oCaXdSYaNqahFhFRTiqfUTMfTu6Muo+oqOH+mOCKttbGrH7fS+S3AMoqa74e/sXf+gy2OLnjmDJe/ImIgjEnadygnXmcYJIB95bGa35eMqcurU+q+RTpAFBeWft5gSwJtYjqoyZW2tHa9M2urhv7Qq1FRDQMuGGyB+AgxIlc7vp2bSqrrF0UdTNDEdkAUFZZ+y8ArgmzhsF+Jr3FpR0tzQ+GWYeIaDgxxbBeAXgrJ+5YAZaVV1b/NttWAyLZA1A+s3qBmlvugLww8hW6w0E+2t7a9Icw8omIhrOKiguLU4W7DktpoRQVpkQ1JZpKiWqhAIAVpqQgpaKaL6YqWqBSoPmimhIzFc1XMc0XaCo/5lCoKSkQuCKJ2REAjoTZGDWMcWYTVHACBCc4uFER/7EPShXPOrEPtiea1kXdy0CkfQAon1ldgpRLwOGQUAqYbkq52PkbWxoeDyWfiIjSrjS+4GhxbiIUEyE4U0zKIDg16r72pqopcfKd8WOKl9TX16ei7udA0joAlMWrjhfJ7wRwdCgFVJcXyYgPJhL1O0PJJyKijDFl7nljkz29ZzvnpsP0HIg7Peqe/sF0TX4qddG6dSsy9q2JaRsA3lgy6lnnBJNCKnFNe3zSl3Lh2UwiIhq8KTMXjE+qmy+CRQaZE9Zt5oHT51MqF2xc29QZbR/9S9sAUFpZ8z8OcpH3YFNVyKc7E003eM8mIqKsVDr73NFOUxfA7CJAKhHRnjdT9IjYJ9sTTTdHUf9A0vIXUl5Z+3mEsOPfFD0SwwfaWxr/6DubiIhyw+TZ1Se6lLvMVD/qnDsqih7M8O2ORGP4p90OQugDwJSZi6YmTRPel2IUrxuktmNtQ4vXXCIiykklJZfnx0a+dCFEvyhwZ6W7vhl+s3Ns0cc21df3prt2f0IdAEpnnzvapVIPADjeZ65CdzqT+dnyqAUREWWW0sqa2YB9ycHNTWddUyTyklK7fn3DjnTW7U+oBwFJKnUzQrj4x+CqePEnIqKh6mxtWt3Z2jzPVGfAbG266opDPFVgq6dNqz4iXTX320tYwaXxmk84kZ/5zFSg25nOb080t/rMJSKi4a18Ru1cdXatg5yRjnpq+lBeQcHcDSuXbklHvf6EsgJQOnv+qQ5yrc9MBZIw1PHiT0REvrWvbVw5YUzxWYB9Gqqvhl3PiZuoPb1rS+MLwjkXZwD8rwAsXuxKW7rWOyflXnMNH21PNN7iNZOIiGgv06ZVH9EXk2sg8rE0lHtEY7HKztXLQh869uZ9ACiL11wlIj/wGmr4ZnuicbHXTCIiogMorayZ7UxuhODEUAspumxE36yOFSu2h1pnL14HgLLptSeIwyMQjPCVaYbfdCQaP+grj4iIaKBKampG5O2UawF8Isw6CqyLdRfOa2u7Y3eYdd7K6x4AcbjB58Ufiq5ibL/UWx4REdEgdDU17WpvbfwkRBYB2BpWHQdM08Lu/8bixaE+nbdXTT/K4tUXQjDPV56abkmZOy+RSHT7yiQiIhqK9paGhr5U3kQFQnsEXUTOL2vt+n5Y+XuL+QgpqakZEet1DRAc5iMPpmoi525c2/iAlzwiIqKAXnrusZ3HjK78bynccbjA80b3N4nI1OPHv2PLi88+sTGM/LfysgIQ24kvQzDORxYAmLjvdLY2rfaVR0RE5ENX1419Ha1NV5joJTAN5UhfNf1x2YyFM8PIfqvAA0DFrOrjDPYFH80Ab2yEGD+m6Bu+8oiIiHzraGm+VUTmKbDNd7ZzLmaS+l1ZvMrrSbr71AkaYCkscXDFPppR6A5J4cP19fUpH3lERERhaWttSuSZTQX0ad/ZTtxYkVj96XV1Bb6z/1EjyA+Xz1hwmho+4qkXxEw+13Fvo/e/SCIiojBsSDQ9FsuLTTPgMf/prmLUlm6/5+q8NT3ID5u4bznnvGwkhOLutkTTL7xkERERpcn6VQ2bY/l5cSge9B4u+HTFjJpa77kIMABUzFh0hoic56ULwy6IC/WQBSIiorBsWLl0S77qTDXc7ztbnfyyfFbtUb5zhzwAmEtdDU8nCRpscXti+TM+soiIiKKwbl3zNoWdA9NNPnMFGGNqt8Dz6b1DGgDKZyw4DWYXeOnAdFMxdlznJYuIiChCXYmmrbH82FxTe9JnrkCqyiprLveZObQVAHFfgDg/pwiauzKRSCS9ZBEREUVs/aqGzXmxvHPg+ehgUXxv6pyFx/rKG/RFfMrc88aaycU+iqtZQ/vaxpU+soiIiDLF+pZlT6raQgX8HWfv5LBU0n7iLW6wP6C9yU+JQ2HgyqYqMffvgXOIiIgyUOfapg0xwSUAzGPsueUza8/3ETSoAeD0uroChX7SR2FAbutY0+B1owQREVEmaWtp/L0B3/MaanpdRcWFgQ/gG9QAcOjW7nOduLFBiwLW55wuDp5DRESU2caPKfqawVb5S3Rv16LuLwZOGcyHLQU/OxANt21oufNZL1lEREQZrL6+PpUyvB/AC74yxeRLQd8VMOABYPLs6hPhMCtIMQBQ1ZRAvhs0h4iIKFt0JZq2wvRDMFUvgYIRkLxA19IBDwCxpLsEHg4hEHF3tCUa/xI0h4iIKJu0J5pbAbnGV55ALp4cr373UH9+wAOACt4/1CJvJSI/9JFDRESUbZI7j/2aQf/kKU4cZMmQf3ggH5o8o6Y05qRjqEX2ULX2zrVNFUFziIiIstWUGQvPSjrrcECehzhzKiUb1jYMeqgY0AqAE7lo8D3tK+bsxz5yiIiIstWGtQ1/cma+XvMrKWdDWgUY0ABgooEPHVBgW6Ht/EPQHCIiomwnPUXf8PW+AAFqSmfWvmuwP3fQAaBsZvWZDm7CkLr6p0L2m0Qi4e9IRCIioizV1nbHbgi+4ClOYPj8YH/o4CsAJucOqZ29iMPNPnKIiIhyQUeiaRkUq31kOdOLS+MLjh7UzxzsA6JSO/SW3qT6eNuapvsD5xAREeWQlOiVqpoKHCSuwMF9djA/csABoHT2uaPhMClYVwDE/S5wBhERUY7ZmGh+xDn3Wx9ZCru0pOTy/IF+/oADQExTs+Hh8B+Lye+DZhAREeWimMSWKJAMmuPEjc0btXnhgD9/oG+qYU7QhhT4M9/6R0RE1L/1LcuedKa/9pFlwKUD/ewBBwADKoM2I4bGoBlERES5LObyv+vjPQFiNm/KzAXjB/LZ/Q4A06ZVjXHAKYGbgXIAICIiOoD1LcueNMiywEHiXMpiFw/ko/sdAHrz8qcGbsSwa8fYEesD5xAREeU8+S8vKYr3DuRz+78FYDYlcBeGezfV1/cGziEiIspxHYnGNkDbAgc5nFk6e/6pB//YfgisNGgP5rAmaAYREdGwYXKjjxiXzHvfQT+z3++Imxi4AeC+oBlERETDRXIUbodhe+AgwUHf4dPvADB1zsJjARwZrLr1Fdr2rmAZREREw0dXU9MuCHwcDPSeSdPPO+ZAH+h3AEj16pnBa8sDfPkPERHRIJn9xkdMvuurOtD3+78F4HBa0MJq9qegGURERMNNe6LpPlW8GDTHYEMYACDBn/8XPBQ0g4iIaBgy56w+cIi4uVi8eL97/fr/hgY/AAhqHACIiIiGQCB3BM1wwBHl997/7gN8f18KnBy0sOXn8/x/IiKiIXj7mKI2QP8WOEht2v6+tc8AUFdXFwP0+ED1gG2dq5e9GiSDiIhouKqvr08BsjJwkMnZ+/vWPgPAi9t6jnLOxYLUc7Ang/w8ERHRsGe4K2iEGgY+APT14digBQE87SGDiIho2DKV1qAZzmH8lLnnje33e3t/IWZ6wIMDBkINm4NmEBERDWcd9zY+raaBr6fJvr4z+vv6PgOAxtyYoMVEhAMAERFRQE4k8JH6Yuj3aP99BgAxPTxoMYj+NXAGERHRMGcm6wNniAxsBQAmhwUt5lKyLWgGERHRsGfyYNAIBxvYAGBA4BUAhQV/dpGIiGiYS4k+HDRDISf19/V9bwFADwlaTPLc34NmEBERDXddiaatgL0UJMMBR5TMqdtndX/fWwDiCoIUAgBJYVfQDCIiIgIMeDRoRiy1a8LeX9v3KQBYftBCBpcMmkFEREQAIM8EjlA5Ye8v7bsCoBJ4AJBYsi9oBhEREQHwcLieg7x936/t/QW3v1cED1xvX4EGzSAiIiIAFnwAMGD03l/b9ykA08C/vRfm9QTeR0BERESAE/NxuN6R++Tu/QUR1xO0iqaEAwAREZEHSbPAb9dVsYOvAMC0N3ChWPAnCYiIiAgQ2NbgGQNYATCRwAOAgxYFzSAiIiJgBF73MADYyL2/1t9RwLsDF9LYEUEziIiICEgkEknAAu3PM6Bw76/1swfAXgtSBABMdJ97DURERDQ0Cgu0P08U+9ya3/cgIEPgzQbWz70GIiIiGhqnCDQAqBvICgBc4AEAHACIiIj8ccH25znbd3N+P3sAEHizASDHBc8gIiIiADBIXqAA0dTeX9r3FoCkXglUBABg+5w5TEREREMjaoEerzfse8bPvkcBF6eeC1IEAKDgAEBEROSJOtnnHv5gSD97CPYZADpWrNiuwLZAhcTejsWLA79TgIiIiCDONNgKgAxgAHjjkwFfPCCuYOraB7kKQEREFNC0adWHQ1ywX6oN+5zx02+gwJ4JVAhAX6pvYtAMIiKi4S4Zc4HP1hGHfc746X8AEHkqeDHhAEBERBSQeni03rDvGT/7uwXwaNBiMHAAICIiCkicjPUQs88j/v2vAMTsoaCVTGxS0AwiIqJhz3RC8Ix9Xync7wBQmNqxSXXfQwMGw8FNmDT9vGOCZBAREZFMCJrgxF7a52v9fTCRSHSLc38OWjDP9Z4dNIOIiGiY8/BUnXtmn6/s76MGeyBoORHhAEBERBSE6alBI1ye7PN4/34HAAfXFrQgIJXBM4iIiIanqqqqQhUXaAAwRc/6VQ0DuwUAAGq4L0jBN51ZGl9wtIccIiKiYefV3e40BwR6EZAIngVge399vwPACPz9ASheD1IUgDi4+QEziIiIhiUvZ+oINvX35f0OAIlEIglnHR4KcwAgIiIaCnXlgTMM/T7af+CzhU3uDVxYMa+qqirQW4yIiIiGI4NO85DxcH9fP+AA4Jy7O2hhODlsW0/BOYFziIiIhpGSOXWHOeDdQXPUxQY/ABx/ZEF70FcDA4CpvTdoBhER0XCS17t7atC3ACp0x8YZZ/V7rs8Bg+vr61NiujJIcQAw0YXxeLwoaA4REdFwYSJVHmLasGSJ9veNg04WAndX0OoOblQ3Djs3aA4REdFwYR420Qtkv4/0H3QAcAV5dwZ9L8AbUpcFzyAiIsp9U2eee5IDTgma48wNfQDYsHLpFidIBG0C4mZWxGtPDpxDRESU41KWXBQ0Q1VThSjc76m+A9tc4NztQRsBIAq71EMOERFRTjOT9wUOcW5DIlG/c7/fHkhGUu2PCiSD9iJml1ZUXFgcNIeIiChXlccXTRBBWdAcB1tx4O8PQFeiaaszrAnaDJwbbUXdHw2cQ0RElLNSF/lIEYcDbuIf8POF6uzXwdsBFHYVFi8O9FwjERFRrlKRjwXOUH25bU3Tnw70mQFfiEcXJv+ghteCNuXgTi5PdJ0XNIeIiCjXlMerK33s/hfnGtHPGwDfasADwIoVK3oAuy1oUwCgwGIA4iOLiIgoVxicl83yovj9wT4zuKV4JzcNuZt/KipnVMysrfORRURElAtK4wuOFmjga6MBr4w7quig+/YGNQB0tjQ+qsC6obf1f1KGb3AvABER0RucuCsgriBojhj+WF9ff9AD/AZ9AXaCHw6tpX0Kn1be2nWJjywiIqJsNnHu3EMU8gkfWerktwP53KAHgPYZk5Yp9C+Db6kfgm/H43UjvWQRERFlqaLewssdcETQHAX+3NnSsHYgnx38EvySJSqQ6wb9c/2SY3ZL91f9ZBEREWWfiXPnHmKwL/vIcsAvB/HZwUuNxM1QfXUoP7sPxVWTZ1ef6CWLiIgoyxT3FX3GiRsbPMn64HDLQD89pAGgq6lpF5x42QsgDoWSwg0+soiIiLJJyZy6w6D6RR9ZqtLQvqbx5YF+fsi78Ius+EcAtg715/+5CTe3tLKWGwKJiGhYifV1fx3OjfaRlRdzPxjM5wMdxlMWr/miiHw/SMYeangtryDvtA0rl27xkUdERJTJSmfPP9WlYo8Aku8hbkN7a+PUwfxAoOfwXU/R9QD+GiTjH1mCt2lfkrcCiIhoWHB9sR94uvgDsGsHXT9Iuba2O3YD9h9BMvZyXkW8xssxiERERJmqLF59IZxU+8hS6F/a4yVLB/tzgU/iGzem+OdQfTRozh5mcl3p7Pmn+sojIiLKJGfGFx0u4n7sK09MvoklS3SwPxd4AKivr0+JxK4MmvMPDoe4vrzfVlVVFXrLJCIiyhCFot8HcLSPLAMeGz+2eEAn/+3Ny1n8bYmGVWrW4CMLAOBQ8lp3/vXe8oiIiDJAaby2RoDLfOWJyZKBnPvfH28v44lBPq9At688AS7lfgAiIsoV5bNqjxLBr3zlKezh9sqzDvra3/3xNgC0JRr/IoDPDYFQk+srZlWX+cwkIiKKgJjaLQKM8Zh51VDu/e/h9XW8xbb9+2r6kK88cShMJdFQHl80wVcmERFRupXHa78mkCpfeWrW0NnatDpIhtcBIJFIJM3kUlUd0v2I/jjnjlLRO8+MLzrcVyYREVG6VMRrqwD9hrdA094Y5PNBY7wOAACwcW1Tp4ivtwW+wQGnFYgu5ZMBRESUTSbPrj4xBfwG4jxeb+W6tkTjX4KmeB8AAOBtxcmvKuxhn5kOqNy2K3Z7PB7P85lLREQUhop5894W68OdTvA2X5mm9qT0FH3DR1YoA8CKFSt6zOwDPp8KAAA4t6hbRt6KxYtD6ZuIiMiH0+vqCrS78I9w7h0+c524T7xxCq+HLB8h/dmYaH7Ewb7kP9m9v7y16yYOAURElJEWL3ajXtl1izjEveaa/bot0bDKV1zMV1B/Xnzmifbjx51aChG/R/uKnHXcs5tPmlp6ZsOmTZvMazYREVEAZXLozwXi9RX3qnjRFfWe+8KTT3r57R8IcQVgj3y1D8HwlO9cgXzw2S27f396XV2B72wiIqKhKIvXXOPzpL83mcTw4bZ77nnNZ2joA8C6dc3bFKkLFOptatlDRM4ftaW7cerUhaN8ZxMREQ1GeWXtD0SCP57Xj2s7WhrX+A5Ny330zsSdDzhzl4cSLpiXyrN7K2ZVHxdKPhER0YFJebz2BgBXhZD9wI4xRV8NIRcSRuj+lFfW/gDh/AVBFS9KTKs7WpofDCOfiIhobyUll+fHRr50swgu9p+uf4tJ/uT1Lcue9J+dphWAPdrjk74AYFkY2c7hODOsK4svrAsjn4iI6K3OjC86PG/U5rvDufjD1NyHwrr4A2leAQCAkpqaEXk7pRVAaYhlrhk3pujLQ31FIhER0YG88Y6aZDPEnR5GvgHf6mhtvDqM7D3S/ix9V1PTLjjUKvSZEMt84blXdq+cNP28Y0KsQUREw1BFfOEcWHJjiBf/xo74pMVhZL9V2lcA9iifUX0KnFsL4OgQy2w14NKO1sblIdYgIqJhoryy9kuq+m3nXCjn6Kjh/p6C7hkPrVz5ehj5bxXZAAAAk+PV7xa4hM9zkvujZjfqKFzV1dS0K8w6RESUm0riNUfGRH4lQG1oRQzP9Wlexf33Ln0ptBpvEekAAACl8YWTHWw1BIeGW0mfhrqPt69tXBluHSIiyiUV8YVzTPRWQMK7raz2d0Fsetva5V5fpHcgkQ8AAFAer5mmYnc6uPAP9DH7tRT2fs73iUpERJRb4vG6kd2y+7uAfBphXi8Vr7uYm7ehZfn60Gr0IyMGAAAor1xYrrC7HHBEGsptVbOrJ4wtvolPChAR0d7KZ9TMh8gNEIwLs44pesxZdWdr0+ow6/QnYwYAACibWX0mzK0UYEw66qnpQ2KxKzvWNrSkox4REWW2kjk14/KSuAaQNJwpY30Qd2F7S0ND+LX2lVEDAABMide8M2myyjmk7WhfNdwZi9nVbWua7k9XTSIiyhwVFRcWW2HPl1T03xxccdj1TNHjYHVta5saw661Pxk3AABAWbzqeJO8Ox3kjDSXXirqFqdzEwYREUXn9Lq6gpGv7L7MzL7ixB2blqKGXQJZ1JZoWJWWevuRkQMAAJRVVR0qu/PrIZiX5tKmhrsc9L/aE82taa5NRERp8MaFv/tDprjaOYxPW2HDdsCq2xNN69JWcz8ydgAAgHg8nrdbDv2ZAJdG04FtFNh1hxel7lixYkVPND0QEZEvJXPqDosluz9upv+att/4/88Lom5BpqwyZ/QAsEdFvPazJnYtIPmRNKD6KpzcZs7d1LGmYVMkPRAR0ZC9sclcPi4mF4d/7ky/HojlSfX6VQ2bI6jdr6wYAACgorL2bIPVh3oQw8B0Arg9lXK/33jv8ucj7oWIiPajJF5zpAMudCIfQ7gvoDsgA+4qtqL3JhL1O6PqoT9ZMwAAwKTp5x0TiyV/74BpUfcCwMxsA4Cl5uSuzpbGR6NuiIhouCuJ1xzpRKoFdpFB5jggL8J2DLD/bI+XfA1LlmiEffQrqwYA4B/7AhaL6VcgLu1vM9wvw3MKWyFwq/LycV8mLfMQEeWqeDye1xMbOclS7hyILoChLBOuDQrdAcUlnWubl0bdy/5k3QCwR9mM6ukGd1tad28OgkKfEcg6mLQ7sYfzkvbQunXN26Lui4gom1XMqj7ODGeaSamoTAdQAYdDou5rL484s7oNiabHom7kQLJ2AADe2M2Zl9z1M8C9P+peBugFKB6Fw9MGPA2Tp10s9WxSsNXlp7Z2rFixPeoGiYiiVFJTM6LgdR3Tl3JjnbgJInaiAScJ7GSoTYRzo6Pu8UAM9uNi2/FviUSiO+peDiarB4A9ymcuXKgp+2k6Tw8MhWkvRF41xS4R6zFBjwA9puD7CogoN8gbABU1V+CgRYArUkOhExwBwYioWxwKA14B5KMdrQ3NUfcyUDkxAABvHhzUnf89AB9HDv25iIgos5nh9lhB3hUbVi7dEnUvg5FzF8ryeM00mFwPhzOj7oWIiHLaC6L2qSjP8w8i8p2SvrUnmta1z5w0CYKPv7EkQ0RE5I+qpgC73or63pWtF38gB1cA3qpkTt1hsb7dVwvssxBXEHU/RESU5RSrU6JXbkw0PxJ1K0Hl9ACwR8mcmnGxpFxtwEciPhSCiIiykEL/IiZf7Eg0LYu6F1+GxQCwx9SZ556U0tTX1fRi51ws6n6IiCjDGZ4zwTeLbfuvE4lEMup2fBpWA8AeFfHak1Xscwb7iIMrjrofIiLKLGq6WeC+u3Ns0Y2b6ut7o+4nDMNyANijJF5zZEzwKTP7tBM3Nup+iIgoco8ocI3uOOa3XV039kXdTJiG9QCwRzweL+qRkReousvEIR51P0RElFam0FVOcF17S/NdACzqhtKBA8BeSmfPP9Wl8i5V00u4KkBElNP+CtjNqZj9YuPq5qeibibdOADsR11dXez5LT0zVey9onp+pp8/TUREA6B4XZ01CuR3xba9Odc29g0GB4ABiMfjeT04dI4B5wKYD8G4qHsiIqKBUehOMbnHObm97xBr6mpq2hV1T5mAA8AQlM1aeLqozYdivjqdyicJiIgyjOrjcO5OMblz+9jCtbm6kz8IDgABlZRcnp9/2Itnmco0M5xtZmc7546Kui8iomHDVCHuIcDWAVgnzta1rWl+Meq2Mh0HgBBMmn7eMXl5fWdAMVFEJgI4Q6EnObhRUfdGRJTNFNjmgMcAPKhmD8Lw4AgpfjiRqN8ZdW/ZhgNAGpXOPnc0knqCACcAOgHAUQIcCcORcDZa4UbD9BBnKFSHQmco4DsMiChXqWrKwXUD2q1w3XC6W8y9JmavmLNXBG6rmb0sgqfF4endqdhTDyaW/y3qvnMFB4DMJ/F4nMcWE1HOGc478ImIiIiIiIiIiIiIiIiIiIiIiIiIiIiIiIiIiIiIiIiIiIiIiIiIiIiIiIiIiIiIiIiIiIiIiP5/e3BAAAAAACDk/+uGBAAAAAAAAAAAAAAAAAAAAAAAAAAAAAAAAAAAAAAAAAAAAAAAAAAAAAAAAAAAAAAAAAAAAAAAAAAAAAAAAAAAAAAAAAAAAAAAAAAAAAAAAAAAAAAAAAAAAAAAAAAAAAAAAAAAAAAAAAAAAAAAAAAAAAAAAAAAAAAAAAAAAAAAAAAAAAAAAAAAAAAAAAAAAAAAAAAAAAAAAAAAAAAAAAAAAAAAAAC4CQRjsFhlWeVfAAAAAElFTkSuQmCC;" parent="1" vertex="1">
          <mxGeometry x="640" y="20" width="430" height="430" as="geometry" />
        </mxCell>
        <mxCell id="tFHFQbnFNSWmSSy7VT7S-27" value="" style="shape=image;verticalLabelPosition=bottom;labelBackgroundColor=#ffffff;verticalAlign=top;aspect=fixed;imageAspect=0;image=data:image/jpeg,/9j/4AAQSkZJRgABAgAAZABkAAD/2wBDAAcFBQUGBQcGBgcLBwYHCwwJBwcJDA4MDAwMDA4RDAwMDAwMEQ4RERIREQ4WFhcXFhYgHx8fICMjIyMjIyMjIyP/2wBDAQgICA8NDxwSEhweGBQYHiMjIyMjIyMjIyMjIyMjIyMjIyMjIyMjIyMjIyMjIyMjIyMjIyMjIyMjIyMjIyMjIyP/wAARCAEsASwDAREAAhEBAxEB/8QAHAABAAICAwEAAAAAAAAAAAAAAAYHBQgBAwQC/8QAVhAAAQMDAgIECAcJDQUJAQAAAQACAwQFEQYSByETMUFRCBQiMmFxgbEVM1JykaGyI0JigpKis8HCGCQ1NlNVY3N0dYOT0jQ3Q0TRFyUmRZSjw9Ph8P/EABsBAQACAwEBAAAAAAAAAAAAAAABBQIDBAYH/8QAOhEBAAIBAgIFCQcDBQEBAAAAAAECAwQREjEFBiFBURNhcYGRobHB0RQiMkJS4fBicpIjM0OCovE0/9oADAMBAAIRAxEAPwDZFAQEBAQEBAQEBAQEBAQEBAQEBAQEBAQEBAQEBAQEBAQEBAQEBAQEBAQEBAQEBAQEBAQEBAQEBAQEBAQEBAQEBAQEBAQEBAQEBAQEBAQEBAQEBAQEBAQEBAQEBAQEBAQEBAQEBAQEBAQEBAQEBAQEBAQEBAQEBAQEBAQEBAQEBAQEBAQEBAQEBAQEBAQEBAQEBAQEBAQEBAQEBAQEBAQEBAQEBAQEBAQEBAQEBAQEBAQEBAQEBAQEBAQEBAQEBAQEBAQEBAQEBAQEBAQEBAQEBAQEBAQEBAQEBAQEBAQEBAQEBAQEBAQEBAQEBAQEBAQEBAQEBAQEBAQEBAQEBAQEBAQEBAQEBAQEBAQEBAQEBAQEBAQEBAQEBAQEBAQEBAQEBAQEBAQEBAQEBAQEBAQEBAQEBAQEBAQEBAQEBAQEBAQEBAQEBAQEBAQEBAQEBAQEBAQEBAQEBAQEBAQEBAQEBAQEBAQEBAQEBAQEBAQEBAQEBAQEBAQEBAQEBAQEBAQEBAQEBAQEBAQEBAQEBAQEBAQEBAQEBAQEBAQEBAQEBAQEBAQEBAQEBAQEBAQEBAQEBAQEBB4r1X/BtnuFwABNFTzVADuo9FGX88epBRVv4/a1kgjnn0/RVEbxkGKd0BI9Uj5CtVs9InaZd+LozUZKRetJtWfBmqfwhZBgVulKtne6mmbOPsM96mMtZ74asmizU/FS0eqWTg8IbRBw2sprhQOPWJqdpA/Ie4/Us93NNZhNdKa50xqyGeWxVnjPipa2ojcx8b2bwS3LZA04ODzClCQICAgICAgICAgICAgICAgICDB6z1E3TWl7leyxsjqKEvijccNfI4hkTTjsL3BBTDeOfEKaNskVotsbXgObvdKTgjIyBKtFtTSJ23WuLoXVZKxatOyeXbH1dL+MvE9/mw2qL1RVB/bcsftdG6Or2r/TH+Vfq6JOLHFZ/m1dui+bTyftNcsftlPO2R1b1U91f8nS7iXxYeOd6po/6ukjP241H22nhLZHVjUeNPbP0eKu4hcVI6eScajcTG0v2NpadoIaNx5hncO5ZU1dbTs16nq9mw45yTNZivhv9FtcPeM1n1jcmWdlJNSXAU/TOdLs6OR7NvSNj2kntJGewLqUOyyUQICAg+XyRxsL5HBjG83OcQAPWSgw1RrTR9M7ZUX6gieOtrquEH6NyD6pdYaSq3BtNfKCZx5BrKqFx+gOygzDXte0OY4OaeYcDkFBygiPFWr8U4dahlzjdSPhz/XEQ/toNdLYzZb6ZuMERRZHp2Nz9apc873l9O6Ipw6XHH9Px7XpLWnrAK0rHdyBgYBIHcCR7lO7G9K2/FET6WGudVerJObvY62egncBHVvppHRlzcjaX7SNwzyOfQrHSZt/uy8X1h6NjHMZaRtWeyfNP7/Fsxww1vDrHS0Fe4gXGnxBcohy2zNHngfJkHlD6OxdzyxxE4h2zRlsEkg8au1VllttzT5Ur+rc7HMMBPM+wc0TEbtf/hzXVXUzXKo1HXUtdVOMkkdNM5sDM9TGRBwbho5cvr6zw31sRPZG71On6sXvji17cFp7tt/b282QptbcTqTHQ6nkmA7KmmhePaXCRymNdXvhjfqtmj8Nqz7Y+TKU3F/ilTY6U2yuA6w+GVhPtYYws41dJcl+ruqjlET6LR80i0rx3rKm/wAFr1RR0doppY3yOrxOQwbQdnJ28eU5uOblvpeLRvCp1Gmvhtw3jay3aS9West/wlS10E9uAcTWRysdEA3k7MgO3l281m0PqG62uf4itglz1bJWO9xQeoOa4ZBBHeEHKAgICAgICAgqHwhbnix2iwMdh93rA6YDr6CnAc8/lPafYsb22iZbcGKcl4rHO07e1Vrerqxnnj181RTO76xSkViKxyjscqGQgIOHDIxjPoPUpidmN6RaJrPKexFNP3WTSWtqK4xk7KCpa9wHW6nfye38aJ6vMduKsS+VanBOLJak86zs3YiljmiZNE4PikaHxvHUWuGQR6ws3O+0Hy97I2OkkcGRsBc97jgADmSSeoBBS+seOU0lRLbNEQsqXRksmvc4JgY7+gZ9/wCs+xpHNa8mWtI3l16TRZdRbhxxv8vSrC4su16l6fUF1qrpITnZLIWwt9DYWHDfxcepcN9bP5Yep03VekRvltvPhX6z9HTHY7UwYbSs9oLvtly0zqsnitK9A6SPyb+mZ+riSw2mQeVSs9m5v2C1I1WTxRfoDSW/Lt6Jn57u6ggudpf0lju1Za3jmGwTOMftiJGfaVurrZ74VufqvSf9u8x/d2++Nvgm9i456msj44tWU8d0t7nBnwjSgRVDc58+LyWP5DsDfWV2Ys9b8nm9d0Zm0s/fjsnlMckk4v6wsd74U1dTZa6OshrJ6WB3Ru8phMgl2SMPlMdiPqcFuV8Kua0MG0dTSQPUDgKhvO8zL6xpqcOKtfCsfBysW4QfEsTJY3RvaHNcC1zT1EEYIWVbTWd4as+GuWk0t+GzGaL1fduHmpZ5KWE1lPVxuidSEkCYHPQO5A+Ux/cPlDtV1jyRau75hrNJbBlnHbnHv8Hte+53a5zX2+zeNXWq6z95CzsiiHUGgcuX/Ung1Op4vuxyev6F6F8jtlyx9/uj9P7/AA9PL0rielEBBB9USb7qW/ycbG/lDpP21caWNscPnPTt+LV3820eyIX1SQi3eDXJ2Gajke70+MVRx9TwuhTqipNO2t9JA58A6R0cZe7dJkuLQXHk/HWqy+qvFpjzvbaPoDT5cNL24uK1Ynsn9ne2xU8fxE9RAR1GKZzfeHKPtt/M2W6sYJ5WvHs+j1xMvEGPF77c4cdW2tePsgLKNdPg026q07sk/wCP7vWy865hx0GrLk0DskldL9t4WX27zNNuqs92T/z+71xaz4mw/F6pmfjskpoHfa3LKNdHg026rZe69ff9HsZxM4rxdV5pZwP5alY39HGso1tPCWm3VnUxyms+v9md0fx+fT1NfTa3lYHRGNtJJQ07iCfK6Xf5XzceSuqtt43UOXFOO01nnWdvYuz4Vo/gj4X3O8S8X8c3bTu6LZ0udvXnb2LJqe1AQa4cW7n8KcTH0zTugsdIyAY6umn+6P8Absfj2Ll1dtqele9XsHlNTE91Im3096PqpfQhB5XV0ba9lGcb3xulB9AIbt+0fYt0Yt6cXnVl9fw6yMHdNP8A1z+D1LSsxBFNX0mHw1bRyP3KT63M+nyvoVlor7xMPEdZtNw5a5I5Xj3x+2zZbgfqX4c0DRRyP3VdqJoJ8nniMAwn/LLR7F3PLysRBr/xd15U3+6T6Rs05jtFG7beqqI855Qf9mYfktI8rvPoHPTmyxSN1j0b0fbVZOGOyO+fCP5yQunp4aeJsULAxjBhrR1BU97zad5fR9NpqYKRSkbRH87XasW8QEBBD9V13S1LKRh8iEb3+lzhy+hvvKtdHj4a7+LwXWLWeVz8Efhx9nr7/p6ndb9PvjsFBeZyWtuFzjo6WPJAeyFu6eTHaNz2tHtXTedomVFirxXivjKUtyWgnrI5qhfW5cogQEHU+mgfKyZzAZIw4MeesbsbsevH/wDc1nGSYjaOTnyaTHfJXJaN715fz4O1YOgQEAnAJ7kFfX2Tfdqo/Jd0f+WAz9lXeGNqR6Hy7pG/HqLz/VPxbH6/i+DOAFNSDk7xO2QuHpLoXO9xW1xKuibtjDfk+T9HJUWSd7S+q6ONsNI/or8IfawdIg43s+UPpRO0gcD1HKI2H+Y71FExzV3dzm61p6/u8uPUHlXuKNqx6HyfU24slp8bT8W7Piv/AIO8Ux/5d0OP8Das3OzaD4lljhifLI4NjjaXvceoNaMkoNR6auku1wul8l8+61c1QM9ke4iMfi5cFW623bEPbdV8G2O2Txnb2f8A17FwvUhOBk9iCFXG5GPUfjGSWUz2xOA+S0bZWj1kuVxix/6e3jD5xrdbP2yctfy27P8Ar2fJNGnIBzn0jtVRMbS+i0vF6xaOUxv7XKhk8N4pPG7fNCBl5bmP5zfKbj142+1b9NfhvCq6a03ltNaI51+9Hq5+7dnvBz1L8H6sqLJK/EF4h+5Anl08AL2/Swv+pXL5tK8eJ+qnaX0XcLlC7bWvaKahPb003ktcPmDL/YiGuVrovFKRkbjulOXTPPMukdzeSe3ny9QVNqMnHbzPpfQ+ijT4Ij81u2f55vq9i0LQQEBB0VlTHTU0s8nmRtLiO/uHtPJbMVOK0Q5Ndqo0+G2Twjs9PcgNJS1t3ukNLA0zVtfM2ONo++kldgfWVdxG3Y+XWtMzvPNdXFe1U1ifobTFKQYrbTVUriPv5NrS6Qj8J7HOWrPO1JdvRVOLU44/qhGlSvp4g8lzrfEqOSo27tmwlveDI1rsenaThbsGPjtsrOl9XbT4eOvPih3wzRzRMljduY8BzXd4IyCtd6zWdpdunz1zUi9eVnYsW58SyxxRukkcGsaCXOPUAO0rKtZtO0NWbNTFSb3nasPprg5oI6j38lFo2nZOHJ5SkWj80RPtcqGxw4ZBHaeQ9vJDfbtV3KDW3V4j5mpnIZ/iP5e9X9Y2jZ8kvbeZls7x+aKfhvDRx9T6ulp2D0Na4j7ClhCp+13pJP1qgl9bx12rEeEQKGbrqH7IZH9Wxpdn5o3fqWeL8Uely663DgyT/Rb4INa3X6419NbrfPPJV1cjYaeITFu57zhrcucAPaVdzSJ7ny+Mto5TKXycOeMFP51rrH47pI5vc96x8jTwhurrs9eV7R/2l5JdN8VKcfdLJX4HaKHf9YjcsZ09J7m+vS2qj/kt7WAm01qc1O6qtNZG+V+XukppWZLjzPNo71tiFfM7t4uhHi3QdmzZ7MYUsXaghXF2+fA3D281DXbZqiLxODHXuqD0Rx6mucfYg18t9N4tRQwYwY2BrgPlAeX+dkqkzW4rzL6f0Xg8lpqV82/t7XpWpYOueVsML5X+ZG0vd81o3O+oLKleKYhz6vN5LFa/6azP096vaKjq7rc6ejgHSVlfMyGIH76SV4aPrcr58qmU2sz5fExTzjbUUjnUs7DyLXwnbj2N2qo1dOG/pfQOr2p8pporPOk7ernH88zILmXoRkd3cUEM8aqdO6pguNJ5ElJPHV04HIYDg/Z6utpV3hvxViXy7pDTeQzWx+E9no7vcu3jjfYLrDo2Glfvo64vuvoc1kbHRZ9j3KcttqzLDQ4fKZ6UnvtHxQQDAA7lRvqjlBw9zWNLnHDQCSTyAA5lTEbzswvetKza07RCN1er4mvLaaEytHVI47QfU3BOPaPUu+mi/VLyWp60TvtirG3jb6Q8rdYVefKp4yPwS8H6y73LZ9ip4y5I6zajwp7J+rz3bUDrhTNgbEYRu3SHfu3Y6hya3l/+LPDp4xzu5ekemb6ukVmIrETv2d6y/B00l8I6iqNQ1DM0tobspyRyNTKCOXzGZPrIXSppZLjLU+McToIesUNsYMdzpJXZ/NkC5tXP3F11epxauvm3n3SjKqH0QQYPVkhbbNo+/kY0+rDne9oXboo+9PoeZ60X2w1r42+Efu8GlbptJoJTy5ugP1vb+se3vW3WYd44oV3VzpDyd/I2/Dbl/d+/xSmSRkTHPe4NY0EucTgADtKrq1mZ2h7PNmrirN7ztWEKu93ludQ2mgJbTFwa0dRe4nAc79QVvgwRjjzvnnSnSl9XfwpHKPnPnTcY546iSR6iVUTO8vomOnDWK+ERHsFDN8TSCON0h6oxvPqb5R9yzxxvaIc2tvw4bz4Vt8EP0NR+O6zsNLjIlr6YOH4IlaXfUFevlbYbwhpf+4LDTfy11hJHobG8ftLG07RKccb2iFVs5tB9AVC+uy5RDz1zHyUc8cYy98UrWjIHN0bgOZ9JWzDMRaN3D0lS1tPetY3tNUf0o25af1LbbzLb31bLfM2d0Eb25dt6gHDfj6Fb+Wp4w+eW6O1Ec8d/8ZXpF4Q1H/zGl7lH3lga/wB4YsoyVnvhz20+SvOsx6pTvRevrJq21fCVHupW9K6HxeqdG2XLQDnax7+R3clm0pQgICCk/CCunS1GnNPNOWyzPuNUzvZANrAfnZeteW3DWZdWiweWzVp+qYV2AQBnme0qjfVXKDE6knMVrla3O+UtibjmcuOT+a1wXVo67338FB1jz8Gm4e+9tvVHb9GO4fV9LY9W2683OjqaijoXum6Kmi3PdIGERY3lo5PIPWrXd4LaZZ6vulNctYXe426hqqO23J4qmx1MewtmIHTeaXNw5znO6+5cesiJrv4PRdW8tsefhmJ4bx747YelVj3QgjWrqPdDFVtHOM9G/l967m32B2fpVhor86vH9aNL21yx/bPy+fsdlJqGS5s05QTEmSzw1lO1x7Y3h8sf0bi32Lp1P4JUvQ3/AOvH/ckKpn0oQeK7xyyW2pZFkyOjdtA6z2kD1jIW/TTEXjdV9NUtbS3ivm9kT2sXwt0rQap1pQ2m4PLaJwkmnY07XSNiYX9G09m49eOzKuXzZtnQaI0db4Gw0ljooo2jGfF43OPznuBc72lGLCXCl4S1t3g0/VUtqnutVvEVKyKIy+Q0ucC+JuWHAOMkE9iCR6d0zZNN2826y0opKMyPmMQc53lv847nlzuwDr6kGu+vqgVfFLUUvWKcUtK30AQtc785i4tbP3Yem6r03z2nwp84Y1Vj3IgjWsZMQ00fy3vJ/Ea3H21YaGObx/Wq/bjr5pn4fRJ+HHD06q0PqKqpW4vNFUQSWmYcj0kLHPfDnukDx7cFd8xu8lE7TvCC3q6XGpjiingfSxOGdjgR0jmuLHEZA8lrmkY7D6VpxYK05LLXdKZdVERflX3z4z533QWG5wCz3WohMdDX1JZSPdyMopy10rmt+S3djPetmWdqzPmcmlpx5a18bR8U0aMNA7gFRPq8uUQ8d3eGW2qceropB+U0s97lu08b3hV9NX4dJf0be2YebgrR+N8TLG3GWxPlnd/hwvcPrAV0+aytzwhZCX6SpwfOrJZiP6oR/wCpa8v4J9Do0VeLNSPG0fFW7RhoHcFRvq8uUQIGAg+SGtw7A5EHOPSsq9s7NOpvMYrz4Vt8EF0vD0+pbPB19LW0zPypWhXz5Q3rRiICDWPiDc/hjibeZwd0FrZFbYfQWeXL/wC4Hj2rj1t9q7eL0nVnBxZ5v+ivvns+rGKre7EDn3keooiYiebggHr5+vmiY7ANaOYAB9SJ3cogQea4Uoq6OWnP/EaWgnsPW0+xwBW3DfhtEuHpPTeX09qd+28emP5sg1mkMF2pi8bfL6N2eWN+Yzn1blb5a71mHzrRZfJZqXnutHxWCDkA96o31NygIMdNZaN9QKmLfTVIO4T07zG/PfkZH1Lppq717Oai1PV7T5Z4o3pPm5ex9zW+pqG7Km6V9RH2xy1bntI7iC1bJ1tvCHLXqti37b29kPJPbzao47jZ/wB63CgkbVU87MlwdHzPnl3Zzx1cvSssGptN9rd7R0r0HixafjxRO9ee884/ZbXAHiJcL1LcrHe6x9XcC411JPM7c5zHYbNGM9jTgtA7z3KxePlXlfUCs1dqetHMTXOoa0/gwvLW/U5V2unlD2HVWn+5b+2Pi+lwPXCCIawkzVU8fcxz/wApxZ+wrTRR92fS8J1mvvqIjwrHzlsN4OVGINAyz4wauumkz3hrI4h9bCux5yUr1lw305q6S2PucZb8GymQCLDeljdzfA8jntc7B5c+7rRCrOOHQR6t0za6aNsVPQ0NRJHDGA1jGvzGwNaOQH3IBaNTO1JWnQ1OLVY4/q39naiCpn0sQYnUr9tonHy9jR6+ka79S6tHG91D1kvtpdvG0fOWe8HKjM+vpZ8ZFJQzSZ7i58cY+p5Vs+fymXH+XfqTStPnzIq6XHrazH2FqzztSXf0VXfU4/74+KCqkfTxB4rtWvoqGWoY0OcwNIa7ODl7W9hHYVuwY4vbaVZ0vrb6bDx0234ojtYBusZfvqUH5r8e9rl2zoq+MvNV60Z++tPf9X0/V7Xsc3xRwJBAPSg8+zl0YUV0e0xO6cvWW+THak0j70THOe9xw4g6fX2nIzzHj9M4+pkgd+pdzzLdpGIg8t0uENttlZcJziGjhkqJD+DG0vPuQak2Z81RBLX1BzUV80tXM4/Klfz+zn2qq1l977eD33VrBwaeb/rt7o7PjuyK5HoXBOAT3c0EcrNViCqmgbTl4ie5m/pAAS04JxsPvVhTRRMRMy8dm6z5IvMVrXhiezn9XnOsZvvaYfjPz7mhZ/Yq+MueetGf9NPf9XU7V9cT5MEIHp6Q+54U/YqedrnrLqf6fZ+7P2O5uuFIZHtayVjix7W5x3g+UXHmD9S5NThik9nJ6PoTpG2qx24/x1n3Ty+bJLmXQRkYPUUEE1HSGnukjgMNn+6t9ZOH/nAq509+KkPmvS+l8hqLVjlPbHon+bJdaa9tdRRz58sjEo7njzv+vqKrdRj4LeZ7XofWxqMET+avZP19cfN7VoWogICDgjIx9CROyLVi0bTylFbbc6vR2sKS60gP70lE8cecb4XZbJET6W7mZV3hycdYl8v6Q0k6fNbHPdy9Hcy9hkdPTTVZBLqqead3LOC92MHHzVwa38Xqer6szWuG28xvNvHzQye9vePpXG9Ps5RCD6pk33Ut/k42N/KHSftq40sf6cPnPT1+LV3820eyIbWcFaPxThnY24w6Vks7v8SZ7x9RC6FNKdoNb+LNR4zxUqWdYordTxeoueJfdIuXWTtRf9W6b6qJ8K2+G3zYBVL6AIMBq5+LexnypWH6Gvz7wu7Qx2zLy3Wm+2OlfGZ93/1Yngw0e65agrcfFQ08IP8AWPe8/o1ZPFS9XHJ/ScQbJFn4m3SSEf1j5Y/1Ln1U/wCnK26Drvq6en5SiCp30gQYbVL9tqePlvYz6937K7NF+P1POdZ7baeseN/lLK8C36Wj1PWv1JJRMo/EnNhFxMXRuldLHjb03k7toKtHhJXx8B8G645bTWKUntiNKD+YQiHqtnD/AIb0twp7lbLbSR1lM8SU80EjvJcO0Na/b9SCYoCCueOt4db+H9VTRH983aWKghaOs73b5APWxhHtRMQpCnZFBCyFrhtjaGNOesNG0H6AqLJbitMvq2j0/ksNafprHt7/AHu0Oaeog+pYOnZ1Vc/i9NLOQcRNdJzHI7RuA9uMLZipxWiHDr9TGLBe2/bFez08oQbT9rlvN+t1rZkvr6mKAntAkeGud7Acq8fL25cPD3QsIAj07bxtAGTSxE8u8lqMXsj0lpWL4uyUDPm0sI9zEFA8V7LTaa1+6oiYymtl9p2zsAAZGyeHyJG9gHLn63Lm1WPir2c1z0Hra6fPvadqWjafl70YN4tg66qL/MafcSq/7NfwexnpvSR+f3W+jrdf7Q3rqmewPP2WlT9lyeDXPT+kj83/AJlgtSV9sraeI084knjfyaGvHkuHlc3NaPvWrs0uO9N4nk8507rsGp4bY5nijs5d38+LjTUNxjo665UrDUUlCYzcoGc3xxPyGVAHa1ruTu7PPryN2bFF42VvRvSFtLk4o7Y748Y/nJKqeohqImywvD2PGWuHUVT3pNZ2l9H02ppnpF6TvE/ztdqxbxAQEGC1TQiei6do+60+XethwHj2cj9K7dHk2nh8XmOsuj48cZo507J9E/Sfi+NIaMqtY0b6GxxwsvlC99RO+ad0fTUzgxrBG3Dm5jfnceXnBWbxLMVPCTi9RebQzysHbT1cbx+SJM/UsZpWecNlM16/hmY9bFVNg4n0H+0WevaB1vdRmQfl7He9a5wUnuddOldTXlkt7d/ijFyZcjUvlr4ZIpnYDukjMfUA0ciB2BbK1isbQ5MuW2S02tO9p5t1dDUfiWjLDS4wYqClDvndE0u+srJpZ5Bqnr+7Qw8StS1FZvia+aKKF7mO2lsMYiPMA9oC5tTiteNoXfQmvx6XJNr79tduz0wxcd9tMnm1TM/hZZ+kDFwTpckdz1lOntJb823pif3eqOuo5eUc8bz3MkY4/Q0la5w3jul1U6T01uWSvt2+KPaxedtIzmMmR2Dy5YYAfeu7RV2iXl+s2et70isxMRXu7ec/suvwZaTZpy81mPj6xkWe8RRB3/yrueXlgOMEvS8UizOfF7XC31ZmLv21y6ufuLzq7XfV180W+CNqpfQhB1zQQzN2SxtkbnO17WvGRnnhwPesq3mvJpz6bHmjbJWLR53ndaba7rpYvZGwe5oW2NReO9wz0LpJ/wCOPbP1dL9P2h5yaVnsLx9lwUxqsni026v6SfyzHrljb1ZrdSW+aeCLo5WBuxzXP7XtafOc7sK6dPqLXttKm6Y6HwabDx04t+KI7Z/Zb/BjipqjUl/h09XRUooKWic9r4o3tlxDsjZlxkcPvufJd7ykr0RCFcReHMet222Oa5y2+O3PklDYWBxe9+0NdkkYLNpx60TE7NfLlwz4nNudXDbqG5VFDFNIylnmkDHSRtcQx5BePOAysPJ18IbZz3nnafa62cIuLk3XbJxn5dXCPfKstoYTeZ73c3gRxRm5yW9jfTJVwH3PcpRum/Crgvqiw6wpLzfYoGUtGyV8TWSiRxlcwxs5N7txPsRG6/0QIMXetNWC+thbeLfBcG05c6AVDA8MLsB2M9+Agpiv8GVs9xqp6a+tpaOWV76en8VLzHG5xLY93StztHLqRO7mPwYKQfG6jkPzaRo98xQ3eqPwY7EPjb5VO+bFG337kN0p0VwXsekbs65Udwqql0kMlNPTT9EYZI5MZa9oYCeYB60N0c1jwNmjnmueiZmUz3kvmsk5+4Pd/QP/AOGe4Hl3OaFryYq3jaXTpdbl09uLHO3z9Ko6m8z2ysfQXuhnt1bEcSRSM6vwue04PZgH1rivop7pep0/WiNtstPXX6T9X23UVnP/ADTR62y/6FpnSX8FjXrDpJ75j1OH6ktDRkVAd6Gskz9bAFMaS8sb9Y9LHLin1fWWPqdYQgYpoHPPY6TDAPxWlxP5QW6mh8ZVmo60Tyx0289vpDCVNyulzkbCS5/SEBlNCDgnsG0ZLj3ZyV2Y8Vacoed1Wuzaid8lpn4excXBjhZrah1BR6krB8D0cG7dBOD09RG9pa6PocjY097+Y6wCtjjlsaiBB8yRRStLJGNe09bXAEfQUH0AAAAMAcgAgIMNqvTFBqixVNlr5JIqWq2b5IC1sg2PEg2l7Xjrb3IKnq/Bjsjs+J32ph7umhjl+yYkTuwVX4Md7bnxO+003d00MkX2TKhuwNX4O/EODPQijqwOroqjaT/mtjQ3Xfwa0rddMaMbbrtB4tXvqZ55Yg5j8B2GNO6MubzawdqIlV3Fq1aji1/dr2yzVdTaWUsLPHYonOia2ONkkji4DGGlpytOfFxxssejNd9ly+U24uzbnsr5ur7f99HKPUxp/wDkC450M+L0letNO/HP+X7O1mq7U7rMjPnMx9lz1j9iv5m6vWfBPOt49n1dw1JaD11AHrZJ+pixnR3bq9ZNLP6o9X7u1l9tL/Nqme3c37YasfsuTwbq9PaSfz7eqfo7RdLceqqh9ssY97ljOnvHc3V6Y0s/8ke/6MZqWrp32pwjlY8vexuGPa7t3fek/JXRpMdov2x3KbrDrMWXBEUtW33u6fNKZeDTBv1jcpiPire4A+l80X/RWTxktm0QICAgICAgICAgICAgIMXfNNWC/wBP4vebfDXRDzOmYC5ufkP85v4pQVzc/By0JVPL6Oast5PUyOVsjB7Jmvd+cid2JHgx2Pdk32q2d3RR5+nP6kN2Xtvg56DpXB1XLWXAjrZLK2Nh9kLWO/OQ3T+xaO0tp9uLPaqeidjBlYwGUj8KV2Xn2lEM0gICAgICAgICAgIOitoqWuo56KrjE1LUsdFPE7qex42uacd4QQyfgtwymHOxMYe+Oadn2ZAhux03ADhrJ5lFPD8yplP2y9E7sdP4N+g5M9FU3CE+iaJw/OiKG7HzeDJpw56C9VjO7eyJ/uDEN2On8F+L/l9SOHcJKQH7MwQ3Y6bwYryPiL9TSd2+GRnuc9DdOOEXCm8aIuVyqrjV01Syrhjih8XMmRteXO3B7G+hBayIEHxNNDBDJPPI2KGJpfLK8hrWtaMuc5x5AAIKkvvhG6PoKp9PbqWouvRkh1RHtihOPkOf5R/JROzizeEfo6smbDcKSqtu8gdMWtmjGfldGd/0MQ2W50sYi6YuDYtu8vd5IDcZyc9XJEKn1D4ROj7ZVvpbdTz3cxktfUQlscBI69j35LvXtx3FE7Mho/jppDUlbHb5RLaq6YhsDKraY5HHqYyZpxuPYHAZ7ENllk4BPdzRClneExphri02iuy0kdcPZ+OidnA8JrS+edorseuH/Whsn+ieJGmNZxSm0zPZVQAOnoqhoZMxp5b8Aua5ue1pPpRDp4hcSLboaGhmr6SarbXukZGICwFpjDSd28j5SCDfumtMfzPXfTD/AK0TsyVk8IjRFxq2U1XFVWvpCGtqKhrHQgn5bo3OLfXtwhstdj2PY17HBzHAFrgcgg8wQQiFbay45aQ01WyW6MS3WvhJbPHS7ejjcOtj5XHG4doaDjtROzGaf8IvSFyq2Utxpp7R0hDW1EpbJCCflvZhzfXtx3obLbjkZIxskbg+N4DmPaQQ4EZBBHWCiFVaj4/6fsN9rrNUWurmmoJXQySxmLa4t7W7nAonZjP3TWmP5nrvph/1obJborjFpHV1YLfSulork4Ex0lW1rTIGjLuiexz2uIHPGc+hEbJ6grPWnHDT2lL9NZKiiqKyop2sdNJAY9rXSN3hnlOByGkFE7MD+6a0x/M9d9MP+tDZblku1JebRRXWjJNNXQsniz1gPGdrsdreoohVNX4SOmqWrnpn2mtc6CR8TnAw4JY4tyPL9CJ2dP7prTH8z130w/60Nk74fcRLdrikrKmhpJqVtFIyJ7Zywlxe0uyNhPciEKrPCR01S1c9K+01rnwSPic4GLBLHFuR5foROyyNHappdVaepb5SQyU8FUZAyKbbvHRyOiOdpI62ohjtb8StL6MiYLpM6StlG6GgpwHzOb1biCWta30uI9GUEBpPCZ03JUhlVZ6unpycdMx8chA7yzyPqKJ2W3Y77ab9bYrnaaplXRTeZKzsI62uacFrh2g80QiXEHixadD11JR11DUVT6uIzMdAWYADtuDvcEHdpPipYNT2G6XajjlifaGSS1VDKW9NsYwyNc3BIIftIHpQQz901pj+Z676Yf8AWidlwWuvjuVso7jE0sjrYIqhjHY3NbKwPAOO0ZRD1ICCkvCT1HV0dmtljppDHHc3yS1m043RwbNsZ9Bc/J9SJhQGntO3bUd1itNog8YrZg4sjLmsGGDc5xc8gAABErb4d8DdS0msKOq1NRsitdD++gWyxytllYR0UWGOJ87yjkYwMIjdNvCJ1DV2zR9PbqV5jN3nMNQ9pwTDG3e9n4xLc+jKENetFaPuGr77HZqCWKCV7HyvmnJDGsYOZ8kEk88YCJeC+2ersV6rbTVlpqqCV0MjozlpLT5zTy5FBtxwl1DV6g4fW2trHmSrjbJTTyu5l5gcWNeT3loBPpRi05m+Nk+cfejJJNQXbS1XprT9HbLeae80UcjbvW7WsExc7LB5JO8j5RA7kEs8Hy23Oo4gQ1tMx3iVFDMa6UA7A2SMsjYT1Zc/BA9GexESm3hP/wAH6d/rqr7MSEKf4dVGlqfVdLLqprH2QMn8YbKx8jS4xO6PyYwXZ34wiWBubqF9yrH29jo6B00ho2P5ubCXnow7r5huEGyZ1DeNP+D5SV7nPjubqOOnppD5zGzy9HC8Z7WwuBb7EQ1xstpq73eaO1Upb41XzMgidIcNDnnGXHnyRLJa30bcdHX11nr5Yp5RGyZk0BJY5j8484Ag5BCC/wDwc9Q1dy0nV2yqeZPgiZsdO9xyRDK0ubH+K5rsejkiJUZxU/3i6i/tkn6kS88V10s3QU1rloC/Uz64TwXANaBHTbGgsdJnc7JDvJxjtQffDa3XO4a5scVtY4zxVcM8j2Z+5xRPa+WRxHU0NH6kG6NbVwUVHUVlQ7ZT00b5pn9zI2lzj9ARi0W1BeKi93yvu9R8bXTyTuB+9D3Etb6mjkjJ9Xyw3CyVFPT1zNklTTQVsY/o6hgkZ7RnB9KDYzwctSeP6TqbLK/M9omJiBPPoKjL2/Q8PREqQ1roPV1kmrLrdLa+lt89XIyKoc+Mhxkc97BhjnHmAexEoxb6CsuNdT0FFEZquqkbDTxAgF73nDW5cQOZQbPcBdJai01a7vDfKF1DLUTxPha9zHbmtYQT9zc7tREtZ75/Ddx/tM/6RyJbVcD5Ww8KrZK/zY/HHu9TaiUlES1a1Hfa2/3ytu9a8vqKyV0hyc7W58iNv4LG4aESzmqOG1703py0X+tmgkpruGmOKJxL4zJH0rA/IAOWfJKCYeDnqGro9Xy2TeTRXSGRxiJ5Nmhb0jZAO/YHA/8A4iJe7wm/4w2X+yP/AEpQhU+n9RXGw1c1RRPwKmnmo6mI+bJDOwse13qzuHpCJYlBvPo7+KNh/u+j/QMRizKAgp/whtH115sFHeKCIzTWZ0hqYmDLjTyhu94A69hYCfRk9iJhrLTVVTSTsqKWZ9PURnMc0Tix7T3tc0ghEp3w34kXeza0oq+73Goq6Gf951zqmZ8u2GQjy/ujjjY4B3qRC8uOukavUmjm1FuYZ6y1SeNsiZzdJEWlsrWAdZxh3pwhDVWhr663VTKugqZaSriz0c8D3RyNyMHDmkEckS4YytuFaGNElXW1cmAOb5JZHn2lznEoNzOHGl5dL6It1pqMeNsjdLV4OQJZXGR7c9u3dt9iMWl03xsnzj70ZLE1Nw+oKPhlp3V9DvbPV4iucbnbmlzy/o5W583zNpHV1Ih18FdXVGntbUcBkIt12e2jrIifJy87YZPWx5HPuJQlY3hP/wAH6d/rqr7MSEKr4S6ftWodb0lousPT0VTFU9IwOLSC2F7mua5pBBa4ZRK9bV4O+hKG4Nq5pKu4RRu3Mo6mRnRcjkB/RsY5w9GfWiN0t4iaWdqTRVyslKGsnfG11G3k1vSQuEkbO4B23b7UQ0wlirbdWuikbJSVtJJhzTlkkUjD7C1zSEZOa+4V9xqn1dfUy1dVJjfPO90j3YGBlzyT1INp+A2kK3T2kZKm4RmGtu8gqTA8YcyFrdsIeD1E5LvaiJa+8VP94uov7ZJ+pEsvY+H9Bd+FF31PEXsu9qqn9TsxyU7GROe1zewtDy4EIhF9G6nrdL6jorzSOINO8CeMHlLC44lid85v180S2R466qioOHpipZMyX4sggcOswOHSyu9RYA38ZEQ1dtVpuV3r4rfbKZ9XWzZ6KCIZc7aC530AZRKS6xsfEgQRXTVdJV9DAG0sVVVAYY0klkeR2ZzhBleBmpPgTX1HFI/bS3VpoJs9W6Qh0J/zGge1ESuHwj/4gQf3hB+jmQhr/wANv4/6b/vCm/SNRLdlGLQ6+fw3cf7TP+kcjJtZwMY2ThbamPGWvNW1w7wamUFGMtZdcaSr9Kajq7TVxlsbHufRzEeTLASejkafVyPceSMmJqbrc6ulpqSqrJp6WjBbSQSyOfHED1iNjiQ32ILk8HLSFbNep9UzxmOgpI309G9wx0s0nkvLO8MZkH0n1oiXHhN/xhsv9kf+lKEKr07pi4agbc228dJUW2kfXmADLpGRvYyRrPwgH7sduESwqDefR38UbD/d9H+gYjFmUBAQQe7cG+HN1qn1dRZmRzyHdI6mklgaSes9HE5rM+xBxa+DXDe2ztqIbIyaVhy01Mks7QR/Ryvcz81BOAA0BrRgDkAOoBBC75wi4fXutfXVtoa2rlO6WWnkkg3k9bnNic1pJ7TjKD16a4aaJ0zUGqtFrZFV4IFTI580jQeR2Olc/Zn8HCCVEZGD1FBXruBXDBxLjZ3ZJyf33Vf/AGobpDU6E0vU6Yi0vNRl9kg29FS9LKCNjt7fuof0nX+EgwMHBDhpTzxVENpcyaFzZI3iqquTmnc0/G94Q3SDVWiNNasjpo79SGrZSF7qcCWWLaXgB3xTmZ80daDHaf4VaF07dIrraLaaeuhD2xymonkwHtLHeTJI5vUe5BMEBBFtTcNtFannFVeLWyarAA8ajc+GUgcgHviczfjs3ZQeOycIOHtlrGVtHaGuqoiHRSVEkk+wjqc1krnNBHYcZQTVBCLtwe4e3e5VNzuFrdNW1bzLUSipqGbnHrO1kjWj2BBlbToPS1osNZp+gojFabh0njdOZZX7+lYIpPLe9zxloxyKCPf9hPC/+Znf+rqv/tQ3Zm+cNdHX6mt1LdaF9RBaovF6GPxidgjjAa3HkSN3HDBzdkoPjTfC/RGmrkLnZrb4vWhjohK6aaXDX43YbK94GcdeEGcv1htWoLXNartTipoajb0sRc5uSxwe0hzC1wILewoIjBwP4aU80c8NpeyaJzZI3irqstc05aR917CEN0o1Lpax6ntzbde6Y1VG2Rs4jEkkfltBa07onMPU49qCO2zg3w7tdxprjQ2p0VZRyNnp5PGal217DuadrpCDz7wgnKCAT8EOGdRPJPLaHOlmc6SR3jVUMucdxOBL3lDdLbBYLVp61Q2m0wmnoKcvMURe+TG9xkd5Uhc45c49qDq1FpXT2pKQUl7oI62FpJj35D2E9ZjkYWvb7CgilPwL4ZQzNlFodIWnIZJU1Dme1pk5+1DdPaWlpqSnjpqWFkFNC0MihiaGMY0dTWtbgAII9qnh5pHVdTBU32hNXNTMMULhNNFhpO4jET2A80HXpjhro3S1fJX2OgNLVSxGB8hnmkzG5zXlu2V7x1sCDFVfBDhrV1U1VLaSJZ3ukkEdROxu5xydrGvDWjPYEN04oqOnoaKnoqZuynpY2QQMJJwyNoYwZOScAIO9AQEBAQEBAQEBAQEBAQEBAQEBAQEBAQEBAQEBAQEBAQEBAQEBAQEBAQEBAQEBAQEBAQEBAQEBAQEBAQEBAQEBAQEBAQEBAQEBAQEBAQEBAQEBAQEBAQEBAQEBAQEBAQEBAQEBAQEBAQEBAQEBAQEBAQEBAQEBAQEBAQEBAQEBAQEBAQEBAQEBAQEBAQEBAQEBAQEBAQEBAQEBAQEBAQEBAQEBAQEBAQEBAQEBAQEBAQEBAQEBAQEBAQEBAQEBAQEBAQEBAQEBAQEBAQEBAQEBAQEBAQEBAQEBAQEBAQEBAQEBAQEBAQEBAQEBAQEBAQEBAQEBAQEBAQEBAQEBAQEBAQEBAQEBAQEBAQEBAQEBAQEBAQEBAQEBAQEBAQEBAQEBAQEBAQEBAQEBAQEBAQEBAQEBAQEBAQEBAQEBAQEBAQEBAQEBAQEBAQEBAQEBAQEBAQEBAQEBAQEBAQEBAQEBAQEBAQEBAQEBAQEBAQEBAQEBAQEBAQEBAQEBAQEBAQEBAQEBAQEBAQEBAQEBAQEBAQEBAQEBAQEBAQEBAQEBAQEBAQf/2Q==;" parent="1" vertex="1">
          <mxGeometry x="801" y="169" width="160" height="160" as="geometry" />
        </mxCell>
        <mxCell id="BBr_kO0epK2awAqt_GIn-1" value="" style="group" parent="1" vertex="1" connectable="0">
          <mxGeometry x="811" y="580" width="140" height="142" as="geometry" />
        </mxCell>
        <UserObject label="" id="BBr_kO0epK2awAqt_GIn-2">
          <mxCell style="shape=image;verticalLabelPosition=bottom;labelBackgroundColor=#ffffff;verticalAlign=top;aspect=fixed;imageAspect=0;image=data:image/png,iVBORw0KGgoAAAANSUhEUgAAAgAAAAIACAYAAAD0eNT6AAAACXBIWXMAAByEAAAchAGF6bGLAAASOElEQVR4nO3de8z393zH8U8dWkMR1CFhWqqpTmOOiQmCoXXmj4YsxibYEhQtmzh01P4Qh/UPfyBl8weabqIltFaUSsUqIosGQ1qE0BRxmNI6dO+v72X37vW+796H6/d7f3/X6/FIXpGJpO907XU97+v6/X7fmw12msNqx9RO2PrPaXev3al2h9rta7esHVE7vHaTnjOBBfhd7bratbVraj+u/bB2de07tW/Vrqh9tXZl7fqWK1mJm3UfwCG7W+1hW3tQ7cTarVsvAjbF9AeAW2zttrW77uN/+/Pa5bUv1C7d2vdWfSCrIwA2z/Qn90fXTq6dVLt37zlAiCNrD93aS7b+u6/XLqhdWLt4zD9JYEMIgM1w8zF/wz+l9pQx/4sI0O24rZ1a+1nt/Nq5tY/Xft14F/tBACzb9C/W82vPqR3VfAvAvtym9uytXVV7b+3s2jc6j2LvBMAyPbZ2Wu3x3YcAHIQ7115Ze8WYfxrwltonWy/iBgTAckyv3n967XW1+zXfArAdpq9rJ23tS7U31M7rPIhdBMAyPKH2xtr9uw8BWJHp69uHal+svXrMPxmgkQDo9Se1fxrzj/wBEjxwzO8amN498PLa13rPySUAetyqdmbtxcP/D4BM0zubpj/8nFU7Y8wfRMQa+eazfo+rvbN2dPMdAN2m70Gn155Re2HtE73nZBEA6/NHtbfV/qb7EICFuWftotrbx/zOgV/1npNBAKzH9Kr+c2rHdx8CsGAvqj2q9qzal5tv2fEEwOr9Ze0dY/4JAAD7Nr04+vNj/hC09zffsqMJgNW56Zhf3PKi5jsANs30xNL31R485tcI/Lb3nJ1JAKzG9DS+6fOwT+4+BGCDvbR2bO2ZtV/0nrLzCIDtNz1O82O1P22+A2AneFLtkjF/YNpVzbfsKAJge/3xmD/v+tjuQwB2kAeMOQIeU/tu8y07hgDYPveqfWrMEQDA9pqejvrZMUfAFc237AgCYHtM3/R98wdYraPH/FPWhw8/CThkAuDQTb/zn/6B9M0fYPWOHvPX3EcMrwk4JALg0Bw55gda+J0/wPpMvw74aO2Rw7sDDpoAOHjT37vprX736z4EIND0VMHpE1afNnxOwEERAAdveozvSd1HAASb3iL45jE/VpgDJAAOzvTxvj7hD6Dfy2qXjfmnARwAAXDgph/5v6P7CAD+17trl2+N/SQADsz0QJ9zhgf7ACzJ9OyAD4z52QEeJbyfBMCBeevwSF+AJbpv7U21U7sP2RQCYP89rva33UcAsFcvrp0/5g9m40YIgP1zq9o7u48AYJ8Oq72rdmLtl823LJ4A2D9njvnTpwBYtum5LGfU/r77kKUTADfuhDH/WAmAzTB9LsB7al/vPmTJBMCNmz7wx98ngM1x89rbxvxBQeyFb2z79oQxv/gPgM3yxNpjaxd1H7JUAmDvpheTvLH7CAAO2j8OAbBXAmDvnl67f/cRABy06YOBnlz7SPchSyQA9u513QcAcMimdwQIgD0QAHs2/d7IY34BNt/02OBH1S7uPmRpBMCendZ9AADb5vQhAG5AANzQcbXHdx8BwLY5uXZs7ZvdhyyJALih53cfAMC2mt7V9bzaq7oPWRIBsLvpwyOe030EANvuubXX1n7TfMdiCIDdTT8mOqr7CAC23V3G/MFuH+s+ZCkEwO5O6T4AgJWZvsYLgC0CYJdb1J7SfQQAK/PU2uG167oPWQIBsMv0PtEju48AYGVuV3vk8PHAvycAdjm5+wAAVm76Wi8AhgD4v07qPgCAlZsC4OXdRyyBAJjdrXbv7iMAWLnjx/yOgB90H9JNAMwe1n0AAGszfc3/YPcR3QTATAAA5BAAQwD8wYO6DwBgbR7SfcASCID5M6JP7D4CgLW5b/cBSyAAxjimduvuIwBYm9vW7lH7dvchnQTAGCd0HwDA2t1nCIB4x3QfAMDaxX/tFwD+IQBIFP+1XwCMcffuAwBYu3t0H9BNAIxxp+4DAFi7o7oP6CYAxrhD9wEArN0duw/oJgDGuH33AQCsXfwf/gTAGLfsPgCAtYv/2i8Axjii+wAA1u7w7gO6CQD/EAAkiv/DnwAY4ybNf/3Dmv/6AF2ub/xr37Txr70IAgAAAgkAAAgkAAAgkAAAgEACAAACCQAACCQAACCQAACAQAIAAAIJAAAIJAAAIJAAAIBAAgAAAgkAAAgkAAAgkAAAgEACAAACCQAACCQAACCQAACAQAIAAAIJAAAIJAAAIJAAAIBAAgAAAgkAAAgkAAAgkAAAgEACAAACCQAACCQAACCQAACAQAIAAAIJAAAIJAAAIJAAAIBAAgAAAgkAAAgkAAAgkAAAgEACAAACCQAACCQAACCQAACAQAIAAAIJAAAIJAAAIJAAAIBAAgAAAgkAAAgkAAAgkAAAgEACAAACCQAACCQAACCQAACAQAIAAAIJAAAIJAAAIJAAAIBAAgAAAgkAAAgkAAAgkAAAgEACAAACCQAACCQAACCQAACAQAIAAAIJAAAIJAAAIJAAAIBAAgAAAgkAAAgkAAAgkAAAgEACAAACCQAACCQAACCQAACAQAIAAAIJAAAIJAAAIJAAAIBAAgAAAgkAAAgkAAAgkAAAgEACAAACCQAACCQAACCQAACAQAIAAAIJAAAIJAAAIJAAAIBAAgAAAgkAAAgkAAAgkAAAgEACAAACCQAACCQAACCQAACAQAIAAAIJAAAIJAAAIJAAAIBAAgAAAgkAAAgkAAAgkAAAgEACAAACCQAACCQAACCQAACAQAIAAAIJAAAIJAAAIJAAAIBAAgAAAgkAAAgkAAAgkAAAgEACAAACCQAACCQAACCQAACAQAIAAAIJAAAIJAAAIJAAAIBAAgAAAgkAAAgkAAAgkAAAgEACAAACCQAACCQAACCQAACAQAIAAAIJAAAIJAAAIJAAAIBAAgAAAgkAAAgkAAAgkAAAgEACAAACCQAACCQAACCQAACAQAIAAAIJAAAIJAAAIJAAAIBAAgAAAgkAAAgkAAAgkAAAgEACAAACCQAACCQAACCQAACAQAIAAAIJAAAIJAAAIJAAAIBAAgAAAgkAAAgkAAAgkAAAgEACAAACCQAACCQAACCQAACAQAIAAAIJAAAIJAAAIJAAAIBAAgAAAgkAAAgkAAAgkAAAgEACAAACCQAACCQAACCQAACAQAIAAAIJAAAIJAAAIJAAAIBAAgAAAgkAAAgkAAAgkAAAgEACAAACCQAACCQAACCQAACAQAIAAAIJAAAIJAAAIJAAAIBAAgAAAgkAAAgkAAAgkAAAgEACAAACCQAACCQAACCQAACAQAIAAAIJAAAIJAAAIJAAAIBAAgAAAgkAAAgkAAAgkAAAgEACAAACCQAACCQAACCQAACAQAIAAAIJAAAIJAAAIJAAAIBAAgAAAgkAAAgkAAAgkAAAgEACAAACCQAACCQAACCQAACAQAIAAAIJAAAIJAAAIJAAAIBAAgAAAgkAAAgkAAAgkAAAgEACAAACCQAACCQAACCQAACAQAIAAAIJAAAIJAAAIJAAAIBAAgAAAgkAAAgkAAAgkAAAgEACAAACCQAACCQAACCQAACAQAIAAAIJAAAIJAAAIJAAAIBAAgAAAgkAAAgkAAAgkAAAgEACAAACCQAACCQAACCQAACAQAIAAAIJAAAIJAAAIJAAAIBAAgAAAgkAAAgkAAAgkAAAgEACAAACCQAACCQAACCQAACAQAIAAAIJAAAIJAAAIJAAAIBAAgAAAgkAAAgkAAAgkAAAgEACAAACCQAACCQAACCQAACAQAIAAAIJAAAIJAAAIJAAAIBAAgAAAgkAAAgkAAAgkAAAgEACAAACCQAACCQAACCQAACAQAIAAAIJAAAIJAAAIJAAAIBAAgAAAgkAAAgkAAAgkAAAgEACAAACCQAACCQAACCQAACAQAIAAAIJAAAIJAAAIJAAAIBAAgAAAgkAAAgkAAAgkAAAgEACAAACCQAACCQAACCQAACAQAIAAAIJAAAIJAAAIJAAAIBAAgAAAgkAAAgkAAAgkAAAgEACAAACCQAACCQAACCQAACAQAIAAAIJAAAIJAAAIJAAAIBAAgAAAgkAAAgkAAAgkADod333AQDkEQAAEEgAAEAgAQAAgQQAAAQSAAAQSAAAQCABAACBBAAABBIAABBIAABAIAEAAIEEAAAEEgAAEEgAAEAgAQAAgQQAAAQSAAAQSAAAQCABAACBBAAABBIAABBIAABAIAEAAIEEAAAEEgAAEEgAAEAgAQAAgQQAAAQSAAAQSAAAQCABAACBBMAYv6vdpPsIANbqt90HdBMAY1xXu0X3EQCs1bXdB3QTAPM/BAIAIIsA6D5gAa6p3bb7CADW6pfdB3QTAGP8uHbX7iMAWKsfdR/QTQCM8cPuAwBYu/iv/QJgjKu7DwBg7eK/9guAMb7TfQAAa/ft7gO6CYAxvtV9AABrd2X3Ad0EwBhXdB8AwNoJgO4DFuCr3QcAsHZf6T6gmwCYK/DntSO7DwFgLX46vP5LAJTra5fXHtp9CABr8eXuA5ZAAMy+MAQAQIrLug9YAgEwu7T2ku4jAFiLS7sPWAIBMPMPA0COz3UfsAQCYPa92tdrx3UfAsBKTa/+/0H3EUsgAHa5YAgAgJ3ugu4DlkIA7HJh7dTuIwBYqQu7D1gKAbDLxbWf1W7TfQgAK/GT2iXdRyyFANjl2tr5tWd3HwLASnyodl33EUshAHZ37hAAADvVud0HLIkA2N3Ha1fV7tx9CADb6vu1T3QfsSQCYHe/rr239sruQwDYVv9S+033EUsiAG7o7Noraod1HwLAtpie+XJ29xFLIwBu6Btj/lXASd2HALAtPlq7ovuIpREAe/aWIQAAdoq3dB+wRAJgzz5Z+1Lt/t2HAHBIpqe9fqb7iCUSAHv3hjG/ZxSAzfX67gOWSgDs3Xm1L9Ye2HwHAAfn82P+/T97IAD27TXDgyMANtVrug9YMgGwbxduzQsCATbLh8f8ei72QgDcuJfV/nz4ewWwKabP+z+t+4il803txn2tdlbt9OY7ANg/09v+vtl9xNIJgP1zRu0ZtXt2HwLAPk0f5nZm9xGbQADsn2tqL6xd1H0IAHs1feTvC2q/6j5kEwiA/Tc9RerttRd1HwLAHp1V+3TzDRtDAByY6SFBj66d0H0IALv5z9qruo/YJALgwEw/VnrmmD9c4pbNtwAw++/as2rXdh+ySQTAgfty7fm193UfAsDv/VXtq91HbBoBcHDeX3tw7aXNdwCkm97y92/dR2wiAXDwps8FOLb2pO5DAEKdV/u77iM2lQA4eL8d8+sBLqk9oPkWgDSX1f6i9rvuQzaVADg0v6g9YcwRcFzzLQAppt/3Tz99vab7kE0mAA7dVbXH1D5bO7r3FIAd78raY2tXdx+y6QTA9vjumCNgevLU0b2nAOxY0zf/6Wvt97oP2QkEwPa5ovbwMUeAXwcAbK/pwWzTk1l9898mAmB7TT8JeETto7UHNt8CsFN8ofbE4cf+20oAbL/pNQGPrJ0zvEUQ4FCdN+ZX+3vB3zYTAKsxvTvgabU3117WewrAxpo+5Gd6n7+3+q2AAFid6XMCXj7mH12dPTw7AGB/TZ/t/9e1f+0+ZCcTAKv3gTE/P2D6z/s23wKwdNNT/aYH+/hs/xUTAOtx+ZifHfCm2otrh/WeA7A419fOGvMjfT3Vbw0EwPpMjxI+tXZ+7V21e/WeA7AY36i9oPbp5juiCID1+1TtxNo/jPkFgjdvvQagz3VjfqHfmWP+QxJrJAB6/HLMr2x9T+2tY35/K0CSD9dOq32z+5BUAqDXf435swIeV3vjmF8nALCT/Uft1WP+1FQaCYBl+PetPbl2xvApgsDOM70l+vVj/qRUFkAALMtHtvao2um1k4d3DACba3pl//QNf/o9/2eab+H/EQDLdPHWjq09r/bc2l06DwI4AN+v/XPt3WN+UBoLJACWbXpxzPSe2NeO+XUCp9SeWrtd400Ae/KT2odq59Y+UftN6zXcKAGwGaZ/kT62tcPH/LChk7d2fONdQLav1C6oXVi7ZMxv62NDCIDNM/0LdtHWpmcN3LX2Z7WH1R4y5s8YuE3bdcBO9dMxf6z5ZbVLa5+r/aD1Ig6JANh80+/aPri1P7hH7T61Y7Y2/d9H1e5Yu8OYH0w0/SThiNpN13kssCjTQ8uu3dr0+SQ/qv2wdnXt27Urtzb9Sf87TTeyIv8DfbZ/x6E74TgAAAAASUVORK5CYII=;" parent="BBr_kO0epK2awAqt_GIn-1" vertex="1">
            <mxGeometry width="140" height="140" as="geometry" />
          </mxCell>
        </UserObject>
        <mxCell id="BBr_kO0epK2awAqt_GIn-3" value="" style="shape=image;verticalLabelPosition=bottom;labelBackgroundColor=#ffffff;verticalAlign=top;aspect=fixed;imageAspect=0;image=data:image/png,iVBORw0KGgoAAAANSUhEUgAAASwAAAEsCAYAAAB5fY51AAAABHNCSVQICAgIfAhkiAAAIABJREFUeJztnXdgHNW1/7/n3JmV5O5gwDbuRaIkJICKDYTyCAlpj07yUkjy0gMPHiGAcdGiYgOBhBTyCKQ+8tIIIaH8UiGEbmklCCEUW+7GDQOuKrsz957fH7NrZFm2JWulmdm9nz8w2pnd+Wp356tzzz33XILF0oN5z06axR6qmZyZAkxTpMoE7DJzgoBhIjQcJMMgGAagDEJlRFImgBChBEIOAIDEF0GaAAKoA5AuAToJ6BRQO0TaAXQImTTE+Fp0pwBrIP5K46L5phNfXRHqG2GJHBS2AMvQ89XUxMmulnMcLp3kkDMGRFMIOFaExoOIGMIgckTgsiImAgTI/idAcg9kH9tzSLA3tNc/2f8hEO19DmVf02gxRPAg4huQgYiAZDOAlwSyVht/hy9dr6eN99S35r7+bL7eE0s8sIZV4Fz68MTDpowprWGhcwh8JohLiagUgiOUSwkgMAoxyLkQgH0NakihHl9MIhBjj8lpTwxIXhNBu0AyJCZlYP64YfuOx3989hsbw5BsGRqsYRUYC5onf4rJ/RCTeyQI0xzFk4nfMqVcZCSC8AwpDxBn/0XWzDj4/bRv1gmwRsTborX/4OI5634WrlJLPrGGFWOubZo1KUHpLzCXTCGoE4lwDEDMHNzOIhJETkVEEIkFY1gjYgAxEKwRkZQv6TbHMXfWnbjeRmExxRpWzLi2acJ5Zc7If4PgHIDHEHC4cijI/xiJddQ0KFBgYMyA9gUCbAXMNkD+1OXv/ttNczbeT/Y2iA32k4oBC1IzP6KIv0Lgo5TimcSA0QBEuqedLH2AKPgPq+wQ0shqiF6v4X+3sXL1vWHrsxwYa1iRRLCwefqtihPvIOLTlKJSkeIc4g02uSEkEeD7xoPI01q85sbqVdfa2yN62E8kIgjuwYLma652qeQcEFURaDQ7BNE2ihoqiABigtECgewQMf/SxnugsWb11+2wMRrYTyFk/tD2/lFLt6/4MRNXKYenCGBNKgLkzIsIML5Zq2H+aThzXeOJa18OW1sxYw0rJBa1zLiN4Z7tJvg4MUHC3A73ogkxwByUT/ie/EvrzOMN1asuC1tXMWINawi5tnnip8p4xL8T+L0gjODs8MMSH1gRxAgAaTcGj3eZHb+6uWbz3WHrKhasYQ0B85tnfNol5woiPka5VGp8O+SLO0SBeRktnUakTcP7fmPlqjvC1lXoWMMaRBalpt/MlLjQTfBMowEx1qgKjVyuixXgZ8wKbbyHGqpXXRW2rkLFGlbeEdS2zPoxwzmfFY8JlsRYlyoG3krSy04D//76qrZL7S2WX+y7mScue3LscYeVHnYlQ53PDo+zM33FCxFAiqA9eUNIP7C9c9v3vvPu11vD1lUIWMPKA4tSM+9Q5F6kXBpntJ3tswQQZ/NcntlmxP9dXdXKz4atKe5YwxoAtc0z7lLKvUi5PFZ7NqKy9A4RoByC78tOEf+eusoVnw9bU1yxhnUILGyavkAp9zJmNQGwEZWlb+Ra4hgjW3yTuX1x9erGcBXFD2tY/eD6pikXJVRpHYGPJSabTLccErnvjsA875ndVy+p3vhI2JrigjWsPiC4BzekFv4/J6E+IAa22NOSF1gFrVW15z9UV7X8w/Z2PDj2HToItalZPyVSFynFw61RWQaDoADVdBijf1tfveLSsPVEGWtY++HapqMuGqZGNLDio23Bp2WwyRWgaq2Xe2b3oiXVG+8JW1MUsYbVC8mW2b8m4guY2bFRlWUoYUUwxvii9QN11SsuDFtP1LCG1Y35S6delnBKa5XLR9j1fpbQIEApgtZ40/M7GhbXrP1W2JKigjUsAFc8OWHK2NKRP2Dis0Ck7OyfJQpkdwIyIubhnbu3XXbbmVuLfmPZojesBS0TTnVo1L1K8ZFG200cLBFjT1cI81qn7PzCzZWb7g9bUpgUtWHVtsz+P0XOx0G2+NMSbYKiU4I2+tf1lcs/GraesChKw7r26QnvKysZ9W1FXGHERlWWmEBB51PtmxUdeseVt8zZ/IewJQ01RWdYC1PTki6VXEO2rsoSU3J1W77xbmqsXtUQtp6hpKgMq7Zl9p8UO++z+/lZ4g5lN4j1tf/X+qq294atZ6goCsO6InXk29/GY+5Ximdo3zqVpXBgh6B9vXY37brwGydtKvieWxy2gMFmfvO0K99GYx9la1aWAsT4AqXU1JEy6i8Lmqd+NWw9g01BR1i1LbNuJ6gvMbOtrbIUNMQEiNG++D9qqFz5xbD1DBYFa1jJ1vKnHUfNtRXrlmKBKBgi+p5+pq5y+clh6xkMCs6wvto8sXwkj/idUupYOwtoKUZYEbTWL3d17bj45lO3vBi2nnxSUDmsa56a+K6RNPJh5VizshQvRguUo44pKx3zp2uXHnlm2HryScEY1vzU5I8OLx31hHJ4srHJdUuRY3wBK5403B374PVLj/pk2HryRUEMCRelZnxDUeJyYiTsEpshgnr934Mie/5jGQqIARjxfPG+21C16uqw9QyU2BvWouaZdzrK/SwIyppVnqG3ChRzPwPBX28QfAgMCEYAIREhgkCA3MfABIgEzyIiyv4/E0EBUKSyL5g1MBG7pnMwyH58Wmv/x/XVK74QspwBEWvDqk3N/h834XzZzgQODGKAEPQXJ85+wYmg00YAWSFEW8WY3QbSBZiMEf0qAWuM+FuJZeMIZ8SaZ094Zc1venltAfBH+cCIltTyqR78UVownYHpYDqKhI9gZgWoUgBjCZgA0BSnhJFbjSAmeBFB9jO2n/Mhkdvc1U97t9XXrIhtvVZsDSvZWn6vm1AX+mn7De4PgRkFi2iJAO0LxMhmIbwh4r8OQrND5sHak1Y9EebX49bnjj12h5/+FBOfCvBIAKMATHQT7IoBjJGskcGaWD9wEgQv4/9fXWVbLPNasTSsZEv5g8zqQ7YYtA9kh3TMgPbFALJTRHaKyGMa+iUt7a91+l3PfvuUHf8IW+qB+NSjh48fXyqnOc6IaQ47J5Co0wQoI9Bw5VLCaNht1/oIMaC1/7v6qhUXhK2lv8TOsJIt5fcpR51vm+3tn2BYR9khlIgYWSaQf/iSXk7G/7/GORvawtaYD6TlTizQjVe5qrQSwicRUQVlI0ebDzsA2aaA2tf31VUuj1Xf+FgZVrKl/HeJEuc8L22/iT0hDpZnMAM6I5sM9Got5veNVStvCVvbULKgecY8RepDxGqK49DkIA9m81+94ZYw0l3+b+urll8Utpa+EhvDSraUP6gc9SFbY/UWlGuf64sYko0wpjVjOn+yYu3Ox39zyc43w9YXJgLBvKUTzy11Rn4FoOOYaDwrUkbbCZruBEt5vNgMD2NhWLWp8nuVUheK7Q4KINfATQBIlxAe9f2uJxfXrFkSk48zFOY3TbnG5dKTiei9AA176z0scrKlK8boWCTiI/8NTzbP+p5b5n6l2GcDuw/5vIy0GvEeaahaeV3YuuLIwuYZtzrsnqJcngMJZhyLPd/lJAiZrsy366tX/nfYWg5EpA2rtmXWXa7jfr6Y+1gRA8oheBmzBWKeT/udl90099Wi3+4pH9wDwYupWb8hdk51XB4flHiErSo8lEPwvMyd9VUrvxS2lv0RWcNa2DTjm66TuAKAKsacAzMFtUaQjQb+z3d1vfm/t526raBW3keFLy4dN3u8M/YrAP0Hg48gRVSMw0UiwAi0NplvNVav+lrYenojkoY1v2nCxxJq9E+KcW0gKwIx4HuyWkz63vrq1deGramYWNg8Y4mrEhewQxWiswWqRUR289ZMl7RfelPV+l+HracnkTOsa5vGVw5TYx4lxohiMivi4KMwxrzg68xdi2tW3x6ypKJmftO0S11Vcq1y+DgxxVWUGiyYRvtub8dpt8zd9GzYeroTKcO66plJs0Ylhv9NMU8ulpCcGMESEzHrfOPf1Fi96o6wNVne4vqmqZ9NqNKFBJqWjT6KgmwTwHW7Onef/c13b1wetp4ckTKsZEv5i8pRxxZDrRVREFUZbV7zjf/LxojPzhQ7C5unf11x4lKl+Mg9hagFTnZHnhfrKpe/PWwtOSJjWMnW8qcVq7kFH1kRoBRB+9LhG//njTFv91Fs1KZm/1Cx+gQrKtFFsDyMFUEb81TdSctODVsLEJGOo7UtM//HcQrfrJgJBGjf8/8upnOmNav4UV/V9rmdYib5nn4YgM8qMn/zBwWjBY7Dp9S2zIpETjX0d3t+09SrSpyyW1DA5Qu5li6iZXMaHTfcWLX+zrA1WQbOdc9M/nRpYlg9E08u5N3EiQCI6LTuumZJzdrbQtUS5sWvbhp/7Eg15jFiGleoszCsCKJFNPS99ZVtl4Stx5J/FqVm/4ZJXagKuH6LmGBE3ti1Y/NZ3/y37c+HpSPUIeEIZ/RD7BSmWREFlcNam9UJ0bOsWRUuDVVtFx9X+TJrbdrYoVxL4oJCjEApOmzUyCPvC1NHaG9tbWr2XxzXObsQZwRZEYyRLjH6vrqqto+HrccydNSmZt3N5HyEFSUKMdpSDsH3/L/UVbW9L4zrhxJhLUxNSzqqQM3KIRhtNqZl9+XWrIqP+qoVl/p+51e1MVvYKbxQS/sCVs57FzXPXBjG9Yf8Hb2macJ7R6hR94FoeCElKXO7y2jjL62rbJsbth5L+CRT5Y+zUu8utIR8tqNrR6e346Kb527+41Bee8gjrOFq5HdJcUGZFSuCAF2en77VmpUlR13V8tO0Ti82kM5CKn8QAVjxsDJ39DeH+tpDali1qdm/YKXKC2lsH+SrzOau9O7/bKhedU3YeizRor5q1UJP7/q09uWNQjItowWs+OhkavbPh/K6Q/YOXpca//5hPOYPhbQtU7BlknmhrnLZ8WFrsUQdQbLl6OfcBL/LzxTIDZBNg6TR/p4lJ657ZCguOSQR1mWPjJ9ayqN/Egx+h+KKgwtl9/Xz0v4D1qwsfYNQV7nshHSXdw9RgZQ+ZO9lV8p+/l+Pvm3SUFxySAxr3OhRd+YWjcadbHcFz/Mzd9VVtZ0bth5LvGioXvER7WfuMAJNkVgYNzCC+iw+cuyIcT8eiusN+ls2v3nalQQ+uxDyVrnmZj68+obqlV8MW48lntTXrPyKwFsiBplcH7Q4Y7SAmc+av3T61YN9rUE3LFeVLiAmjvtQMNuyuN3zd1zSULmyMWw9lnhTX7myNm12XihidsY+GS8AETjhlAx6bdagGlYyNfteR9HhcR8KZvtW7czozurFczbdH7YeS2FwY/XGh0SrCq3NtrhHWmIA5dCY2lT5Q4N5nUEzrPnNEy8h5nN1zIeC2bKFLZ3+7nNvrFn3Uth6LIVFXfVLmzPerg8bI1vjHmlpLVDM58xrmvQfg3WNQTMsl0c0MLMT56EgOwStZdNOr/3Um+du+HvYeiyFyY1zNz7Vkd75Xq1lU6yX8whATKpEDbthsC4xKO9ObfOsux3X/WScE+25gtAbTnplQgTahlmKAsENLUdvYMUT437vaO3/tK6y7TN5f+18v6BIMsGsLoxz3oqYINps7fTfPMealWXoILSnO07T2myJc04ruPf5YhmE4VXeDSvZ+osHWPGwuK4VDBrume27ZcfFN9dsDa1RmaU4ueWU9Ss70jsvNsbsiGtOSwRQiocnU+V/yPdr59Ww5jVNuTjhOu+LazhLDGitd0sax91StfmxsPVYipNbTtn0RAZdc4yW3XEtLjVa4Cac9y9YOjmvxdV5fTtKVGmdiem+bUQADLyM7P543anLNoatx1Lc3Fi59pWM7L4kKC4NW82hIQZwnLIl+XzNvL0VC1Izapn4mDhGV9kljr6Gf+uNVRsfCFuPxQIAS6pe/aMv6XoY8eK49tBoARMfu7B52qJ8vWbeDMsh9yvxzU8TtNE/rK9cMT9sJRZLdxqrVi/2xf9RbFdLE6C49Mv5erm8GFZtatYPmenIOG7j7SQIWvu/bahqy9ubarHkk4aqlV822vu9k4ifaYkBmDFhUcvMvGxtlxfDInIuysfrDDWsCF5a/6u+ui2W+i3FQ13VivO9jPlnXGcOGc5H8vM6A2RRatYP3ASNjlt0xcF28W9kXtp9RthaLJa+UFe57J3GmM1xMy0xgJvg0QtTM78/0NcakGFd/uSYdzrsnK+9eCXaiQCjpcszu6+48VMb3whbj8XSVzq9XVcZbbriltLSnsAh98IrHh379oG8zoAM67CSw65ghw6LW5EoEUGLd+uSmld/EbYWi6U/3Dxn46+08W6nmDmWCKBcGjd2xGFXDuR1BmBYAiL33+NWxsAOQRv9TEPVyrxNtVosQ0lD9aprtPGfjttCaaMFIHXeQPqkH7Jh1aZm/zTYZv6Qrz3kBIsyzZa6yuUnh63FYhkIdZVtp2hfNsQpnxX0zOJxydSsHx3qaxyyYRE550mMoqts3irj+522W6ilIMhgd9IYiVU+S4wA7B7ycp1DMqyFzTNuVYpGxyl3RYpgxP/14pp1t4etxWLJBzdWvvojMd59sYuymA5b0Dqt9lCef0iGpdg9L05mxYpgfLOivmrFpWFrsVjySV3Vyo/7nlkZJ9MCAFdKDqkuq9+GtbB52ufdBM+MTb+rYCiI02eOrwpbisUyGNww5rIKMaLjMjQ0WqASfOyC1PRP9ve5/TYsxe7lRvf3WeFBRNDw7ztz7GPbw9ZisQwGNPsKrY2+J05reUUDDtz/7u/z+mVY1zeP/xRBlcclusq2Od7QULniwrC1WCyDSX1V28eMkQ0ck06lYgTMfMx1TeP7labpl2El1MgLlEOlschfEWB843tex6DvlWaxRIGMTjeIiI5DpCUCsENlZWrU+f15Xv+GhMJnxaVQVCmCkHl8ydz1Pw1bi8UyFNxYs+ZOY/QTKiYJeOMLBHR2f57TZ8OqbZ5xOxMNj0N0la25Svtep50VtBQXRBcbX9rjkIAXAZho+MLU9O/09Tl9Nixm98y47ORBTNCif7F47qsbwtZisQwldZXLX9fG/0Wc7lVFJWf0+fy+nNSYevtkKdHrdCb64RUxYIxsqatcNj5sLRZLWNzQUrGFmI6Iw9I55RImTBt92OdGL33zYOf2KcJKI307YvCLA0GYKcjcHbYOiyVMjHg/j82u6wKsXf56n9YXHtSw5J57oIjfZWJQykBMEDFr6ytXXxu2FoslTOqrVn1VRNbEoczBGAGTOqEvXRwOalgLpl57jXJ4ShxCSyLA1+mbwtZhsUSBtM40Rj/MyG0HxlPnN0+7+mDnHtSwXFXy/jjMDDITtDEvLq5ZO+A2rBZLIXBjzeofGWNeiMM6QwHgouScg53XlxzWiXGobCcFaN357bB1WCxRQhvvjjhsxCpaQEyVBzvvgL/KwuZptxKi30aGFcH3ZVlj9bofhK3FYokSjdWr7vC96OeyRAAiGr0oNfXmA513QMNyuOSEOLRhFS1idOZ3YeuwWKKIlvSvRaIedgCkiBilJx7onIMEi3Rq1LuKEgMG8lpD9arrw9ZisUSRxqrV80RkU9SHhqIFIHr3gc7Z769Q2zr5I8qhRNR9WTkEwPwybB0WS5TRxvuFivhoSQRwHCpJtkw9b3/n7NewyJR+OepmRQz4ntm8Kb3Ftj22WA7ANr3tbu2ZLZGPsgQQSey3T9Z+5AuI1eSoD3uZCUbrprtO2bkybC0WS5S5fe62F4yR1qivMRQREHjS/o73aljXLZ14LjPNiHqxKDEw/siyz4Stw2KJA26p/hJHPcIygFI889qlR/x7b8d7lV/qjjwr6qEjK4KX0a1fmfrCtrC1WCxxYOE7Vq73MiYV9UJSUkCpGnVGb8d6tyXB+6Let91ogRH/sbB1WCxxQoz3cNSbcIoGAPWB3o7tY7XXPTlhSmnp6BYmHB7VFBYRICIdN1QuGx62FoslbtS1VnQAVBbp+xvy2qiMOuarc1/aq+XMPhGW6zifI0TXrIBgOCiQP4etw2KJI0bwWJSHhSIAhI54g3Zd2fPYPoalnNLpUa/X0FqMZ7qawtZhscQRT7oe9/0ohyRBfaXjlk3r+XgvOSyuNBGeHSQGILJ5SfXaA645slgsvbOkas2NgGyM8sSaGABCJ/V8vDfJs6Ncf0VMMDAv9LG7s8Vi2QeCEfNclGuyjAiIUNHz8b0Ma0HLtE8REUW5tSoRkPZ33xG2Doslzvhm948iXZMlAEC8qGXqx7o/vJdkFv4Qc3QDRWLA92X9TXM23h+2Foslzry8cfcTOhPtBdFMxDDq3L0e2/sE58ihldQ/iAhi9Dqyw0GLZUD8/vxdbxjo1RTlDQwJYHb22v1qb38lmhbl/JUIYEg/GLYOi6UQ0GJ+H+HbPbuukKZ1f2yPvX7q/x0+ftZR4zZpP8K/AYAbKl+J8J8EiyVe1LUebQSIbN6aHULba28e+bP3bnkN6BZhTT585MlRHs9mZzReCVuHxVJIiMiyKA8LmYEpo0bM3fPzWwfoPVHuzsAK0KKfDVuHxVJIGMjzUZ4tFAM4Lr0n9/MeqST87siOZwnQvvG17vpX2FIslkJC685XtB/dUEUEEEOn535+y1uJy6KacCcAIth1ds2M74StxWIpJKZ0HHE7keyI6qhQRMDEZbmfGQCueGrs2wEaFp6sg0AAAZ1n0mPtYUuxWAqJL57Z+roR2RXtSiEaduWTEyuArGENUyWnAXJERAMsMBOExPa+slgGBXk8qvsWSjCFeXipa84AsoaluOxIx2UV1anNoMLd/0fYOiyWQsRAvxjZCgEB2GXXQckEAHAAwGFnTLiqDgABvid+Bu3rw5ZisRQiaa9jk5JEpPsJOCoxGshGWCI8NarDQQoy7hu7OrwnwtZisRQiu3zzBDHWRzXKCryJpgBZwyKSY6M6sUkgiMjO75755qtha7FYCpE73v3aKiOyPbJrdA0AwbHAnrIGOgKRDbEAkOwMW4bFUsgIzLao+pWIAEQTgLcMK6LBYKBMxNjhoMUymBjTFF0XAHIexQ3/mjWTSSIrlQgYNazk7rB1WCyFjLj0/6JaPAoADOHGZ6dP5a6OrjkAOREdEAJE+NpxL70UtgyLpZBpOKHtMUTUsQJvImd3l3cyg5yZInCjWoPlpyM6G2CxFBQU3GtR9CwBBHAdpWYwCaaxiuboNVAl68LWYbEUCSsiGmSBFTExT2MmVRpVkdn9MDaFrcNiKQYE2BrV3ljBbtA8nAXsRnQ0mGNb2AIsluLA7Apbwf4QAEzsMDMnopq/CsbTuitsGRZLUSDSFckcVhYSLmECottWBoAR44etwWIpBgx0JrLBiwBglLEIDQ9by/4QLRCYrWHrsFiKAsGrRkfVsQCIDGdAhkd1VQ4ADSMbwhZhsRQDRvRaEPwoDguzC6CHMyBliGIcSIAItIFeHbYUi6UoUHoLBBEtfBQQqIwJVBZRvwIAo5jXhqvEYikOxJfNoIgalgBCUsZCVHbws8NBCMJEb4Stw2IpBlyl1gpEIjgiBACwUClDpDSCARYAgETkXSdN2xy2DoulGHipau0qkiiOt4KklQFKmQiR7eUOAOfT37eHrcFiKQZ+E7aAgyHiMAlU2Dr2B0VyNsBiKVwie88JQESKTXYjiigSzeyfxVK4RPqeI3Ei2aXBYrFYeiICYQYiu/TFuqnFMrREdD/V3O7vaRaCDlvL/pBothOzWAqSewCIRPOey4rKsAh0NCVaLJahZHPbCYeHreEgZBhEXVH1KyGiG587elrYOiyWYmB7+xtHUFQ7+AVkmEQ6w1bRG4Jg2Lrb3z4tbC0WSzHQqfG2yKZhCBCQx0LojKhEQMCMxPiwZVgsxYBjnKkQcDQLsQAipJkEnVE1VRBYRB0ZtgyLpRgwoqdFdeVLMFKVnSyg9kiOWgWAwCHwtLClWCzFAIEmAdFd+QLBboZIe9g69gcrAgiTwtZhsRQDBGccqShGLwEC6WAwOsIWsl8IYKhE2DIslmKAiCO7TC9o6ClpFjHpqKawgrE0lYYtw2IpBoi4JIr5qxwC8Rhi/Kj6FQAQY0TYGiyWImFs2AL2R+BRYthAd0R1EwoRgQhFvfrWYikMBBMlomZgtMCIeZONmLVGSyS7SogADJoVtg6LpRhgpsmRdAICjIgH8V9ksFlJBC+SeSwBVAlHtqeYxVJIqEQ0+6MQAAj5YP1PZlATRKKbxxJB47Plp4Utw2IpZBa/MP14RHQ4CABE0IurNjzNjZXrVxpQFANBAMGwMO2ZD4atw2IpZNKd6tII+xUk220qGwNGcuQKIFBGjJqwdVgshQ2dHFkXIAAwnUC2qSdBtiCS63OQbT7vvC1sGRZLIUOKRkY1VUxEIMEaIGtYArxE0cy3QSBgwpjLm0ZPD1uLxVKIXPb0mKkAjY7oloQgAoTMy0DWsIzIusgGWAYQocnDTJlNvFssg0AZJU4JarDCVrIfCBBjNgJ7DMuP9GalToJQooZNCFuHxVKIlDnDJrkJjmRbGQAQDWSQ3gFkDcsznVu0L34ka7GQTbxDHRu2DoulEGFOnBjVhDsFRaPbjfHeGhJ6LI+JYGtUh4XGCIjo9LB1WCwFieA0YyIaXgVdGnZ8fc6WB4CsYd1WveVFQKLbZkYAMI28R94zOmwpFkshccvzM44AqDSqw8GgpkEyueXPb80NiumM6oYZ2TWFo/7Rsvy/w9ZisRQS27u8zxFhZFT9igiAkU25n/cYlhCeiKhfAQBYkXKo9JiwdVgshYTi0rcrh52oRljEgCH/wdzPewxLk/5rVGuxAMAYgMDHh63DYikkiPlEE9m93wPD8jzzSO7nPRa1Zfvup6M6UwAEvbEIsBGWxZJHSKhCIppwJwK8Lum86eS1z+Ue22NYPzzrtS3aN+siG2UJQExYmJp5TdhSLJZCYGFq6vXE0c0DEROIZFn3x/ayJwHWRDXxDgSOq4jPC1uHxVIIMBIfjPDtHjTug7zR/aG9DUu8LVFNvgHBsJChpl98zyi7GNpiGQACAUFNiWpLZAAQLZBswWiOvQxLa/+yur91AAAd00lEQVRBI9HNZIkBVIImzJo6yq4rtFgGwMKlU851EhFtiQzkyq704aXq5u4P72VYi+es+xkgJqpLdIBgtjDBZZ8JW4fFEmeUKrsswsFVUC4Kab/i+BWvdn983xS7YDlHeGArRgDik2yfd4vlUBEw0XFRnR0EgoS7iCzt+fg+hiUwz0Z2phC53qg0cUHzlHlha7FY4siC5inzBDQhssNBBPVXWvTKno/vY02en1mt/eg6LwA4DpGjhtk8lsVyCLg0bK7jRHcYRQRoTzq06WjteWwfw3IT5vuC6HZuAIJNFRk4I2wdFkscEeBsoyMclBAgYnbeWLPpRz0P7WNYdSeu3wiYbZHt8Y5gMbQIlS1MTb8pbC0WS5xY1DLjNmIqi3TCnQggLO/tWK/ZKhHzZ1aDK2qgsCIoSvxb2DoslihxQ2vFXxekppy8v+Ms7ukc4ep2AGAFCPS9vR7r7cGOTPsjUV4QCQTDQjfBVY3/mH1U2FosliiQbK1odkvUe1gSX+7teMNTs2a6peqEKA8HiQA/I7u3db2W6u14r4Z16ymb7hdtVkV5thAIarIyHn4Qtg6LJWxuaK1oUsxV2hMw86zezvFLqF4ibFZAtpwBsvK7p+7ap6QB2I9hAYCBWR/ldYVAUJNFzCde8dTYt4etxWIJi2RLxcOOy9VGS3BPgGclk/ve21r8l6JcFJ7DiP/i/o7t37DIvz3ifgUxgOvykWNK3nZp2FosljC4obX8KTfBZ/mZIHISAdwSHuedM/V9Pc9trFq1eMgF9hNioKFqxcf3d3y/htVYufperaUr6qalfQHD2e8vaLEUKsmWihSzOjlnVjmC/K770X2fQfA90xbVljLEgPHNehwgDDxglkpEniIVzV8uR67yfVFq+s0HO9diKRSSLRWPOQ5X9pZANwaA8NzenidiVkU1CCEmGDHPHOicAxqW72eeMxGvegcAZgJTycVh67BYhoJkqvzvboJP2++KFBEAPOZrS99W0/OQNpmloiNYhUWA0dLV5bX/8UCnHdCwFs9ZdY2I7IiqI+cwRuC4NH1hauplYWuxWAaTZEtFykmo03sOA7sjAiiHDi+hkR/qeWxxzZobBPCidk9TsP/gGzfP3fjTA513kMIFAmBaozrm7Y4YQFHpF8PWYbEMFsmWimeU4krtHTxAIgAOJcp7OyKQtVFbycKKADF/Puh5BzvBh//HiP1uvWK0gJnfcX3T9M+GrcViyTfJloqH3QTP6WvRZ7BbOu+nQYB5KlIrWQgwvuhO3f7kwU49qGE1Vl16a6Q3p+gGAUgod1HYOiyWfJJsqVjavXShTwS7pY9pfPaYqT0Ppf2u5b4XnTwWE8GILP/6nI0/Oei5BzuBUAcD3Rr19UdA8FeFiacuapl5W9haLJZ8kGytaFaKa/plVsjm3YHStJ++tuexUaOH30UkW6IShLADCPxe1w7uc25fTho+Ql0ehwpZAAABipyPhS3DYhkoyVT5o47DVYe69o8VgcndJ481/5hX3hCRNykKNzUBOmO8+sqVtX05vU+Gdd3Ryzb6nnmRI16TBQTJd2Y+YlHLzDvD1mKxHCrJlorH3RJ1Rl8S7PtDtICI3tXrMdEPUgTyWKwIGuaguas95/f1RG3Sf49yD+juiBEouJ9Y8vLRh4WtxWLpL8mWipTj8Lv7OwzsiQjglPC4e3rZ/6Dd63g09BbJBIgWbfz0L/v6lD4bVmP1msuNSHscZgyzdSjD0u36N2FrsVj6Q7K14knlcGW+2pSLEbyQmvmNno9/4+RNfzY63Mk0IsCIvN44Z12fO670T67gEXZi4FgAtBYwqdOub5psa7MssSDZUvGI6/Ip+VxdIgYgcs7q9ZiYjWF2ZGFFEPF/36/n9OfkTn/HfdqL/oJoAIAARKQSapgtc7BEnmRrRbOb4H8b6DCwJ8Fu6Xz4ZU+OPa7nMQP/4bCKG4gA35OtHZt292sNcL8M6+tzN/+vQJbFofIdyJY5MB+VTM3q8xjZYhlqki0VzYq5Kt9mBWQnoRRNHO0MP6PnsYaqVYvC2t8ziK7007f++5bV/Xpefy9kTOb2SFXJHgwREDuXSNt3nLClWCw9yVawH3LpQl8gBhynbJ8ICyCIyOYhz2NR0Baq0+zeJ7d2MPottaF69Q/9jFkRlyhLBGAmrtv+vWVha7FYupNs2bv53mBhNMDg9/d2TCBPDXVRODNBYJbeUrPpiX4/91AuaCTz21jksbIYLVAuz6hNzf5F2FosFiAoXVDOvs33BgURCDA2+UrFxJ6HfD+9MoyNk32d/s6hPO+QDKu+avU8rc22qJT29wWjBUTqgvlLp3whbC2W4ibZUvG443DlUPWaEwEYNMrfmf6vnscMeT8CZPtQBSCsCFrL8sU1aw8pr3zIlmOMuT8uw0IgW5ulqCThDEuGrcVSvNzQWv6om+B3D3VUww6RInd2z8dvrN64XCA7hqrdjNYivu76+aE+/5ANq6F6+WfEN1vjFmWxQxOTLeUHbMNqsQwG2WHgGUMyDOxB0BhA9do2GYI/DcVEGisCyLQtrllTf8ivceiXJxjo++PQxaE7xhcopeYsaplxS9haLMXDDf1ovjcYBGtsaWJvZQwZ6Xx+qJbpaO3/eCDPH1B8tC39xre1L6/HKQEPBMsVGIn/mvfMJLvbjmXQSbZUPOz0o/neYLKodfo+XRF2tO98xhgzqOUNxAStzcrG6lUD2ixmQBK/c8q2fwm8+5QbL8fK5bNKE8NvDatwzlIcJFvKnxmK0oU+QQCJe07Ph//nzB3/MCJbBnOZjpMgaJ0e8KhmwJ5aV7nyi35GtscplwXsaak8/oaWo58PW4ulMAma76k5kTArZJfpkJrQ2x9pgjw2WPcwK0KmyyxvrFkz4JZPeZGojddbB4vIY7TASfDxtalZ/VqAabEcjIE23xsMsnmsadcsnfCBnsfOqFx+5aDM+gfbdxnfdOalP11eDKuheuUXjZhNcSpzyOFnBI5yz7UN/yz5ItlS/thAm+8NFsRAmRpxcs/HzwRBp/W2fI8Kg6af5h+Lq9d+My+vl48XAQAt3nfj0uCvJyICB85nFqamLwhbiyXeBM331GlRGQb2RDQA8AW9HTMirfnc6Z2CNYPptN/+rXy9Zt4Mq7Fq9Y0C83wc2ij3JNgol1yHSmqvWzrh3LD1WOJJvpvvDQYCATONFbl4n8orA2+F5HEIG+w1qJ+5cc6Gn+XtNfP1QgDgof0qCBCF3vb9RQxAjESpM+rn81uPOj5sPZZ4kWwpfzjfzfcGAzEAhI6Y3/T0NT2PMeMOAfLS7y4bXWVAdPHAX+0t8mpYSyo3PKqN/n3ciklziAEU8/CEGfHEtUuPOjNsPZZ4kGypaHYTKhqlC31AucSuM2yf3XTqTlr9TxHZmY+Ag5hgRP+krnL56wN/tbfI+0RmXeWy842W3XErJs1hjIAVjypzRvzy6qcnHB22Hku0SbZUNCs1OM33BgujAQKd0utBkscHGnAwE4wxr9ZXtX1pQC/U22vn+wUBgjb63jjOGOYwRqAUHznCHf03W1hq2R/J1vJBb743GIgIAJre2zGtvZcH9OIEGCPGk67vDeh19sOglIo1VLd9RmvzShwT8DmCHlo0Idly9OarnhxfGbYeS7RIpmY/6brxGQbuRdBuxlnYtO+seLvufGQgy+2UIhgxTy2uXHvTQGX2xqDVp6f93QtFGy+uQ0Mgt1CajxxdOvqP1zwz/vSw9ViiQbKlIqVc55RYmlUWUkRKOe/u+fhtczc/JjDbDqXdTDbRvrsjs/26vIjshUEzrJvmbPitEXN/XLYF2x9GC4h53HBn9O+vbZo1KWw9lnBJtpQPafO9wSIYFappvR/UKT4EZ2BF0OLfdesprw1a+6ZBXQFYV9V2se/J1jjns4BsdweHxwxTzsvzl07+aNh6LOGQbKn4m5tQQ958bzAQI3AUVfSWoxX4/9ffdA4rgu/L8oaqFVfnS2Ov1xnMFwcAX3fUQ0THsTarO0GkhRElzrC7a1tmLAlbj2VoSbZWNDsunxnnYeA+EFDbMmsfg6mvWvtHvx/LdIgArU17h379c/mW2JNBN6zFNetuN6IfjnMCPocYAESuosS1i1pm2bWHRUKypXypYq6K4trAgSAGIKFLej3Wn/1HiWDE/OyWmtf7vQtOfxmSpjCvdbR/XmuzJe5DQyA79geUQ+4XkqnZvwlZjmWQSbaUP+wmVE3cShf6gogA5Bze27DQiF7dl4oeVgRj9PKGqrYvD4LEfa83FBe547SN6z2v45MQieWynZ6IBB+2W+JclGw5+p/y4r7rsizxJ9lS/nScKtj7iwjAhCnzlk7cZycpV3GDmANvZE8EiJZ0XeWyisFTuTdD1nZvyZz1fzVG/yKuy3Z6w88IlKJ33ND1wpbrnpn0sbD1WPJHtvne3EI1KwBBPZZDqkQN38dwFp3Y9rIhHHjFCgHaZG4fyihkSPuE1lW1fVwbs6wQ8lk5jBYoosPK3BE/qk3NaAxbj2XgJFuj13xvsAjysryfGkNZur80TjAUNI/XV6/62uCp6+W6Q3kxAOjo2nmFaNMe54LSnhgjIEKpUiULkqnZS8PWYzl0ki3lj7luNJvvDQZBDzveZyE0AGjtLe8teGImGF9v3vl6x/mDLG/faw/1BW85ZdNfPOPdPFQbNw4VIsGHr1ynJtl69Ovzm6bss8uuJdokWyuao9x8bzAQAAwpvX7ppH0ipbTf/iejZWf3W5UIMCJ+p+780m3nvPrmEEoFEIJhAUBj9aoGY/w/q5hXwfeG8YMhYkINu7U2NfvusPVY+kaypfwpxVxVCEWh/UIActh1VVl1z0O3nLzlIRHZ1T3KIiaI+D+9ec76+4dSZo7Q9rqpq2w7R2uzKu5Ld3ojO0RMuK7zyWSqYuWNqdkzwtZk2T/Z0oWTiyFn1SsCEPOs3o/p53N5LOUStNatdZUrPj+U8roT6uZcu15//YPBdveFZ1oigPYFyuEZGVYra1tn2515IkiytbypkEsX+oLRAsfhE3o75hvvQWaAHYL2ZXld5fJQO5eEaljfeN8br6T99GJjRBdYSmsPRgsEgEPOuTe0HL3h+tTUz4StyRKQbKlIKVbVxWxW3VnUOv0TPR/brXe85GVMu/Fld5e3fX4YuroT+vanS+as+bbA/34hDg33ILlOpjSxhEvvSqZmP3rN0qNmhy2rmEm2zH7QcbkSEkzRF+ofzL4iBoBRn+r5+LdP3v44BK/6JtN405zNvw1B2l6EblgAUF+54nLf008XUn1WbwQ5EnIc1zljhDvyhUXNs38StqZipa6y7cPK08d42rtba/0MgG1OgqAcAnHxGVhQ9a6O6u2Yj13/2Vi96uah1tQbkfpYki3l/1KOOi7uvYb6AlEw46K12WLE+3lD1apBbcthOTCnfw8jTqmccrrLJRcI6HQmHs2KxlHQ8heQPetICxMCSODtyLx+wTdPfv2hsOXsj0gZ1tVPT586IuE+ppSaWiwzNsTIDRnX+ybz9cU1q28PW5MFuPrpcaeVOsPPcrhkFkDvJaIRAEpZEURLQZqXkyB0daXnRSWa6o1IGRYAzHt64gmliVGPE2OEmLDVDB3EBGZA++YVrTu/11CzzhpXhEj+c/YMv0tf7ZA7G6AT3VI6TEyQ+xERFMJ3lRVB+/rJuqrl+7ROjgqRMywAmJea/JESGv6/zCgphC9CfyAmsAK0L8u1Tj/QUL16nw0vLVFAsCg162Zm/gCJehsrmkgcbKEFiWcERgwYkS11Jy0bH7aW/RFJwwKARc0zbmFOXMUEFccPf6CwomySXl7T8H/1mr/j9jvnvN4Wti7Lvlz25NjjRiVGnJZQZcdD6BwCxhBoNDtExsQn+spONHR2ebuuvHHOhh+ELKdXImtYALAoNfMO10l8qVjyWb1BDCiH4HtmsxjTNEzxV647cdnGsHUVAouajnonq+HfAWSUQO57e2VbwyV5uCV+svr0MW2vrZnnqJJyIqpUzJNzx6I+fFQOIeNn7mqoXPnFsLX0RqQNCwAWpWZ9o6TE/arvSVHvaUocrJInBrQnz/s6/URD9Wq7wPoQWNg8vV6pxPvchKrOzUjnJj+0b9aJyHKRTKq+evX8fN0itS0zlhCp0yBqouPQdFA081+sCFrrZ+oql58ctpbeiLxhAcCi5tk/c5T6hABFbVo5WBHECIyRThD+nNEdqUTNuiV18fg4Q2FB05RrHVV2JgFnEFEJMVFvkTtxkEfMGlkGkHUG8qhnOtZ5nvf7W0/Z8q+Barn6mcPfP9wZczoxPghRhwEY77hERmfbFof4Hc+WcXh1VcsS4anYP7H5hidbZv1WOe4FxVCj1VeIsrkuX8QAmwHzQpe/639umrPxforPRzsonPe7kYcdd9To05jK/lMRvwugicohNv0pSSCAKDsJ4gkE2AqY10TM7zv9HU/eMnfrnwauVHB9asr8BJXOgvDJBMwkIkWKKNeyaKghgni686LG6rX3DfnFD0KsvtW1qfJ7S8qcC72uCMXQESEXGRABvi/rxeh1IvqhhupVg7JleFRZmJp5DZM6X4GnqQRNMCa46UUw4MglV+xLnFvcbtZCZL3Rmccb5qxekK/baWHztEWK3ZMBNdVx6Rig2/AxD7/HwQj2GPTur69acd7gXqn/xMqwACDZWv4bpdRFRhd3TutAEAeRQe4vtBCWQXSrp73lzPhVY9WaZWFrzAfScifm68YbXFV2NIPfCeDonGkPRW6o+/sMACLmVTHS5COz1jP6l1+vWd8y8KsIFqZmXMVwPsKkjhRgsuOSkpwRB6fklaAeyzxXV7XsxPy+8sCJnWEBwfCQybmgGMsdDoVcbZfxRYvILoF0gsxjxvjPdXntm9PiP/udU7YNODczmHzhybFTxrolZ7hcdpQi51gCnSagkUw0ihUpYyKQ/8lOjGgtgMFOsLxuRB7x/Y7nd/o7m24/decADUwwb+nEL7jO8NkM9R4imiEiZY7DrpjsEqK8/CIABJkXN7824zcfenNDfl40P8TSsACgNjX77kSJ80nbGqR/EAGgvWYcRQSbBLJNYHbCmCeHlcrP5h2/6oXwVAoWPTf7dNLyQQiqiZy3QTCGiSapBFFwcyLSBZrB+xysXgAB2pPXBLJRxH+ivmrFFfm59QQLm6dcSSg5mdk5Rim8g5iyw8eBGbiTIHR2tl+yuGZdpPbejK1hAUBt06xvOiXuVYW6tmuoIAYIFCSZ+a2bTWcMRGSdAJsAbAOkyxitQWarEWzQ2lvtOrzGFXf7O2ZP2nDe2L9v7+0LdTGAE587etpuf/c0MTSRyTlcgGlMahKDEyAqBXgkAYcDmOWU8B4zyg3rojb931+6579YETJdZivEPK/hrTyrcsq8M+mx7fm4Tm3T9IvBzpeJeDyAWW6C3e6zj329T4I8lv/X+qq29+ZDV76ItWEBwKLmWd9TyvkCEZw4f6GjSi5PE/wQ/CNBOYAWgQZgiCAiwa1A9NbEFmefIwISIiKAIGAQGAJnTw+0PTmgoUkqR4HcJIlogQE6YaRDIEu18Vraze6/fmvu1qcGeo2vNY37YJkaXcHgC4l4BgSjlMvDpPtExAH0GSOr6yqXRaq9d+wNCwAWNs+41VWJy0HFt/YwVKh/XyDZ7w/FTW6YTkxBFKRlq4HZLiL/NJL+6T9faH/sgc++sWug17numYmfTrjDTmFR7yCiE4jgEgd/jXItdLprEmBnh37jM1+v3hqZ8oaCMCwAmN888ZIEj/oRKxpRzEt5LPGne/6LFEGndbshvGS0t1rDv2tJ9bpH8nGdBc3TP8zMX1BwJgL0didBiVwZSHZXaGTS6Zsaqlddn4/r5YOCMSwAuK7pqHeWquEPKEdNsQWmlkKBukdfAZ0i0qzFf9GXzqduqtn0y4Fe4/1/GHF45RFHnE3CnyBSRzPROKeER3pd+vEbKpftZ2fooaegDAsArnpm0qxR7rDfK6WOs5GWpRDZY2AAjJHdItIOmOeM6D9v73rzuXTZzKfvqmz1BnKNa5rGX1ymhtUAzqT6yuUfzYvwPFBwhpUj2VrxpOvwKdq3M4iWwqV7/osZ0BlJazJX15+0/HthaxsMIrEJxWBQd9KyUzNe+hsC+IW476HFAuCt0g8BvIykffjfKFSzAgo4wsqxoHnaFS6VLGKXx9m8lqUQUQ5B+2ZjxnQml1Sv+2HYegaTgjcsIOgIeXjZkfcpReXampalUHirW8fy00/6SMWZVBe2okGnKAwrRzI1+0+snPcB8a6atliIg6Gggf+7+soVF4StZ6go2BxWb9RVtZ3j+5lFxkh7oW/aailcsg0ct/vS+Z/FZFZAkUVYOa5dOuHsMjXqW8rhYw+2RMFiiQqUbShoxPxjR2b7F2+bu6U5bE1DTVEaVo7a1Ky7mZxPBivcrWtZogsrgjFijPF/Ul+14nNh6wmLojYsAJj33MT3lPojf8YOj++5nspiCZtckaj2zTro3R+um7Phn2FrCpOiNywAuOzhiYeNGzP850TqbCJiG21ZokB2b8qMMd5v6qtXfMLervYd2IuFqalXOVQ2Xzk0TtsWzJaQIAoWHvue2ZDGzmtuqhz4WsFCwRpWL9Smyh9SzOcQk7LrES1DCTsE8SWtxf9VfdWKT4etJ2oUVVlDX6mvWv6htG7/mNbmFVaU28LbYhk0KHsnak8/2+FtP9+aVe/YW/Eg1LbO+iGL8xHbZ8syKGT762tf3hCkf1hftXpe2JKijDWsPpCEAC0VDzmu+qAYwBqXZcC8tawGAv2Lusq2j4ctKQ5Yw+oHC5ZOPtdRZY3MfByIyM4mWg6FbKW6NmJa0v6uy26as6k1bE1xwRrWIbAwNf16hxKXE9NEAHZdoqVPBF1DRYyYNi3p7zRWrS3YNjCDhTWsAVCbmvl9Rc4lKsFjtW8XVFt6hxhQLsPrMpsMeT9oqFyZDFtTXLGGlQcWBsZ1gePy4UZb47IEEAczzNqY9Vqnf9BYvaYhbE1xxxpWnvjy30ZWHDFy/H+D+ELl8OFirHEVK9mhH4yYtcaYX9ZXf/x6QuH3qhoKrGHlHUFt8+y7mNW5rPgIwM4qFgu5lkXaN+uF/F/VV668NmRJBYc1rEFkYfO0RQ6XXKRcPr4vu+1a4gdRsHcgBNDa/EOj88eNleu+G7auQsUa1hAwr2nSf5Sosq8yqePYoTJjd/KJPd3W+22DmH9mdPs3b5yz8YGwdRU61rCGkOuXjv9kQo28kFidBcGI7Gr8sGVZ+kq2Kl20iJBs00Y/1OXvuOuWuVufCltasWANKyQWNs34puLE2U4JvR0GMDZJH1mICawA7QlE5ElfMn9eXL26MWxdxYg1rJCRIEn/a2ZV4zg8VQCItkPGUKHskC9Y4weBrBDRj9VXtX3O3jLhYt/9yCCY3zTlKlcNey8Bc4hoNCkia15DRy6BbrRkRGSbQP89o9N/v6lm/ffD1mYJsIYVURY0Tb3ZUSXvIvBpyqFSkdwuv9a98gYBTLQnotK+2S4kT3h+x1+X1LxqZ/oiiDWsGFDbOuN8MnwFsTORQOXsAKIBERt99Qt6a+cZVoCfkQwgKwz0spmjhv/Xp8qf3xC2RMuBsYYVM772zJEfHpYYeSaM+gARvY0Eh6sEBZtq2k009iYInoIlMgwYX9JGZDsg64z49+5Iv5H6zqk7Hg1bpqXvWMOKMcmW8nG+7rzcUaVTCXw8CMcDxEzEoGwEVkwzj92GeCICCLQxkiFCq4F+2dddLyypWf9d+7WPL/aTKzAWtUz9mIg6T5FzJIGmscNTmHP5r+yNjODnuEZjRMh+cym7DVYQRXlp7ZHQMkN6qxi9milzZ13Vq0W32WghYw2rwLn04YmHTRlTWsNC5wB8BhOXATQMIkeoBDtA1ry6mRmQ9bIwDI32/VLmuh6AsqarZZdAtgkkDcgOCP5k2P9Lw0mrnwhBsWUIsYZVhFz55MSKMmXOVFwy3lGJ0SCaAoNjQTQBIGYIA+QI4DITE+9rYNL9ge6ps+4mR3v90+3nbq7U7RxjABjjgcgXQbDRmkiGSNYayMsQ86qPzA7fdLXd/Iev3Et1tgNCsWENy7IPN7XMmLLT7zqZyZ0pzNMIPJzBDgElYC6DyHAiGgbQMDFSxoRSIxgOghDIBZBAELN1CeAxkBFCWgSaibpEZJeQ7AbQATFdEGQMxBjonWLMS+zoFxtPevVv9utp6cn/BxDAK8W2rcdMAAAAAElFTkSuQmCC;" parent="BBr_kO0epK2awAqt_GIn-1" vertex="1">
          <mxGeometry x="31.53846153846154" y="31.208791208791208" width="76.92307692307693" height="76.92307692307693" as="geometry" />
        </mxCell>
        <mxCell id="BBr_kO0epK2awAqt_GIn-4" value="" style="endArrow=classic;startArrow=classic;html=1;strokeWidth=4;entryX=0.533;entryY=0.867;entryDx=0;entryDy=0;entryPerimeter=0;" parent="1" edge="1">
          <mxGeometry width="50" height="50" relative="1" as="geometry">
            <mxPoint x="880" y="570" as="sourcePoint" />
            <mxPoint x="880.19" y="392.80999999999995" as="targetPoint" />
          </mxGeometry>
        </mxCell>
        <mxCell id="ys3Dvjy36r9Csz-poOXo-5" value="" style="shape=image;verticalLabelPosition=bottom;labelBackgroundColor=#ffffff;verticalAlign=top;aspect=fixed;imageAspect=0;image=data:image/svg+xml,PHN2ZyB4bWxuczpkYz0iaHR0cDovL3B1cmwub3JnL2RjL2VsZW1lbnRzLzEuMS8iIHhtbG5zOmNjPSJodHRwOi8vY3JlYXRpdmVjb21tb25zLm9yZy9ucyMiIHhtbG5zOnJkZj0iaHR0cDovL3d3dy53My5vcmcvMTk5OS8wMi8yMi1yZGYtc3ludGF4LW5zIyIgeG1sbnM6c3ZnPSJodHRwOi8vd3d3LnczLm9yZy8yMDAwL3N2ZyIgeG1sbnM9Imh0dHA6Ly93d3cudzMub3JnLzIwMDAvc3ZnIiB4bWxuczpzb2RpcG9kaT0iaHR0cDovL3NvZGlwb2RpLnNvdXJjZWZvcmdlLm5ldC9EVEQvc29kaXBvZGktMC5kdGQiIHhtbG5zOmlua3NjYXBlPSJodHRwOi8vd3d3Lmlua3NjYXBlLm9yZy9uYW1lc3BhY2VzL2lua3NjYXBlIiBpZD0iRWJlbmVfMSIgZGF0YS1uYW1lPSJFYmVuZSAxIiB2aWV3Qm94PSIxNTIuODUwMDA2MTAzNTE1NjIgNTMuMjYzNzgyNTAxMjIwNyAyNjYuNDUzMTI1IDQwMy4yMDYyMzc3OTI5Njg3NSIgdmVyc2lvbj0iMS4xIiBzb2RpcG9kaTpkb2NuYW1lPSJxZmllbGRfY2xvdWRfdjA3X3RyYW5zcGFyZW50LnN2ZyIgaW5rc2NhcGU6dmVyc2lvbj0iMC45Mi41ICgyMDYwZWMxZjlmLCAyMDIwLTA0LTA4KSIgd2lkdGg9IjI2Ni40NTMxMjUiIGhlaWdodD0iNDAzLjIwNjIzNzc5Mjk2ODc1Ij4mI3hhOyAgPG1ldGFkYXRhIGlkPSJtZXRhZGF0YTIzIj4mI3hhOyAgICA8cmRmOnJkZj4mI3hhOyAgICAgIDxjYzp3b3JrIHJkZjphYm91dD0iIj4mI3hhOyAgICAgICAgPGRjOmZvcm1hdD5pbWFnZS9zdmcreG1sPC9kYzpmb3JtYXQ+JiN4YTsgICAgICAgIDxkYzp0eXBlIHJkZjpyZXNvdXJjZT0iaHR0cDovL3B1cmwub3JnL2RjL2RjbWl0eXBlL1N0aWxsSW1hZ2UiLz4mI3hhOyAgICAgICAgPGRjOnRpdGxlLz4mI3hhOyAgICAgIDwvY2M6d29yaz4mI3hhOyAgICA8L3JkZjpyZGY+JiN4YTsgIDwvbWV0YWRhdGE+JiN4YTsgIDxzb2RpcG9kaTpuYW1lZHZpZXcgcGFnZWNvbG9yPSIjZmZmZmZmIiBib3JkZXJjb2xvcj0iIzY2NjY2NiIgYm9yZGVyb3BhY2l0eT0iMSIgb2JqZWN0dG9sZXJhbmNlPSIxMCIgZ3JpZHRvbGVyYW5jZT0iMTAiIGd1aWRldG9sZXJhbmNlPSIxMCIgaW5rc2NhcGU6cGFnZW9wYWNpdHk9IjAiIGlua3NjYXBlOnBhZ2VzaGFkb3c9IjIiIGlua3NjYXBlOndpbmRvdy13aWR0aD0iMTkyMCIgaW5rc2NhcGU6d2luZG93LWhlaWdodD0iMTAyOSIgaWQ9Im5hbWVkdmlldzIxIiBzaG93Z3JpZD0iZmFsc2UiIGlua3NjYXBlOnpvb209IjEuODg2ODMwMiIgaW5rc2NhcGU6Y3g9IjM2OC4xNTc5MSIgaW5rc2NhcGU6Y3k9IjIyOS42NjM3NiIgaW5rc2NhcGU6d2luZG93LXg9IjE5MjAiIGlua3NjYXBlOndpbmRvdy15PSIyNyIgaW5rc2NhcGU6d2luZG93LW1heGltaXplZD0iMCIgaW5rc2NhcGU6Y3VycmVudC1sYXllcj0iRWJlbmVfMSIvPiYjeGE7ICA8ZGVmcyBpZD0iZGVmczQiPiYjeGE7ICAgIDxzdHlsZSBpZD0ic3R5bGUyIj4uY2xzLTF7ZmlsbDojZmZmO30uY2xzLTJ7Zm9udC1zaXplOjQ2LjA2cHg7Zm9udC1mYW1pbHk6TGF0by1Cb2xkLCBMYXRvO2ZvbnQtd2VpZ2h0OjcwMDtsZXR0ZXItc3BhY2luZzowLjAyZW07fS5jbHMtMiwuY2xzLTN7ZmlsbDojNGE2ZmFlO308L3N0eWxlPiYjeGE7ICA8L2RlZnM+JiN4YTsgIDx0ZXh0IGNsYXNzPSJjbHMtMiIgdHJhbnNmb3JtPSJ0cmFuc2xhdGUoMTUyLjg1IDQ0Ny40NykiIGlkPSJ0ZXh0OCI+UUZpZWxkQ2xvdWQ8L3RleHQ+JiN4YTsgIDxwYXRoIGNsYXNzPSJjbHMtMyIgZD0iTTI5MS4zNiwyNDkuNDNhMTEuOTIsMTEuOTIsMCwxLDAtMTEuOTEsMTEuOTFBMTEuOTIsMTEuOTIsMCwwLDAsMjkxLjM2LDI0OS40M1oiIHRyYW5zZm9ybT0idHJhbnNsYXRlKC0xMS42OCAtNTIuNjkpIiBpZD0icGF0aDEwIi8+JiN4YTsgIDxwYXRoIGNsYXNzPSJjbHMtMyIgZD0iTTMxMC42NywyNDkuNDNhMTEuOTIsMTEuOTIsMCwxLDAsMTEuOTItMTEuOTJBMTEuOTIsMTEuOTIsMCwwLDAsMzEwLjY3LDI0OS40M1oiIHRyYW5zZm9ybT0idHJhbnNsYXRlKC0xMS42OCAtNTIuNjkpIiBpZD0icGF0aDEyIi8+JiN4YTsgIDxwYXRoIGNsYXNzPSJjbHMtMyIgZD0iTTIxMy40OSwyOTMuNjZhOTQuNTMsOTQuNTMsMCwwLDAsMTQuNCwyNC41Miw5NS44Miw5NS44MiwwLDAsMCw3Mi42NywzNCw5OC4zNCw5OC4zNCwwLDAsMCw2OC42My0yOC4zOCw5NC40NCw5NC40NCwwLDAsMCwyMS42NS0zNi42MiwzLjIsMy4yLDAsMCwwLTQuNjItMy43NSw1My41Nyw1My41NywwLDEsMS0zNy4zNy05OS4xLDMuMiwzLjIsMCwwLDAsMS01Ljg2LDkzLjUsOTMuNSwwLDAsMC0yOS4yMi0xMS41OGMtMy0xMy4zNy03LjUzLTIxLjIxLTExLjYtMjguMTJhMjcwLjUyLDI3MC41MiwwLDAsMC0xNS40NC0yMi4zLDE5LjM0LDE5LjM0LDAsMCwwLTguNDctOC4yM2MtOC00LjEyLTE3LjEtMi41Mi0yMC4yMywzLjU4cy44NSwxNC4zOSw4Ljg5LDE4LjUyYy40Ny4yNC45NC40NiwxLjQyLjY2aDBhMjAuNDEsMjAuNDEsMCwwLDAsNS41MiwxLjQ4LDM3LjgxLDM3LjgxLDAsMCwxLDEzLDcuNzFDMjk4LDE0NC4xNSwzMDYsMTU3LjksMzA3LDE2NS4wNWMtMi0uMTItNC0uMTktNi0uMTlxLTQuMjMsMC04LjQxLjM4Yy04LTEwLjQ5LTE0Ljg3LTE3Ljc4LTIxLjMxLTIzLjE1LTctNS44MS0xNi40NS0xMi4zMi0xOS45LTE0aDBhMTkuNjgsMTkuNjgsMCwwLDAtMTAuNC0yLjgzYy05LDAtMTYuMzYsNS41Ni0xNi4zNiwxMi40MlMyMzIsMTUwLjExLDI0MSwxNTAuMTFhMjIsMjIsMCwwLDAsMy45NC0uMzdoMGwuMDYsMGExOSwxOSwwLDAsMCwzLjgtMS4xMSwxOC41NiwxOC41NiwwLDAsMSw4LjU2LDBjNS42NCwxLjU1LDIyLjIzLDEzLjcsMjAuOCwxOS4wOGE5My43NSw5My43NSwwLDAsMC0yNiwxMC44MywzLjIsMy4yLDAsMCwwLDEsNS44Niw1My41Niw1My41NiwwLDEsMS0zNy4zNiw5OS4xLDMuMiwzLjIsMCwwLDAtNC43NiwyLjU4UTIxMi4xLDI4OS45MiwyMTMuNDksMjkzLjY2WiIgdHJhbnNmb3JtPSJ0cmFuc2xhdGUoLTExLjY4IC01Mi42OSkiIGlkPSJwYXRoMTQiLz4mI3hhOyAgPHBhdGggY2xhc3M9ImNscy0zIiBkPSJNMzUzLjIxLDQyMi40MWMtLjkyLS4xNS01LjY2LS4yNy01LjY2LS4yNy03LjctLjkzLTEwLTE5LjA4LTEwLjU4LTI1LjYxYTU5LjY0LDU5LjY0LDAsMCwwLDExLjgyLTEyLjI0LDExMy41NiwxMTMuNTYsMCwwLDEtOTUuMDkuNjMsNTkuNTUsNTkuNTUsMCwwLDAsMTEuMzcsMTEuNjFjLS41OCw2LjUzLTIuODksMjQuNjgtMTAuNTksMjUuNjEsMCwwLTQuNzQuMTItNS42NS4yNy00LjU1LDEtNy44Myw0LTcuODMsNy41MywwLDQuMzksNS4xMSw3Ljk1LDExLjQyLDcuOTUsMCwwLDEzLjc3LDEuMTcsMTYuNzYtMS4zNXM0LjU1LTQuNzMsNC0xNS44N1MyODIuNjgsNDA2LjQ5LDI4Myw0MDZjNS42OCwxLjgzLDExLjczLDE1LjYzLDE4LDE1LjYzczEyLjMzLTEzLjgsMTgtMTUuNjNjLjMzLjUsMTAuNDMsMy41NCw5Ljg1LDE0LjY4czEsMTMuMzUsNCwxNS44NywxNi43NywxLjM1LDE2Ljc3LDEuMzVjNi4zLDAsMTEuNDEtMy41NiwxMS40MS03Ljk1QzM2MSw0MjYuNDMsMzU3Ljc1LDQyMy40NSwzNTMuMjEsNDIyLjQxWiIgdHJhbnNmb3JtPSJ0cmFuc2xhdGUoLTExLjY4IC01Mi42OSkiIGlkPSJwYXRoMTYiLz4mI3hhOyAgPHBhdGggY2xhc3M9ImNscy0zIiBkPSJNMzc2LjgsMzYyLjE2aDBsLS4wNSwwYTMuNjUsMy42NSwwLDAsMC0uNTQtLjMyYy04LjE4LTUtMTIuNDMtMTAuMjQtMTQuNjMtMTQuMTVhMTAwLjg5LDEwMC44OSwwLDAsMS0xMjEuNDMuNDdjLTIuMjcsMy44Ni02LjUsOC45LTE0LjM2LDEzLjY4YTUuMDksNS4wOSwwLDAsMC0uNTQuMzJsLS4wNSwwaDBhOC43MSw4LjcxLDAsMSwwLDEzLjA4LDkuNmMuNzYtMi4zMywxLjcxLTUuNTUsMy4wOC04Ljc4bDIuMzMsMS4zNWMxNS45NCwxMCwzOC4xMywxNi43MSw1Ni44NywxNi43MSwxOS45MywwLDQxLjY2LTcsNTguMDktMTguMDhsMS40My0xLjIzYTg4LDg4LDAsMCwxLDMuNjUsMTAsOC43MSw4LjcxLDAsMSwwLDEzLjA3LTkuNloiIHRyYW5zZm9ybT0idHJhbnNsYXRlKC0xMS42OCAtNTIuNjkpIiBpZD0icGF0aDE4Ii8+JiN4YTs8L3N2Zz4=;" vertex="1" parent="1">
          <mxGeometry x="970" y="245.64" width="57" height="86.36" as="geometry" />
        </mxCell>
      </root>
    </mxGraphModel>
  </diagram>
</mxfile>
